<svg xmlns="http://www.w3.org/2000/svg" xmlns:xlink="http://www.w3.org/1999/xlink" viewBox="0 0 357.66 37.07"><defs><style>.cls-1{fill:none;}.cls-2{fill:#434149;}.cls-3{fill:#ffdf47;}.cls-4{fill:#fff;}.cls-5{clip-path:url(#clip-path);}.cls-6{fill:#e5e5e5;}</style><clipPath id="clip-path"><polygon class="cls-1" points="125.45 18.79 101.82 14.7 102.02 13.21 125.63 17.29 125.45 18.79"/></clipPath></defs><title>about</title><g id="Layer_2" data-name="Layer 2"><circle class="cls-2" cx="106.68" cy="17.77" r="0.9"/><circle class="cls-2" cx="120.58" cy="20.18" r="0.9"/><path class="cls-3" d="M105,17.82a1.72,1.72,0,1,1,3.38.59v0l10.51,1.82v0a1.71,1.71,0,0,1,3.38.58v0l3.16.55.39-3.5a.65.65,0,0,0-.47-.79l-4.23-.89-1.33-2.55a1.21,1.21,0,0,0-1-.69l.16-1-.92-.16-.16.93-8.11-1.4a.79.79,0,0,0-.76.29l-1.39,1.79s-.74,1.11-2.76.74a6.16,6.16,0,0,1-2.62-.84l-.49,3.93,3.22.56Z"/><rect class="cls-4" x="111.47" y="12.18" width="4.68" height="1.65" transform="translate(3.88 -19.21) rotate(9.81)"/><path class="cls-4" d="M108.47,12.93l1.75.3.28-1.63A2,2,0,0,0,108.47,12.93Z"/><path class="cls-4" d="M119.65,14.86,117,14.41l.28-1.63,1.66.28a.66.66,0,0,1,.52.59Z"/><path d="M106.51,18.39h-.17a1,1,0,0,1-.81-1.15,1,1,0,0,1,.41-.64.94.94,0,0,1,.74-.17,1,1,0,0,1,.81,1.15,1,1,0,0,1-1,.82Zm0-1.79a.78.78,0,0,0-.78.66.8.8,0,0,0,.65.93.82.82,0,0,0,.59-.14.79.79,0,0,0,.33-.52.81.81,0,0,0-.65-.92Z"/><path d="M120.41,20.8l-.17,0a1,1,0,0,1-.81-1.15h0a1,1,0,0,1,1.14-.81,1,1,0,0,1,.65.41,1,1,0,0,1,.16.74A1,1,0,0,1,120.41,20.8Zm-.79-1.13a.8.8,0,1,0,.92-.65.79.79,0,0,0-.92.65Z"/><path d="M125.34,20.76l-3.26-.57v-.06l-.1,0a1.56,1.56,0,0,0-.27-1.2,1.62,1.62,0,0,0-2.92.65h-.09v.06l-10.51-1.82v-.06l-.1,0h0a1.62,1.62,0,1,0-3.19-.55h0l-.1,0v.06l-3.31-.57.53-4.21.14.13a6.25,6.25,0,0,0,2.56.81c1.93.36,2.64-.65,2.67-.7l1.72-2.21h.06l8.48,1.47.16-.93,1.12.19-.17,1a1.31,1.31,0,0,1,.95.74L121,15.37c.41.09,3.62.76,4.18.89a.71.71,0,0,1,.54.9ZM122.2,20l3,.52.38-3.4s.11-.57-.39-.68l-4.23-.9h-.05L119.53,13a1.08,1.08,0,0,0-.9-.64h-.1l.17-1-.73-.12-.16.92-.1,0-8.52-1.47-1.64,2.12s-.8,1.15-2.86.77a7.65,7.65,0,0,1-2.52-.76l-.46,3.68,3,.52a1.8,1.8,0,0,1,2.06-1.34,1.81,1.81,0,0,1,1.5,2l10.33,1.79a1.76,1.76,0,0,1,.71-1,1.81,1.81,0,0,1,2.53.43A1.78,1.78,0,0,1,122.2,20Z"/><path d="M116.05,14.34l-4.8-.83.31-1.83,4.8.83Zm-4.58-1,4.42.76.24-1.44-4.41-.76Z"/><path d="M110.3,13.34l-2-.34,0-.11a2.11,2.11,0,0,1,2.14-1.39l.1,0Zm-1.69-.49,1.53.27.25-1.43A1.87,1.87,0,0,0,108.61,12.85Z"/><path d="M119.77,15l-2.86-.5.31-1.82.1,0L119,13a.75.75,0,0,1,.6.67Zm-2.64-.65,2.41.41-.16-1.08a.54.54,0,0,0-.44-.5l-1.56-.27Z"/><g class="cls-5"><rect class="cls-1" x="125.65" y="13.03" width="1.08" height="0.99" transform="translate(91.36 135.56) rotate(-80.19)"/><rect x="125.72" y="12.97" width="0.54" height="0.49" transform="translate(91.5 135.11) rotate(-80.19)"/><rect class="cls-4" x="126.21" y="13.05" width="0.54" height="0.49" transform="translate(91.82 135.66) rotate(-80.19)"/><rect x="126.12" y="13.58" width="0.54" height="0.49" transform="translate(91.22 136.01) rotate(-80.19)"/><rect class="cls-4" x="125.63" y="13.5" width="0.54" height="0.49" transform="translate(90.9 135.46) rotate(-80.19)"/><rect class="cls-1" x="125.47" y="14.09" width="1.08" height="0.99" transform="translate(90.16 136.26) rotate(-80.19)"/><rect x="125.54" y="14.03" width="0.54" height="0.49" transform="translate(90.3 135.81) rotate(-80.19)"/><rect class="cls-4" x="126.02" y="14.11" width="0.54" height="0.49" transform="translate(90.62 136.36) rotate(-80.19)"/><rect x="125.93" y="14.64" width="0.54" height="0.49" transform="translate(90.02 136.71) rotate(-80.19)"/><rect class="cls-4" x="125.45" y="14.56" width="0.54" height="0.49" transform="translate(89.7 136.16) rotate(-80.19)"/><rect class="cls-1" x="125.28" y="15.15" width="1.08" height="0.99" transform="translate(88.96 136.96) rotate(-80.19)"/><rect x="125.35" y="15.09" width="0.54" height="0.49" transform="translate(89.1 136.51) rotate(-80.19)"/><rect class="cls-4" x="125.84" y="15.17" width="0.54" height="0.49" transform="translate(89.42 137.06) rotate(-80.19)"/><rect x="125.75" y="15.71" width="0.54" height="0.49" transform="translate(88.82 137.41) rotate(-80.19)"/><rect class="cls-4" x="125.26" y="15.62" width="0.54" height="0.49" transform="translate(88.5 136.86) rotate(-80.19)"/><rect class="cls-1" x="125.1" y="16.21" width="1.08" height="0.99" transform="translate(87.76 137.66) rotate(-80.19)"/><rect x="125.17" y="16.15" width="0.54" height="0.49" transform="translate(87.9 137.21) rotate(-80.19)"/><rect class="cls-4" x="125.66" y="16.24" width="0.54" height="0.49" transform="translate(88.22 137.76) rotate(-80.19)"/><rect x="125.56" y="16.77" width="0.54" height="0.49" transform="translate(87.62 138.11) rotate(-80.19)"/><rect class="cls-4" x="125.08" y="16.68" width="0.54" height="0.49" transform="translate(87.3 137.56) rotate(-80.19)"/><rect class="cls-1" x="124.91" y="17.27" width="1.08" height="0.99" transform="translate(86.56 138.36) rotate(-80.19)"/><rect x="124.99" y="17.21" width="0.54" height="0.49" transform="translate(86.7 137.91) rotate(-80.19)"/><rect class="cls-4" x="125.47" y="17.3" width="0.54" height="0.49" transform="translate(87.02 138.46) rotate(-80.19)"/><rect x="125.38" y="17.83" width="0.54" height="0.49" transform="translate(86.42 138.81) rotate(-80.19)"/><rect class="cls-4" x="124.89" y="17.74" width="0.54" height="0.49" transform="translate(86.1 138.26) rotate(-80.19)"/><rect class="cls-1" x="124.73" y="18.34" width="1.08" height="0.99" transform="translate(85.36 139.06) rotate(-80.19)"/><rect x="124.8" y="18.28" width="0.54" height="0.49" transform="translate(85.5 138.61) rotate(-80.19)"/><rect class="cls-4" x="125.29" y="18.36" width="0.54" height="0.49" transform="translate(85.82 139.16) rotate(-80.19)"/><rect x="125.2" y="18.89" width="0.54" height="0.49" transform="translate(85.23 139.51) rotate(-80.19)"/><rect class="cls-4" x="124.71" y="18.81" width="0.54" height="0.49" transform="translate(84.91 138.96) rotate(-80.19)"/><rect class="cls-1" x="124.68" y="12.86" width="1.08" height="0.99" transform="translate(90.72 134.46) rotate(-80.19)"/><rect x="124.75" y="12.8" width="0.54" height="0.49" transform="translate(90.86 134.01) rotate(-80.19)"/><rect class="cls-4" x="125.23" y="12.88" width="0.54" height="0.49" transform="translate(91.18 134.56) rotate(-80.19)"/><rect x="125.14" y="13.41" width="0.54" height="0.49" transform="translate(90.58 134.91) rotate(-80.19)"/><rect class="cls-4" x="124.66" y="13.33" width="0.54" height="0.49" transform="translate(90.26 134.36) rotate(-80.19)"/><rect class="cls-1" x="124.49" y="13.92" width="1.08" height="0.99" transform="translate(89.52 135.16) rotate(-80.19)"/><rect x="124.57" y="13.86" width="0.54" height="0.49" transform="translate(89.66 134.71) rotate(-80.19)"/><rect class="cls-4" x="125.05" y="13.94" width="0.54" height="0.49" transform="translate(89.98 135.26) rotate(-80.19)"/><rect x="124.96" y="14.48" width="0.54" height="0.49" transform="translate(89.38 135.61) rotate(-80.19)"/><rect class="cls-4" x="124.47" y="14.39" width="0.54" height="0.49" transform="translate(89.06 135.06) rotate(-80.19)"/><rect class="cls-1" x="124.31" y="14.98" width="1.08" height="0.99" transform="translate(88.32 135.86) rotate(-80.19)"/><rect x="124.38" y="14.92" width="0.54" height="0.49" transform="translate(88.46 135.41) rotate(-80.19)"/><rect class="cls-4" x="124.87" y="15.01" width="0.54" height="0.49" transform="translate(88.78 135.96) rotate(-80.19)"/><rect x="124.78" y="15.54" width="0.54" height="0.49" transform="translate(88.18 136.31) rotate(-80.19)"/><rect class="cls-4" x="124.29" y="15.45" width="0.54" height="0.49" transform="translate(87.86 135.76) rotate(-80.19)"/><rect class="cls-1" x="124.13" y="16.04" width="1.08" height="0.99" transform="translate(87.12 136.56) rotate(-80.19)"/><rect x="124.2" y="15.98" width="0.54" height="0.49" transform="translate(87.26 136.11) rotate(-80.19)"/><rect class="cls-4" x="124.68" y="16.07" width="0.54" height="0.49" transform="translate(87.58 136.66) rotate(-80.19)"/><rect x="124.59" y="16.6" width="0.54" height="0.49" transform="translate(86.98 137.01) rotate(-80.19)"/><rect class="cls-4" x="124.11" y="16.51" width="0.54" height="0.49" transform="translate(86.66 136.46) rotate(-80.19)"/><rect class="cls-1" x="123.94" y="17.11" width="1.08" height="0.99" transform="translate(85.92 137.26) rotate(-80.19)"/><rect x="124.01" y="17.05" width="0.54" height="0.49" transform="translate(86.06 136.81) rotate(-80.19)"/><rect class="cls-4" x="124.5" y="17.13" width="0.54" height="0.49" transform="translate(86.38 137.36) rotate(-80.19)"/><rect x="124.41" y="17.66" width="0.54" height="0.49" transform="translate(85.78 137.71) rotate(-80.19)"/><rect class="cls-4" x="123.92" y="17.58" width="0.54" height="0.49" transform="translate(85.46 137.16) rotate(-80.19)"/><rect class="cls-1" x="123.76" y="18.17" width="1.08" height="0.99" transform="translate(84.72 137.96) rotate(-80.19)"/><rect x="123.83" y="18.11" width="0.54" height="0.49" transform="translate(84.86 137.51) rotate(-80.19)"/><rect class="cls-4" x="124.32" y="18.19" width="0.54" height="0.49" transform="translate(85.18 138.06) rotate(-80.19)"/><rect x="124.22" y="18.72" width="0.54" height="0.49" transform="translate(84.58 138.41) rotate(-80.19)"/><rect class="cls-4" x="123.74" y="18.64" width="0.54" height="0.49" transform="translate(84.26 137.86) rotate(-80.19)"/><rect class="cls-1" x="123.7" y="12.69" width="1.08" height="0.99" transform="matrix(0.17, -0.99, 0.99, 0.17, 90.07, 133.36)"/><rect x="123.78" y="12.63" width="0.54" height="0.49" transform="translate(90.21 132.91) rotate(-80.19)"/><rect class="cls-4" x="124.26" y="12.72" width="0.54" height="0.49" transform="translate(90.53 133.46) rotate(-80.19)"/><rect x="124.17" y="13.25" width="0.54" height="0.49" transform="translate(89.94 133.81) rotate(-80.19)"/><rect class="cls-4" x="123.68" y="13.16" width="0.54" height="0.49" transform="translate(89.62 133.26) rotate(-80.19)"/><rect class="cls-1" x="123.52" y="13.75" width="1.08" height="0.99" transform="matrix(0.17, -0.99, 0.99, 0.17, 88.88, 134.06)"/><rect x="123.59" y="13.69" width="0.54" height="0.49" transform="translate(89.02 133.61) rotate(-80.19)"/><rect class="cls-4" x="124.08" y="13.78" width="0.54" height="0.49" transform="translate(89.34 134.16) rotate(-80.19)"/><rect x="123.99" y="14.31" width="0.54" height="0.49" transform="translate(88.74 134.51) rotate(-80.19)"/><rect class="cls-4" x="123.5" y="14.22" width="0.54" height="0.49" transform="translate(88.42 133.96) rotate(-80.19)"/><rect class="cls-1" x="123.34" y="14.82" width="1.08" height="0.99" transform="translate(87.68 134.76) rotate(-80.19)"/><rect x="123.41" y="14.75" width="0.54" height="0.49" transform="translate(87.82 134.31) rotate(-80.19)"/><rect class="cls-4" x="123.9" y="14.84" width="0.54" height="0.49" transform="translate(88.14 134.86) rotate(-80.19)"/><rect x="123.8" y="15.37" width="0.54" height="0.49" transform="translate(87.54 135.21) rotate(-80.19)"/><rect class="cls-4" x="123.32" y="15.29" width="0.54" height="0.49" transform="translate(87.22 134.66) rotate(-80.19)"/><rect class="cls-1" x="123.15" y="15.88" width="1.08" height="0.99" transform="matrix(0.17, -0.99, 0.99, 0.17, 86.48, 135.46)"/><rect x="123.23" y="15.82" width="0.54" height="0.49" transform="translate(86.62 135.01) rotate(-80.19)"/><rect class="cls-4" x="123.71" y="15.9" width="0.54" height="0.49" transform="translate(86.94 135.56) rotate(-80.19)"/><rect x="123.62" y="16.43" width="0.54" height="0.49" transform="translate(86.34 135.91) rotate(-80.19)"/><rect class="cls-4" x="123.13" y="16.35" width="0.54" height="0.49" transform="translate(86.02 135.36) rotate(-80.19)"/><rect class="cls-1" x="122.97" y="16.94" width="1.08" height="0.99" transform="translate(85.28 136.16) rotate(-80.19)"/><rect x="123.04" y="16.88" width="0.54" height="0.49" transform="translate(85.42 135.71) rotate(-80.19)"/><rect class="cls-4" x="123.53" y="16.96" width="0.54" height="0.49" transform="translate(85.74 136.26) rotate(-80.19)"/><rect x="123.44" y="17.49" width="0.54" height="0.49" transform="translate(85.14 136.61) rotate(-80.19)"/><rect class="cls-4" x="122.95" y="17.41" width="0.54" height="0.49" transform="translate(84.82 136.06) rotate(-80.19)"/><rect class="cls-1" x="122.79" y="18" width="1.08" height="0.99" transform="translate(84.08 136.86) rotate(-80.19)"/><rect x="122.86" y="17.94" width="0.54" height="0.49" transform="translate(84.22 136.41) rotate(-80.19)"/><rect class="cls-4" x="123.34" y="18.02" width="0.54" height="0.49" transform="translate(84.54 136.96) rotate(-80.19)"/><rect x="123.25" y="18.55" width="0.54" height="0.49" transform="translate(83.94 137.31) rotate(-80.19)"/><rect class="cls-4" x="122.77" y="18.47" width="0.54" height="0.49" transform="translate(83.62 136.76) rotate(-80.19)"/><rect class="cls-1" x="122.73" y="12.52" width="1.08" height="0.99" transform="translate(89.43 132.27) rotate(-80.19)"/><rect x="122.8" y="12.46" width="0.54" height="0.49" transform="translate(89.57 131.82) rotate(-80.19)"/><rect class="cls-4" x="123.29" y="12.55" width="0.54" height="0.49" transform="translate(89.89 132.37) rotate(-80.19)"/><rect x="123.2" y="13.08" width="0.54" height="0.49" transform="translate(89.29 132.71) rotate(-80.19)"/><rect class="cls-4" x="122.71" y="12.99" width="0.54" height="0.49" transform="translate(88.97 132.17) rotate(-80.19)"/><rect class="cls-1" x="122.55" y="13.59" width="1.08" height="0.99" transform="translate(88.24 132.97) rotate(-80.19)"/><rect x="122.62" y="13.52" width="0.54" height="0.49" transform="translate(88.38 132.52) rotate(-80.19)"/><rect class="cls-4" x="123.11" y="13.61" width="0.54" height="0.49" transform="translate(88.7 133.06) rotate(-80.19)"/><rect x="123.01" y="14.14" width="0.54" height="0.49" transform="translate(88.1 133.41) rotate(-80.19)"/><rect class="cls-4" x="122.53" y="14.06" width="0.54" height="0.49" transform="translate(87.78 132.87) rotate(-80.19)"/><rect class="cls-1" x="122.36" y="14.65" width="1.08" height="0.99" transform="translate(87.04 133.66) rotate(-80.19)"/><rect x="122.44" y="14.59" width="0.54" height="0.49" transform="translate(87.18 133.22) rotate(-80.19)"/><rect class="cls-4" x="122.92" y="14.67" width="0.54" height="0.49" transform="translate(87.5 133.76) rotate(-80.19)"/><rect x="122.83" y="15.2" width="0.54" height="0.49" transform="translate(86.9 134.11) rotate(-80.19)"/><rect class="cls-4" x="122.35" y="15.12" width="0.54" height="0.49" transform="translate(86.58 133.57) rotate(-80.19)"/><rect class="cls-1" x="122.18" y="15.71" width="1.08" height="0.99" transform="matrix(0.17, -0.99, 0.99, 0.17, 85.84, 134.36)"/><rect x="122.25" y="15.65" width="0.54" height="0.49" transform="translate(85.98 133.92) rotate(-80.19)"/><rect class="cls-4" x="122.74" y="15.73" width="0.54" height="0.49" transform="translate(86.3 134.46) rotate(-80.19)"/><rect x="122.65" y="16.26" width="0.54" height="0.49" transform="translate(85.7 134.81) rotate(-80.19)"/><rect class="cls-4" x="122.16" y="16.18" width="0.54" height="0.49" transform="translate(85.38 134.27) rotate(-80.19)"/><rect class="cls-1" x="122" y="16.77" width="1.08" height="0.99" transform="translate(84.64 135.06) rotate(-80.19)"/><rect x="122.07" y="16.71" width="0.54" height="0.49" transform="translate(84.78 134.62) rotate(-80.19)"/><rect class="cls-4" x="122.56" y="16.79" width="0.54" height="0.49" transform="translate(85.1 135.16) rotate(-80.19)"/><rect x="122.46" y="17.32" width="0.54" height="0.49" transform="translate(84.5 135.51) rotate(-80.19)"/><rect class="cls-4" x="121.98" y="17.24" width="0.54" height="0.49" transform="translate(84.18 134.96) rotate(-80.19)"/><rect class="cls-1" x="121.81" y="17.83" width="1.08" height="0.99" transform="translate(83.44 135.76) rotate(-80.19)"/><rect x="121.89" y="17.77" width="0.54" height="0.49" transform="translate(83.58 135.31) rotate(-80.19)"/><rect class="cls-4" x="122.37" y="17.85" width="0.54" height="0.49" transform="translate(83.9 135.86) rotate(-80.19)"/><rect x="122.28" y="18.39" width="0.54" height="0.49" transform="translate(83.3 136.21) rotate(-80.19)"/><rect class="cls-4" x="121.79" y="18.3" width="0.54" height="0.49" transform="translate(82.98 135.66) rotate(-80.19)"/><rect class="cls-1" x="121.63" y="18.89" width="1.08" height="0.99" transform="matrix(0.17, -0.99, 0.99, 0.17, 82.24, 136.46)"/><rect x="121.7" y="18.83" width="0.54" height="0.49" transform="translate(82.38 136.01) rotate(-80.19)"/><rect class="cls-4" x="122.19" y="18.92" width="0.54" height="0.49" transform="translate(82.7 136.56) rotate(-80.19)"/><rect x="122.1" y="19.45" width="0.54" height="0.49" transform="translate(82.1 136.91) rotate(-80.19)"/><rect class="cls-4" x="121.61" y="19.36" width="0.54" height="0.49" transform="translate(81.78 136.36) rotate(-80.19)"/><rect class="cls-1" x="121.76" y="12.36" width="1.08" height="0.99" transform="translate(88.79 131.17) rotate(-80.19)"/><rect x="121.83" y="12.29" width="0.54" height="0.49" transform="translate(88.93 130.72) rotate(-80.19)"/><rect class="cls-4" x="122.32" y="12.38" width="0.54" height="0.49" transform="translate(89.25 131.27) rotate(-80.19)"/><rect x="122.23" y="12.91" width="0.54" height="0.49" transform="translate(88.65 131.62) rotate(-80.19)"/><rect class="cls-4" x="121.74" y="12.83" width="0.54" height="0.49" transform="translate(88.33 131.07) rotate(-80.19)"/><rect class="cls-1" x="121.58" y="13.42" width="1.08" height="0.99" transform="matrix(0.17, -0.99, 0.99, 0.17, 87.59, 131.87)"/><rect x="121.65" y="13.36" width="0.54" height="0.49" transform="translate(87.73 131.42) rotate(-80.19)"/><rect class="cls-4" x="122.13" y="13.44" width="0.54" height="0.49" transform="translate(88.05 131.97) rotate(-80.19)"/><rect x="122.04" y="13.97" width="0.54" height="0.49" transform="translate(87.46 132.32) rotate(-80.19)"/><rect class="cls-4" x="121.56" y="13.89" width="0.54" height="0.49" transform="translate(87.14 131.77) rotate(-80.19)"/><rect class="cls-1" x="121.39" y="14.48" width="1.08" height="0.99" transform="matrix(0.17, -0.99, 0.99, 0.17, 86.4, 132.57)"/><rect x="121.46" y="14.42" width="0.54" height="0.49" transform="translate(86.54 132.12) rotate(-80.19)"/><rect class="cls-4" x="121.95" y="14.5" width="0.54" height="0.49" transform="translate(86.86 132.67) rotate(-80.19)"/><rect x="121.86" y="15.03" width="0.54" height="0.49" transform="translate(86.26 133.02) rotate(-80.19)"/><rect class="cls-4" x="121.37" y="14.95" width="0.54" height="0.49" transform="translate(85.94 132.47) rotate(-80.19)"/><rect class="cls-1" x="121.21" y="15.54" width="1.08" height="0.99" transform="translate(85.2 133.27) rotate(-80.19)"/><rect x="121.28" y="15.48" width="0.54" height="0.49" transform="translate(85.34 132.82) rotate(-80.19)"/><rect class="cls-4" x="121.77" y="15.56" width="0.54" height="0.49" transform="translate(85.66 133.37) rotate(-80.19)"/><rect x="121.68" y="16.09" width="0.54" height="0.49" transform="translate(85.06 133.72) rotate(-80.19)"/><rect class="cls-4" x="121.19" y="16.01" width="0.54" height="0.49" transform="translate(84.74 133.17) rotate(-80.19)"/><rect class="cls-1" x="121.03" y="16.6" width="1.08" height="0.99" transform="translate(84 133.97) rotate(-80.19)"/><rect x="121.1" y="16.54" width="0.54" height="0.49" transform="translate(84.14 133.52) rotate(-80.19)"/><rect class="cls-4" x="121.58" y="16.63" width="0.54" height="0.49" transform="translate(84.46 134.07) rotate(-80.19)"/><rect x="121.49" y="17.16" width="0.54" height="0.49" transform="translate(83.86 134.42) rotate(-80.19)"/><rect class="cls-4" x="121.01" y="17.07" width="0.54" height="0.49" transform="translate(83.54 133.87) rotate(-80.19)"/><rect class="cls-1" x="120.84" y="17.66" width="1.08" height="0.99" transform="translate(82.8 134.67) rotate(-80.19)"/><rect x="120.91" y="17.6" width="0.54" height="0.49" transform="translate(82.94 134.22) rotate(-80.19)"/><rect class="cls-4" x="121.4" y="17.69" width="0.54" height="0.49" transform="translate(83.26 134.77) rotate(-80.19)"/><rect x="121.31" y="18.22" width="0.54" height="0.49" transform="translate(82.66 135.12) rotate(-80.19)"/><rect class="cls-4" x="120.82" y="18.13" width="0.54" height="0.49" transform="translate(82.34 134.57) rotate(-80.19)"/><rect class="cls-1" x="120.66" y="18.72" width="1.08" height="0.99" transform="translate(81.6 135.37) rotate(-80.19)"/><rect x="120.73" y="18.66" width="0.54" height="0.49" transform="translate(81.74 134.92) rotate(-80.19)"/><rect class="cls-4" x="121.22" y="18.75" width="0.54" height="0.49" transform="translate(82.06 135.47) rotate(-80.19)"/><rect x="121.12" y="19.28" width="0.54" height="0.49" transform="translate(81.46 135.82) rotate(-80.19)"/><rect class="cls-4" x="120.64" y="19.19" width="0.54" height="0.49" transform="translate(81.14 135.27) rotate(-80.19)"/><rect class="cls-1" x="120.79" y="12.19" width="1.08" height="0.99" transform="translate(88.15 130.07) rotate(-80.19)"/><rect x="120.86" y="12.13" width="0.54" height="0.49" transform="translate(88.29 129.62) rotate(-80.19)"/><rect class="cls-4" x="121.35" y="12.21" width="0.54" height="0.49" transform="translate(88.61 130.17) rotate(-80.19)"/><rect x="121.25" y="12.74" width="0.54" height="0.49" transform="translate(88.01 130.52) rotate(-80.19)"/><rect class="cls-4" x="120.77" y="12.66" width="0.54" height="0.49" transform="translate(87.69 129.97) rotate(-80.19)"/><rect class="cls-1" x="120.6" y="13.25" width="1.08" height="0.99" transform="translate(86.95 130.77) rotate(-80.19)"/><rect x="120.68" y="13.19" width="0.54" height="0.49" transform="translate(87.09 130.32) rotate(-80.19)"/><rect class="cls-4" x="121.16" y="13.27" width="0.54" height="0.49" transform="translate(87.41 130.87) rotate(-80.19)"/><rect x="121.07" y="13.8" width="0.54" height="0.49" transform="translate(86.81 131.22) rotate(-80.19)"/><rect class="cls-4" x="120.58" y="13.72" width="0.54" height="0.49" transform="translate(86.49 130.67) rotate(-80.19)"/><rect class="cls-1" x="120.42" y="14.31" width="1.08" height="0.99" transform="translate(85.76 131.47) rotate(-80.19)"/><rect x="120.49" y="14.25" width="0.54" height="0.49" transform="translate(85.9 131.02) rotate(-80.19)"/><rect class="cls-4" x="120.98" y="14.33" width="0.54" height="0.49" transform="translate(86.22 131.57) rotate(-80.19)"/><rect x="120.89" y="14.86" width="0.54" height="0.49" transform="translate(85.62 131.92) rotate(-80.19)"/><rect class="cls-4" x="120.4" y="14.78" width="0.54" height="0.49" transform="translate(85.3 131.37) rotate(-80.19)"/><rect class="cls-1" x="120.24" y="15.37" width="1.08" height="0.99" transform="matrix(0.17, -0.99, 0.99, 0.17, 84.56, 132.17)"/><rect x="120.31" y="15.31" width="0.54" height="0.49" transform="translate(84.7 131.72) rotate(-80.19)"/><rect class="cls-4" x="120.8" y="15.4" width="0.54" height="0.49" transform="translate(85.02 132.27) rotate(-80.19)"/><rect x="120.7" y="15.93" width="0.54" height="0.49" transform="translate(84.42 132.62) rotate(-80.19)"/><rect class="cls-4" x="120.22" y="15.84" width="0.54" height="0.49" transform="translate(84.1 132.07) rotate(-80.19)"/><rect class="cls-1" x="120.05" y="16.43" width="1.08" height="0.99" transform="translate(83.36 132.87) rotate(-80.19)"/><rect x="120.13" y="16.37" width="0.54" height="0.49" transform="translate(83.5 132.42) rotate(-80.19)"/><rect class="cls-4" x="120.61" y="16.46" width="0.54" height="0.49" transform="translate(83.82 132.97) rotate(-80.19)"/><rect x="120.52" y="16.99" width="0.54" height="0.49" transform="translate(83.22 133.32) rotate(-80.19)"/><rect class="cls-4" x="120.03" y="16.9" width="0.54" height="0.49" transform="translate(82.9 132.77) rotate(-80.19)"/><rect class="cls-1" x="119.87" y="17.5" width="1.08" height="0.99" transform="translate(82.16 133.57) rotate(-80.19)"/><rect x="119.94" y="17.43" width="0.54" height="0.49" transform="translate(82.3 133.12) rotate(-80.19)"/><rect class="cls-4" x="120.43" y="17.52" width="0.54" height="0.49" transform="translate(82.62 133.67) rotate(-80.19)"/><rect x="120.34" y="18.05" width="0.54" height="0.49" transform="translate(82.02 134.02) rotate(-80.19)"/><rect class="cls-4" x="119.85" y="17.97" width="0.54" height="0.49" transform="translate(81.7 133.47) rotate(-80.19)"/><rect class="cls-1" x="119.69" y="18.56" width="1.08" height="0.99" transform="translate(80.96 134.27) rotate(-80.19)"/><rect x="119.76" y="18.5" width="0.54" height="0.49" transform="translate(81.1 133.82) rotate(-80.19)"/><rect class="cls-4" x="120.24" y="18.58" width="0.54" height="0.49" transform="translate(81.42 134.37) rotate(-80.19)"/><rect x="120.15" y="19.11" width="0.54" height="0.49" transform="translate(80.82 134.72) rotate(-80.19)"/><rect class="cls-4" x="119.67" y="19.03" width="0.54" height="0.49" transform="translate(80.5 134.17) rotate(-80.19)"/><rect class="cls-1" x="119.63" y="13.08" width="1.08" height="0.99" transform="translate(86.31 129.67) rotate(-80.19)"/><rect x="119.7" y="13.02" width="0.54" height="0.49" transform="translate(86.45 129.22) rotate(-80.19)"/><rect class="cls-4" x="120.19" y="13.1" width="0.54" height="0.49" transform="translate(86.77 129.77) rotate(-80.19)"/><rect x="120.1" y="13.63" width="0.54" height="0.49" transform="translate(86.17 130.12) rotate(-80.19)"/><rect class="cls-4" x="119.61" y="13.55" width="0.54" height="0.49" transform="translate(85.85 129.57) rotate(-80.19)"/><rect class="cls-1" x="119.45" y="14.14" width="1.08" height="0.99" transform="matrix(0.17, -0.99, 0.99, 0.17, 85.11, 130.37)"/><rect x="119.52" y="14.08" width="0.54" height="0.49" transform="translate(85.25 129.92) rotate(-80.19)"/><rect class="cls-4" x="120.01" y="14.17" width="0.54" height="0.49" transform="translate(85.57 130.47) rotate(-80.19)"/><rect x="119.91" y="14.7" width="0.54" height="0.49" transform="translate(84.98 130.82) rotate(-80.19)"/><rect class="cls-4" x="119.43" y="14.61" width="0.54" height="0.49" transform="translate(84.66 130.27) rotate(-80.19)"/><rect class="cls-1" x="119.26" y="15.2" width="1.08" height="0.99" transform="translate(83.92 131.07) rotate(-80.19)"/><rect x="119.34" y="15.14" width="0.54" height="0.49" transform="translate(84.06 130.62) rotate(-80.19)"/><rect class="cls-4" x="119.82" y="15.23" width="0.54" height="0.49" transform="translate(84.38 131.17) rotate(-80.19)"/><rect x="119.73" y="15.76" width="0.54" height="0.49" transform="translate(83.78 131.52) rotate(-80.19)"/><rect class="cls-4" x="119.25" y="15.67" width="0.54" height="0.49" transform="translate(83.46 130.97) rotate(-80.19)"/><rect class="cls-1" x="119.08" y="16.27" width="1.08" height="0.99" transform="matrix(0.17, -0.99, 0.99, 0.17, 82.72, 131.77)"/><rect x="119.15" y="16.2" width="0.54" height="0.49" transform="translate(82.86 131.32) rotate(-80.19)"/><rect class="cls-4" x="119.64" y="16.29" width="0.54" height="0.49" transform="translate(83.18 131.87) rotate(-80.19)"/><rect x="119.55" y="16.82" width="0.54" height="0.49" transform="translate(82.58 132.22) rotate(-80.19)"/><rect class="cls-4" x="119.06" y="16.74" width="0.54" height="0.49" transform="translate(82.26 131.67) rotate(-80.19)"/><rect class="cls-1" x="118.9" y="17.33" width="1.08" height="0.99" transform="translate(81.52 132.47) rotate(-80.19)"/><rect x="118.97" y="17.27" width="0.54" height="0.49" transform="translate(81.66 132.02) rotate(-80.19)"/><rect class="cls-4" x="119.46" y="17.35" width="0.54" height="0.49" transform="translate(81.98 132.57) rotate(-80.19)"/><rect x="119.36" y="17.88" width="0.54" height="0.49" transform="translate(81.38 132.92) rotate(-80.19)"/><rect class="cls-4" x="118.88" y="17.8" width="0.54" height="0.49" transform="translate(81.06 132.37) rotate(-80.19)"/><rect class="cls-1" x="118.71" y="18.39" width="1.08" height="0.99" transform="translate(80.32 133.17) rotate(-80.19)"/><rect x="118.79" y="18.33" width="0.54" height="0.49" transform="translate(80.46 132.72) rotate(-80.19)"/><rect class="cls-4" x="119.27" y="18.41" width="0.54" height="0.49" transform="translate(80.78 133.27) rotate(-80.19)"/><rect x="119.18" y="18.94" width="0.54" height="0.49" transform="translate(80.18 133.62) rotate(-80.19)"/><rect class="cls-4" x="118.69" y="18.86" width="0.54" height="0.49" transform="translate(79.86 133.07) rotate(-80.19)"/><rect class="cls-1" x="118.66" y="12.91" width="1.08" height="0.99" transform="translate(85.67 128.58) rotate(-80.19)"/><rect x="118.73" y="12.85" width="0.54" height="0.49" transform="translate(85.81 128.13) rotate(-80.19)"/><rect class="cls-4" x="119.22" y="12.94" width="0.54" height="0.49" transform="translate(86.13 128.67) rotate(-80.19)"/><rect x="119.13" y="13.47" width="0.54" height="0.49" transform="translate(85.53 129.02) rotate(-80.19)"/><rect class="cls-4" x="118.64" y="13.38" width="0.54" height="0.49" transform="translate(85.21 128.48) rotate(-80.19)"/><rect class="cls-1" x="118.48" y="13.97" width="1.08" height="0.99" transform="translate(84.47 129.28) rotate(-80.19)"/><rect x="118.55" y="13.91" width="0.54" height="0.49" transform="translate(84.61 128.83) rotate(-80.19)"/><rect class="cls-4" x="119.03" y="14" width="0.54" height="0.49" transform="translate(84.93 129.37) rotate(-80.19)"/><rect x="118.94" y="14.53" width="0.54" height="0.49" transform="translate(84.33 129.72) rotate(-80.19)"/><rect class="cls-4" x="118.46" y="14.44" width="0.54" height="0.49" transform="translate(84.01 129.18) rotate(-80.19)"/><rect class="cls-1" x="118.29" y="15.04" width="1.08" height="0.99" transform="translate(83.28 129.97) rotate(-80.19)"/><rect x="118.36" y="14.97" width="0.54" height="0.49" transform="translate(83.42 129.53) rotate(-80.19)"/><rect class="cls-4" x="118.85" y="15.06" width="0.54" height="0.49" transform="translate(83.74 130.07) rotate(-80.19)"/><rect x="118.76" y="15.59" width="0.54" height="0.49" transform="translate(83.14 130.42) rotate(-80.19)"/><rect class="cls-4" x="118.27" y="15.51" width="0.54" height="0.49" transform="translate(82.82 129.88) rotate(-80.19)"/><rect class="cls-1" x="118.11" y="16.1" width="1.08" height="0.99" transform="translate(82.08 130.67) rotate(-80.19)"/><rect x="118.18" y="16.04" width="0.54" height="0.49" transform="translate(82.22 130.23) rotate(-80.19)"/><rect class="cls-4" x="118.67" y="16.12" width="0.54" height="0.49" transform="translate(82.54 130.77) rotate(-80.19)"/><rect x="118.58" y="16.65" width="0.54" height="0.49" transform="translate(81.94 131.12) rotate(-80.19)"/><rect class="cls-4" x="118.09" y="16.57" width="0.54" height="0.49" transform="translate(81.62 130.57) rotate(-80.19)"/><rect class="cls-1" x="117.93" y="17.16" width="1.08" height="0.99" transform="matrix(0.17, -0.99, 0.99, 0.17, 80.88, 131.37)"/><rect x="118" y="17.1" width="0.54" height="0.49" transform="translate(81.02 130.92) rotate(-80.19)"/><rect class="cls-4" x="118.48" y="17.18" width="0.54" height="0.49" transform="translate(81.34 131.47) rotate(-80.19)"/><rect x="118.39" y="17.71" width="0.54" height="0.49" transform="translate(80.74 131.82) rotate(-80.19)"/><rect class="cls-4" x="117.91" y="17.63" width="0.54" height="0.49" transform="translate(80.42 131.27) rotate(-80.19)"/><rect class="cls-1" x="117.74" y="18.22" width="1.08" height="0.99" transform="matrix(0.17, -0.99, 0.99, 0.17, 79.68, 132.07)"/><rect x="117.81" y="18.16" width="0.54" height="0.49" transform="translate(79.82 131.62) rotate(-80.19)"/><rect class="cls-4" x="118.3" y="18.24" width="0.54" height="0.49" transform="translate(80.14 132.17) rotate(-80.19)"/><rect x="118.21" y="18.77" width="0.54" height="0.49" transform="translate(79.54 132.52) rotate(-80.19)"/><rect class="cls-4" x="117.72" y="18.69" width="0.54" height="0.49" transform="translate(79.22 131.97) rotate(-80.19)"/><rect class="cls-1" x="117.69" y="12.74" width="1.08" height="0.99" transform="translate(85.03 127.48) rotate(-80.19)"/><rect x="117.76" y="12.68" width="0.54" height="0.49" transform="translate(85.17 127.03) rotate(-80.19)"/><rect class="cls-4" x="118.25" y="12.77" width="0.54" height="0.49" transform="translate(85.49 127.58) rotate(-80.19)"/><rect x="118.15" y="13.3" width="0.54" height="0.49" transform="translate(84.89 127.93) rotate(-80.19)"/><rect class="cls-4" x="117.67" y="13.21" width="0.54" height="0.49" transform="translate(84.57 127.38) rotate(-80.19)"/><rect class="cls-1" x="117.5" y="13.81" width="1.08" height="0.99" transform="matrix(0.17, -0.99, 0.99, 0.17, 83.83, 128.18)"/><rect x="117.58" y="13.75" width="0.54" height="0.49" transform="translate(83.97 127.73) rotate(-80.19)"/><rect class="cls-4" x="118.06" y="13.83" width="0.54" height="0.49" transform="translate(84.29 128.28) rotate(-80.19)"/><rect x="117.97" y="14.36" width="0.54" height="0.49" transform="translate(83.69 128.63) rotate(-80.19)"/><rect class="cls-4" x="117.48" y="14.28" width="0.54" height="0.49" transform="translate(83.37 128.08) rotate(-80.19)"/><rect class="cls-1" x="117.32" y="14.87" width="1.08" height="0.99" transform="translate(82.64 128.88) rotate(-80.19)"/><rect x="117.39" y="14.81" width="0.54" height="0.49" transform="translate(82.77 128.43) rotate(-80.19)"/><rect class="cls-4" x="117.88" y="14.89" width="0.54" height="0.49" transform="translate(83.09 128.98) rotate(-80.19)"/><rect x="117.79" y="15.42" width="0.54" height="0.49" transform="translate(82.5 129.33) rotate(-80.19)"/><rect class="cls-4" x="117.3" y="15.34" width="0.54" height="0.49" transform="translate(82.18 128.78) rotate(-80.19)"/><rect class="cls-1" x="117.14" y="15.93" width="1.08" height="0.99" transform="translate(81.44 129.58) rotate(-80.19)"/><rect x="117.21" y="15.87" width="0.54" height="0.49" transform="translate(81.58 129.13) rotate(-80.19)"/><rect class="cls-4" x="117.69" y="15.95" width="0.54" height="0.49" transform="translate(81.9 129.68) rotate(-80.19)"/><rect x="117.6" y="16.48" width="0.54" height="0.49" transform="translate(81.3 130.03) rotate(-80.19)"/><rect class="cls-4" x="117.12" y="16.4" width="0.54" height="0.49" transform="translate(80.98 129.48) rotate(-80.19)"/><rect class="cls-1" x="116.95" y="16.99" width="1.08" height="0.99" transform="translate(80.24 130.28) rotate(-80.19)"/><rect x="117.03" y="16.93" width="0.54" height="0.49" transform="translate(80.38 129.83) rotate(-80.19)"/><rect class="cls-4" x="117.51" y="17.01" width="0.54" height="0.49" transform="translate(80.7 130.38) rotate(-80.19)"/><rect x="117.42" y="17.54" width="0.54" height="0.49" transform="translate(80.1 130.73) rotate(-80.19)"/><rect class="cls-4" x="116.93" y="17.46" width="0.54" height="0.49" transform="translate(79.78 130.18) rotate(-80.19)"/><rect class="cls-1" x="116.77" y="18.05" width="1.08" height="0.99" transform="translate(79.04 130.98) rotate(-80.19)"/><rect x="116.84" y="17.99" width="0.54" height="0.49" transform="translate(79.18 130.53) rotate(-80.19)"/><rect class="cls-4" x="117.33" y="18.08" width="0.54" height="0.49" transform="translate(79.5 131.08) rotate(-80.19)"/><rect x="117.24" y="18.61" width="0.54" height="0.49" transform="translate(78.9 131.43) rotate(-80.19)"/><rect class="cls-4" x="116.75" y="18.52" width="0.54" height="0.49" transform="translate(78.58 130.88) rotate(-80.19)"/><rect class="cls-1" x="116.72" y="12.58" width="1.08" height="0.99" transform="translate(84.39 126.38) rotate(-80.19)"/><rect x="116.79" y="12.52" width="0.54" height="0.49" transform="translate(84.53 125.93) rotate(-80.19)"/><rect class="cls-4" x="117.27" y="12.6" width="0.54" height="0.49" transform="translate(84.85 126.48) rotate(-80.19)"/><rect x="117.18" y="13.13" width="0.54" height="0.49" transform="translate(84.25 126.83) rotate(-80.19)"/><rect class="cls-4" x="116.7" y="13.05" width="0.54" height="0.49" transform="translate(83.93 126.28) rotate(-80.19)"/><rect class="cls-1" x="116.53" y="13.64" width="1.08" height="0.99" transform="translate(83.19 127.08) rotate(-80.19)"/><rect x="116.6" y="13.58" width="0.54" height="0.49" transform="translate(83.33 126.63) rotate(-80.19)"/><rect class="cls-4" x="117.09" y="13.66" width="0.54" height="0.49" transform="translate(83.65 127.18) rotate(-80.19)"/><rect x="117" y="14.19" width="0.54" height="0.49" transform="translate(83.05 127.53) rotate(-80.19)"/><rect class="cls-4" x="116.51" y="14.11" width="0.54" height="0.49" transform="translate(82.73 126.98) rotate(-80.19)"/><rect class="cls-1" x="116.35" y="14.7" width="1.08" height="0.99" transform="matrix(0.17, -0.99, 0.99, 0.17, 81.99, 127.78)"/><rect x="116.42" y="14.64" width="0.54" height="0.49" transform="translate(82.13 127.33) rotate(-80.19)"/><rect class="cls-4" x="116.91" y="14.72" width="0.54" height="0.49" transform="translate(82.45 127.88) rotate(-80.19)"/><rect x="116.81" y="15.25" width="0.54" height="0.49" transform="translate(81.85 128.23) rotate(-80.19)"/><rect class="cls-4" x="116.33" y="15.17" width="0.54" height="0.49" transform="translate(81.53 127.68) rotate(-80.19)"/><rect class="cls-1" x="116.16" y="15.76" width="1.08" height="0.99" transform="translate(80.8 128.48) rotate(-80.19)"/><rect x="116.24" y="15.7" width="0.54" height="0.49" transform="translate(80.94 128.03) rotate(-80.19)"/><rect class="cls-4" x="116.72" y="15.78" width="0.54" height="0.49" transform="translate(81.26 128.58) rotate(-80.19)"/><rect x="116.63" y="16.32" width="0.54" height="0.49" transform="translate(80.66 128.93) rotate(-80.19)"/><rect class="cls-4" x="116.14" y="16.23" width="0.54" height="0.49" transform="translate(80.34 128.38) rotate(-80.19)"/><rect class="cls-1" x="115.98" y="16.82" width="1.08" height="0.99" transform="translate(79.6 129.18) rotate(-80.19)"/><rect x="116.05" y="16.76" width="0.54" height="0.49" transform="translate(79.74 128.73) rotate(-80.19)"/><rect class="cls-4" x="116.54" y="16.85" width="0.54" height="0.49" transform="translate(80.06 129.28) rotate(-80.19)"/><rect x="116.45" y="17.38" width="0.54" height="0.49" transform="translate(79.46 129.63) rotate(-80.19)"/><rect class="cls-4" x="115.96" y="17.29" width="0.54" height="0.49" transform="translate(79.14 129.08) rotate(-80.19)"/><rect class="cls-1" x="115.8" y="17.88" width="1.08" height="0.99" transform="translate(78.4 129.88) rotate(-80.19)"/><rect x="115.87" y="17.82" width="0.54" height="0.49" transform="translate(78.54 129.43) rotate(-80.19)"/><rect class="cls-4" x="116.36" y="17.91" width="0.54" height="0.49" transform="translate(78.86 129.98) rotate(-80.19)"/><rect x="116.26" y="18.44" width="0.54" height="0.49" transform="translate(78.26 130.33) rotate(-80.19)"/><rect class="cls-4" x="115.78" y="18.35" width="0.54" height="0.49" transform="translate(77.94 129.78) rotate(-80.19)"/><rect class="cls-1" x="115.74" y="12.41" width="1.08" height="0.99" transform="translate(83.75 125.28) rotate(-80.19)"/><rect x="115.82" y="12.35" width="0.54" height="0.49" transform="translate(83.89 124.83) rotate(-80.19)"/><rect class="cls-4" x="116.3" y="12.43" width="0.54" height="0.49" transform="translate(84.21 125.38) rotate(-80.19)"/><rect x="116.21" y="12.96" width="0.54" height="0.49" transform="translate(83.61 125.73) rotate(-80.19)"/><rect class="cls-4" x="115.72" y="12.88" width="0.54" height="0.49" transform="translate(83.29 125.18) rotate(-80.19)"/><rect class="cls-1" x="115.56" y="13.47" width="1.08" height="0.99" transform="translate(82.55 125.98) rotate(-80.19)"/><rect x="115.63" y="13.41" width="0.54" height="0.49" transform="translate(82.69 125.53) rotate(-80.19)"/><rect class="cls-4" x="116.12" y="13.49" width="0.54" height="0.49" transform="translate(83.01 126.08) rotate(-80.19)"/><rect x="116.03" y="14.02" width="0.54" height="0.49" transform="translate(82.41 126.43) rotate(-80.19)"/><rect class="cls-4" x="115.54" y="13.94" width="0.54" height="0.49" transform="translate(82.09 125.88) rotate(-80.19)"/><rect class="cls-1" x="115.38" y="14.53" width="1.08" height="0.99" transform="translate(81.35 126.68) rotate(-80.19)"/><rect x="115.45" y="14.47" width="0.54" height="0.49" transform="translate(81.49 126.23) rotate(-80.19)"/><rect class="cls-4" x="115.93" y="14.55" width="0.54" height="0.49" transform="translate(81.81 126.78) rotate(-80.19)"/><rect x="115.84" y="15.09" width="0.54" height="0.49" transform="translate(81.21 127.13) rotate(-80.19)"/><rect class="cls-4" x="115.36" y="15" width="0.54" height="0.49" transform="translate(80.89 126.58) rotate(-80.19)"/><rect class="cls-1" x="115.19" y="15.59" width="1.08" height="0.99" transform="matrix(0.17, -0.99, 0.99, 0.17, 80.16, 127.38)"/><rect x="115.26" y="15.53" width="0.54" height="0.49" transform="translate(80.29 126.93) rotate(-80.19)"/><rect class="cls-4" x="115.75" y="15.62" width="0.54" height="0.49" transform="translate(80.61 127.48) rotate(-80.19)"/><rect x="115.66" y="16.15" width="0.54" height="0.49" transform="translate(80.02 127.83) rotate(-80.19)"/><rect class="cls-4" x="115.17" y="16.06" width="0.54" height="0.49" transform="translate(79.7 127.28) rotate(-80.19)"/><rect class="cls-1" x="115.01" y="16.65" width="1.08" height="0.99" transform="translate(78.96 128.08) rotate(-80.19)"/><rect x="115.08" y="16.59" width="0.54" height="0.49" transform="translate(79.1 127.63) rotate(-80.19)"/><rect class="cls-4" x="115.57" y="16.68" width="0.54" height="0.49" transform="translate(79.42 128.18) rotate(-80.19)"/><rect x="115.48" y="17.21" width="0.54" height="0.49" transform="translate(78.82 128.53) rotate(-80.19)"/><rect class="cls-4" x="114.99" y="17.12" width="0.54" height="0.49" transform="translate(78.5 127.98) rotate(-80.19)"/><rect class="cls-1" x="114.82" y="17.72" width="1.08" height="0.99" transform="translate(77.76 128.78) rotate(-80.19)"/><rect x="114.9" y="17.66" width="0.54" height="0.49" transform="translate(77.9 128.33) rotate(-80.19)"/><rect class="cls-4" x="115.38" y="17.74" width="0.54" height="0.49" transform="translate(78.22 128.88) rotate(-80.19)"/><rect x="115.29" y="18.27" width="0.54" height="0.49" transform="translate(77.62 129.23) rotate(-80.19)"/><rect class="cls-4" x="114.81" y="18.19" width="0.54" height="0.49" transform="translate(77.3 128.68) rotate(-80.19)"/><rect class="cls-1" x="114.64" y="18.78" width="1.08" height="0.99" transform="translate(76.56 129.48) rotate(-80.19)"/><rect x="114.71" y="18.72" width="0.54" height="0.49" transform="translate(76.7 129.03) rotate(-80.19)"/><rect class="cls-4" x="115.2" y="18.8" width="0.54" height="0.49" transform="translate(77.02 129.58) rotate(-80.19)"/><rect x="115.11" y="19.33" width="0.54" height="0.49" transform="translate(76.42 129.93) rotate(-80.19)"/><rect class="cls-4" x="114.62" y="19.25" width="0.54" height="0.49" transform="translate(76.1 129.38) rotate(-80.19)"/><rect class="cls-1" x="114.77" y="12.24" width="1.08" height="0.99" transform="translate(83.11 124.19) rotate(-80.19)"/><rect x="114.84" y="12.18" width="0.54" height="0.49" transform="translate(83.25 123.74) rotate(-80.19)"/><rect class="cls-4" x="115.33" y="12.26" width="0.54" height="0.49" transform="translate(83.57 124.28) rotate(-80.19)"/><rect x="115.24" y="12.79" width="0.54" height="0.49" transform="translate(82.97 124.63) rotate(-80.19)"/><rect class="cls-4" x="114.75" y="12.71" width="0.54" height="0.49" transform="translate(82.65 124.09) rotate(-80.19)"/><rect class="cls-1" x="114.59" y="13.3" width="1.08" height="0.99" transform="translate(81.91 124.89) rotate(-80.19)"/><rect x="114.66" y="13.24" width="0.54" height="0.49" transform="translate(82.05 124.44) rotate(-80.19)"/><rect class="cls-4" x="115.15" y="13.32" width="0.54" height="0.49" transform="translate(82.37 124.98) rotate(-80.19)"/><rect x="115.05" y="13.86" width="0.54" height="0.49" transform="translate(81.77 125.33) rotate(-80.19)"/><rect class="cls-4" x="114.57" y="13.77" width="0.54" height="0.49" transform="translate(81.45 124.79) rotate(-80.19)"/><rect class="cls-1" x="114.4" y="14.36" width="1.08" height="0.99" transform="matrix(0.17, -0.99, 0.99, 0.17, 80.71, 125.58)"/><rect x="114.48" y="14.3" width="0.54" height="0.49" transform="translate(80.85 125.14) rotate(-80.19)"/><rect class="cls-4" x="114.96" y="14.39" width="0.54" height="0.49" transform="translate(81.17 125.68) rotate(-80.19)"/><rect x="114.87" y="14.92" width="0.54" height="0.49" transform="translate(80.57 126.03) rotate(-80.19)"/><rect class="cls-4" x="114.38" y="14.83" width="0.54" height="0.49" transform="translate(80.25 125.49) rotate(-80.19)"/><rect class="cls-1" x="114.22" y="15.42" width="1.08" height="0.99" transform="translate(79.51 126.28) rotate(-80.19)"/><rect x="114.29" y="15.36" width="0.54" height="0.49" transform="translate(79.65 125.84) rotate(-80.19)"/><rect class="cls-4" x="114.78" y="15.45" width="0.54" height="0.49" transform="translate(79.97 126.38) rotate(-80.19)"/><rect x="114.69" y="15.98" width="0.54" height="0.49" transform="translate(79.37 126.73) rotate(-80.19)"/><rect class="cls-4" x="114.2" y="15.89" width="0.54" height="0.49" transform="translate(79.05 126.18) rotate(-80.19)"/><rect class="cls-1" x="114.04" y="16.49" width="1.08" height="0.99" transform="matrix(0.17, -0.99, 0.99, 0.17, 78.32, 126.98)"/><rect x="114.11" y="16.43" width="0.54" height="0.49" transform="translate(78.46 126.53) rotate(-80.19)"/><rect class="cls-4" x="114.59" y="16.51" width="0.54" height="0.49" transform="translate(78.78 127.08) rotate(-80.19)"/><rect x="114.5" y="17.04" width="0.54" height="0.49" transform="translate(78.18 127.43) rotate(-80.19)"/><rect class="cls-4" x="114.02" y="16.96" width="0.54" height="0.49" transform="translate(77.86 126.88) rotate(-80.19)"/><rect class="cls-1" x="113.85" y="17.55" width="1.08" height="0.99" transform="translate(77.12 127.68) rotate(-80.19)"/><rect x="113.92" y="17.49" width="0.54" height="0.49" transform="translate(77.26 127.23) rotate(-80.19)"/><rect class="cls-4" x="114.41" y="17.57" width="0.54" height="0.49" transform="translate(77.58 127.78) rotate(-80.19)"/><rect x="114.32" y="18.1" width="0.54" height="0.49" transform="translate(76.98 128.13) rotate(-80.19)"/><rect class="cls-4" x="113.83" y="18.02" width="0.54" height="0.49" transform="translate(76.66 127.58) rotate(-80.19)"/><rect class="cls-1" x="113.67" y="18.61" width="1.08" height="0.99" transform="translate(75.92 128.38) rotate(-80.19)"/><rect x="113.74" y="18.55" width="0.54" height="0.49" transform="translate(76.06 127.93) rotate(-80.19)"/><rect class="cls-4" x="114.23" y="18.63" width="0.54" height="0.49" transform="translate(76.38 128.48) rotate(-80.19)"/><rect x="114.14" y="19.16" width="0.54" height="0.49" transform="translate(75.78 128.83) rotate(-80.19)"/><rect class="cls-4" x="113.65" y="19.08" width="0.54" height="0.49" transform="translate(75.46 128.28) rotate(-80.19)"/><rect class="cls-1" x="113.61" y="13.13" width="1.08" height="0.99" transform="translate(81.27 123.79) rotate(-80.19)"/><rect x="113.69" y="13.07" width="0.54" height="0.49" transform="translate(81.41 123.34) rotate(-80.19)"/><rect class="cls-4" x="114.17" y="13.16" width="0.54" height="0.49" transform="translate(81.73 123.89) rotate(-80.19)"/><rect x="114.08" y="13.69" width="0.54" height="0.49" transform="translate(81.13 124.24) rotate(-80.19)"/><rect class="cls-4" x="113.6" y="13.6" width="0.54" height="0.49" transform="translate(80.81 123.69) rotate(-80.19)"/><rect class="cls-1" x="113.43" y="14.19" width="1.08" height="0.99" transform="translate(80.07 124.49) rotate(-80.19)"/><rect x="113.5" y="14.13" width="0.54" height="0.49" transform="translate(80.21 124.04) rotate(-80.19)"/><rect class="cls-4" x="113.99" y="14.22" width="0.54" height="0.49" transform="translate(80.53 124.59) rotate(-80.19)"/><rect x="113.9" y="14.75" width="0.54" height="0.49" transform="translate(79.93 124.94) rotate(-80.19)"/><rect class="cls-4" x="113.41" y="14.66" width="0.54" height="0.49" transform="translate(79.61 124.39) rotate(-80.19)"/><rect class="cls-1" x="113.25" y="15.26" width="1.08" height="0.99" transform="translate(78.87 125.19) rotate(-80.19)"/><rect x="113.32" y="15.2" width="0.54" height="0.49" transform="translate(79.01 124.74) rotate(-80.19)"/><rect class="cls-4" x="113.81" y="15.28" width="0.54" height="0.49" transform="translate(79.33 125.29) rotate(-80.19)"/><rect x="113.71" y="15.81" width="0.54" height="0.49" transform="translate(78.73 125.64) rotate(-80.19)"/><rect class="cls-4" x="113.23" y="15.73" width="0.54" height="0.49" transform="translate(78.41 125.09) rotate(-80.19)"/><rect class="cls-1" x="113.06" y="16.32" width="1.08" height="0.99" transform="translate(77.68 125.89) rotate(-80.19)"/><rect x="113.14" y="16.26" width="0.54" height="0.49" transform="translate(77.81 125.44) rotate(-80.19)"/><rect class="cls-4" x="113.62" y="16.34" width="0.54" height="0.49" transform="translate(78.13 125.99) rotate(-80.19)"/><rect x="113.53" y="16.87" width="0.54" height="0.49" transform="translate(77.54 126.34) rotate(-80.19)"/><rect class="cls-4" x="113.04" y="16.79" width="0.54" height="0.49" transform="translate(77.22 125.79) rotate(-80.19)"/><rect class="cls-1" x="112.88" y="17.38" width="1.08" height="0.99" transform="translate(76.48 126.59) rotate(-80.19)"/><rect x="112.95" y="17.32" width="0.54" height="0.49" transform="translate(76.62 126.14) rotate(-80.19)"/><rect class="cls-4" x="113.44" y="17.4" width="0.54" height="0.49" transform="translate(76.94 126.69) rotate(-80.19)"/><rect x="113.35" y="17.93" width="0.54" height="0.49" transform="translate(76.34 127.04) rotate(-80.19)"/><rect class="cls-4" x="112.86" y="17.85" width="0.54" height="0.49" transform="translate(76.02 126.49) rotate(-80.19)"/><rect class="cls-1" x="112.7" y="18.44" width="1.08" height="0.99" transform="matrix(0.17, -0.99, 0.99, 0.17, 75.28, 127.29)"/><rect x="112.77" y="18.38" width="0.54" height="0.49" transform="translate(75.42 126.84) rotate(-80.19)"/><rect class="cls-4" x="113.26" y="18.46" width="0.54" height="0.49" transform="translate(75.74 127.39) rotate(-80.19)"/><rect x="113.16" y="19" width="0.54" height="0.49" transform="translate(75.14 127.74) rotate(-80.19)"/><rect class="cls-4" x="112.68" y="18.91" width="0.54" height="0.49" transform="translate(74.82 127.19) rotate(-80.19)"/><rect class="cls-1" x="112.64" y="12.97" width="1.08" height="0.99" transform="matrix(0.17, -0.99, 0.99, 0.17, 80.63, 122.69)"/><rect x="112.71" y="12.9" width="0.54" height="0.49" transform="translate(80.77 122.24) rotate(-80.19)"/><rect class="cls-4" x="113.2" y="12.99" width="0.54" height="0.49" transform="translate(81.09 122.79) rotate(-80.19)"/><rect x="113.11" y="13.52" width="0.54" height="0.49" transform="translate(80.49 123.14) rotate(-80.19)"/><rect class="cls-4" x="112.62" y="13.44" width="0.54" height="0.49" transform="translate(80.17 122.59) rotate(-80.19)"/><rect class="cls-1" x="112.46" y="14.03" width="1.08" height="0.99" transform="translate(79.43 123.39) rotate(-80.19)"/><rect x="112.53" y="13.97" width="0.54" height="0.49" transform="translate(79.57 122.94) rotate(-80.19)"/><rect class="cls-4" x="113.02" y="14.05" width="0.54" height="0.49" transform="translate(79.89 123.49) rotate(-80.19)"/><rect x="112.93" y="14.58" width="0.54" height="0.49" transform="translate(79.29 123.84) rotate(-80.19)"/><rect class="cls-4" x="112.44" y="14.5" width="0.54" height="0.49" transform="translate(78.97 123.29) rotate(-80.19)"/><rect class="cls-1" x="112.28" y="15.09" width="1.08" height="0.99" transform="translate(78.23 124.09) rotate(-80.19)"/><rect x="112.35" y="15.03" width="0.54" height="0.49" transform="translate(78.37 123.64) rotate(-80.19)"/><rect class="cls-4" x="112.83" y="15.11" width="0.54" height="0.49" transform="translate(78.69 124.19) rotate(-80.19)"/><rect x="112.74" y="15.64" width="0.54" height="0.49" transform="translate(78.09 124.54) rotate(-80.19)"/><rect class="cls-4" x="112.26" y="15.56" width="0.54" height="0.49" transform="translate(77.77 123.99) rotate(-80.19)"/><rect class="cls-1" x="112.09" y="16.15" width="1.08" height="0.99" transform="matrix(0.17, -0.99, 0.99, 0.17, 77.03, 124.79)"/><rect x="112.16" y="16.09" width="0.54" height="0.49" transform="translate(77.17 124.34) rotate(-80.19)"/><rect class="cls-4" x="112.65" y="16.17" width="0.54" height="0.49" transform="translate(77.49 124.89) rotate(-80.19)"/><rect x="112.56" y="16.7" width="0.54" height="0.49" transform="translate(76.89 125.24) rotate(-80.19)"/><rect class="cls-4" x="112.07" y="16.62" width="0.54" height="0.49" transform="translate(76.57 124.69) rotate(-80.19)"/><rect class="cls-1" x="111.91" y="17.21" width="1.08" height="0.99" transform="translate(75.84 125.49) rotate(-80.19)"/><rect x="111.98" y="17.15" width="0.54" height="0.49" transform="translate(75.98 125.04) rotate(-80.19)"/><rect class="cls-4" x="112.47" y="17.23" width="0.54" height="0.49" transform="translate(76.3 125.59) rotate(-80.19)"/><rect x="112.37" y="17.77" width="0.54" height="0.49" transform="translate(75.7 125.94) rotate(-80.19)"/><rect class="cls-4" x="111.89" y="17.68" width="0.54" height="0.49" transform="translate(75.38 125.39) rotate(-80.19)"/><rect class="cls-1" x="111.72" y="18.27" width="1.08" height="0.99" transform="matrix(0.17, -0.99, 0.99, 0.17, 74.64, 126.19)"/><rect x="111.8" y="18.21" width="0.54" height="0.49" transform="translate(74.78 125.74) rotate(-80.19)"/><rect class="cls-4" x="112.28" y="18.3" width="0.54" height="0.49" transform="translate(75.1 126.29) rotate(-80.19)"/><rect x="112.19" y="18.83" width="0.54" height="0.49" transform="translate(74.5 126.64) rotate(-80.19)"/><rect class="cls-4" x="111.71" y="18.74" width="0.54" height="0.49" transform="translate(74.18 126.09) rotate(-80.19)"/><rect class="cls-1" x="111.67" y="12.8" width="1.08" height="0.99" transform="translate(79.99 121.59) rotate(-80.19)"/><rect x="111.74" y="12.74" width="0.54" height="0.49" transform="translate(80.13 121.14) rotate(-80.19)"/><rect class="cls-4" x="112.23" y="12.82" width="0.54" height="0.49" transform="translate(80.45 121.69) rotate(-80.19)"/><rect x="112.14" y="13.35" width="0.54" height="0.49" transform="translate(79.85 122.04) rotate(-80.19)"/><rect class="cls-4" x="111.65" y="13.27" width="0.54" height="0.49" transform="translate(79.53 121.49) rotate(-80.19)"/><rect class="cls-1" x="111.49" y="13.86" width="1.08" height="0.99" transform="translate(78.79 122.29) rotate(-80.19)"/><rect x="111.56" y="13.8" width="0.54" height="0.49" transform="translate(78.93 121.84) rotate(-80.19)"/><rect class="cls-4" x="112.05" y="13.88" width="0.54" height="0.49" transform="translate(79.25 122.39) rotate(-80.19)"/><rect x="111.95" y="14.41" width="0.54" height="0.49" transform="translate(78.65 122.74) rotate(-80.19)"/><rect class="cls-4" x="111.47" y="14.33" width="0.54" height="0.49" transform="translate(78.33 122.19) rotate(-80.19)"/><rect class="cls-1" x="111.3" y="14.92" width="1.08" height="0.99" transform="translate(77.59 122.99) rotate(-80.19)"/><rect x="111.38" y="14.86" width="0.54" height="0.49" transform="translate(77.73 122.54) rotate(-80.19)"/><rect class="cls-4" x="111.86" y="14.94" width="0.54" height="0.49" transform="translate(78.05 123.09) rotate(-80.19)"/><rect x="111.77" y="15.47" width="0.54" height="0.49" transform="translate(77.45 123.44) rotate(-80.19)"/><rect class="cls-4" x="111.28" y="15.39" width="0.54" height="0.49" transform="translate(77.13 122.89) rotate(-80.19)"/><rect class="cls-1" x="111.12" y="15.98" width="1.08" height="0.99" transform="translate(76.39 123.69) rotate(-80.19)"/><rect x="111.19" y="15.92" width="0.54" height="0.49" transform="translate(76.53 123.24) rotate(-80.19)"/><rect class="cls-4" x="111.68" y="16.01" width="0.54" height="0.49" transform="translate(76.85 123.79) rotate(-80.19)"/><rect x="111.59" y="16.54" width="0.54" height="0.49" transform="translate(76.25 124.14) rotate(-80.19)"/><rect class="cls-4" x="111.1" y="16.45" width="0.54" height="0.49" transform="translate(75.93 123.59) rotate(-80.19)"/><rect class="cls-1" x="110.94" y="17.04" width="1.08" height="0.99" transform="matrix(0.17, -0.99, 0.99, 0.17, 75.2, 124.39)"/><rect x="111.01" y="16.98" width="0.54" height="0.49" transform="translate(75.33 123.94) rotate(-80.19)"/><rect class="cls-4" x="111.49" y="17.07" width="0.54" height="0.49" transform="translate(75.65 124.49) rotate(-80.19)"/><rect x="111.4" y="17.6" width="0.54" height="0.49" transform="translate(75.06 124.84) rotate(-80.19)"/><rect class="cls-4" x="110.92" y="17.51" width="0.54" height="0.49" transform="translate(74.74 124.29) rotate(-80.19)"/><rect class="cls-1" x="110.75" y="18.1" width="1.08" height="0.99" transform="translate(74 125.09) rotate(-80.19)"/><rect x="110.82" y="18.04" width="0.54" height="0.49" transform="translate(74.14 124.64) rotate(-80.19)"/><rect class="cls-4" x="111.31" y="18.13" width="0.54" height="0.49" transform="translate(74.46 125.19) rotate(-80.19)"/><rect x="111.22" y="18.66" width="0.54" height="0.49" transform="translate(73.86 125.54) rotate(-80.19)"/><rect class="cls-4" x="110.73" y="18.57" width="0.54" height="0.49" transform="translate(73.54 124.99) rotate(-80.19)"/><rect class="cls-1" x="110.7" y="12.63" width="1.08" height="0.99" transform="translate(79.35 120.5) rotate(-80.19)"/><rect x="110.77" y="12.57" width="0.54" height="0.49" transform="translate(79.49 120.05) rotate(-80.19)"/><rect class="cls-4" x="111.26" y="12.65" width="0.54" height="0.49" transform="translate(79.81 120.59) rotate(-80.19)"/><rect x="111.16" y="13.18" width="0.54" height="0.49" transform="translate(79.21 120.94) rotate(-80.19)"/><rect class="cls-4" x="110.68" y="13.1" width="0.54" height="0.49" transform="translate(78.89 120.4) rotate(-80.19)"/><rect class="cls-1" x="110.51" y="13.69" width="1.08" height="0.99" transform="translate(78.15 121.19) rotate(-80.19)"/><rect x="110.59" y="13.63" width="0.54" height="0.49" transform="translate(78.29 120.75) rotate(-80.19)"/><rect class="cls-4" x="111.07" y="13.71" width="0.54" height="0.49" transform="translate(78.61 121.29) rotate(-80.19)"/><rect x="110.98" y="14.24" width="0.54" height="0.49" transform="translate(78.01 121.64) rotate(-80.19)"/><rect class="cls-4" x="110.5" y="14.16" width="0.54" height="0.49" transform="translate(77.69 121.1) rotate(-80.19)"/><rect class="cls-1" x="110.33" y="14.75" width="1.08" height="0.99" transform="translate(76.95 121.89) rotate(-80.19)"/><rect x="110.4" y="14.69" width="0.54" height="0.49" transform="translate(77.09 121.45) rotate(-80.19)"/><rect class="cls-4" x="110.89" y="14.78" width="0.54" height="0.49" transform="translate(77.41 121.99) rotate(-80.19)"/><rect x="110.8" y="15.31" width="0.54" height="0.49" transform="translate(76.81 122.34) rotate(-80.19)"/><rect class="cls-4" x="110.31" y="15.22" width="0.54" height="0.49" transform="translate(76.49 121.8) rotate(-80.19)"/><rect class="cls-1" x="110.15" y="15.81" width="1.08" height="0.99" transform="translate(75.75 122.59) rotate(-80.19)"/><rect x="110.22" y="15.75" width="0.54" height="0.49" transform="translate(75.89 122.14) rotate(-80.19)"/><rect class="cls-4" x="110.71" y="15.84" width="0.54" height="0.49" transform="translate(76.21 122.69) rotate(-80.19)"/><rect x="110.61" y="16.37" width="0.54" height="0.49" transform="translate(75.61 123.04) rotate(-80.19)"/><rect class="cls-4" x="110.13" y="16.28" width="0.54" height="0.49" transform="translate(75.29 122.49) rotate(-80.19)"/><rect class="cls-1" x="109.96" y="16.88" width="1.08" height="0.99" transform="matrix(0.17, -0.99, 0.99, 0.17, 74.55, 123.29)"/><rect x="110.04" y="16.81" width="0.54" height="0.49" transform="translate(74.69 122.84) rotate(-80.19)"/><rect class="cls-4" x="110.52" y="16.9" width="0.54" height="0.49" transform="translate(75.01 123.39) rotate(-80.19)"/><rect x="110.43" y="17.43" width="0.54" height="0.49" transform="translate(74.41 123.74) rotate(-80.19)"/><rect class="cls-4" x="109.94" y="17.35" width="0.54" height="0.49" transform="translate(74.09 123.19) rotate(-80.19)"/><rect class="cls-1" x="109.78" y="17.94" width="1.08" height="0.99" transform="translate(73.36 123.99) rotate(-80.19)"/><rect x="109.85" y="17.88" width="0.54" height="0.49" transform="translate(73.5 123.54) rotate(-80.19)"/><rect class="cls-4" x="110.34" y="17.96" width="0.54" height="0.49" transform="translate(73.82 124.09) rotate(-80.19)"/><rect x="110.25" y="18.49" width="0.54" height="0.49" transform="translate(73.22 124.44) rotate(-80.19)"/><rect class="cls-4" x="109.76" y="18.41" width="0.54" height="0.49" transform="translate(72.9 123.89) rotate(-80.19)"/><rect class="cls-1" x="109.73" y="12.46" width="1.08" height="0.99" transform="translate(78.71 119.4) rotate(-80.19)"/><rect x="109.8" y="12.4" width="0.54" height="0.49" transform="translate(78.85 118.95) rotate(-80.19)"/><rect class="cls-4" x="110.28" y="12.48" width="0.54" height="0.49" transform="translate(79.17 119.5) rotate(-80.19)"/><rect x="110.19" y="13.01" width="0.54" height="0.49" transform="translate(78.57 119.85) rotate(-80.19)"/><rect class="cls-4" x="109.71" y="12.93" width="0.54" height="0.49" transform="translate(78.25 119.3) rotate(-80.19)"/><rect class="cls-1" x="109.54" y="13.52" width="1.08" height="0.99" transform="matrix(0.17, -0.99, 0.99, 0.17, 77.51, 120.1)"/><rect x="109.61" y="13.46" width="0.54" height="0.49" transform="translate(77.65 119.65) rotate(-80.19)"/><rect class="cls-4" x="110.1" y="13.55" width="0.54" height="0.49" transform="translate(77.97 120.2) rotate(-80.19)"/><rect x="110.01" y="14.08" width="0.54" height="0.49" transform="translate(77.37 120.55) rotate(-80.19)"/><rect class="cls-4" x="109.52" y="13.99" width="0.54" height="0.49" transform="translate(77.05 120) rotate(-80.19)"/><rect class="cls-1" x="109.36" y="14.58" width="1.08" height="0.99" transform="translate(76.31 120.8) rotate(-80.19)"/><rect x="109.43" y="14.52" width="0.54" height="0.49" transform="translate(76.45 120.35) rotate(-80.19)"/><rect class="cls-4" x="109.92" y="14.61" width="0.54" height="0.49" transform="translate(76.77 120.9) rotate(-80.19)"/><rect x="109.83" y="15.14" width="0.54" height="0.49" transform="translate(76.17 121.25) rotate(-80.19)"/><rect class="cls-4" x="109.34" y="15.05" width="0.54" height="0.49" transform="translate(75.85 120.7) rotate(-80.19)"/><rect class="cls-1" x="109.18" y="15.65" width="1.08" height="0.99" transform="translate(75.11 121.5) rotate(-80.19)"/><rect x="109.25" y="15.58" width="0.54" height="0.49" transform="translate(75.25 121.05) rotate(-80.19)"/><rect class="cls-4" x="109.73" y="15.67" width="0.54" height="0.49" transform="translate(75.57 121.6) rotate(-80.19)"/><rect x="109.64" y="16.2" width="0.54" height="0.49" transform="translate(74.97 121.95) rotate(-80.19)"/><rect class="cls-4" x="109.16" y="16.12" width="0.54" height="0.49" transform="translate(74.65 121.4) rotate(-80.19)"/><rect class="cls-1" x="108.99" y="16.71" width="1.08" height="0.99" transform="translate(73.91 122.2) rotate(-80.19)"/><rect x="109.06" y="16.65" width="0.54" height="0.49" transform="translate(74.05 121.75) rotate(-80.19)"/><rect class="cls-4" x="109.55" y="16.73" width="0.54" height="0.49" transform="translate(74.37 122.3) rotate(-80.19)"/><rect x="109.46" y="17.26" width="0.54" height="0.49" transform="translate(73.77 122.65) rotate(-80.19)"/><rect class="cls-4" x="108.97" y="17.18" width="0.54" height="0.49" transform="translate(73.45 122.1) rotate(-80.19)"/><rect class="cls-1" x="108.81" y="17.77" width="1.08" height="0.99" transform="matrix(0.17, -0.99, 0.99, 0.17, 72.72, 122.9)"/><rect x="108.88" y="17.71" width="0.54" height="0.49" transform="translate(72.85 122.45) rotate(-80.19)"/><rect class="cls-4" x="109.37" y="17.79" width="0.54" height="0.49" transform="translate(73.18 123) rotate(-80.19)"/><rect x="109.27" y="18.32" width="0.54" height="0.49" transform="translate(72.58 123.35) rotate(-80.19)"/><rect class="cls-4" x="108.79" y="18.24" width="0.54" height="0.49" transform="translate(72.26 122.8) rotate(-80.19)"/><rect class="cls-1" x="108.62" y="18.83" width="1.08" height="0.99" transform="matrix(0.17, -0.99, 0.99, 0.17, 71.52, 123.6)"/><rect x="108.7" y="18.77" width="0.54" height="0.49" transform="translate(71.66 123.15) rotate(-80.19)"/><rect class="cls-4" x="109.18" y="18.85" width="0.54" height="0.49" transform="translate(71.98 123.7) rotate(-80.19)"/><rect x="109.09" y="19.38" width="0.54" height="0.49" transform="translate(71.38 124.05) rotate(-80.19)"/><rect class="cls-4" x="108.6" y="19.3" width="0.54" height="0.49" transform="translate(71.06 123.5) rotate(-80.19)"/><rect class="cls-1" x="108.75" y="12.29" width="1.08" height="0.99" transform="matrix(0.17, -0.99, 0.99, 0.17, 78.07, 118.3)"/><rect x="108.83" y="12.23" width="0.54" height="0.49" transform="translate(78.21 117.85) rotate(-80.19)"/><rect class="cls-4" x="109.31" y="12.32" width="0.54" height="0.49" transform="translate(78.53 118.4) rotate(-80.19)"/><rect x="109.22" y="12.85" width="0.54" height="0.49" transform="translate(77.93 118.75) rotate(-80.19)"/><rect class="cls-4" x="108.73" y="12.76" width="0.54" height="0.49" transform="translate(77.61 118.2) rotate(-80.19)"/><rect class="cls-1" x="108.57" y="13.35" width="1.08" height="0.99" transform="translate(76.87 119) rotate(-80.19)"/><rect x="108.64" y="13.29" width="0.54" height="0.49" transform="translate(77.01 118.55) rotate(-80.19)"/><rect class="cls-4" x="109.13" y="13.38" width="0.54" height="0.49" transform="translate(77.33 119.1) rotate(-80.19)"/><rect x="109.04" y="13.91" width="0.54" height="0.49" transform="translate(76.73 119.45) rotate(-80.19)"/><rect class="cls-4" x="108.55" y="13.82" width="0.54" height="0.49" transform="translate(76.41 118.9) rotate(-80.19)"/><rect class="cls-1" x="108.39" y="14.42" width="1.08" height="0.99" transform="translate(75.67 119.7) rotate(-80.19)"/><rect x="108.46" y="14.35" width="0.54" height="0.49" transform="translate(75.81 119.25) rotate(-80.19)"/><rect class="cls-4" x="108.94" y="14.44" width="0.54" height="0.49" transform="translate(76.13 119.8) rotate(-80.19)"/><rect x="108.85" y="14.97" width="0.54" height="0.49" transform="translate(75.53 120.15) rotate(-80.19)"/><rect class="cls-4" x="108.37" y="14.89" width="0.54" height="0.49" transform="translate(75.21 119.6) rotate(-80.19)"/><rect class="cls-1" x="108.2" y="15.48" width="1.08" height="0.99" transform="translate(74.47 120.4) rotate(-80.19)"/><rect x="108.28" y="15.42" width="0.54" height="0.49" transform="translate(74.61 119.95) rotate(-80.19)"/><rect class="cls-4" x="108.76" y="15.5" width="0.54" height="0.49" transform="translate(74.93 120.5) rotate(-80.19)"/><rect x="108.67" y="16.03" width="0.54" height="0.49" transform="translate(74.33 120.85) rotate(-80.19)"/><rect class="cls-4" x="108.18" y="15.95" width="0.54" height="0.49" transform="translate(74.01 120.3) rotate(-80.19)"/><rect class="cls-1" x="108.02" y="16.54" width="1.08" height="0.99" transform="translate(73.27 121.1) rotate(-80.19)"/><rect x="108.09" y="16.48" width="0.54" height="0.49" transform="translate(73.41 120.65) rotate(-80.19)"/><rect class="cls-4" x="108.58" y="16.56" width="0.54" height="0.49" transform="translate(73.73 121.2) rotate(-80.19)"/><rect x="108.49" y="17.09" width="0.54" height="0.49" transform="translate(73.13 121.55) rotate(-80.19)"/><rect class="cls-4" x="108" y="17.01" width="0.54" height="0.49" transform="translate(72.81 121) rotate(-80.19)"/><rect class="cls-1" x="107.84" y="17.6" width="1.08" height="0.99" transform="translate(72.07 121.8) rotate(-80.19)"/><rect x="107.91" y="17.54" width="0.54" height="0.49" transform="translate(72.21 121.35) rotate(-80.19)"/><rect class="cls-4" x="108.39" y="17.62" width="0.54" height="0.49" transform="translate(72.53 121.9) rotate(-80.19)"/><rect x="108.3" y="18.15" width="0.54" height="0.49" transform="translate(71.94 122.25) rotate(-80.19)"/><rect class="cls-4" x="107.82" y="18.07" width="0.54" height="0.49" transform="translate(71.61 121.7) rotate(-80.19)"/><rect class="cls-1" x="107.65" y="18.66" width="1.08" height="0.99" transform="translate(70.88 122.5) rotate(-80.19)"/><rect x="107.72" y="18.6" width="0.54" height="0.49" transform="translate(71.02 122.05) rotate(-80.19)"/><rect class="cls-4" x="108.21" y="18.69" width="0.54" height="0.49" transform="translate(71.34 122.6) rotate(-80.19)"/><rect x="108.12" y="19.22" width="0.54" height="0.49" transform="translate(70.74 122.95) rotate(-80.19)"/><rect class="cls-4" x="107.63" y="19.13" width="0.54" height="0.49" transform="translate(70.42 122.4) rotate(-80.19)"/><rect class="cls-1" x="107.78" y="12.12" width="1.08" height="0.99" transform="translate(77.43 117.2) rotate(-80.19)"/><rect x="107.85" y="12.06" width="0.54" height="0.49" transform="translate(77.56 116.75) rotate(-80.19)"/><rect class="cls-4" x="108.34" y="12.15" width="0.54" height="0.49" transform="translate(77.89 117.3) rotate(-80.19)"/><rect x="108.25" y="12.68" width="0.54" height="0.49" transform="translate(77.29 117.65) rotate(-80.19)"/><rect class="cls-4" x="107.76" y="12.59" width="0.54" height="0.49" transform="translate(76.97 117.1) rotate(-80.19)"/><rect class="cls-1" x="107.6" y="13.19" width="1.08" height="0.99" transform="translate(76.23 117.9) rotate(-80.19)"/><rect x="107.67" y="13.13" width="0.54" height="0.49" transform="translate(76.37 117.45) rotate(-80.19)"/><rect class="cls-4" x="108.16" y="13.21" width="0.54" height="0.49" transform="translate(76.69 118) rotate(-80.19)"/><rect x="108.06" y="13.74" width="0.54" height="0.49" transform="translate(76.09 118.35) rotate(-80.19)"/><rect class="cls-4" x="107.58" y="13.66" width="0.54" height="0.49" transform="translate(75.77 117.8) rotate(-80.19)"/><rect class="cls-1" x="107.41" y="14.25" width="1.08" height="0.99" transform="translate(75.03 118.6) rotate(-80.19)"/><rect x="107.49" y="14.19" width="0.54" height="0.49" transform="translate(75.17 118.15) rotate(-80.19)"/><rect class="cls-4" x="107.97" y="14.27" width="0.54" height="0.49" transform="translate(75.49 118.7) rotate(-80.19)"/><rect x="107.88" y="14.8" width="0.54" height="0.49" transform="translate(74.89 119.05) rotate(-80.19)"/><rect class="cls-4" x="107.39" y="14.72" width="0.54" height="0.49" transform="translate(74.57 118.5) rotate(-80.19)"/><rect class="cls-1" x="107.23" y="15.31" width="1.08" height="0.99" transform="matrix(0.17, -0.99, 0.99, 0.17, 73.83, 119.3)"/><rect x="107.3" y="15.25" width="0.54" height="0.49" transform="translate(73.97 118.85) rotate(-80.19)"/><rect class="cls-4" x="107.79" y="15.33" width="0.54" height="0.49" transform="translate(74.29 119.4) rotate(-80.19)"/><rect x="107.7" y="15.86" width="0.54" height="0.49" transform="translate(73.69 119.75) rotate(-80.19)"/><rect class="cls-4" x="107.21" y="15.78" width="0.54" height="0.49" transform="translate(73.37 119.2) rotate(-80.19)"/><rect class="cls-1" x="107.05" y="16.37" width="1.08" height="0.99" transform="translate(72.63 120) rotate(-80.19)"/><rect x="107.12" y="16.31" width="0.54" height="0.49" transform="translate(72.77 119.55) rotate(-80.19)"/><rect class="cls-4" x="107.61" y="16.39" width="0.54" height="0.49" transform="translate(73.09 120.1) rotate(-80.19)"/><rect x="107.51" y="16.92" width="0.54" height="0.49" transform="translate(72.49 120.45) rotate(-80.19)"/><rect class="cls-4" x="107.03" y="16.84" width="0.54" height="0.49" transform="translate(72.17 119.9) rotate(-80.19)"/><rect class="cls-1" x="106.86" y="17.43" width="1.08" height="0.99" transform="translate(71.43 120.7) rotate(-80.19)"/><rect x="106.94" y="17.37" width="0.54" height="0.49" transform="translate(71.57 120.25) rotate(-80.19)"/><rect class="cls-4" x="107.42" y="17.46" width="0.54" height="0.49" transform="translate(71.89 120.8) rotate(-80.19)"/><rect x="107.33" y="17.99" width="0.54" height="0.49" transform="translate(71.29 121.15) rotate(-80.19)"/><rect class="cls-4" x="106.84" y="17.9" width="0.54" height="0.49" transform="translate(70.97 120.6) rotate(-80.19)"/><rect class="cls-1" x="106.68" y="18.49" width="1.08" height="0.99" transform="translate(70.24 121.4) rotate(-80.19)"/><rect x="106.75" y="18.43" width="0.54" height="0.49" transform="translate(70.37 120.95) rotate(-80.19)"/><rect class="cls-4" x="107.24" y="18.52" width="0.54" height="0.49" transform="translate(70.7 121.5) rotate(-80.19)"/><rect x="107.15" y="19.05" width="0.54" height="0.49" transform="translate(70.1 121.85) rotate(-80.19)"/><rect class="cls-4" x="106.66" y="18.96" width="0.54" height="0.49" transform="translate(69.78 121.3) rotate(-80.19)"/><rect class="cls-1" x="106.63" y="13.02" width="1.08" height="0.99" transform="matrix(0.17, -0.99, 0.99, 0.17, 75.59, 116.8)"/><rect x="106.7" y="12.96" width="0.54" height="0.49" transform="translate(75.73 116.36) rotate(-80.19)"/><rect class="cls-4" x="107.18" y="13.04" width="0.54" height="0.49" transform="translate(76.05 116.9) rotate(-80.19)"/><rect x="107.09" y="13.57" width="0.54" height="0.49" transform="translate(75.45 117.25) rotate(-80.19)"/><rect class="cls-4" x="106.61" y="13.49" width="0.54" height="0.49" transform="translate(75.13 116.71) rotate(-80.19)"/><rect class="cls-1" x="106.44" y="14.08" width="1.08" height="0.99" transform="matrix(0.17, -0.99, 0.99, 0.17, 74.39, 117.5)"/><rect x="106.51" y="14.02" width="0.54" height="0.49" transform="translate(74.53 117.06) rotate(-80.19)"/><rect class="cls-4" x="107" y="14.1" width="0.54" height="0.49" transform="translate(74.85 117.6) rotate(-80.19)"/><rect x="106.91" y="14.63" width="0.54" height="0.49" transform="translate(74.25 117.95) rotate(-80.19)"/><rect class="cls-4" x="106.42" y="14.55" width="0.54" height="0.49" transform="translate(73.93 117.41) rotate(-80.19)"/><rect class="cls-1" x="106.26" y="15.14" width="1.08" height="0.99" transform="translate(73.19 118.2) rotate(-80.19)"/><rect x="106.33" y="15.08" width="0.54" height="0.49" transform="translate(73.33 117.75) rotate(-80.19)"/><rect class="cls-4" x="106.82" y="15.16" width="0.54" height="0.49" transform="translate(73.65 118.3) rotate(-80.19)"/><rect x="106.73" y="15.69" width="0.54" height="0.49" transform="translate(73.05 118.65) rotate(-80.19)"/><rect class="cls-4" x="106.24" y="15.61" width="0.54" height="0.49" transform="translate(72.73 118.1) rotate(-80.19)"/><rect class="cls-1" x="106.08" y="16.2" width="1.08" height="0.99" transform="translate(71.99 118.9) rotate(-80.19)"/><rect x="106.15" y="16.14" width="0.54" height="0.49" transform="translate(72.13 118.45) rotate(-80.19)"/><rect class="cls-4" x="106.63" y="16.23" width="0.54" height="0.49" transform="translate(72.45 119) rotate(-80.19)"/><rect x="106.54" y="16.76" width="0.54" height="0.49" transform="translate(71.85 119.35) rotate(-80.19)"/><rect class="cls-4" x="106.06" y="16.67" width="0.54" height="0.49" transform="translate(71.53 118.8) rotate(-80.19)"/><rect class="cls-1" x="105.89" y="17.26" width="1.08" height="0.99" transform="translate(70.79 119.6) rotate(-80.19)"/><rect x="105.96" y="17.2" width="0.54" height="0.49" transform="translate(70.93 119.15) rotate(-80.19)"/><rect class="cls-4" x="106.45" y="17.29" width="0.54" height="0.49" transform="translate(71.25 119.7) rotate(-80.19)"/><rect x="106.36" y="17.82" width="0.54" height="0.49" transform="translate(70.65 120.05) rotate(-80.19)"/><rect class="cls-4" x="105.87" y="17.73" width="0.54" height="0.49" transform="translate(70.33 119.5) rotate(-80.19)"/><rect class="cls-1" x="105.71" y="18.33" width="1.08" height="0.99" transform="translate(69.59 120.3) rotate(-80.19)"/><rect x="105.78" y="18.26" width="0.54" height="0.49" transform="translate(69.73 119.85) rotate(-80.19)"/><rect class="cls-4" x="106.27" y="18.35" width="0.54" height="0.49" transform="translate(70.05 120.4) rotate(-80.19)"/><rect x="106.17" y="18.88" width="0.54" height="0.49" transform="translate(69.46 120.75) rotate(-80.19)"/><rect class="cls-4" x="105.69" y="18.8" width="0.54" height="0.49" transform="translate(69.13 120.2) rotate(-80.19)"/><rect class="cls-1" x="105.65" y="12.85" width="1.08" height="0.99" transform="matrix(0.17, -0.99, 0.99, 0.17, 74.95, 115.71)"/><rect x="105.73" y="12.79" width="0.54" height="0.49" transform="translate(75.08 115.26) rotate(-80.19)"/><rect class="cls-4" x="106.21" y="12.87" width="0.54" height="0.49" transform="translate(75.41 115.81) rotate(-80.19)"/><rect x="106.12" y="13.4" width="0.54" height="0.49" transform="translate(74.81 116.16) rotate(-80.19)"/><rect class="cls-4" x="105.63" y="13.32" width="0.54" height="0.49" transform="translate(74.49 115.61) rotate(-80.19)"/><rect class="cls-1" x="105.47" y="13.91" width="1.08" height="0.99" transform="matrix(0.17, -0.99, 0.99, 0.17, 73.75, 116.41)"/><rect x="105.54" y="13.85" width="0.54" height="0.49" transform="translate(73.89 115.96) rotate(-80.19)"/><rect class="cls-4" x="106.03" y="13.93" width="0.54" height="0.49" transform="translate(74.21 116.51) rotate(-80.19)"/><rect x="105.94" y="14.47" width="0.54" height="0.49" transform="translate(73.61 116.86) rotate(-80.19)"/><rect class="cls-4" x="105.45" y="14.38" width="0.54" height="0.49" transform="translate(73.29 116.31) rotate(-80.19)"/><rect class="cls-1" x="105.29" y="14.97" width="1.08" height="0.99" transform="translate(72.55 117.11) rotate(-80.19)"/><rect x="105.36" y="14.91" width="0.54" height="0.49" transform="translate(72.69 116.66) rotate(-80.19)"/><rect class="cls-4" x="105.84" y="15" width="0.54" height="0.49" transform="translate(73.01 117.21) rotate(-80.19)"/><rect x="105.75" y="15.53" width="0.54" height="0.49" transform="translate(72.41 117.56) rotate(-80.19)"/><rect class="cls-4" x="105.27" y="15.44" width="0.54" height="0.49" transform="translate(72.09 117.01) rotate(-80.19)"/><rect class="cls-1" x="105.1" y="16.03" width="1.08" height="0.99" transform="translate(71.35 117.81) rotate(-80.19)"/><rect x="105.18" y="15.97" width="0.54" height="0.49" transform="translate(71.49 117.36) rotate(-80.19)"/><rect class="cls-4" x="105.66" y="16.06" width="0.54" height="0.49" transform="translate(71.81 117.91) rotate(-80.19)"/><rect x="105.57" y="16.59" width="0.54" height="0.49" transform="translate(71.21 118.26) rotate(-80.19)"/><rect class="cls-4" x="105.08" y="16.5" width="0.54" height="0.49" transform="translate(70.89 117.71) rotate(-80.19)"/><rect class="cls-1" x="104.92" y="17.1" width="1.08" height="0.99" transform="translate(70.15 118.51) rotate(-80.19)"/><rect x="104.99" y="17.04" width="0.54" height="0.49" transform="translate(70.29 118.06) rotate(-80.19)"/><rect class="cls-4" x="105.48" y="17.12" width="0.54" height="0.49" transform="translate(70.61 118.61) rotate(-80.19)"/><rect x="105.39" y="17.65" width="0.54" height="0.49" transform="translate(70.01 118.96) rotate(-80.19)"/><rect class="cls-4" x="104.9" y="17.57" width="0.54" height="0.49" transform="translate(69.69 118.41) rotate(-80.19)"/><rect class="cls-1" x="104.74" y="18.16" width="1.08" height="0.99" transform="matrix(0.17, -0.99, 0.99, 0.17, 68.95, 119.21)"/><rect x="104.81" y="18.1" width="0.54" height="0.49" transform="translate(69.09 118.76) rotate(-80.19)"/><rect class="cls-4" x="105.29" y="18.18" width="0.54" height="0.49" transform="translate(69.41 119.31) rotate(-80.19)"/><rect x="105.2" y="18.71" width="0.54" height="0.49" transform="translate(68.81 119.66) rotate(-80.19)"/><rect class="cls-4" x="104.72" y="18.63" width="0.54" height="0.49" transform="translate(68.49 119.11) rotate(-80.19)"/><rect class="cls-1" x="104.68" y="12.68" width="1.08" height="0.99" transform="translate(74.3 114.61) rotate(-80.19)"/><rect x="104.75" y="12.62" width="0.54" height="0.49" transform="translate(74.44 114.16) rotate(-80.19)"/><rect class="cls-4" x="105.24" y="12.7" width="0.54" height="0.49" transform="translate(74.76 114.71) rotate(-80.19)"/><rect x="105.15" y="13.24" width="0.54" height="0.49" transform="translate(74.17 115.06) rotate(-80.19)"/><rect class="cls-4" x="104.66" y="13.15" width="0.54" height="0.49" transform="translate(73.84 114.51) rotate(-80.19)"/><rect class="cls-1" x="104.5" y="13.74" width="1.08" height="0.99" transform="translate(73.11 115.31) rotate(-80.19)"/><rect x="104.57" y="13.68" width="0.54" height="0.49" transform="translate(73.25 114.86) rotate(-80.19)"/><rect class="cls-4" x="105.06" y="13.77" width="0.54" height="0.49" transform="translate(73.57 115.41) rotate(-80.19)"/><rect x="104.96" y="14.3" width="0.54" height="0.49" transform="translate(72.97 115.76) rotate(-80.19)"/><rect class="cls-4" x="104.48" y="14.21" width="0.54" height="0.49" transform="translate(72.65 115.21) rotate(-80.19)"/><rect class="cls-1" x="104.31" y="14.8" width="1.08" height="0.99" transform="translate(71.91 116.01) rotate(-80.19)"/><rect x="104.39" y="14.74" width="0.54" height="0.49" transform="translate(72.05 115.56) rotate(-80.19)"/><rect class="cls-4" x="104.87" y="14.83" width="0.54" height="0.49" transform="translate(72.37 116.11) rotate(-80.19)"/><rect x="104.78" y="15.36" width="0.54" height="0.49" transform="translate(71.77 116.46) rotate(-80.19)"/><rect class="cls-4" x="104.29" y="15.27" width="0.54" height="0.49" transform="translate(71.45 115.91) rotate(-80.19)"/><rect class="cls-1" x="104.13" y="15.87" width="1.08" height="0.99" transform="translate(70.71 116.71) rotate(-80.19)"/><rect x="104.2" y="15.81" width="0.54" height="0.49" transform="translate(70.85 116.26) rotate(-80.19)"/><rect class="cls-4" x="104.69" y="15.89" width="0.54" height="0.49" transform="translate(71.17 116.81) rotate(-80.19)"/><rect x="104.6" y="16.42" width="0.54" height="0.49" transform="translate(70.57 117.16) rotate(-80.19)"/><rect class="cls-4" x="104.11" y="16.34" width="0.54" height="0.49" transform="translate(70.25 116.61) rotate(-80.19)"/><rect class="cls-1" x="103.95" y="16.93" width="1.08" height="0.99" transform="translate(69.51 117.41) rotate(-80.19)"/><rect x="104.02" y="16.87" width="0.54" height="0.49" transform="translate(69.65 116.96) rotate(-80.19)"/><rect class="cls-4" x="104.51" y="16.95" width="0.54" height="0.49" transform="translate(69.97 117.51) rotate(-80.19)"/><rect x="104.41" y="17.48" width="0.54" height="0.49" transform="translate(69.37 117.86) rotate(-80.19)"/><rect class="cls-4" x="103.93" y="17.4" width="0.54" height="0.49" transform="translate(69.05 117.31) rotate(-80.19)"/><rect class="cls-1" x="103.76" y="17.99" width="1.08" height="0.99" transform="translate(68.31 118.11) rotate(-80.19)"/><rect x="103.84" y="17.93" width="0.54" height="0.49" transform="translate(68.45 117.66) rotate(-80.19)"/><rect class="cls-4" x="104.32" y="18.01" width="0.54" height="0.49" transform="translate(68.77 118.21) rotate(-80.19)"/><rect x="104.23" y="18.54" width="0.54" height="0.49" transform="translate(68.17 118.56) rotate(-80.19)"/><rect class="cls-4" x="103.74" y="18.46" width="0.54" height="0.49" transform="translate(67.85 118.01) rotate(-80.19)"/><rect class="cls-1" x="103.71" y="12.51" width="1.08" height="0.99" transform="matrix(0.17, -0.99, 0.99, 0.17, 73.66, 113.51)"/><rect x="103.78" y="12.45" width="0.54" height="0.49" transform="translate(73.8 113.06) rotate(-80.19)"/><rect class="cls-4" x="104.27" y="12.54" width="0.54" height="0.49" transform="translate(74.12 113.61) rotate(-80.19)"/><rect x="104.18" y="13.07" width="0.54" height="0.49" transform="translate(73.52 113.96) rotate(-80.19)"/><rect class="cls-4" x="103.69" y="12.98" width="0.54" height="0.49" transform="translate(73.2 113.41) rotate(-80.19)"/><rect class="cls-1" x="103.53" y="13.57" width="1.08" height="0.99" transform="matrix(0.17, -0.99, 0.99, 0.17, 72.47, 114.21)"/><rect x="103.6" y="13.51" width="0.54" height="0.49" transform="translate(72.6 113.76) rotate(-80.19)"/><rect class="cls-4" x="104.08" y="13.6" width="0.54" height="0.49" transform="translate(72.93 114.31) rotate(-80.19)"/><rect x="103.99" y="14.13" width="0.54" height="0.49" transform="translate(72.33 114.66) rotate(-80.19)"/><rect class="cls-4" x="103.51" y="14.04" width="0.54" height="0.49" transform="translate(72.01 114.11) rotate(-80.19)"/><rect class="cls-1" x="103.34" y="14.64" width="1.08" height="0.99" transform="translate(71.27 114.91) rotate(-80.19)"/><rect x="103.41" y="14.58" width="0.54" height="0.49" transform="translate(71.41 114.46) rotate(-80.19)"/><rect class="cls-4" x="103.9" y="14.66" width="0.54" height="0.49" transform="translate(71.73 115.01) rotate(-80.19)"/><rect x="103.81" y="15.19" width="0.54" height="0.49" transform="translate(71.13 115.36) rotate(-80.19)"/><rect class="cls-4" x="103.32" y="15.11" width="0.54" height="0.49" transform="translate(70.81 114.81) rotate(-80.19)"/><rect class="cls-1" x="103.16" y="15.7" width="1.08" height="0.99" transform="translate(70.07 115.61) rotate(-80.19)"/><rect x="103.23" y="15.64" width="0.54" height="0.49" transform="translate(70.21 115.16) rotate(-80.19)"/><rect class="cls-4" x="103.72" y="15.72" width="0.54" height="0.49" transform="translate(70.53 115.71) rotate(-80.19)"/><rect x="103.62" y="16.25" width="0.54" height="0.49" transform="translate(69.93 116.06) rotate(-80.19)"/><rect class="cls-4" x="103.14" y="16.17" width="0.54" height="0.49" transform="translate(69.61 115.51) rotate(-80.19)"/><rect class="cls-1" x="102.97" y="16.76" width="1.08" height="0.99" transform="translate(68.87 116.31) rotate(-80.19)"/><rect x="103.05" y="16.7" width="0.54" height="0.49" transform="translate(69.01 115.86) rotate(-80.19)"/><rect class="cls-4" x="103.53" y="16.78" width="0.54" height="0.49" transform="translate(69.33 116.41) rotate(-80.19)"/><rect x="103.44" y="17.31" width="0.54" height="0.49" transform="translate(68.73 116.76) rotate(-80.19)"/><rect class="cls-4" x="102.96" y="17.23" width="0.54" height="0.49" transform="translate(68.41 116.21) rotate(-80.19)"/><rect class="cls-1" x="102.79" y="17.82" width="1.08" height="0.99" transform="translate(67.67 117.01) rotate(-80.19)"/><rect x="102.86" y="17.76" width="0.54" height="0.49" transform="translate(67.81 116.56) rotate(-80.19)"/><rect class="cls-4" x="103.35" y="17.84" width="0.54" height="0.49" transform="translate(68.13 117.11) rotate(-80.19)"/><rect x="103.26" y="18.38" width="0.54" height="0.49" transform="translate(67.53 117.46) rotate(-80.19)"/><rect class="cls-4" x="102.77" y="18.29" width="0.54" height="0.49" transform="translate(67.21 116.91) rotate(-80.19)"/><rect class="cls-1" x="102.61" y="18.88" width="1.08" height="0.99" transform="translate(66.47 117.71) rotate(-80.19)"/><rect x="102.68" y="18.82" width="0.54" height="0.49" transform="translate(66.61 117.26) rotate(-80.19)"/><rect class="cls-4" x="103.17" y="18.91" width="0.54" height="0.49" transform="translate(66.93 117.81) rotate(-80.19)"/><rect x="103.07" y="19.44" width="0.54" height="0.49" transform="translate(66.33 118.16) rotate(-80.19)"/><rect class="cls-4" x="102.59" y="19.35" width="0.54" height="0.49" transform="translate(66.01 117.61) rotate(-80.19)"/><rect class="cls-1" x="102.74" y="12.35" width="1.08" height="0.99" transform="translate(73.02 112.41) rotate(-80.19)"/><rect x="102.81" y="12.28" width="0.54" height="0.49" transform="translate(73.16 111.97) rotate(-80.19)"/><rect class="cls-4" x="103.3" y="12.37" width="0.54" height="0.49" transform="translate(73.48 112.51) rotate(-80.19)"/><rect x="103.2" y="12.9" width="0.54" height="0.49" transform="translate(72.88 112.86) rotate(-80.19)"/><rect class="cls-4" x="102.72" y="12.82" width="0.54" height="0.49" transform="translate(72.56 112.32) rotate(-80.19)"/><rect class="cls-1" x="102.55" y="13.41" width="1.08" height="0.99" transform="translate(71.82 113.11) rotate(-80.19)"/><rect x="102.63" y="13.35" width="0.54" height="0.49" transform="translate(71.96 112.67) rotate(-80.19)"/><rect class="cls-4" x="103.11" y="13.43" width="0.54" height="0.49" transform="translate(72.28 113.21) rotate(-80.19)"/><rect x="103.02" y="13.96" width="0.54" height="0.49" transform="translate(71.69 113.56) rotate(-80.19)"/><rect class="cls-4" x="102.53" y="13.88" width="0.54" height="0.49" transform="translate(71.36 113.02) rotate(-80.19)"/><rect class="cls-1" x="102.37" y="14.47" width="1.08" height="0.99" transform="matrix(0.17, -0.99, 0.99, 0.17, 70.63, 113.81)"/><rect x="102.44" y="14.41" width="0.54" height="0.49" transform="translate(70.77 113.36) rotate(-80.19)"/><rect class="cls-4" x="102.93" y="14.49" width="0.54" height="0.49" transform="translate(71.09 113.91) rotate(-80.19)"/><rect x="102.84" y="15.02" width="0.54" height="0.49" transform="translate(70.49 114.26) rotate(-80.19)"/><rect class="cls-4" x="102.35" y="14.94" width="0.54" height="0.49" transform="translate(70.17 113.71) rotate(-80.19)"/><rect class="cls-1" x="102.19" y="15.53" width="1.08" height="0.99" transform="translate(69.43 114.51) rotate(-80.19)"/><rect x="102.26" y="15.47" width="0.54" height="0.49" transform="translate(69.57 114.06) rotate(-80.19)"/><rect class="cls-4" x="102.74" y="15.55" width="0.54" height="0.49" transform="translate(69.89 114.61) rotate(-80.19)"/><rect x="102.65" y="16.08" width="0.54" height="0.49" transform="translate(69.29 114.96) rotate(-80.19)"/><rect class="cls-4" x="102.17" y="16" width="0.54" height="0.49" transform="translate(68.97 114.41) rotate(-80.19)"/><rect class="cls-1" x="102" y="16.59" width="1.08" height="0.99" transform="translate(68.23 115.21) rotate(-80.19)"/><rect x="102.07" y="16.53" width="0.54" height="0.49" transform="translate(68.37 114.76) rotate(-80.19)"/><rect class="cls-4" x="102.56" y="16.61" width="0.54" height="0.49" transform="translate(68.69 115.31) rotate(-80.19)"/><rect x="102.47" y="17.15" width="0.54" height="0.49" transform="translate(68.09 115.66) rotate(-80.19)"/><rect class="cls-4" x="101.98" y="17.06" width="0.54" height="0.49" transform="translate(67.77 115.11) rotate(-80.19)"/><rect class="cls-1" x="101.82" y="17.65" width="1.08" height="0.99" transform="translate(67.03 115.91) rotate(-80.19)"/><rect x="101.89" y="17.59" width="0.54" height="0.49" transform="translate(67.17 115.46) rotate(-80.19)"/><rect class="cls-4" x="102.38" y="17.68" width="0.54" height="0.49" transform="translate(67.49 116.01) rotate(-80.19)"/><rect x="102.29" y="18.21" width="0.54" height="0.49" transform="translate(66.89 116.36) rotate(-80.19)"/><rect class="cls-4" x="101.8" y="18.12" width="0.54" height="0.49" transform="translate(66.57 115.81) rotate(-80.19)"/><rect class="cls-1" x="101.64" y="18.71" width="1.08" height="0.99" transform="matrix(0.17, -0.99, 0.99, 0.17, 65.83, 116.61)"/><rect x="101.71" y="18.65" width="0.54" height="0.49" transform="translate(65.97 116.16) rotate(-80.19)"/><rect class="cls-4" x="102.19" y="18.74" width="0.54" height="0.49" transform="translate(66.29 116.71) rotate(-80.19)"/><rect x="102.1" y="19.27" width="0.54" height="0.49" transform="translate(65.69 117.06) rotate(-80.19)"/><rect class="cls-4" x="101.62" y="19.18" width="0.54" height="0.49" transform="translate(65.37 116.51) rotate(-80.19)"/><rect class="cls-1" x="101.76" y="12.18" width="1.08" height="0.99" transform="translate(72.38 111.32) rotate(-80.19)"/><rect x="101.84" y="12.12" width="0.54" height="0.49" transform="translate(72.52 110.87) rotate(-80.19)"/><rect class="cls-4" x="102.32" y="12.2" width="0.54" height="0.49" transform="translate(72.84 111.42) rotate(-80.19)"/><rect x="102.23" y="12.73" width="0.54" height="0.49" transform="translate(72.24 111.77) rotate(-80.19)"/><rect class="cls-4" x="101.75" y="12.65" width="0.54" height="0.49" transform="translate(71.92 111.22) rotate(-80.19)"/><rect class="cls-1" x="101.58" y="13.24" width="1.08" height="0.99" transform="translate(71.18 112.02) rotate(-80.19)"/><rect x="101.65" y="13.18" width="0.54" height="0.49" transform="translate(71.32 111.57) rotate(-80.19)"/><rect class="cls-4" x="102.14" y="13.26" width="0.54" height="0.49" transform="translate(71.64 112.12) rotate(-80.19)"/><rect x="102.05" y="13.79" width="0.54" height="0.49" transform="translate(71.04 112.47) rotate(-80.19)"/><rect class="cls-4" x="101.56" y="13.71" width="0.54" height="0.49" transform="translate(70.72 111.92) rotate(-80.19)"/><rect class="cls-1" x="101.4" y="14.3" width="1.08" height="0.99" transform="translate(69.99 112.72) rotate(-80.19)"/><rect x="101.47" y="14.24" width="0.54" height="0.49" transform="translate(70.12 112.27) rotate(-80.19)"/><rect class="cls-4" x="101.96" y="14.32" width="0.54" height="0.49" transform="translate(70.45 112.82) rotate(-80.19)"/><rect x="101.86" y="14.85" width="0.54" height="0.49" transform="translate(69.85 113.17) rotate(-80.19)"/><rect class="cls-4" x="101.38" y="14.77" width="0.54" height="0.49" transform="translate(69.53 112.62) rotate(-80.19)"/><rect class="cls-1" x="101.21" y="15.36" width="1.08" height="0.99" transform="matrix(0.17, -0.99, 0.99, 0.17, 68.79, 113.42)"/><rect x="101.29" y="15.3" width="0.54" height="0.49" transform="translate(68.93 112.97) rotate(-80.19)"/><rect class="cls-4" x="101.77" y="15.38" width="0.54" height="0.49" transform="translate(69.25 113.52) rotate(-80.19)"/><rect x="101.68" y="15.92" width="0.54" height="0.49" transform="translate(68.65 113.87) rotate(-80.19)"/><rect class="cls-4" x="101.19" y="15.83" width="0.54" height="0.49" transform="translate(68.33 113.32) rotate(-80.19)"/><rect class="cls-1" x="101.03" y="16.42" width="1.08" height="0.99" transform="matrix(0.17, -0.99, 0.99, 0.17, 67.59, 114.12)"/><rect x="101.1" y="16.36" width="0.54" height="0.49" transform="translate(67.73 113.67) rotate(-80.19)"/><rect class="cls-4" x="101.59" y="16.45" width="0.54" height="0.49" transform="translate(68.05 114.22) rotate(-80.19)"/><rect x="101.5" y="16.98" width="0.54" height="0.49" transform="translate(67.45 114.57) rotate(-80.19)"/><rect class="cls-4" x="101.01" y="16.89" width="0.54" height="0.49" transform="translate(67.13 114.02) rotate(-80.19)"/><rect class="cls-1" x="100.85" y="17.48" width="1.08" height="0.99" transform="translate(66.39 114.82) rotate(-80.19)"/><rect x="100.92" y="17.42" width="0.54" height="0.49" transform="translate(66.53 114.37) rotate(-80.19)"/><rect class="cls-4" x="101.41" y="17.51" width="0.54" height="0.49" transform="translate(66.85 114.92) rotate(-80.19)"/><rect x="101.31" y="18.04" width="0.54" height="0.49" transform="translate(66.25 115.27) rotate(-80.19)"/><rect class="cls-4" x="100.83" y="17.95" width="0.54" height="0.49" transform="translate(65.93 114.72) rotate(-80.19)"/></g><polygon class="cls-6" points="357.58 37.07 155.41 34.37 155.17 34.32 0 6.1 0 0 155.99 28.37 357.66 31.07 357.58 37.07"/></g></svg>