<svg xmlns="http://www.w3.org/2000/svg" viewBox="0 0 375 375"><defs><style>.cls-1{fill:#274ba0;}.cls-2{fill:#3261bf;}</style></defs><title>mobile</title><g id="Layer_1" data-name="Layer 1"><rect class="cls-1" width="375" height="375"/></g><g id="Layer_2" data-name="Layer 2"><path d="M369,26.06l5.7-11.55-.06-5.89-8.12,15.94A4.6,4.6,0,0,1,369,26.06Z"/><path d="M287.48,98l9.31-48.49,30.13,11.28a4.72,4.72,0,0,1,1.65-3.17L294.24,45.29l-10,52.56A4.83,4.83,0,0,1,287.48,98Z"/><path d="M334.86,57.55l10.37-31.12,15.4,3.82a4.58,4.58,0,0,1,.25-2.83L343.22,23,331.71,56.46A4.63,4.63,0,0,1,334.86,57.55Z"/><path class="cls-2" d="M360.63,30.25a4,4,0,0,0,.31.85A4.8,4.8,0,0,0,369.6,27a4.74,4.74,0,0,0-.59-.91,4.6,4.6,0,0,0-2.48-1.5,4.9,4.9,0,0,0-5.65,2.86A4.58,4.58,0,0,0,360.63,30.25Z"/><path class="cls-2" d="M326.92,60.83a4.38,4.38,0,0,0,1.07,3.3,4.83,4.83,0,0,0,6.71.37,4.56,4.56,0,0,0,.62-6.52,4.68,4.68,0,0,0-.46-.43,4.63,4.63,0,0,0-3.15-1.09,4.91,4.91,0,0,0-3.09,1.15l-.05,0A4.72,4.72,0,0,0,326.92,60.83Z"/><path class="cls-2" d="M281.73,105.28a4.82,4.82,0,0,0,6.7.38,4.57,4.57,0,0,0,.63-6.53,4.36,4.36,0,0,0-1.6-1.14,5,5,0,0,0-5.1.77A4.55,4.55,0,0,0,281.73,105.28Z"/><path d="M14.63,357.52,6,375H9L17.1,359A4.53,4.53,0,0,1,14.63,357.52Z"/><path d="M96.15,285.55,86.84,334,56.72,322.75a4.78,4.78,0,0,1-1.65,3.17L89.4,338.29l10-52.56A4.86,4.86,0,0,1,96.15,285.55Z"/><path d="M48.78,326,38.41,357.16,23,353.34a4.54,4.54,0,0,1-.25,2.82l17.67,4.4,11.5-33.43A4.63,4.63,0,0,1,48.78,326Z"/><path class="cls-2" d="M23,353.34a4.62,4.62,0,0,0-.3-.86,4.69,4.69,0,0,0-6.31-2.06,4.69,4.69,0,0,0-2.36,6.2,4.28,4.28,0,0,0,.6.9A4.53,4.53,0,0,0,17.1,359a4.92,4.92,0,0,0,5.65-2.87A4.54,4.54,0,0,0,23,353.34Z"/><path class="cls-2" d="M56.72,322.75a4.4,4.4,0,0,0-1.08-3.3,4.83,4.83,0,0,0-6.7-.37,4.56,4.56,0,0,0-.63,6.53,4.79,4.79,0,0,0,.47.43,4.63,4.63,0,0,0,3.14,1.09A5,5,0,0,0,55,326l.06-.06A4.78,4.78,0,0,0,56.72,322.75Z"/><path class="cls-2" d="M101.91,278.3a4.84,4.84,0,0,0-6.7-.38,4.57,4.57,0,0,0-.64,6.53,4.63,4.63,0,0,0,1.61,1.15,4.83,4.83,0,0,0,3.27.19,5.12,5.12,0,0,0,1.83-1A4.58,4.58,0,0,0,101.91,278.3Z"/></g></svg>