<svg xmlns="http://www.w3.org/2000/svg" viewBox="0 0 1366 375"><defs><style>.cls-1{fill:#274ba0;}.cls-2{fill:#3261bf;}</style></defs><title>desktop</title><g id="Layer_1" data-name="Layer 1"><rect class="cls-1" width="1366" height="375"/></g><g id="Layer_2" data-name="Layer 2"><path d="M10.44,347.14-1,369.79V375H1.71l13.07-25.18A8,8,0,0,1,10.44,347.14Z"/><path d="M155.11,221.33l-17.05,85.35-53-20.28A8.32,8.32,0,0,1,82.15,292l60.36,22.26,18.37-92.52A8.65,8.65,0,0,1,155.11,221.33Z"/><path d="M71.06,292.08l-18.7,54.73-27.1-6.94a8,8,0,0,1-.48,5l31.09,8,20.72-58.79A8.22,8.22,0,0,1,71.06,292.08Z"/><path class="cls-2" d="M25.26,339.87a8.47,8.47,0,0,0-.53-1.51,8.28,8.28,0,0,0-11.09-3.73,8.28,8.28,0,0,0-4.24,10.9,7.66,7.66,0,0,0,1,1.61,8,8,0,0,0,4.34,2.68,8.64,8.64,0,0,0,10-5A8,8,0,0,0,25.26,339.87Z"/><path class="cls-2" d="M85.09,286.4a7.71,7.71,0,0,0-1.85-5.84,8.51,8.51,0,0,0-11.81-.74,8,8,0,0,0-1.19,11.5,8.39,8.39,0,0,0,.82.76,8.22,8.22,0,0,0,5.53,2,8.82,8.82,0,0,0,5.46-2l.1-.1A8.32,8.32,0,0,0,85.09,286.4Z"/><path class="cls-2" d="M165.3,208.53a8.52,8.52,0,0,0-11.82-.74,7.88,7.88,0,0,0,1.63,13.54,8.65,8.65,0,0,0,5.77.37,8.93,8.93,0,0,0,3.23-1.68A8,8,0,0,0,165.3,208.53Z"/><path d="M1356.36,31.44l9.65-20.3V0L1352,28.6A8.32,8.32,0,0,1,1356.36,31.44Z"/><path d="M1213.87,158.55l15.51-87.71,53.37,21.88A8.4,8.4,0,0,1,1285.6,87L1224.78,63l-16.69,95.09A8.48,8.48,0,0,1,1213.87,158.55Z"/><path d="M1296.7,87.12,1314.41,31l27.26,7.65a8.25,8.25,0,0,1,.39-5.11l-31.27-8.82L1291.12,85A8.34,8.34,0,0,1,1296.7,87.12Z"/><path class="cls-2" d="M1341.67,38.66a8.41,8.41,0,1,0,14.69-7.22,8.39,8.39,0,0,0-14.69,7.22Z"/><path class="cls-2" d="M1282.75,92.72a8.4,8.4,0,1,0,14.78-4.8,8.89,8.89,0,0,0-.83-.8,8.45,8.45,0,0,0-11-.18.76.76,0,0,1-.09.09A8.4,8.4,0,0,0,1282.75,92.72Z"/><path class="cls-2" d="M1203.91,171.57a8.39,8.39,0,1,0,4.18-13.51,8.48,8.48,0,0,0-3.2,1.67A8.4,8.4,0,0,0,1203.91,171.57Z"/></g></svg>