<svg xmlns="http://www.w3.org/2000/svg" viewBox="0 0 1366 685"><defs><style>.cls-1{fill:#274ba0;}.cls-2{fill:#fff;}</style></defs><title>Artboard 1 copy</title><g id="Layer_1" data-name="Layer 1"><rect class="cls-1" x="0.5" y="0.5" width="1365" height="684"/><path d="M1365,1V684H1V1H1365m1-1H0V685H1366V0Z"/></g><g id="Layer_2" data-name="Layer 2"><path d="M17.64,642.73l-17,33.74L4,683.69l19.4-37.38A10.73,10.73,0,0,1,17.64,642.73Z"/><path d="M210.86,474.7l-22.78,114L117.35,561.6a11.17,11.17,0,0,1-3.94,7.44L194,598.76l24.53-123.57A11.43,11.43,0,0,1,210.86,474.7Z"/><path d="M98.6,569.19l-25,73.1L37.43,633a10.58,10.58,0,0,1-.64,6.64l41.52,10.68L106,571.82A11,11,0,0,1,98.6,569.19Z"/><path class="cls-2" d="M37.43,633a10.3,10.3,0,0,0-.7-2,11.06,11.06,0,0,0-14.81-5,11.05,11.05,0,0,0-5.66,14.56,10.13,10.13,0,0,0,1.38,2.15,10.73,10.73,0,0,0,5.8,3.58,11.54,11.54,0,0,0,13.35-6.65A10.58,10.58,0,0,0,37.43,633Z"/><path class="cls-2" d="M117.35,561.6a10.3,10.3,0,0,0-2.47-7.79,11.37,11.37,0,0,0-15.78-1,10.75,10.75,0,0,0-1.59,15.35,11.56,11.56,0,0,0,1.09,1,11,11,0,0,0,7.39,2.63,11.68,11.68,0,0,0,7.3-2.66l.12-.12A11.17,11.17,0,0,0,117.35,561.6Z"/><path class="cls-2" d="M224.46,457.6a11.37,11.37,0,0,0-15.77-1,10.53,10.53,0,0,0,2.17,18.09,11.43,11.43,0,0,0,7.7.49,11.89,11.89,0,0,0,4.32-2.23A10.75,10.75,0,0,0,224.46,457.6Z"/><path d="M1355.45,30.71l12.38-26.07L1365.17-1,1351,27.84A8.44,8.44,0,0,1,1355.45,30.71Z"/><path d="M1211.61,159l15.65-88.54,53.88,22.09a8.43,8.43,0,0,1,2.88-5.74l-61.4-24.29-16.85,96A8.47,8.47,0,0,1,1211.61,159Z"/><path d="M1295.22,86.91l17.88-56.63L1340.61,38a8.45,8.45,0,0,1,.4-5.17l-31.56-8.89-19.86,60.82A8.42,8.42,0,0,1,1295.22,86.91Z"/><path class="cls-2" d="M1340.61,38a8.6,8.6,0,0,0,.56,1.59,8.48,8.48,0,1,0,15.35-7.19,8.08,8.08,0,0,0-1.07-1.69A8.48,8.48,0,0,0,1340.61,38Z"/><path class="cls-2" d="M1281.14,92.57a8.48,8.48,0,1,0,14.92-4.85,9.16,9.16,0,0,0-.84-.81,8.52,8.52,0,0,0-11.11-.18l-.09.1A8.43,8.43,0,0,0,1281.14,92.57Z"/><path class="cls-2" d="M1201.55,172.16a8.47,8.47,0,1,0,4.22-13.63,8.35,8.35,0,0,0-3.23,1.68A8.49,8.49,0,0,0,1201.55,172.16Z"/></g></svg>