<svg xmlns="http://www.w3.org/2000/svg" viewBox="0 0 1366 265"><defs><style>.cls-1{fill:#274ba0;}.cls-2{fill:#fff;}</style></defs><title>Artboard 1</title><g id="Layer_1" data-name="Layer 1"><rect class="cls-1" x="0.5" y="0.5" width="1365" height="264"/><path d="M1365,1V264H1V1H1365m1-1H0V265H1366V0Z"/></g><g id="Layer_2" data-name="Layer 2"><path d="M11.41,237.14-1.31,262.4l2.53,5.41,14.52-28A8,8,0,0,1,11.41,237.14Z"/><path d="M156.07,111.33l-17,85.35-53-20.28a8.37,8.37,0,0,1-3,5.56l60.36,22.26,18.37-92.52A8.65,8.65,0,0,1,156.07,111.33Z"/><path d="M72,182.08,53.33,236.81l-27.11-6.94a8,8,0,0,1-.48,5l31.09,8,20.73-58.79A8.23,8.23,0,0,1,72,182.08Z"/><path class="cls-2" d="M26.22,229.87a7.71,7.71,0,0,0-.52-1.51,8.28,8.28,0,0,0-11.09-3.73,8.28,8.28,0,0,0-4.24,10.9,7.66,7.66,0,0,0,1,1.61,8,8,0,0,0,4.33,2.68,8.63,8.63,0,0,0,10-5A8,8,0,0,0,26.22,229.87Z"/><path class="cls-2" d="M86.06,176.4a7.71,7.71,0,0,0-1.85-5.84,8.51,8.51,0,0,0-11.81-.74,8,8,0,0,0-1.19,11.5,8.63,8.63,0,0,0,6.35,2.73,8.82,8.82,0,0,0,5.46-2l.09-.1A8.37,8.37,0,0,0,86.06,176.4Z"/><path class="cls-2" d="M166.26,98.53a8.51,8.51,0,0,0-11.81-.74,7.89,7.89,0,0,0,1.62,13.54,8.65,8.65,0,0,0,5.77.37,8.85,8.85,0,0,0,3.23-1.68A8,8,0,0,0,166.26,98.53Z"/><path d="M1355.36,32.44l12.27-25.82L1365,1,1351,29.6A8.32,8.32,0,0,1,1355.36,32.44Z"/><path d="M1212.87,159.55l15.51-87.71,53.37,21.88A8.4,8.4,0,0,1,1284.6,88L1223.78,64l-16.69,95.09A8.48,8.48,0,0,1,1212.87,159.55Z"/><path d="M1295.7,88.12,1313.41,32l27.26,7.65a8.25,8.25,0,0,1,.39-5.11l-31.27-8.82L1290.12,86A8.34,8.34,0,0,1,1295.7,88.12Z"/><path class="cls-2" d="M1340.67,39.66a8.41,8.41,0,1,0,14.69-7.22,8.39,8.39,0,0,0-14.69,7.22Z"/><path class="cls-2" d="M1281.75,93.72a8.4,8.4,0,1,0,14.78-4.8,8.89,8.89,0,0,0-.83-.8,8.45,8.45,0,0,0-11-.18.76.76,0,0,1-.09.09A8.4,8.4,0,0,0,1281.75,93.72Z"/><path class="cls-2" d="M1202.91,172.57a8.39,8.39,0,1,0,4.18-13.51,8.48,8.48,0,0,0-3.2,1.67A8.4,8.4,0,0,0,1202.91,172.57Z"/></g></svg>
