<svg xmlns="http://www.w3.org/2000/svg" viewBox="0 0 1366 285"><defs><style>.cls-1{fill:#274ba0;}.cls-2{fill:#3261bf;}</style></defs><title>background-desktop</title><g id="Layer_1" data-name="Layer 1"><rect class="cls-1" x="-0.06" width="1366.06" height="285"/></g><g id="Layer_2" data-name="Layer 2"><path d="M10.2,260-.06,280.32V285H2.35L14.1,262.36A7.18,7.18,0,0,1,10.2,260Z"/><path d="M140.28,146.82,125,223.56,77.33,205.33a7.57,7.57,0,0,1-2.65,5l54.27,20,16.52-83.2A7.64,7.64,0,0,1,140.28,146.82Z"/><path d="M64.7,210.44,47.9,259.65l-24.38-6.24a7.21,7.21,0,0,1-.43,4.47l28,7.19,18.64-52.86A7.43,7.43,0,0,1,64.7,210.44Z"/><path class="cls-2" d="M23.52,253.41a7.08,7.08,0,0,0-.47-1.36,7.45,7.45,0,0,0-10-3.35,7.44,7.44,0,0,0-3.81,9.81A7,7,0,0,0,10.2,260a7.18,7.18,0,0,0,3.9,2.41,7.78,7.78,0,0,0,9-4.48A7.21,7.21,0,0,0,23.52,253.41Z"/><path class="cls-2" d="M77.33,205.33a7,7,0,0,0-1.67-5.25A7.65,7.65,0,0,0,65,199.42,7.22,7.22,0,0,0,64,209.75a7.86,7.86,0,0,0,.73.69,7.43,7.43,0,0,0,5,1.77,7.88,7.88,0,0,0,4.91-1.79.34.34,0,0,1,.09-.08A7.57,7.57,0,0,0,77.33,205.33Z"/><path class="cls-2" d="M149.44,135.31a7.64,7.64,0,0,0-10.62-.66A7.22,7.22,0,0,0,137.75,145a7.11,7.11,0,0,0,2.53,1.84,7.64,7.64,0,0,0,5.19.33,7.81,7.81,0,0,0,2.9-1.5A7.23,7.23,0,0,0,149.44,135.31Z"/><path d="M1357.59,28.28,1366.26,10V0l-12.61,25.72A7.52,7.52,0,0,1,1357.59,28.28Z"/><path d="M1229.46,142.57,1243.4,63.7l48,19.68a7.49,7.49,0,0,1,2.56-5.11l-54.68-21.64-15,85.51A7.52,7.52,0,0,1,1229.46,142.57Z"/><path d="M1303.94,78.34l15.92-50.45,24.52,6.88a7.45,7.45,0,0,1,.35-4.6l-28.12-7.92-17.68,54.18A7.46,7.46,0,0,1,1303.94,78.34Z"/><path class="cls-2" d="M1344.38,34.77a7.46,7.46,0,0,0,.49,1.42,7.55,7.55,0,0,0,13.68-6.41,8,8,0,0,0-1-1.5,7.52,7.52,0,0,0-3.95-2.56,7.54,7.54,0,0,0-9.26,9.05Z"/><path class="cls-2" d="M1291.4,83.38a7.55,7.55,0,1,0,13.29-4.32,7.27,7.27,0,0,0-.75-.72,7.6,7.6,0,0,0-9.89-.16.76.76,0,0,0-.09.09A7.49,7.49,0,0,0,1291.4,83.38Z"/><path class="cls-2" d="M1220.5,154.28a7.55,7.55,0,1,0,3.76-12.14,7.45,7.45,0,0,0-2.87,1.49A7.56,7.56,0,0,0,1220.5,154.28Z"/></g></svg>