<svg xmlns="http://www.w3.org/2000/svg" viewBox="0 0 1366 685"><defs><style>.cls-1{fill:#274ba0;}.cls-2{fill:#fff;}</style></defs><title>Artboard 1 copy</title><g id="Layer_1" data-name="Layer 1"><rect class="cls-1" width="1366" height="685"/></g><g id="Layer_2" data-name="Layer 2"><path d="M13.64,643.73,0,670.83l0,13.86,19.4-37.38A10.73,10.73,0,0,1,13.64,643.73Z"/><path d="M206.86,475.7l-22.78,114L113.35,562.6a11.17,11.17,0,0,1-3.94,7.44L190,599.76l24.53-123.57A11.43,11.43,0,0,1,206.86,475.7Z"/><path d="M94.6,570.19l-25,73.1L33.43,634a10.58,10.58,0,0,1-.64,6.64l41.52,10.68L102,572.82A11,11,0,0,1,94.6,570.19Z"/><path class="cls-2" d="M33.43,634a10.3,10.3,0,0,0-.7-2,11.06,11.06,0,0,0-14.81-5,11.05,11.05,0,0,0-5.66,14.56,10.13,10.13,0,0,0,1.38,2.15,10.73,10.73,0,0,0,5.8,3.58,11.54,11.54,0,0,0,13.35-6.65A10.58,10.58,0,0,0,33.43,634Z"/><path class="cls-2" d="M113.35,562.6a10.3,10.3,0,0,0-2.47-7.79,11.37,11.37,0,0,0-15.78-1,10.75,10.75,0,0,0-1.59,15.35,11.56,11.56,0,0,0,1.09,1,11,11,0,0,0,7.39,2.63,11.68,11.68,0,0,0,7.3-2.66l.12-.12A11.17,11.17,0,0,0,113.35,562.6Z"/><path class="cls-2" d="M220.46,458.6a11.37,11.37,0,0,0-15.77-1,10.53,10.53,0,0,0,2.17,18.09,11.43,11.43,0,0,0,7.7.49,11.89,11.89,0,0,0,4.32-2.23A10.75,10.75,0,0,0,220.46,458.6Z"/><path d="M1356.27,31.75l9.78-20.57L1366,0l-14.16,28.88A8.32,8.32,0,0,1,1356.27,31.75Z"/><path d="M1212.44,160.06l15.65-88.54L1282,93.6a8.47,8.47,0,0,1,2.88-5.74l-61.4-24.28-16.85,96A8.47,8.47,0,0,1,1212.44,160.06Z"/><path d="M1296.05,88l17.87-56.64L1341.44,39a8.44,8.44,0,0,1,.39-5.17L1310.27,25,1290.42,85.8A8.42,8.42,0,0,1,1296.05,88Z"/><path class="cls-2" d="M1341.44,39a8.87,8.87,0,0,0,.56,1.59,8.48,8.48,0,1,0,15.35-7.19,7.73,7.73,0,0,0-1.08-1.69,8.58,8.58,0,0,0-10.19-2.4,8.55,8.55,0,0,0-4.64,9.69Z"/><path class="cls-2" d="M1282,93.6a8.48,8.48,0,1,0,14.92-4.84,9.16,9.16,0,0,0-.84-.81,8.52,8.52,0,0,0-11.11-.18l-.09.09A8.47,8.47,0,0,0,1282,93.6Z"/><path class="cls-2" d="M1202.38,173.19a8.48,8.48,0,0,0,12.94-10.95,8.37,8.37,0,0,0-2.88-2.18,8.47,8.47,0,0,0-5.84-.5,8.37,8.37,0,0,0-3.23,1.69A8.47,8.47,0,0,0,1202.38,173.19Z"/></g></svg>
