<svg xmlns="http://www.w3.org/2000/svg" viewBox="0 0 768 375"><defs><style>.cls-1{fill:#274ba0;}.cls-2{fill:#3261bf;}</style></defs><title>small-tablet</title><g id="Layer_1" data-name="Layer 1"><rect class="cls-1" y="0.15" width="768" height="374.85"/></g><g id="Layer_2" data-name="Layer 2"><path d="M761.81,29.5,768,17l-.07-6.39-8.8,17.29A5,5,0,0,1,761.81,29.5Z"/><path d="M673.37,107.58,683.47,55l32.68,12.23a5.16,5.16,0,0,1,1.79-3.44L680.7,50.36l-10.88,57A5.21,5.21,0,0,1,673.37,107.58Z"/><path d="M724.76,63.66,736,29.9,752.73,34A4.86,4.86,0,0,1,753,31L733.83,26.2,721.35,62.47A5,5,0,0,1,724.76,63.66Z"/><path class="cls-2" d="M752.73,34a4,4,0,0,0,.33.93,5.21,5.21,0,0,0,9.39-4.49,4.9,4.9,0,0,0-3.32-2.61,5.41,5.41,0,0,0-3.52.37A5.35,5.35,0,0,0,753,31,4.86,4.86,0,0,0,752.73,34Z"/><path class="cls-2" d="M716.15,67.22a4.75,4.75,0,0,0,1.17,3.58,5.23,5.23,0,0,0,7.27.4,4.94,4.94,0,0,0,.68-7.08,5.57,5.57,0,0,0-.51-.46,5,5,0,0,0-3.41-1.19A5.41,5.41,0,0,0,718,63.72l-.06.06A5.16,5.16,0,0,0,716.15,67.22Z"/><path class="cls-2" d="M667.13,115.44a5.24,5.24,0,0,0,7.27.41,5,5,0,0,0,.69-7.08,4.83,4.83,0,0,0-1.74-1.25,5.42,5.42,0,0,0-5.53.84A5,5,0,0,0,667.13,115.44Z"/><path d="M24.4,356.16l-9.33,18.92h3.21l8.8-17.29A4.91,4.91,0,0,1,24.4,356.16Z"/><path d="M112.84,278.09l-10.1,52.59L70.06,318.45a5.11,5.11,0,0,1-1.79,3.43l37.24,13.42,10.88-57A5.33,5.33,0,0,1,112.84,278.09Z"/><path d="M61.45,322,50.2,355.77l-16.72-4.15a4.8,4.8,0,0,1-.27,3.06l19.17,4.78,12.48-36.27A5,5,0,0,1,61.45,322Z"/><path class="cls-2" d="M33.48,351.62a4.88,4.88,0,0,0-.32-.93,5.21,5.21,0,0,0-9.4,4.49,5,5,0,0,0,.64,1,4.91,4.91,0,0,0,2.68,1.63,5.3,5.3,0,0,0,6.13-3.11A4.8,4.8,0,0,0,33.48,351.62Z"/><path class="cls-2" d="M70.06,318.45a4.77,4.77,0,0,0-1.17-3.59,5.25,5.25,0,0,0-7.27-.4,5,5,0,0,0-.68,7.08,4.41,4.41,0,0,0,.51.46,5,5,0,0,0,3.41,1.19,5.41,5.41,0,0,0,3.35-1.25l.06-.06A5.11,5.11,0,0,0,70.06,318.45Z"/><path class="cls-2" d="M119.08,270.22a5.25,5.25,0,0,0-7.27-.41,5,5,0,0,0-.68,7.08,4.79,4.79,0,0,0,1.73,1.25,5.24,5.24,0,0,0,3.56.2,5.4,5.4,0,0,0,2-1A5,5,0,0,0,119.08,270.22Z"/></g></svg>