<svg xmlns="http://www.w3.org/2000/svg" viewBox="0 0 1024 375"><defs><style>.cls-1{fill:#274ba0;}.cls-2{fill:#3261bf;}</style></defs><title>large-tablet</title><g id="Layer_1" data-name="Layer 1"><rect class="cls-1" width="1024" height="375"/></g><g id="Layer_2" data-name="Layer 2"><path d="M1016,37.55l8.2-16.59-.08-8.46-11.67,22.9A6.44,6.44,0,0,1,1016,37.55Z"/><path d="M898.87,141,912.25,71.3l43.28,16.2A6.82,6.82,0,0,1,957.9,83L908.58,65.18l-14.41,75.51A7,7,0,0,1,898.87,141Z"/><path d="M966.93,82.79l14.9-44.71L1004,43.57a6.43,6.43,0,0,1,.36-4.06l-25.39-6.32-16.53,48A6.69,6.69,0,0,1,966.93,82.79Z"/><path class="cls-2" d="M1004,43.57a6.43,6.43,0,0,0,.43,1.23,6.91,6.91,0,0,0,12.45-5.94,6.18,6.18,0,0,0-.86-1.31,6.44,6.44,0,0,0-3.55-2.15,7,7,0,0,0-8.11,4.11A6.43,6.43,0,0,0,1004,43.57Z"/><path class="cls-2" d="M955.53,87.5a6.3,6.3,0,0,0,1.54,4.75,6.94,6.94,0,0,0,9.63.53,6.55,6.55,0,0,0,.9-9.37,5.59,5.59,0,0,0-.67-.62,6.69,6.69,0,0,0-4.52-1.57A7.16,7.16,0,0,0,958,82.87a.27.27,0,0,1-.07.08A6.82,6.82,0,0,0,955.53,87.5Z"/><path class="cls-2" d="M890.6,151.37a7,7,0,0,0,9.63.54,6.43,6.43,0,0,0-1.39-11,7,7,0,0,0-4.71-.27,7.2,7.2,0,0,0-2.62,1.38A6.57,6.57,0,0,0,890.6,151.37Z"/><path d="M20.46,349.44,8.1,374.49h4.25L24,351.59A6.51,6.51,0,0,1,20.46,349.44Z"/><path d="M137.58,246l-13.37,69.66-43.28-16.2A6.86,6.86,0,0,1,78.56,304l49.32,17.77,14.41-75.51A6.93,6.93,0,0,1,137.58,246Z"/><path d="M69.52,304.2l-14.9,44.71-22.13-5.49a6.5,6.5,0,0,1-.36,4.06l25.38,6.32,16.53-48A6.69,6.69,0,0,1,69.52,304.2Z"/><path class="cls-2" d="M32.49,343.42a5.85,5.85,0,0,0-.44-1.23,6.74,6.74,0,0,0-9-3,6.74,6.74,0,0,0-3.39,8.91,6.43,6.43,0,0,0,4.4,3.46,7,7,0,0,0,8.12-4.11A6.5,6.5,0,0,0,32.49,343.42Z"/><path class="cls-2" d="M80.93,299.49a6.3,6.3,0,0,0-1.55-4.75,6.94,6.94,0,0,0-9.63-.53,6.55,6.55,0,0,0-.9,9.37,6.48,6.48,0,0,0,.67.62A6.69,6.69,0,0,0,74,305.77a7.14,7.14,0,0,0,4.44-1.65l.08-.08A6.86,6.86,0,0,0,80.93,299.49Z"/><path class="cls-2" d="M145.85,235.62a6.94,6.94,0,0,0-9.63-.54,6.42,6.42,0,0,0,1.4,11,7,7,0,0,0,4.7.27,7.2,7.2,0,0,0,2.62-1.38A6.56,6.56,0,0,0,145.85,235.62Z"/></g></svg>