<svg id="Layer_1" data-name="Layer 1" xmlns="http://www.w3.org/2000/svg" viewBox="0 0 152 129.49"><defs><style>.cls-1{fill:#fff;}</style></defs><title>Artboard 8</title><rect class="cls-1" x="89.99" y="84.21" width="40.83" height="5.16"/><rect class="cls-1" x="89.99" y="95.56" width="21.16" height="5.16"/><polygon class="cls-1" points="4.84 113.1 25.13 99.25 45.59 106.94 66.04 93.19 66.49 129.5 4.84 129.5 4.84 113.1"/><polygon class="cls-1" points="104.69 25.38 90.58 41.83 104.69 58.28 152 58.28 152 25.38 104.69 25.38"/><circle class="cls-1" cx="42.75" cy="41.83" r="36.85"/><path d="M37.9,57.59A19.74,19.74,0,1,1,57.64,37.85,19.77,19.77,0,0,1,37.9,57.59Zm0-37.48A17.74,17.74,0,1,0,55.64,37.85,17.76,17.76,0,0,0,37.9,20.11Z"/><path d="M37.85,75.7A37.85,37.85,0,1,1,75.7,37.85,37.89,37.89,0,0,1,37.85,75.7Zm0-73.7A35.85,35.85,0,1,0,73.7,37.85,35.89,35.89,0,0,0,37.85,2Z"/><path d="M37.85,19.86a.75.75,0,0,1-.75-.75V1a.75.75,0,0,1,1.5,0V19.11A.76.76,0,0,1,37.85,19.86Z"/><path d="M148,55.23H100.65a1,1,0,0,1-.76-.35L85.79,38.43a1,1,0,0,1,0-1.3l14.1-16.45a1,1,0,0,1,.76-.35H148a1,1,0,0,1,1,1v32.9A1,1,0,0,1,148,55.23Zm-46.85-2H147V22.33H101.11L87.87,37.78Z"/><path d="M63.49,126.67H1.84a1,1,0,0,1-1-1V82a1,1,0,0,1,2,0v42.68H63.49a1,1,0,0,1,0,2Z"/><path d="M1.84,110a.74.74,0,0,1-.42-1.36L21.71,94.8a.78.78,0,0,1,.68-.08l20.1,7.55L62.62,88.74a.75.75,0,0,1,1,.2.74.74,0,0,1-.21,1L43,103.73a.78.78,0,0,1-.68.08L22.23,96.26l-20,13.63A.72.72,0,0,1,1.84,110Z"/><path d="M22.13,102.29a.33.33,0,0,1-.21-.07.38.38,0,0,1-.1-.52l3.6-5.14a.37.37,0,0,1,.52-.1A.38.38,0,0,1,26,97l-3.59,5.14A.36.36,0,0,1,22.13,102.29Z"/><path d="M22.13,109.7a.37.37,0,0,1-.31-.59l7.7-11a.37.37,0,0,1,.61.43l-7.69,11A.36.36,0,0,1,22.13,109.7Z"/><path d="M22.13,117.12a.33.33,0,0,1-.21-.07.38.38,0,0,1-.1-.52l11.8-16.89a.37.37,0,0,1,.52-.09.38.38,0,0,1,.1.52L22.44,117A.38.38,0,0,1,22.13,117.12Z"/><path d="M22.13,124.53a.33.33,0,0,1-.21-.07.38.38,0,0,1-.1-.52l15.9-22.76a.38.38,0,0,1,.62.43l-15.9,22.76A.36.36,0,0,1,22.13,124.53Z"/><path d="M26.25,126A.35.35,0,0,1,26,126a.37.37,0,0,1-.09-.52l15.59-22.32a.37.37,0,0,1,.52-.1.39.39,0,0,1,.1.53l-15.6,22.32A.38.38,0,0,1,26.25,126Z"/><path d="M87.55,126.67a1,1,0,0,1-1-1V79.82a1,1,0,0,1,2,0v45.85A1,1,0,0,1,87.55,126.67Z"/><path d="M128.38,87.89H87.55a.74.74,0,0,1-.75-.75V82a.74.74,0,0,1,.75-.75h40.83a.75.75,0,0,1,.75.75v5.15A.75.75,0,0,1,128.38,87.89ZM88.3,86.39h39.33V82.74H88.3Z"/><path d="M108.71,99.25H87.55a.75.75,0,0,1-.75-.75V93.34a.75.75,0,0,1,.75-.75h21.16a.75.75,0,0,1,.75.75V98.5A.75.75,0,0,1,108.71,99.25ZM88.3,97.75H108V94.09H88.3Z"/><path d="M118.25,110.61H87.55a.75.75,0,0,1-.75-.75V104.7a.74.74,0,0,1,.75-.75h30.7a.74.74,0,0,1,.75.75v5.16A.75.75,0,0,1,118.25,110.61Zm-29.95-1.5h29.2v-3.66H88.3Z"/><path d="M108.71,122H87.55a.74.74,0,0,1-.75-.75v-5.16a.75.75,0,0,1,.75-.75h21.16a.75.75,0,0,1,.75.75v5.16A.74.74,0,0,1,108.71,122Zm-20.41-1.5H108V116.8H88.3Z"/></svg>