<svg xmlns="http://www.w3.org/2000/svg" viewBox="0 0 400 400"><defs><style>.cls-1{fill:#fff;}.cls-2{fill:#ffdf47;}.cls-3{fill:#0d3698;}.cls-4{fill:#faf0e5;}.cls-5{fill:#212121;}.cls-6{fill:#151308;}.cls-7{fill:#121212;}.cls-8{fill:#9bd5ff;}.cls-9{fill:#543411;}.cls-10{fill:#1e150c;}</style></defs><title>start a dialogue</title><g id="Layer_1" data-name="Layer 1"><rect class="cls-1" width="400" height="234.87"/><rect class="cls-2" x="-0.47" y="202.13" width="400" height="197.87"/></g><g id="Layer_3" data-name="Layer 3"><path class="cls-3" d="M63.39,323.11l-3.51,9.73c-1.8,5-4.18,10.72-4.17,16.08a27,27,0,0,0,1.51,9.26c1.06,3,1.78,6.18,2.62,9.28a49.43,49.43,0,0,1,1.23,10.78c.33,7.28,1.11,14.53,1.69,21.8H101.6l1.48-32.1V362.6l3.36-20.28-3.69-28.86A68.28,68.28,0,0,0,63.39,323.11Z"/><path class="cls-1" d="M65.44,233.21,53,235.11l-10.9,11-13.55,9.61-4.83,10.72V270L28.32,275l-.23,3.42L25,280.58l-7.31,2.83,1.06,6.48,3.3,6.75h7.78l2.71,5.8,4.57,1.47s3.2-.7,6.39,4.6c0,0,6.45,16.73,21.49,14.38,0,0,19.28-10.14,41.31-9.43,0,0,4.12-2.17,3.66-9.66L108.22,292S110.58,266.56,96,250.3l-4.66-2.61Z"/><path class="cls-4" d="M123,295.41l-12.72,1.7,1.4-3.62-3.23-.12-14.57,4.28c-14.28-2.38-27.72-5.21-37.8-9.9l-11.49-1.11c-2.25,3.89-7,7.21-14,10,0,0,.89,8.36,10.75,6l57.18-.54h15.23l11.41-5.9Z"/><path class="cls-4" d="M90.48,237.76,92,229l2.4-3.75,6.84,3.75,9.71-5.29c-2.3-2.4,9.15-15.88,9.15-15.88l1.34-3.56-4.62,1.54-6,.41L106,206l-4.71,3-3.82-.87-1.6-3.05a3.19,3.19,0,0,0-3.44-1.65h0L90.48,206l-1.25,3.65,2,2.64-.61,5.54-2.11,4.91-1.25,8.08,2.31,7.41Z"/><path class="cls-5" d="M120.73,198.28c-3.49,2.26-11.58,1.91-24-.89a12.92,12.92,0,0,0-7,.37c-5.7,1.93-11.1,3.41-15.61,3.5l-2.32,4.26-1.91,5.74-3.29,7.56-4,3.38-7.12,4.4L48.08,233,46,236.76l-2.2,6.94L47,242.4l6-7.29,6.26-1,4.6-.94H67l4.24,3.55L74,244.84l1.22,5.64,2.64,4.87,3.61,3.36,4.27,1.22,1.46,2.89.67,3.81-.81,8.11a17.87,17.87,0,0,0,.06,5.82l5.1-8.34,3.9-7.38V251.45l-4.95-8.8-4-10.37v-6.74l2.34-5.32,1.2-4,.43-3.95-2-2.64L90.48,206l1.92-2.59,1.72-.06,3.32,4.76,3.82.87,4.71-3,10.87-.2,4.62-1.54.82-2.79Z"/><polygon class="cls-5" points="104.76 267.79 105.47 267.79 106.42 254.07 102.97 244.23 102.68 237.76 104.76 229.15 102.99 228.06 101.26 229 94.85 226.06 92.7 227.21 90.83 232.52 90.83 241.74 96.13 251.44 101.02 257.34 104.76 267.79"/><path class="cls-3" d="M67,323.11l-9.08,25.15,6,20.57L66.34,400h38.84l1.47-32.1V362.6L110,342.32l-3.69-28.86A68.28,68.28,0,0,0,67,323.11Z"/><polygon class="cls-3" points="92.44 175 85.53 175 76.95 180.16 72.7 186.4 70.13 195.32 71.69 200 74.1 201.26 79.61 200.84 85.95 198.97 93.22 197.09 99.79 198.05 110.02 199.6 116.56 199.58 122.89 197.07 125.68 194.52 123.64 188.74 119.21 183.5 114.08 178.59 109.11 175.81 100.73 173.8 92.44 175"/><polygon class="cls-6" points="104.59 294.5 110.7 290.45 136.01 286.64 136.98 287.33 131.57 292.65 129.43 293.96 110.75 297.05 111.89 294.66 111.23 293.31 109.36 293.26 104.59 294.5"/><path class="cls-7" d="M285.44,352.75a449.43,449.43,0,0,0,2.24,48.16h65.95s2.24-32.28.53-38.36L349.9,367l-17.69-16.62C319.69,356.55,304.26,357.61,285.44,352.75Z"/><path class="cls-8" d="M262.39,267.77S273,291.7,288.74,301.44l-7.3,45.87,4,5.44s28.09,6.73,46.77-2.34L349.9,367l15.34-23.95,5.57-11.94,2.55-8.93,3-5.45,1.11-11.59,1.4-7.32-1.3-22.08-3-15.21-2-16.24-5.59-14-24.93-11.16h-3.94l-5.73,4.09-6.7,2.55-10.26.87-8.07-2.6-1.78-1.45-7,5.4-1.9,12.84-2,11.39-2.9,22.25-12.2-9.15S268.59,269.35,262.39,267.77Z"/><path class="cls-9" d="M278.12,255.75l-2.58-3.29,1.47-4.18,1.11-2.15L277,244.74h-3.56l-11.06,2.78-3.69-1.64-1.27,4.81.55,4.17,2.36,5.77,5.45,7.14c3.78,1.42,13.77-2.4,13.77-2.4l-.73-5.44Z"/><path class="cls-9" d="M330.79,196.48c-1.64-2.24-.87-7.37-.87-7.37l-.34-3.09-3.09-2.4-3.43,1.71.34-1.2-1-4.58-2.29-2.8-4.75-3.37a5.06,5.06,0,0,1-3.48-.52l-3.1-1.31-2.7,1.18-3.36-.53h-1.31l-2.12.53-2.8-.39-4.12-.79-2.86,1.77-2.64,3.49-1.22.53.6,10.84,5.71,13.52,4.77,11.62,7.08,2.9,7.13-.16-1.6,4.17-2.24,2.09c.31,5,18.65,3.5,18.65,3.5q7-1.77,10.48-5.74v-.9C329,221,330.79,196.48,330.79,196.48Z"/><path class="cls-10" d="M283.06,169.51l-.52,2.69v2.42l1.82,2.42,1.26.3,1.22-.53a7.87,7.87,0,0,1,4-3.44c.55-.2.62-.64,1.8-1.51l6.62.87,2.12-.53,1.23.53,3.41.71,3.92-1.24a5.72,5.72,0,0,0,5.39,1.62l3.2,1.83,1.55,1.1,2.29,2.8,1,4.58-.34,1.2,3.43-1.71,3.09,2.4-1.49,6s.35,4.53,3.19,5.51l1.85-5.13,3.44-3.81,1.58-11.88-1-4.51-.62-5.13L334,162l-2.88-3.1-1.18-2-.23-1.39-3.32-2.08-2.15-.51-2.53-1.29-3.39-.57h-2.93l-2-.33-3,1-2.07.9-3.89-1.18-3.84-.17-2.7.51-1,1.41-2.08,1.07-2.73.56-.69.88-2.57,2.88-1.91,2.4-1.22,3.26L283,166Z"/><polygon class="cls-6" points="255.04 236.15 262.39 247.52 274.65 244.43 269.11 234.32 257.08 234.74 255.04 236.15"/><path class="cls-1" d="M340.91,218.89l-2.76.29c11.28,6,23.9,8.85,27.91,17.87,11.82,26.6,10.52,59.91,9,76.2l.13,7.88c13.21-41.07-4.56-90.89-8.14-90.79s-26.11-11.45-26.11-11.45"/></g><g id="Layer_2" data-name="Layer 2"><g id="idUJy6.tif"><path d="M89.23,400c.1-7.41,2-14.53,3.45-21.74,1.71-8.83,4.53-17.38,6.56-26.11.56-2.41.85-4.88,1.48-7.26,2.66-10.07.77-20.18.44-30.27,0-.87-.1-1.27-1.27-1-2.35.58-4.77.94-7.17,1.34-.66.11-.88.24-1.12,1-1,3-.76,6.21-1.61,9.23-1.33,4.76-3.26,9.28-8.27,11.49a15.58,15.58,0,0,1-8.11,1.66c9.42-1.67,14-5.17,15.73-15.82.39-2.34.34-4.77,1.58-7.18a92,92,0,0,0-15.59,4.13c-2.37.94-5.08,1.47-7,2.95s-1.44,4.41-2.44,6.58a71.66,71.66,0,0,0-3.75,11c-1,3.48-2.65,7.17-2.16,10.81a55,55,0,0,0,1.24,7c1.1,4.06,2.88,7.66,3.49,11.89C66,379,67,390.74,68.41,400c.09.58-.82.17-1.74.13s-3.35-20.25-3.35-25.09a64.75,64.75,0,0,0-2.23-12.36c-.57-1.88-1.42-3.66-1.84-5.57-.52-2.33-1.33-9-1-10,2.27-7.4,4.37-14.85,7.17-22.1.23-.58.79-1.43.18-2s-1.22.29-1.87.38c-2.84.37-5.7.79-8.35-.66-3.63-2-6.91-4.34-9-8-1.55-2.67-3.58-5.08-4.89-7.89-.37-.8-.88-1.7.16-2.24,1.23-.65,1.5.59,1.83,1.25a57.91,57.91,0,0,0,5.79,8.94c3.25,4.2,7.32,7.49,13.3,6.91a30.2,30.2,0,0,0,9.24-2.6c7.9-3.51,16.3-5.21,24.84-6.34a72.36,72.36,0,0,1,9-.28c1.13,0,1.47-.56,2.1-1.34,1.52-1.89,1.22-4.06,1.64-6.13.33-1.66-.19-2.17-2.08-2.25-8.63-.38-17.26.37-25.89.06-6.47-.24-12.93.06-19.39.36-3.67.16-7.31-.74-11-.35s-7.42.72-11.14,1c-6.27.44-8.06-1.19-9.73-5.38-.37-.93-.67-1.22-1.73-1-5,1.26-7.41.06-9.5-4.52-1-2.13-1.63-4.36-2.39-6.55v-3.53c1.45-.91,3.19-1.05,4.79-1.49a13,13,0,0,0,5.07-2.76,3,3,0,0,0,.45-4.53,5.42,5.42,0,0,0-1.17-1.07c-3.93-2.73-4.25-3.65-2.49-7.92,1-2.41,2-4.83,3.12-7.18a14.84,14.84,0,0,1,6.22-6.26c4.18-2.44,7.83-5.56,11.69-8.41A24.82,24.82,0,0,0,50.91,235c.74-1.32,2-1.55,3.23-1.67a41.07,41.07,0,0,1,6.92-.38c.35,0,.81.26,1.1-.29-1.86-.75-3.84-.57-5.76-.77-.17-.81.37-1,.92-1,4.73,0,9.18.85,12.89,3.91,2,1.66,2.8,3.92,3.48,6.28,1.24,4.3,1.94,8.78,4.3,12.75,1.3,2.17,2.8,3.9,5.61,4.34s3.92,2.58,4.44,5.09c.91,4.34-.05,8.57-.68,12.81a6.52,6.52,0,0,0-.08,2.71c-2.1-1.69-.87-3.8-.6-5.66a28.71,28.71,0,0,0,.2-9.52c-.4-2.06-1.18-3.53-3.75-3.86a8.29,8.29,0,0,1-5.81-4,31.51,31.51,0,0,1-4-9.95q-.9-3.5-2-6.93c-.69-2.09-2.32-3.43-4.17-4.64-1.5-1-2.75-.31-4.14.07a12.21,12.21,0,0,1-2.43.24c-2,.13-4.08.09-6.11.34a3.16,3.16,0,0,0-2.48,1.68c-1.32,2-2.5,4.29-4.27,5.91a89.21,89.21,0,0,1-14,10.34,14.62,14.62,0,0,0-6.22,6.48c-1,2.33-2.05,4.68-3,7.05s-.6,3.48,1.47,4.87a7.81,7.81,0,0,1,3.06,10,2.22,2.22,0,0,1-1.68,1.56c0-1.07.57-2,.24-3.28-2.41,2.52-5.52,3.37-8.63,4.19-1,.27-.82.95-.72,1.52a25.72,25.72,0,0,0,3.31,8.93,4.29,4.29,0,0,0,4,2.22c3.48,0,6.34-1.77,9.43-2.84a13.05,13.05,0,0,0,7-5.05c1.64-2.48,3.55-4.78,5.35-7.14A2.68,2.68,0,0,1,49.23,280c0,1.95-1.36,3.11-2.32,4.37-2.55,3.31-4.39,7.22-8.5,9.27A41.25,41.25,0,0,1,32.62,296c-1.53.5-1.39,1.2-.89,2.28,1.61,3.46,4.06,4.74,8.46,4.05a75.45,75.45,0,0,1,12.36-.9c5.51.07,11,.36,16.54.31,8.37-.06,16.75-.06,25.12.06,2.81,0,5.6-.76,8.34-.34,3.61.56,7.19,0,10.78.3a1.77,1.77,0,0,0,.93-.28A81.56,81.56,0,0,1,124,296c-2.43-.52-4.31.6-6.34.69a14.43,14.43,0,0,0-3.2.51,13.84,13.84,0,0,1-3.45.25c-.86,0-1.9-.17-1.29,1.24-.73.1-1.57.37-1.94-.52-.29-.68-.11-1.17.8-1.44a3.73,3.73,0,0,0,2.76-2.64c-1.62-.52-3.47-.24-4.21.72-1.06,1.36-2.46,1.3-3.6,1.34a12.68,12.68,0,0,0-4.72,1,13.57,13.57,0,0,1-7.15.9,139.85,139.85,0,0,1-25.92-5.73c-4-1.27-7.87-2.88-12-3.67a79.25,79.25,0,0,0-8-1.08,24,24,0,0,1,13.77.64c3.9,1.31,7.69,3,11.67,4,6.21,1.61,12.54,2.8,18.7,4.59a10.13,10.13,0,0,0,5.45.3c3.74-1.31,7.92-1.78,11.1-4.42.48-.4,1.17-.58,1.19-1.43.16-7,.2-14-1.78-20.77-.12-.41.07-1.13-.73-1.21-1.24-.13-1.34-1.07-1.54-1.95a56,56,0,0,0-5.73-13.94c-.15-.26-.29-.6-.73-.51v7.83a16.21,16.21,0,0,1-1.77,7.93c-2.33,4.33-5.91,8-7.39,12.77-.09.32-.21.69-.64.59a.68.68,0,0,1-.48-.78c.11-.83.26-1.66.4-2.49,2.1-4.09,5.28-7.57,7.13-11.8a10.77,10.77,0,0,0,1-4.72c-.13-3.58.43-7.19-.26-10.73s-3-6.61-5.06-9.7c-4.57-7-5-14.19-1.3-21.68a9.51,9.51,0,0,0,.16-9.14c-1.19-2.28,1.57-7.45,4.13-8.12a2.72,2.72,0,0,1,2.59.77c1,.84.37,1.85.41,2.74-.6.14-.84-.08-.89-.3-.21-.95-.53-1.82-1.73-1.82-1,0-1.54.85-1.89,1.59-.92,2-2.76,4,0,6.06.64.48-.23,1.22-.15,1.92A16.06,16.06,0,0,1,89.37,223c-2.29,4.49-.93,9,.13,13.48.45-2,.93-4.09,1.35-6.14a6.89,6.89,0,0,1,2.15-4.1c.48-.42,1-.92.43-1.67-.25-.32-.38-.77,0-1s.75.13,1,.39a29.31,29.31,0,0,0,3.38,3.1c2.83,1.9,3.33,2,6.08,0a21.76,21.76,0,0,1,5.24-2.94,1.92,1.92,0,0,0,1.27-1.59,20.08,20.08,0,0,1,6-11c2.82-2.53,3.41-3.94,3.26-6.5-4,2.25-8.31,1.58-12.54,1.2a2.87,2.87,0,0,0-2.66,1.4c-2.1,2.38-5.75,2-7.07.56-.36-.4-1.16-.85-.63-1.41s.88.28,1.26.56a3.92,3.92,0,0,0,5.48-.39,5.13,5.13,0,0,1,4.34-1.59c2,.12,4.09-.05,6.13,0a10.17,10.17,0,0,0,6.12-1.69c1.43-.9,1.66-3.67.3-4.65-.17-.13-.6,0-.85.07-4.85,2-9.73,1.15-14.59.12-4.46-.94-8.91-1.76-13.52-1.39a11.38,11.38,0,0,0-3.69.88,27.67,27.67,0,0,1-10.71,2.7c-.21,0-.48-.08-.6,0-1.61,1.25-3.19.87-4.66-.15-1.77-1.22-2.18-3.15-2.22-5a19.73,19.73,0,0,1,3.85-12.69c3-4,6.52-7.57,11.76-8.9,2.82-.71,5.78-.73,8.62-1.17,5.83-.9,11.13.44,16.53,2.12s8.68,5.4,11.85,9.43c1.94,2.47,3.46,5,3.49,8.32,0,3-2.06,4-4.38,5.05,1.67,1.91,2.38,4.19,1.25,6.31-1.7,3.2-3,6.76-6.36,8.9-2.35,1.51-2.73,4.08-3.72,6.3a7.29,7.29,0,0,0-.86,3.58,1.45,1.45,0,0,1-1,1.54c-4.4,1.37-5.66,4.94-6.48,8.68s-1.53,7.74-.21,11.59c.73,2.15,2.1,4,2.55,6.33.93,4.75.35,9.46,0,14.18a4.85,4.85,0,0,0,0,1.74,55.83,55.83,0,0,1,2.36,22.6,10.45,10.45,0,0,0,.08,1.18c4.56-2.88,9.82-2.41,14.69-3.59,4-1,8.19-1.07,12.29-1.58.61-.08,1.07,0,1.36.57a1.1,1.1,0,0,1-.28,1.42c-3.09,2.82-5.5,6.59-10.41,6.86-1,.05-1.08,1.05-1.79,1.44-3.16,1.77-6.26,3.66-9.4,5.48a3.34,3.34,0,0,1-1.7.56c-2.44,0-3.72,1.13-3,3.1s-.15,3.1-1.11,4.17c-1.3,1.45-1.18,3.52-2.72,4.84-.37.31-.13,1.38,0,2.08,1.45,8.82,2.92,17.63,3.17,26.57.1,3.72-.89,7.37-1.46,11-.66,4.2-1.64,8.48-1.25,12.61.64,6.92-.83,13.63-1,20.45-.12,4.22-.76,8.42-1.16,12.64h-2.05c.32-3.31.76-6.6.92-9.91.3-6.37,1.47-12.68,1.55-19.06a139,139,0,0,1,1.11-15.78c.65-5.09,1.78-10.13,1.8-15.31,0-2.88-.56-5.66-.82-8.49-.5-5.43-.76-10.87-2-16.24-.3-1.35-1-1.25-2-1.29-1.18,0-1.1.68-1.07,1.42.05,1.11.1,2.22.16,3.32.65,10.9.78,21.75-1.65,32.51-2.1,9.35-5.1,18.48-7,27.88-1.41,7-3.16,13.85-3.76,21Zm14.25-225c-3-.22-5.89.66-8.82,1.22a12.75,12.75,0,0,0,6.85.16c.18,0,.48-.21.46-.27-.24-1.32.85-1,1.51-1.11a1.72,1.72,0,0,1-1.14,1.63c-2.48,1.25-5.11,1.19-7.75.85-.8-.1-1.87-.39-1.29-1.66.4-.87-.35-.62-.73-.66a19.54,19.54,0,0,0-4.25.37c-6.79.91-11.69,4.4-14.59,10.25-1.87,3.77-3.18,7.76-2.1,12.08a3.4,3.4,0,0,0,3.09,2.92,15.43,15.43,0,0,0,3.82-.37,76.55,76.55,0,0,0,9.85-3c5.44-1.75,11-.92,16.44.28s10.77,2.13,16.09-.53c2.58-1.3,3.1-1.93,2.49-4.67a6.16,6.16,0,0,0-.57-1.66c-2.87-5.08-6.29-9.83-11.37-13C109.16,176.4,106.16,176,103.48,175Zm1.72,90.58c0-3.43-.09-6.87,0-10.29a17,17,0,0,0-1.59-7.34c-1.38-3.27-2.94-6.51-2.21-10.31a36.31,36.31,0,0,1,1.83-7c.22-.53.64-1.19.14-1.63s-1.15,0-1.57.42a1.72,1.72,0,0,1-2.23.21,10.67,10.67,0,0,1-3.51-2.27c-1.12-1.4-1.89-.91-2.67.22a6.41,6.41,0,0,0-.68,1.19c-2.88,7.19-1.79,13.92,3.36,19.72C100.58,253.64,103.12,259.46,105.2,265.62Zm6.32,31c5.44-1,10.87-2,16.28-3,2.22-.44,7.27-4.44,8.21-6.3-6.52,1.05-13,2.22-19.65,2.62-4.12.25-7.4,2.24-10.75,4.18a13.82,13.82,0,0,0,2.87-.78c1.27-.47,2.7-1.21,3.8-.12s-.41,2.08-.79,3.11A1.82,1.82,0,0,0,111.52,296.64Z"/><path d="M76,203a6.55,6.55,0,0,0-4.72,5.56,29.32,29.32,0,0,1-2.36,7.63c-2.18,4.34-6,7.1-10.09,9.37-5,2.74-9.25,6.09-12.26,10.83-.09.14-.3.22-.57.42a8,8,0,0,1,2.36-5.17,29.86,29.86,0,0,1,8.73-6.93c7-3.52,11.86-8.54,12.67-16.48.21-2.1,1.63-3.67,3.21-5.06C73.7,202.44,74.59,202.45,76,203Z"/><path d="M145.21,273.9c-.18.24-.43.54-.66.86-1.37,1.85-2.34,3.95-4,5.6-.27.28-.51.69-1,.49s-.41-.65-.27-1a12.62,12.62,0,0,1,5-6.4C144.92,273,145.28,273.25,145.21,273.9Z"/><path d="M142.47,283.24c-.37,0-.67-.08-.71-.36a1,1,0,0,1,.22-.7,6.32,6.32,0,0,1,2.21-1.29c1.88-.72,3.71-1.56,5.67-2.1.51-.15,1-.12,1.16.43a.68.68,0,0,1-.58.88c-2.63.67-4.94,2.09-7.49,2.95C142.77,283.11,142.58,283.19,142.47,283.24Z"/><path d="M144.87,286.16c2.46-.35,4.23.7,6.09,1.38a1.1,1.1,0,0,1,.72,1.43c-.26.52-.93.32-1.44.1C148.47,288.31,146.27,288.28,144.87,286.16Z"/><path d="M104,224.42a.65.65,0,0,1-.66.61c-.63,0-1.05,0-.59.76.2.34-.14.58-.5.66A1.06,1.06,0,0,1,101,226a2,2,0,0,1,.32-2.34,1.22,1.22,0,0,1,1.62-.28C103.44,223.58,103.89,223.82,104,224.42Z"/><path d="M107.16,213.89c1.21-1.81,2.9-1.57,4.48-1.59.3,0,.72,0,.79.44s-.38.69-.75.73C110.29,213.64,108.89,213.74,107.16,213.89Z"/><path d="M110.44,217.42a1.49,1.49,0,0,1-1.36,1.54,1,1,0,0,1-1.3-.86,1.44,1.44,0,0,1,1.56-1.42C109.93,216.65,110.41,216.83,110.44,217.42Z"/><path d="M70.27,388.44c-1-10.07.18-20.13.09-30.19C71.06,368.31,70,378.37,70.27,388.44Z"/></g><g id="aLgZkR.tif"><path d="M317,150.51a11.25,11.25,0,0,1,7.23,1.74c1.19.75,2.71.53,4,1.37s2.4,1.51,2.44,3.21c0,1.18,1.11,1.67,1.77,2.44.38.44.35.78.28,1.45s-.94-.15-1.29-.5c-1-1-2-1.9-2.1-3.58s-2-2.3-3.3-2.55a20.81,20.81,0,0,1-4.6-2,5.47,5.47,0,0,0-2.62-.45,26.89,26.89,0,0,1-4.74-.17,6.19,6.19,0,0,0-3.85.94,3.46,3.46,0,0,1-3.28.41c-2.69-.85-5.53-1.45-8.39-.61-.27.08-.66.18-.73.37-.65,1.71-1.88,2.15-3.63,2.21a2.6,2.6,0,0,0-2.34,2,10.81,10.81,0,0,1-.69,1.45c-.83-2.89,1.11-4,3.71-4.94.4-.14.93.15,1.2-.42,1.24-2.64,3.68-2.64,5.93-2.3,2.07.32,4.23.32,6.22,1.17.19.08.57.13.64,0,.79-1.12,2.09-1.18,3.23-1.57a4.36,4.36,0,0,1,2.35-.11A11.91,11.91,0,0,0,317,150.51Z"/><path d="M331.16,351.19c0,1.14-.89,1.37-1.68,1.67a47.67,47.67,0,0,1-14.42,2.9c-7.08.35-14.17.07-21.25,0a17.2,17.2,0,0,1-7.81-2c0,2.27-.09,4.31,0,6.34.49,9,1,18.05,1.56,27.07q.46,7.59,1,15.17c0,.61,0,1-.73,1s-1.1-.16-1.15-.92c-.1-1.49-.27-3-.35-4.47-.37-6.77-.68-13.56-1.1-20.33-.46-7.3-1.08-14.58-.93-21.9,0-.64,0-1.27.07-1.9a2.86,2.86,0,0,0-.79-2.19,7.61,7.61,0,0,1-2.18-6.1c.22-2.16.63-4.48.89-6.18q1.62-10.56,2.63-21.18c.49-5,1.07-10.06,1.64-15.08a2.22,2.22,0,0,0-.89-2.32c-6.11-4.94-10.81-11.13-15.23-17.55-3-4.36-5.91-8.79-9-13.09a3,3,0,0,1-.29-3.19c.4-.94,1.42-.45,2.18-.54l.8-.08c-1.79-2.67-3.47-5.26-5.24-7.78a13,13,0,0,1-2.06-10.66,9.52,9.52,0,0,1,.78-1.89c.35-.77,1.42-1.39,1.18-2.15a9,9,0,0,0-1.67-3.37,14.12,14.12,0,0,1-2.31-3.62c-.65-1.38,0-2,1.74-2.56a5.39,5.39,0,0,1,2.26-.21,41.1,41.1,0,0,0,9.6-.27c1-.13,1.28.15,1.6.93,1.25,3,2.93,5.72,4.44,8.56.32.61.65,1,1.43.92,1.2-.16,2.23.39,2.28,1.56s.95,2.38-.85,3.2c-1.53.7-1.52,3.34-.19,4.3,1.67,1.22,1.75,3.17,2.15,4.92s-.4,3.8.29,5.25,2.72,2,3.78,3.38c2,2.66,4.8,4.37,7.66,6.29.52-3.24,1.23-6.26,1.44-9.32.31-4.6,1.27-9.09,1.88-13.63.44-3.36.66-6.75.94-10.12a32.69,32.69,0,0,1,2.91-11.26c1.08-2.28,3.38-3.69,5.26-5.36a15.37,15.37,0,0,1,4.29-2.73c1.51-.64,1.85-2.33,2-3.94-4.12.29-8.13.49-11.7-1.95a4.17,4.17,0,0,1-1.38-1.48A111.09,111.09,0,0,1,289.05,197c-1.53-4.19-3.68-8.15-4.28-12.65-.11-.8-.21-1.59-.32-2.39-.2-1.4.06-3.15-.49-4.14a34.53,34.53,0,0,1-2.2-3.52,3.28,3.28,0,0,1,.05-3.28c.77-1.18.32-2.47.33-3.7a2.18,2.18,0,0,1,1.31-2.34,4.34,4.34,0,0,0,2.42-2.78c.71-2.38,3.12-3.31,4.44-5.28.48,1.84-.93,2.75-1.77,3.79a7.61,7.61,0,0,0-1.42,2.08,4.75,4.75,0,0,1-2.55,2.9,1.66,1.66,0,0,0-1,2.35c.63,1.23.11,2.05-.37,3a4.26,4.26,0,0,0,1.83,5.43c.78.36,1.32.45,1.8-.49a23.1,23.1,0,0,1,1.73-2.57,1.47,1.47,0,0,1,1.64-.68c.57.14.9.63.25.9-1.95.82-2.08,3.52-4.29,4-.13,0-.2.5-.21.77a26.59,26.59,0,0,0,1.17,10c.49,1.45,1.12,2.84,1.74,4.41,1.45-1.35,2.87-2.34,4.93-1.53a2.15,2.15,0,0,1-1.85.88,2.05,2.05,0,0,0-1.83,2.95,118.9,118.9,0,0,0,7.35,15.67,7.23,7.23,0,0,0,4.3,3.68,14.79,14.79,0,0,0,10.77-.37,90.42,90.42,0,0,1,10.75-3.85c-.09,1.13-.93,1.31-1.5,1.66-2.9,1.79-6.21,2.61-9.35,3.85-.72.29-1.17.55-1.26,1.38a6.24,6.24,0,0,1-2.39,4.44c-.66.51-.7.86,0,1.43a8,8,0,0,0,3.34,1.65,29.84,29.84,0,0,0,23.62-4.2c0-.11-.06-.27-.13-.3-2.91-1-4.17-3.24-4.77-6.18a41.27,41.27,0,0,1,.85-20.76,2.3,2.3,0,0,1,1.42-1.67c1.62-.72,2.41-2.46,2.78-4.09a58.79,58.79,0,0,0,1.56-11.29c0-.29.13-.66,0-.85-1.58-2.27-.55-5.07-1.56-7.48-.77-1.85-1.8-3.56-2.59-5.39-.18-.42-.57-.86-.06-1.21s.92.12,1.12.49c1,2,2.4,3.81,2.9,6,1.19,5.17,2.28,10.36,1,15.69-.25,1-.25,2.06-.43,3.08-.49,2.8-2.38,4.78-4.17,6.79a5.29,5.29,0,0,0-1,1.91,42.92,42.92,0,0,0-.21,20,4.39,4.39,0,0,0,.8,1.74c.77,1,3,2.35,4.77,1.8s6.23.95,8.74,2a165.54,165.54,0,0,1,19.13,8.59c1.81,1,2.32,3.06,3.11,4.78,3.35,7.3,4.73,15.51,6.27,23.39a195.11,195.11,0,0,1,3.36,24.66q.29,4.23.32,8.46c.16,17.8-3.29,35.92-12.22,51.32-2.76,4.75-6,9.21-8.55,14.08a23.8,23.8,0,0,0-2.58,7,32.94,32.94,0,0,0-.1,7.16,186,186,0,0,1-1.16,32c-.09.71-.91,1.63-1.28,1L354,364a5.31,5.31,0,0,0-2.55,6.24L332.34,351a2.74,2.74,0,0,1-1-1.73,2.65,2.65,0,0,1,.35-1.15q8.34-17.37,18.17-34c1.74-2.93,3.55-6,3.94-9.34.33-2.84-.38-5.69-1.09-8.46l-8.61-33.93a141.45,141.45,0,0,1,9.54,31.76c.5,2.85.95,5.8,2.44,8.28s4.34,4.4,7.18,3.84a7.45,7.45,0,0,1-7.65,0l-22.42,41.07a1.64,1.64,0,0,0,.53,2.58,101.28,101.28,0,0,1,15.72,15.94c13.61-18.69,25.24-39.75,27.57-62.76,1.07-10.65.12-21.4-1.33-32A204.12,204.12,0,0,0,369,238.83a23.57,23.57,0,0,0-2.91-6.47c-1.46-2.12-3.12-2.87-5.33-3.92-5.77-2.73-11.47-5.27-17.47-7.51-2.19-.82-4.09-1.83-7.07.54-11.61,9.25-27.43,4.21-28.37,3.07-1.27-1.55-2.31-1.34-3.56,0-1.68,1.79-4,3-5,5.4a39.1,39.1,0,0,0-2.63,11.56c-.3,3.49-.26,7-1,10.47-1.12,5.12-1.42,10.35-2.06,15.54-.62,5-.89,10.1-1.8,15.08-1.88,10.34-4.38,27.35-5.4,37.81-.79,8.21-2,16.35-3.38,24.48-.44,2.67-.34,4.41,2.14,6.14a15.78,15.78,0,0,0,9.23,3.22c6.56,0,13.12.35,19.69,0a49.89,49.89,0,0,0,15.13-2.82A2.58,2.58,0,0,1,331.16,351.19Zm-44.25-50.88a9.39,9.39,0,0,1,.1-1.05c1.42-7.36,2.92-14.7,4-22.12.12-.85.5-1.84-.58-2.47a34.68,34.68,0,0,1-9.46-7.93c-.5-.61-1-.6-1.78-.42-5.24,1.19-10.4,2.91-15.88,2.48-.24,0-.46,0-.52.28C270.21,279.92,277,291.2,286.91,300.31Zm-28.17-53.68c-1,3.21-1.12,6,.34,8.81,1.09,2.1,2.64,3.89,3.78,5.95s3,3.36,3.34,5.72c.11.68.78.73,1.4.6l8.56-1.76a1.75,1.75,0,0,0,1.51-1.38,15.12,15.12,0,0,0,0-7.14c-.34-1.52-.77-3-2.47-3.67a1.28,1.28,0,0,1-.69-1.47,6.22,6.22,0,0,1,1.46-3.76c.76-.75,1.34-1.59.82-2.58-.62-1.16-1.85-.31-2.77-.52-.18,0-.4.2-.61.29a52.87,52.87,0,0,1-9.71,2.73C261.76,248.84,260.09,248.62,258.74,246.63ZM258,235.5c-.31.09-1.27-.23-1.65.48s.19,1.3.54,1.89c1.52,2.57,3.15,5.08,4.53,7.71a2.23,2.23,0,0,0,2.88,1.32c2.73-.6,5.46-1.18,8.14-2,1-.3,1.34-.62.73-1.66a50.48,50.48,0,0,1-4.07-7.95c-.22-.58-.44-.66-1-.47C264.9,235.9,261.63,235.58,258,235.5Z"/><path d="M323.92,183.87c3-2.37,5-1.73,6.24,2,.93,2.93.3,5-2,6.1.26-1.35.89-2.53.7-3.86a6.77,6.77,0,0,0-.37-1.83c-.42-1-.74-2.21-2.06-2.23-1.16,0-1.76.9-2.19,1.89-.18.42-.34.88-1,.81a1.38,1.38,0,0,1-1.16-.91,2.11,2.11,0,0,1,0-1.67c.13-.32.46-.79.35-.94-1-1.37-.73-3.12-1.61-4.57s-2.44-2.06-3.4-3.37a3.44,3.44,0,0,0-2.85-1.33c-.52,0-1.39-.15-1.27-.82.16-.86.9-.26,1.42-.23,3,.23,4.65,2.44,6.6,4.37S323.24,181.67,323.92,183.87Z"/><path d="M262.41,202c-.72-.19-1.57-.22-1.81-1.09s.62-1,1.21-1.36c2.36-1.24,5-1.61,7.5-2.33.35-.09.84-.24,1,.3a.69.69,0,0,1-.4.87,32.35,32.35,0,0,0-6.85,3.51A1.8,1.8,0,0,1,262.41,202Z"/><path d="M272.15,202.09c.27.09.55.11.65.25s0,.53-.24.72c-2.17,1.89-4.33,3.78-6.51,5.65-.61.54-1.05,0-1.5-.31s-.37-.82-.05-1.19C266.59,204.81,269.36,203.44,272.15,202.09Z"/><path d="M270.57,191.83a24.62,24.62,0,0,1-8.13-2c-.54-.27-1.11-.58-.91-1.25a1.31,1.31,0,0,1,1.62-1A17.88,17.88,0,0,1,270.57,191.83Z"/><path d="M301.82,172.63c-.6-.13-1.12-.16-1.49.49a1,1,0,0,1-.86.48c-2-.43-4.13.34-6-1-.49-.35-1-1-1.56.05-.25.46-.58.07-.62-.33a1.37,1.37,0,0,1,1.93-1.42,9.2,9.2,0,0,0,7.08.74,5,5,0,0,1,1.55-.08c.52,0,1.41-.22,1.36.56S302.35,172.59,301.82,172.63Z"/><path d="M304.8,188.59a5.48,5.48,0,0,1,3.39,1.43,1,1,0,0,1,.18,1.39c-.5.58-.77-.07-1.09-.31a5,5,0,0,0-3.82-1.09c-.46.08-1.07.59-1.27-.19-.16-.63.51-.76,1-1A3.46,3.46,0,0,1,304.8,188.59Z"/><path d="M306.05,193.9c-.1.93-.22,1.86-1.35,1.88a1.65,1.65,0,0,1-1.73-1.73,1.59,1.59,0,0,1,1.62-1.64C305.56,192.37,305.94,193.08,306.05,193.9Z"/><path d="M303.72,208.32a1.33,1.33,0,0,1,1.52,1c.27.68.61,1.4.11,2.13-.32.46-1,.56-1.12.12-.31-1-1-1.26-1.81-1.61a.64.64,0,0,1-.42-.83C302.36,208.34,303.22,208.62,303.72,208.32Z"/><path d="M312.1,173.64a5.29,5.29,0,0,0-5.79-.32c-.21.12-.89.3-.93-.32s.44-.62.86-.63a1.77,1.77,0,0,0,1.5-.61c.85-1,1.7-.93,2.62,0a15.53,15.53,0,0,0,1.76,1.32Z"/><path d="M292.81,194c.79.28,1.6.45,1.46,1.46a1.18,1.18,0,0,1-1.48,1c-.64-.11-1.4-.3-1.31-1.26S292.2,194.13,292.81,194Z"/><path d="M300,204.17a4,4,0,0,1-2.67-1c-.27-.23-.52-.51-.28-.87s.59-.23.89,0a4.35,4.35,0,0,0,2.2.82c.42,0,1.07-.09,1,.57S300.38,204.1,300,204.17Z"/><path d="M266.48,239.4c-.7,0-1.63.06-1.64-.81s.93-.79,1.58-.88a1.14,1.14,0,0,1,1.38,1.11C267.8,239.62,267,239.31,266.48,239.4Z"/></g></g></svg>