<svg xmlns="http://www.w3.org/2000/svg" viewBox="0 0 293.09 63.13"><defs><style>.cls-1{fill:#fbfcca;}.cls-2{fill:#ffa275;}.cls-3{fill:#b5d1e2;}.cls-4{fill:#b1e89a;}</style></defs><title>emotions</title><g id="Layer_2" data-name="Layer 2"><circle class="cls-1" cx="32.99" cy="33.96" r="29.17"/><path d="M28.48,2A26.48,26.48,0,1,1,2,28.48,26.51,26.51,0,0,1,28.48,2m0-2A28.48,28.48,0,1,0,57,28.48,28.48,28.48,0,0,0,28.48,0Z"/><g id="CgA8jz.tif"><path d="M32.56,43.21a13.4,13.4,0,0,1-3.14-1c-1.68-.74-3.57-1.58-4.56-3.2s.15-2.79,1.81-3.33c3.3-1.05,6.8-1.31,9.94-3,1.93-1,3,.26,2.92,2.22a12.57,12.57,0,0,1-1.2,4.75c-.59,1.18-1.84,3.23-3.23,3.56A6.39,6.39,0,0,1,32.56,43.21Z"/><path d="M13.43,24.09c-1.94-.26-3.76-1-3.75-3.34s1.51-3.42,3.73-3.37c2,.05,3.9.55,4,3.05S15.69,23.77,13.43,24.09Z"/><path d="M42.8,20c0,2.19-.78,3.7-3.08,3.71-2.12,0-3.85-.85-3.93-3.21-.06-1.87.56-3.72,2.92-3.74C40.88,16.78,42.72,17.49,42.8,20Z"/></g><circle class="cls-2" cx="109.42" cy="33.96" r="29.17"/><path d="M103.86,2A26.48,26.48,0,1,1,77.38,28.48,26.51,26.51,0,0,1,103.86,2m0-2a28.48,28.48,0,1,0,28.48,28.48A28.48,28.48,0,0,0,103.86,0Z"/><path d="M92.27,20.41c-2.39-.33-5.27-.67-8.13-1.16-1.11-.2-2.24-.82-2-2.23s1.42-1.44,2.63-1.29c2.77.34,5.55.58,8.32.93,1.35.17,2.93.48,2.65,2.28C95.5,20.42,94,20.47,92.27,20.41Z"/><path d="M113.75,20.6c-2.28,0-4.25-.4-4.32-2-.13-2.75,2.77-1.73,4.48-2,1.87-.32,3.75-.57,5.63-.8,1-.13,2.12,0,2.47,1.19.4,1.36-.48,2.11-1.61,2.51A25.41,25.41,0,0,1,113.75,20.6Z"/><path d="M105.48,42.41c2.09,0,4.27.37,4.21,2-.09,2.06-2.73,2.44-4.67,2.29-1.19-.08-3,.41-4.08-.34s-1.25-3,.07-3.7a2.56,2.56,0,0,1,1.23-.16C102.88,42.49,104.16,42.39,105.48,42.41Z"/><path d="M112.73,33.27c-1.47-.21-3-.66-2.76-2.51.23-1.44.88-3.22,2.85-3.08,1.66.12,3.31.64,3.13,3C115.79,32.72,114.46,33.16,112.73,33.27Z"/><path d="M95.89,31.09c0,1.86-.86,3-2.77,3a2.28,2.28,0,0,1-2.58-2.44c0-1.78.95-3.05,2.82-3.08A2.31,2.31,0,0,1,95.89,31.09Z"/><circle class="cls-3" cx="187.49" cy="33.96" r="29.17"/><path d="M184,2A26.48,26.48,0,1,1,157.5,28.48,26.51,26.51,0,0,1,184,2m0-2a28.48,28.48,0,1,0,28.48,28.48A28.48,28.48,0,0,0,184,0Z"/><path d="M171.9,14.79c1.78.25,4.26.85,4,2.39-.32,2.05-3,1.16-4.67.85a5.79,5.79,0,0,0-5.51,1.68c-.7.69-1.5,1.11-2.3.2a1.74,1.74,0,0,1,.11-2.44,8.3,8.3,0,0,1,7-2.83C170.88,14.67,171.36,14.71,171.9,14.79Z"/><path d="M193.12,31.74c-2.4-.4-3.51-1.68-3.05-3.6s1.33-4.11,4-3.61c2.06.39,3.53,1.87,3.2,4.08C196.91,31,195,31.68,193.12,31.74Z"/><path d="M174.26,25.16c2.66.36,3.06,1.77,2.69,3.69-.44,2.23-1.74,3.41-4,3s-2.38-2.33-2.14-4.21C171.1,25.18,172.69,24.85,174.26,25.16Z"/><path d="M188.12,43.8c1.5.43,2.83.81,2.64,2.39s-1.6,1.45-2.85,1.43c-1.55,0-3.1.14-4.65.14A1.86,1.86,0,0,1,181.19,46c-.1-1.1.69-1.59,1.61-1.81A14.93,14.93,0,0,1,188.12,43.8Z"/><path d="M199.91,16.21c1.47,1,3.43,2.65,2.52,3.93-1.2,1.69-3.2-.3-4.56-1.33a5.83,5.83,0,0,0-5.68-.94c-.93.31-1.84.33-2.15-.84a1.74,1.74,0,0,1,1.18-2.14,8.32,8.32,0,0,1,7.56.59C199.05,15.65,199.46,15.9,199.91,16.21Z"/><circle class="cls-4" cx="263.92" cy="33.96" r="29.17"/><path d="M259.36,2a26.48,26.48,0,1,1-26.48,26.48A26.51,26.51,0,0,1,259.36,2m0-2a28.48,28.48,0,1,0,28.48,28.48A28.48,28.48,0,0,0,259.36,0Z"/><path d="M252.92,40.74c-1.6,1.31.12,3-1.35,4.39-2.58-2.36-2.13-4.85-.7-7.19,1-1.64,2.87-1.4,4.5-.42,1.4.85,2.69,1.84,4.1,2.68,2.31,1.37,4.13,1.42,4.67-1.36.27-1.36.73-2.82,2.82-2.51,2.28.34,2.18,1.91,1.9,3.44-1.07,5.67-5.27,7.21-11.2,4C256,42.88,254.48,41.75,252.92,40.74Z"/><path d="M268.47,24.28c-2.4-.41-3.51-1.68-3-3.61s1.33-4.11,4-3.6c2.06.39,3.52,1.87,3.2,4.08C272.26,23.55,270.31,24.22,268.47,24.28Z"/><path d="M249.61,17.69c2.66.37,3.07,1.77,2.69,3.7-.43,2.22-1.74,3.4-4,2.95s-2.38-2.32-2.15-4.2C246.45,17.71,248,17.39,249.61,17.69Z"/></g></svg>