<svg xmlns="http://www.w3.org/2000/svg" viewBox="0 0 164.5 253.18"><defs><style>.cls-1{fill:#faf0e5;}.cls-2{fill:#fff;}.cls-3{fill:#ffdf47;}.cls-4{fill:#edd3a5;}.cls-5{fill:none;}</style></defs><title>girl</title><g id="Layer_2" data-name="Layer 2"><path class="cls-1" d="M50.51,23.56,42.63,39.23s-7.11,30.15-3.92,47.28c0,0,.92,17,15.69,21.88,0,0,13.91,3.69,13.52,17.73L75,131.66l17.28-6.83v-7.1l-3.48-13.52,13.66-28.16V57.24L94.26,41.92,64.86,26.3Z"/><polygon class="cls-2" points="67.92 126.12 75.08 126.12 80.71 124.42 87.99 120.88 92.31 117.73 97.86 124.52 95.28 129.63 74.88 171.88 51.78 253.41 37.41 253.44 50.52 182.5 59.47 156.48 65.92 142.74 67.92 126.12"/><polygon class="cls-3" points="127.39 147.18 138.19 170.02 144.01 181.75 150.68 199.2 154.88 210.93 159.55 225.43 161.65 232.1 162.7 238.78 163.46 242.22 165.41 253.42 44.08 253.44 46.93 224.27 48.93 210.28 51.93 197.01 53.96 189.85 57.79 180.27 61.92 171.96 64.38 168.09 69.61 162.19 72.82 159.56 76.12 155.3 77.22 152.4 80.3 146.55 83.86 142.64 95.28 129.63 97.53 126.91 127.39 147.18"/><path class="cls-4" d="M91.05,40.21,94.49,45l6.31,16,.59,10.71L98.55,81.92,90.69,93.1l-1.06,4.3-.78,5.23.78,6.78,2.15,6.27,2.5,4.19,3.58,4.65,1.84,5.9.58,5.31-1.16,6.51-1.84,5-2.16,4.94-.84,6.87.84,7.36v5.91l2.55,4.45,4.82,2.13,2.53-5.51,5.43-6.88,6.1-6.29,9.87-10.56,1-4.65,1.55-8.23,10.27-4.26,7.39-5.42,1.22-7.26-1.22-3.39-7.1-5.33-3.78-3.77-3.29-5.33-.2-6.68.78-8.72,1.64-4.16,3-10.55L137,65.26l-1.26-5.91-1.84-5.94-.39-5.78-.68-7.33-4.93-10-3.2-6.74-8.13-8.17-8.91-5.52-5.15-2.13L96.6,6.32l-6.49-.91H73.85L66.39,6.77,60.1,9.58l-6,4.84-3.58,5.42L46.3,23.27l-3.52,4.41-2.69,7.75S38.8,37.6,42.78,45l-.15-5.75,7.88-15.67L58,28.05,77.62,34.6Z"/><polygon class="cls-4" points="37.89 73.64 39.79 92.17 44.76 102.66 54.4 108.39 63.19 113.66 67.42 121.19 67.42 141.01 60.89 148.99 50.51 152.59 39.89 150.89 32.25 153.45 28.59 156.08 24.29 161.8 19.7 162.79 21.75 157.35 23.02 151.84 24.36 146.9 28.38 142.17 33.75 138.22 37.89 135.25 41.02 132.29 42.36 129.75 42.29 123.82 41.3 119.09 39.89 114 36.85 106.73 33.4 100.03 31.7 93.74 31.91 87.6 32.83 82.94 34.6 78 37.89 73.64"/><path class="cls-3" d="M59.47,156.48s-15.61,45.8-19.58,97l-42.88,0c-.43,1.44,2.59-26.65,31.47-82.81C28.48,170.6,53.54,165.4,59.47,156.48Z"/><path class="cls-3" d="M63.18,150.59s-17.51,48.58-22,102.85l-48.11,0c-.22,0,2.57-12,2.78-12.72a295.91,295.91,0,0,1,15.93-42c2.74-6,5.67-12,8.67-17.9q2.25-4.44,4.54-8.85c.86-1.67,1.94-5.23,3.63-6.29a3.45,3.45,0,0,1,1.09-.38C40.17,162.94,56.59,160,63.18,150.59Z"/><path class="cls-2" d="M129.1,145.57s37.38,64.73,36.31,107.85l-2.7,0C159.77,228,144.26,190,126.42,149.69l2.68-4.12"/><path class="cls-4" d="M137.66,75.58s-6.58,26.51,8.14,34.66a12.57,12.57,0,0,1,6.72,12.17c-.54,5-3.51,10.5-12.9,13.32h0s-13.24,5.58-8.76,12.54h0l-9-2.7V90.17"/><path class="cls-5" d="M56.82,110.62a73.5,73.5,0,0,1-7.08-3.6c-1.85-1.08-4-2.1-5.21-3.75a35.27,35.27,0,0,1-6.88-26.72,5.73,5.73,0,0,0-.4-1.48A25.73,25.73,0,0,0,35,78.25c-2.24,4.77-3.54,9.93-2.59,15a45.65,45.65,0,0,0,4.7,12.61c3.66,7,6.17,14.15,5.85,22.15a7.45,7.45,0,0,1-2.66,5.89c-3,2.42-6.11,4.83-9.3,7a16.48,16.48,0,0,0-6.93,9.61c-1,3.81-2,7.62-3.05,11.6,3-.4,4.42-2.92,5.89-5.06A13.46,13.46,0,0,1,37.6,151c4.72-.33,9.48-.09,14.2-.33,7.64-.39,14.35-6.66,14.78-13.74.21-3.47.26-7,.28-10.45C66.92,119.07,63.73,113.69,56.82,110.62Z"/><path class="cls-5" d="M88.35,99.37c.81-5.38,3.86-9.64,6.92-13.88,6.13-8.49,6.88-17.7,3.63-27.41a2.57,2.57,0,0,0-1.9-1.4c-6.21-.1-12.42,0-18.62-.06-1.15,0-1.5.47-1.66,1.59a30.89,30.89,0,0,1-1.4,6.28c-3.37,8.9-14.58,9.57-20.51,4.67C51,66,50.11,61.7,50.79,57c.27-1.86-.54-2.6-2.2-2.74s-2.87.26-2.87,2.31a7.88,7.88,0,0,1-3.47,6.36c-.59.47-1.14,1-1.8,1.58l4.07,7-.91.63-4.29-5.18a12.79,12.79,0,0,0-.52,2.14c-.23,8-.14,15.9,2.13,23.64,1.71,5.82,4.91,10.38,10.69,12.88,2.49,1.08,4.86,2.43,7.32,3.6,5.93,2.82,9.07,7.6,9.89,14,.35,2.8.62,3,3.39,2.85,7-.52,12.81-4,18.48-7.73,1.11-.74.73-1.51.3-2.51C88.73,110.58,87.48,105.15,88.35,99.37ZM44.76,86.72c2.72.29,5.49.85,7.94-2C51.6,88.55,47.47,89.4,44.76,86.72Z"/><path class="cls-5" d="M75,45l-8.17-6C70.11,38.28,74.68,41.75,75,45Z"/><path class="cls-5" d="M114,117c-4.42-2.36-7.39-6.08-10-10.14a13.76,13.76,0,0,1-2.5-9.71,82.53,82.53,0,0,1,2.32-11.65c2.45-8,4.51-15.78,3.19-24.36-1.26-8.15-5.19-13.86-12.51-17.88,1.74,4.19,3.37,8,4.95,11.88a33.69,33.69,0,0,1,1.68,21.29,32.28,32.28,0,0,1-6.16,12c-5.68,7.26-6.67,15.32-3.44,23.65,1.71,4.41,4.66,8.34,7.15,12.42,3.26,5.33,3.14,11,1.58,16.7C98.84,146.2,97,151,95.64,156a25.49,25.49,0,0,0,.79,15.42,10.13,10.13,0,0,0,5.16,6.24c.32-.81.5-1.47.81-2.06a19,19,0,0,1,2.34-4.13c6-6.58,12.29-12.93,18.18-19.63a17.26,17.26,0,0,0,4.38-10A24.23,24.23,0,0,0,124,127.17,25.75,25.75,0,0,0,114,117Z"/><path class="cls-5" d="M128.94,135.73c3.24-1.32,6.31-2.4,9.22-3.81a41.56,41.56,0,0,0,6.4-3.92,4.49,4.49,0,0,0,1.76-2.7c.61-5,.5-7.37-3.41-10.39a116.47,116.47,0,0,1-8.83-7.64c-2.06-1.94-2.77-4.58-3-7.37-.63-6.48.74-12.59,3.12-18.57,3.76-9.45,3.5-18.62-2.07-27.39-2-3.18-3.75-6.56-6-9.57-3.63-4.84-7.16-9.86-11.46-14.07-8.28-8.12-18.82-11.67-30.2-12.06-9.59-.32-19.27-1.08-28.81,1.17a8,8,0,0,1,2.48-1c4.73-.71,9.46-1.71,14.22-1.89,6.39-.25,12.9-.51,19.18.4,12.72,1.86,22.91,8.36,30.33,19,3.28,4.69,6.43,9.45,9.65,14.18.37.55.76,1.1,1.4,2,0-.83,0-1.16,0-1.49-.53-8.55-4-16.13-7.76-23.63a24,24,0,0,0-7.1-8.63c-1.39-1.05-2.7-2.2-4.09-3.25-5.81-4.44-12.26-7.66-19.59-8.19A191.86,191.86,0,0,0,72.24,6.5c-9,.39-15.71,5.16-20.85,12.3-1.49,2.09-1,3.37,1,4.92,4.89,3.67,10.49,5.66,16.3,7.29C80.35,34.28,91.83,37.88,101,46.39c2.93,2.7,5.25,5.69,6.12,9.5a49,49,0,0,1,.63,19.32c-1,5.94-3.14,11.7-4.35,17.62-.92,4.52-1.32,9.3,1.61,13.33a28.73,28.73,0,0,0,9.89,9.1,25.94,25.94,0,0,1,7.36,5.71c3.5,4,6.17,8.62,6.44,14.21A1.44,1.44,0,0,0,128.94,135.73Z"/><polygon points="40.09 38.36 40.09 38.36 40.1 38.36 40.09 38.36"/><path d="M162.25,233.05a159.27,159.27,0,0,0-4.48-16c-3.91-11.83-8.17-23.61-12.86-35.16-2.45-6-5.64-11.8-8.44-17.71q-3-6.33-5.88-12.71c-2.7-6-1.35-12.43-.08-13.48a14.46,14.46,0,0,1,4.36-2.69,33.41,33.41,0,0,0,11-5.87,6.82,6.82,0,0,0,2.24-2.93c1.28-4.35,1.2-9.91-3.7-13.31-2.17-1.51-4.19-3.22-6.25-4.89a13.93,13.93,0,0,1-5.33-11.08,38.08,38.08,0,0,1,2.85-14.68c3.17-8.15,3.48-16.25.16-24.43a16.15,16.15,0,0,1-.8-3.66c-.62-4.2-.87-8.48-1.83-12.59a48.13,48.13,0,0,0-9-19.61A46.1,46.1,0,0,0,97.86,5.89,66.57,66.57,0,0,0,69,5.32c-7.93,1.72-14.19,6.29-18.83,13a7.65,7.65,0,0,0-1.06,2.86c-.3,1.59-.06,3.34-.64,4.8-1.25,3.15-3,6.11-4.28,9.25a5.65,5.65,0,0,1-2.83,3.22,3.64,3.64,0,0,0-2.07,2l-.19.51a7.11,7.11,0,0,1,3.49-1.73C41.92,42,41.22,43,38.91,42.77a17.72,17.72,0,0,0-7,.18c-6.18,1.85-8,6.79-8,12.7,0,5,4.73,10.18,9.71,10.59,3.68.3,3.73.3,3.67,4.1,0,1.27.09,3-.65,3.7-2.75,2.49-4.06,5.68-4.91,9.06-1.11,4.4-1.94,9-.5,13.4a57.72,57.72,0,0,0,4.41,10.14c3.69,6.64,6.32,13.47,5.91,21.23A6.64,6.64,0,0,1,39.29,133a78.88,78.88,0,0,1-7.62,5.8c-5.15,3.21-8.52,7.44-9.44,13.58-.48,3.22-1.15,6.48-3.36,9.1-.72.86-1.58,1.6-2.79,2.82,4.1-.14,7.62-.13,10.17-3.28q1.44-1.78,2.82-3.63a11.45,11.45,0,0,1,8.61-4.52,73.34,73.34,0,0,1,8.77-.24c4.69.15,9.18-.38,13.33-2.74a3.53,3.53,0,0,1,1-.08,27.16,27.16,0,0,0-1.57,4.52c-.52,3.52-2.87,5.36-5.69,6.89-7.36,4-15.41,6-23.4,8.12a3,3,0,0,0-1.54,1.13,21.18,21.18,0,0,0-1.05,2.26A425.65,425.65,0,0,0,2.65,230.08c-1.21,3.41-1.78,7-2.65,10.56l.51.13c.28-.71.56-1.42.82-2.15,1.71-4.85,3.38-9.72,5.29-14.49,6.65-16.57,13.68-33,21.78-48.89a10.69,10.69,0,0,1,7-5.72c5.57-1.74,11-3.8,16.48-5.91a41.18,41.18,0,0,0,5.55-3.26c-4,15.57-8.2,30.58-11.75,45.73s-6.75,41.76-6,46.21c.23-1.62.47-3.06.65-4.51,2.55-20.57,6.06-40.95,11.59-60.95,2.3-8.33,4.69-16.63,7.05-24.94a45.23,45.23,0,0,1,1.88-6.36c1.33-3,3.13-5.71,4.53-8.65a21.25,21.25,0,0,0,2-5.87c.57-4,.85-8,1-12.06.08-1.68.69-2.26,2.27-2.12,5.67.49,10.7-1.26,15.35-4.39,2-1.32,4-2.46,6.16-3.73,1.52,1.73,3.07,3.42,4.53,5.18.88,1,.82,2-.21,3.1-4.35,4.62-8.69,9.25-12.89,14a39.62,39.62,0,0,0-7.86,13,10.14,10.14,0,0,1-2.9,4.39A53.89,53.89,0,0,0,56.34,181c-6.11,15.54-9.29,31.63-10.62,48.16-.74,9.22-1.25,18.46-1.86,27.69h1.26c0-14,1.85-27.94,3.8-41.8a154.92,154.92,0,0,1,8-31.11,60.17,60.17,0,0,1,7.22-14.43c3.1-4.38,7.69-7.25,11-11.43,3.16-4,4.46-9,7.72-13,4-4.94,8.22-9.72,12.35-14.55.84-1,1.76-1.89,3-3.16,1.5,4.81,1.81,9.15.2,13.48-3.19,8.54-5.63,17.32-4.5,26.53.72,5.85,3.47,13.28,10.61,12.6-1-3.44.58-5.94,2.87-8.35,4.18-4.38,8.19-8.93,12.29-13.39,2.58-2.8,5.18-5.58,7.95-8.56.59,1.09,1.21,2.08,1.7,3.13,1.45,3.17,2.73,6.42,4.3,9.53a360.31,360.31,0,0,1,14.65,33.91c4.29,11.21,8.82,22.46,11.68,34.14,2.19,9,2.33,17.72,3,26.84,1.24-.4,1.52-2,1.55-3.32A88.75,88.75,0,0,0,162.25,233.05ZM43.16,41.51c.41-1.32,0-2.56,2-2.93.93-.17,1.48-.23,3.09-.53a5.11,5.11,0,0,0-3.2-.64l5.85-13c2,1.29,3.54,2.6,5.29,3.32,4.44,1.82,9,3.39,13.48,5,5.37,1.94,10.77,3.78,16.13,5.75a14.2,14.2,0,0,1,8.67,8.24C95.51,49.4,96.7,52,98,55.08c-2.29.15-20.68.18-21.41-.35A5.28,5.28,0,0,1,75.23,53a18.17,18.17,0,0,0-2.8-4.36c-6.29-6.08-17.5-3-20.48,3.43-.47,1-1,1.52-2.23,1.21a19.26,19.26,0,0,0-3.9.06A9.1,9.1,0,0,0,44,46.11C42.55,44.48,42.57,43.4,43.16,41.51Zm23.42,95.43c-.43,7.08-7.14,13.35-14.78,13.74-4.72.24-9.48,0-14.2.33A13.46,13.46,0,0,0,27,157.13c-1.47,2.14-2.9,4.66-5.89,5.06,1.05-4,2.07-7.82,3.06-11.65a16.44,16.44,0,0,1,6.64-9.36c3.29-2.28,6.45-4.76,9.58-7.25A7.45,7.45,0,0,0,43,128c.32-8-2.19-15.15-5.85-22.15a45.65,45.65,0,0,1-4.7-12.61c-1-5.1.35-10.26,2.59-15a25.73,25.73,0,0,1,2.21-3.18,5.73,5.73,0,0,1,.4,1.48,35.27,35.27,0,0,0,6.88,26.72c1.21,1.66,3.39,2.68,5.25,3.77A76.54,76.54,0,0,0,57,110.68c6.82,3.08,10,8.44,9.91,15.81C66.84,130,66.79,133.47,66.58,136.94Zm24.12-18.6c-5.67,3.75-11.46,7.21-18.48,7.73-2.77.2-3,0-3.39-2.85-.82-6.42-4-11.2-9.89-14-2.46-1.17-4.83-2.52-7.32-3.6-5.78-2.5-9-7.06-10.69-12.88C38.66,85,38.57,77,38.8,69.08a12.79,12.79,0,0,1,.52-2.14l4.29,5.18c.56-.4-.21.14.35-.25-1.35-2.31-2.14-5-3.51-7.35.66-.58,1.26-1,1.8-1.58a9.77,9.77,0,0,0,3.06-6.52c0-2.05,1.61-2.3,3.28-2.15s2.47.88,2.2,2.74c-.68,4.69.24,9,4,12.15,5.93,4.9,17.14,4.23,20.51-4.67a30.23,30.23,0,0,0,1.4-6.28,1.85,1.85,0,0,1,1.86-1.59c6.14,0,12.3,0,18.44.06a2.18,2.18,0,0,1,1.88,1.4c3.25,9.71,2.5,18.92-3.63,27.41-3.06,4.24-6.11,8.5-6.92,13.88-.87,5.78.38,11.21,2.65,16.46C91.43,116.83,91.81,117.6,90.7,118.34Zm36.6,23.45a17.26,17.26,0,0,1-4.38,10c-5.89,6.7-12.16,13.05-18.18,19.63a19,19,0,0,0-2.34,4.13c-.31.59-.49,1.25-.81,2.06-2.81-1.4-4.91-3.49-5.16-6.24-.5-5.56-2.26-10.23-.79-15.42,1.39-4.93,3.2-9.75,4.55-14.7,1.56-5.71,1.68-11.37-1.58-16.7-2.49-4.08-5.44-8-7.15-12.42-3.23-8.33-2.24-16.39,3.44-23.65a32.28,32.28,0,0,0,6.16-12,33.69,33.69,0,0,0-1.68-21.29c-1.58-3.86-3.21-7.69-4.95-11.88,7.32,4,11.25,9.73,12.51,17.88,1.32,8.58-.74,16.39-3.19,24.36a82.53,82.53,0,0,0-2.32,11.65,13.76,13.76,0,0,0,2.5,9.71c2.47,3.78,5.22,7.27,9.16,9.64a31.19,31.19,0,0,1,8.24,6.88C125.92,129.08,127.84,135.14,127.3,141.79Zm-5.57-21.44a24.34,24.34,0,0,0-6.84-5.11,28.93,28.93,0,0,1-9.85-9.08c-2.93-4-2.53-8.81-1.61-13.33,1.21-5.92,3.31-11.68,4.35-17.62a49,49,0,0,0-.63-19.32c-.87-3.81-3.19-6.8-6.12-9.5C91.83,37.88,80.35,34.28,68.7,31c-5.81-1.63-11.41-3.62-16.3-7.29-2.06-1.55-2.5-2.83-1-4.92C56.53,11.66,63.28,6.89,72.24,6.5a191.86,191.86,0,0,1,22.11.33c7.33.53,13.78,3.75,19.59,8.19,1.39,1.05,2.7,2.2,4.09,3.25a24,24,0,0,1,7.1,8.63c3.77,7.5,7.23,15.08,7.76,23.63,0,.33,0,.66,0,1.49-.64-.91-1-1.46-1.4-2-3.22-4.73-6.37-9.49-9.65-14.18-7.42-10.59-17.61-17.09-30.33-18.95-6.28-.91-12.79-.65-19.18-.4-4.76.18-9.49,1.18-14.22,1.89a8,8,0,0,0-2.48,1c9.54-2.25,19.22-1.49,28.81-1.17,11.38.39,21.92,3.94,30.2,12.06,4.3,4.21,7.83,9.23,11.46,14.07,2.24,3,4,6.39,6,9.57,5.57,8.77,5.83,17.94,2.07,27.39-2.38,6-3.75,12.09-3.12,18.57.27,2.79,1,5.43,3,7.37a116.47,116.47,0,0,0,8.83,7.64c3.91,3,4,5.35,3.41,10.39a4.49,4.49,0,0,1-1.76,2.7,41.56,41.56,0,0,1-6.4,3.92c-2.91,1.41-6,2.49-9.22,3.81a1.44,1.44,0,0,1-.21-.55C128.44,129.3,125.51,124.51,121.73,120.35Z"/><path d="M40.09,38.36h0v0Z"/><path d="M39.54,36.79a9.26,9.26,0,0,0,.55,1.55c.42-6.3,3.32-11.43,8-16.14C43.7,24,38.82,32.67,39.54,36.79Z"/><path d="M35,176.2c-.08.21-.17.42-.26.63l2,1.75c-.91.3-1.73.81-2,.61a16,16,0,0,1-2.08-2.4,2.08,2.08,0,0,0,.51,3c1.13.86,2.55,1.13,3.56-.12a2.9,2.9,0,0,0,.54-2.47C37,176.63,35.78,176.52,35,176.2Z"/><path d="M44.76,86.72c2.71,2.68,6.84,1.83,7.94-2C50.25,87.57,47.48,87,44.76,86.72Z"/><path d="M66.87,38.94,75,45C74.68,41.75,70.11,38.28,66.87,38.94Z"/></g></svg>