<svg id="Layer_1" data-name="Layer 1" xmlns="http://www.w3.org/2000/svg" viewBox="0 0 650 200"><defs><style>.cls-1{fill:#274ba0;}</style></defs><title>Artboard 3</title><path class="cls-1" d="M289.14,173.49C271.66,196.86,242.23,200.1,235,200c-48.77-.74-70.35-40.33-68.08-74.37,1.15-17.19,14.47-60,67.11-62.94,50.91,0,75,44.51,68.83,77.47l-103.47,0c3.11,10,11.58,27.64,35.82,28.37,7.07.21,15.48-2.6,29.13-12.22Zm-54-78.59c-22.93.77-28.71,14.56-33.08,20.66h66.15C265.23,110.19,255.51,94.22,235.16,94.9Z"/><path class="cls-1" d="M-.1,22.33A22,22,0,0,1,6.12,6.52Q12.33,0,22.22,0t16.24,6.5a21.78,21.78,0,0,1,6.35,15.81A21.93,21.93,0,0,1,38.46,38a21.49,21.49,0,0,1-16.24,6.64q-9.9,0-16.1-6.64A22.14,22.14,0,0,1-.1,22.33ZM3,200V62.44H17.9A23.8,23.8,0,0,1,41.7,86.25V200Z"/><path class="cls-1" d="M451.64,22.3a22,22,0,0,1,6.21-15.81Q464.06,0,474,0t16.24,6.5a21.74,21.74,0,0,1,6.35,15.81A21.89,21.89,0,0,1,490.19,38,21.49,21.49,0,0,1,474,44.62q-9.88,0-16.1-6.64A22.13,22.13,0,0,1,451.64,22.3ZM454.74,200V62.41h14.89a23.81,23.81,0,0,1,23.81,23.81V200Z"/><path class="cls-1" d="M161.28,92.75H122.59V200H84.7V92.75H62.38V62.31H84.69V26.46H118a4.61,4.61,0,0,1,4.61,4.62V62.31h24.53a14.16,14.16,0,0,1,14.16,14.16Z"/><path class="cls-1" d="M581.53,62.62a68.57,68.57,0,1,0,68.57,68.57A68.58,68.58,0,0,0,581.53,62.62Zm-54.15,63.67,29.15,3a32.82,32.82,0,0,0,.18,4.85l-28.43,8.11S526.48,133.39,527.38,126.29Zm-1.18,23.33,31.73-10.38a24,24,0,0,0,3.1,6.08l-24.39,23.4S529.31,160.28,526.2,149.62Zm18.42,21.58,20.08-21.71a25.6,25.6,0,0,0,9.82,5.78l-8.19,28.26C552,179.51,544.62,171.2,544.62,171.2Zm36.91,18.31h0a53.8,53.8,0,0,1-7.93-.54l5.83-32.78a20.22,20.22,0,0,0,4.6,0l5.73,32.74A57,57,0,0,1,581.53,189.51Zm15.71-6.13-8.3-28.11a24.32,24.32,0,0,0,9.83-5.78l19.7,21.67S611.61,179.35,597.24,183.38Zm29.42-14.15L602,145.57c2.69-4.44,3.15-6.17,3.15-6.17l32.11,10.5C634.08,160.69,626.66,169.23,626.66,169.23Zm-20.3-35.07a31.77,31.77,0,0,0,.22-4.84l29.22-3.13c.92,7.19-1.12,16-1.12,16Zm-2.2-12.4c-.82-1.51-1.59-2.14-3.34-4-1.23,2.89-3.52,3.71-6.86,3.71a8.06,8.06,0,0,1-8.06-8.06c0-2.42.31-3.83,2-5.31a31.11,31.11,0,0,0-7.4-2.35l0-.47c.42,0,.85,0,1.27,0,11.32,0,19.15,5,22.8,16.39Z"/><path class="cls-1" d="M323.28,26.52h25A13.5,13.5,0,0,1,361.74,40V200a0,0,0,0,1,0,0H323.28a0,0,0,0,1,0,0V26.52A0,0,0,0,1,323.28,26.52Z"/><path class="cls-1" d="M389.46,26.49h25A13.5,13.5,0,0,1,427.92,40V200a0,0,0,0,1,0,0H389.46a0,0,0,0,1,0,0V26.49A0,0,0,0,1,389.46,26.49Z"/></svg>