<svg id="Layer_1" data-name="Layer 1" xmlns="http://www.w3.org/2000/svg" viewBox="0 0 500 500"><defs><style>.cls-1{fill:#fff;}.cls-2{fill:#274ba0;}</style></defs><title>Artboard 2</title><circle class="cls-1" cx="250.94" cy="260.43" r="217.84"/><path class="cls-2" d="M250.31.29C112.41.29.62,112.08.62,250S112.41,499.67,250.31,499.67,500,387.88,500,250,388.21.29,250.31.29ZM53.16,232.16,159.28,243a118.42,118.42,0,0,0,.67,17.66L56.43,290.13S49.86,258,53.16,232.16Zm-4.32,84.93,115.53-37.81a88.3,88.3,0,0,0,11.29,22.17L86.88,386.63S60.18,355.91,48.84,317.09Zm67.07,78.59L189,316.61c15.84,15.48,35.77,21.06,35.77,21.06L195,440.59C142.62,425.92,115.91,395.68,115.91,395.68Zm134.4,66.65h0a194.69,194.69,0,0,1-28.87-2L242.68,341a72.74,72.74,0,0,0,16.75,0l20.88,119.21A206.86,206.86,0,0,1,250.31,462.33ZM307.51,440,277.32,337.67s20.29-5.42,35.76-21.06l71.77,78.93S359.85,425.36,307.51,440ZM414.66,388.5l-89.9-86.14c9.79-16.17,11.46-22.48,11.46-22.48l116.94,38.24C441.68,357.41,414.66,388.5,414.66,388.5ZM340.74,260.78a118.91,118.91,0,0,0,.79-17.61L448,231.78c3.34,26.17-4.07,58.16-4.07,58.16Zm-8-45.14c-2.95-5.51-5.77-7.79-12.15-14.63-4.46,10.54-12.83,13.51-25,13.51a29.35,29.35,0,0,1-29.36-29.35c0-8.8,1.15-14,7.27-19.35-7.68-3-16.53-7.11-27-8.53l-.1-1.74c1.53-.08,3.08-.12,4.63-.12,41.22,0,69.72,18.12,83,59.67Z"/></svg>