<svg xmlns="http://www.w3.org/2000/svg" viewBox="0 0 428.05 214.91"><defs><style>.cls-1,.cls-2{fill:#1855d1;}.cls-2{stroke:#000;stroke-width:3px;}.cls-2,.cls-3{stroke-miterlimit:10;}.cls-3{fill:none;stroke:#fff;stroke-width:4px;}</style></defs><title>location</title><g id="Layer_2" data-name="Layer 2"><path class="cls-1" d="M422.47,215a13.61,13.61,0,0,0,2.58-7.55c0-13-22.27-25.86-61.11-35.38-40-9.81-93.27-15.21-149.92-15.21S104.13,162.23,64.1,172C25.27,181.56,3,194.46,3,207.42c0,2.39,1.3,5.1,3,7.55l-3.85-.06A16.47,16.47,0,0,1,0,207.42c0-19.8,39.72-32.49,63.39-38.29,40.25-9.87,93.75-15.3,150.63-15.3s110.38,5.43,150.64,15.3c23.67,5.8,63.39,18.49,63.39,38.29a14.64,14.64,0,0,1-2.22,7.52"/><path class="cls-1" d="M214,182.15a81.35,81.35,0,0,1-14.2-1.11c-4.84-.91-7-2.17-7-4.09s2.16-3.18,7-4.08a91.45,91.45,0,0,1,28.41,0c4.84.9,7,2.16,7,4.08s-2.15,3.18-7,4.09A81.39,81.39,0,0,1,214,182.15ZM196.3,177c1.91.91,8,2.2,17.72,2.2s15.81-1.29,17.73-2.2c-1.92-.91-8-2.19-17.73-2.19S198.21,176,196.3,177Z"/><path class="cls-1" d="M214,190.37c-11.52,0-22.38-1.13-30.56-3.19-9.06-2.28-13.65-5.33-13.65-9.07s4.59-6.78,13.65-9.06c8.18-2.06,19-3.19,30.56-3.19s22.39,1.13,30.57,3.19c9,2.28,13.64,5.33,13.64,9.06s-4.59,6.79-13.64,9.07C236.41,189.24,225.55,190.37,214,190.37Zm0-21.51c-25.53,0-41.21,5.39-41.21,9.25s15.68,9.26,41.21,9.26,41.21-5.39,41.21-9.26S239.55,168.86,214,168.86Z"/><path class="cls-1" d="M214,207.68c-41.69,0-84.81-8.57-84.81-22.92s43.12-22.93,84.81-22.93,84.82,8.58,84.82,22.93S255.72,207.68,214,207.68Zm0-42.85c-48.94,0-81.81,10.3-81.81,19.93s32.87,19.92,81.81,19.92,81.82-10.3,81.82-19.92S263,164.83,214,164.83Z"/><path class="cls-1" d="M115.43,214.82c-13.8-5.82-21.84-13-21.84-20.8,0-20.07,52.9-35.79,120.43-35.79S334.46,174,334.46,194c0,7.87-8.15,15.08-22.12,20.92m-8.37-.11c17.08-5.71,27.49-13,27.49-20.81,0-17.77-53.78-32.79-117.44-32.79S96.59,176.25,96.59,194c0,7.77,10.3,15,27.21,20.71"/><path class="cls-1" d="M380.59,214.83c2.52-3.3,3.84-6.64,3.84-9.94,0-12.33-17.95-24.58-49.26-33.61C302.83,162,259.81,156.83,214,156.83S125.22,162,92.88,171.28c-31.31,9-49.27,21.28-49.27,33.61,0,3.26,1.4,6.56,4,9.82l-4.53.14a20.92,20.92,0,0,1-2.51-10c0-14,18.27-26.93,51.44-36.49,32.6-9.4,75.92-14.57,122-14.57S303.4,159,336,168.4c33.17,9.56,51.43,22.52,51.43,36.49A21.84,21.84,0,0,1,385,215"/><path class="cls-2" d="M214.62,176.65c6.86-28,25.39-43.36,25.39-43.36,34.29-28.38,26.2-58.64,26.2-58.64-8.35-45.07-53.42-43.14-53.42-43.14h-.43s-45.11-.88-52.4,44.38c0,0-7.38,30.44,27.57,58,0,0,18.88,14.88,26.4,42.75"/><circle class="cls-3" cx="213.18" cy="84.43" r="35.42"/></g></svg>