<svg xmlns="http://www.w3.org/2000/svg" viewBox="0 0 363.52 253.38"><defs><style>.cls-1{fill:#0d3698;}.cls-2{fill:#fff;}.cls-3{fill:#faf0e5;}.cls-4{fill:#212121;}.cls-5{fill:#151308;}.cls-6{fill:#121212;}.cls-7{fill:#9bd5ff;}.cls-8{fill:#543411;}.cls-9{fill:#1e150c;}</style></defs><title>on-phone</title><g id="Layer_2" data-name="Layer 2"><path class="cls-1" d="M46.93,176.09l-3.51,9.73c-1.8,5-4.18,10.72-4.17,16.08a27,27,0,0,0,1.51,9.26c1.06,3,1.78,6.18,2.62,9.27a49.52,49.52,0,0,1,1.23,10.79c.33,7.28,1.12,14.53,1.69,21.79H85.14l1.48-32.1v-5.34L90,195.3,86.3,166.44A68.32,68.32,0,0,0,46.93,176.09Z"/><path class="cls-2" d="M49,86.19l-12.43,1.9-10.9,11L12.1,108.7,7.27,119.42V123l4.6,5.07-.24,3.42-3.06,2.12-7.31,2.83,1.06,6.48,3.3,6.75H13.4l2.71,5.8,4.57,1.47s3.2-.7,6.39,4.6c0,0,6.45,16.73,21.49,14.37,0,0,19.28-10.13,41.31-9.42,0,0,4.12-2.17,3.66-9.67L91.76,145s2.36-25.42-12.26-41.68l-4.66-2.61Z"/><path class="cls-3" d="M106.52,148.39l-12.72,1.7,1.4-3.63L92,146.35,77.4,150.63c-14.28-2.38-27.72-5.22-37.8-9.9l-11.49-1.11c-2.25,3.89-7,7.2-14,10,0,0,.89,8.35,10.75,6l57.18-.53H97.29l11.41-5.91Z"/><path class="cls-3" d="M74,90.74,75.56,82,78,78.23,84.8,82l9.72-5.29c-2.31-2.41,9.14-15.88,9.14-15.88L105,57.25l-4.61,1.54-6,.41L89.51,59,84.8,62,81,61.1l-1.6-3.05a3.19,3.19,0,0,0-3.44-1.65h0L74,59l-1.25,3.66,2,2.64-.61,5.54L72,75.73l-1.25,8.08,2.31,7.41Z"/><path class="cls-4" d="M104.27,51.26c-3.49,2.25-11.58,1.91-24-.89a13,13,0,0,0-7,.36c-5.69,1.94-11.1,3.42-15.61,3.51l-2.31,4.25-1.92,5.75-3.29,7.55-4,3.39L39,79.58l-7.36,6.35L29.5,89.74l-2.2,6.94,3.27-1.31,6-7.28,6.26-1,4.6-.94h3.13l4.24,3.55,2.77,8.07,1.22,5.64,2.64,4.88L65,111.68l4.27,1.22,1.46,2.9.67,3.81-.81,8.11a17.87,17.87,0,0,0,.06,5.82l5.1-8.34,3.9-7.38v-13.4l-5-8.8-4-10.36V78.51l2.34-5.31,1.2-4,.43-4-2-2.64L74,59l1.92-2.58,1.72-.06L81,61.1,84.8,62l4.71-3,10.88-.19L105,57.25l.82-2.79Z"/><polygon class="cls-4" points="88.3 120.76 89.01 120.76 89.96 107.05 86.51 97.2 86.22 90.74 88.3 82.12 86.53 81.04 84.8 81.98 78.39 79.03 76.24 80.18 74.37 85.5 74.37 94.72 79.67 104.42 84.56 110.31 88.3 120.76"/><path class="cls-1" d="M50.51,176.09l-9.08,25.14,6,20.57L49.88,253H88.72l1.48-32.1v-5.34l3.36-20.27-3.69-28.86A68.28,68.28,0,0,0,50.51,176.09Z"/><polygon class="cls-1" points="75.98 27.98 69.07 27.98 60.49 33.13 56.24 39.38 53.67 48.3 55.23 52.98 57.64 54.24 63.16 53.82 69.49 51.95 76.76 50.06 83.33 51.03 93.56 52.58 100.1 52.56 106.43 50.05 109.22 47.5 107.18 41.72 102.75 36.48 97.62 31.57 92.65 28.78 84.27 26.77 75.98 27.98"/><polygon class="cls-5" points="88.13 147.48 94.24 143.43 119.55 139.62 120.53 140.31 115.11 145.63 112.97 146.94 94.29 150.02 95.43 147.63 94.77 146.28 92.9 146.24 88.13 147.48"/><path class="cls-6" d="M269,205.73a449.5,449.5,0,0,0,2.24,48.16h65.95s2.24-32.29.53-38.36L333.44,220l-17.69-16.63C303.23,209.52,287.8,210.59,269,205.73Z"/><path class="cls-7" d="M245.93,120.75s10.62,23.93,26.35,33.67L265,200.29l4,5.44s28.09,6.73,46.77-2.35L333.44,220l15.34-23.95,5.57-11.95,2.55-8.92,3-5.46L361,158.14l1.41-7.31-1.31-22.08-3-15.22-2-16.23-5.59-14L325.63,72.15h-3.94L316,76.25l-6.7,2.55L299,79.67l-8.07-2.6-1.78-1.46-7,5.41-1.9,12.83-2,11.4-2.9,22.24-12.2-9.15S252.13,122.33,245.93,120.75Z"/><path class="cls-8" d="M261.66,108.73l-2.58-3.29,1.47-4.18,1.11-2.15-1.11-1.4H257l-11.06,2.79-3.69-1.65L241,103.66l.55,4.18,2.36,5.77,5.45,7.14c3.78,1.42,13.77-2.41,13.77-2.41l-.73-5.43Z"/><path class="cls-8" d="M314.33,49.45c-1.64-2.23-.87-7.36-.87-7.36L313.12,39,310,36.59l-3.43,1.72.34-1.2-1-4.58-2.29-2.8-4.75-3.38a5,5,0,0,1-3.48-.51l-3.1-1.32-2.7,1.19-3.36-.53h-1.31l-2.12.53-2.8-.4-4.12-.79L273,26.3l-2.63,3.49-1.23.53.6,10.84,5.71,13.52,4.77,11.62,7.08,2.9,7.13-.16-1.6,4.17-2.24,2.09c.31,5,18.65,3.5,18.65,3.5q7-1.78,10.48-5.74v-.91C312.56,74,314.33,49.45,314.33,49.45Z"/><path class="cls-9" d="M266.6,22.49l-.52,2.69V27.6L267.9,30l1.26.3,1.23-.53a7.82,7.82,0,0,1,4-3.44c.55-.2.62-.64,1.8-1.52l6.62.88,2.12-.53,1.24.53,3.4.7,3.92-1.23a5.7,5.7,0,0,0,5.39,1.61l3.2,1.84,1.55,1.1,2.29,2.8,1,4.58-.34,1.2L310,36.59,313.12,39l-1.49,6s.35,4.54,3.2,5.52l1.84-5.13,3.44-3.81,1.58-11.89-1-4.5L320.11,20,317.52,15l-2.88-3.1-1.18-2-.23-1.39L309.91,6.4l-2.15-.51-2.53-1.3L301.84,4h-2.93l-2-.34-3,1-2.08.9-3.89-1.18-3.84-.17-2.7.5-1,1.41-2.08,1.07-2.73.57-.69.88-2.57,2.88L270.38,14l-1.22,3.26L266.49,19Z"/><polygon class="cls-5" points="238.58 89.13 245.94 100.5 258.2 97.41 252.65 87.3 240.62 87.72 238.58 89.13"/><path class="cls-2" d="M324.45,71.87l-2.76.28C333,78.12,345.59,81,349.6,90c11.82,26.59,10.52,59.91,9,76.2l.13,7.87c13.21-41.06-4.56-90.88-8.14-90.78s-26.11-11.45-26.11-11.45"/><g id="idUJy6.tif"><path d="M72.77,253c.1-7.4,2-14.52,3.45-21.74,1.71-8.82,4.53-17.37,6.56-26.11.56-2.4.85-4.87,1.48-7.26,2.66-10.06.77-20.17.44-30.26,0-.87-.1-1.28-1.27-1-2.35.58-4.77.94-7.17,1.34-.65.11-.88.24-1.12,1-1,3-.76,6.21-1.6,9.23-1.34,4.76-3.27,9.28-8.28,11.49a15.58,15.58,0,0,1-8.11,1.66c9.42-1.67,14-5.17,15.73-15.82.39-2.34.34-4.77,1.58-7.19a92.55,92.55,0,0,0-15.58,4.14c-2.38.93-5.09,1.47-7,3s-1.44,4.41-2.44,6.58a71.91,71.91,0,0,0-3.75,11c-1,3.49-2.65,7.18-2.16,10.82a55.29,55.29,0,0,0,1.24,7c1.1,4,2.88,7.66,3.49,11.89C49.57,232,50.5,243.72,52,253c.09.59-.82.18-1.74.14s-3.35-20.26-3.35-25.09a64.86,64.86,0,0,0-2.23-12.37c-.56-1.88-1.42-3.65-1.84-5.57-.52-2.33-1.33-9-1-10.05,2.27-7.4,4.37-14.84,7.17-22.09.23-.58.79-1.43.18-2s-1.22.29-1.87.37c-2.84.38-5.7.8-8.35-.66-3.63-2-6.91-4.33-9-8-1.55-2.67-3.58-5.07-4.89-7.89-.37-.79-.88-1.69.16-2.24,1.23-.64,1.5.6,1.83,1.26a58.39,58.39,0,0,0,5.79,8.94c3.25,4.2,7.32,7.48,13.3,6.91a30.2,30.2,0,0,0,9.24-2.6c7.9-3.51,16.3-5.21,24.84-6.34a70.52,70.52,0,0,1,9-.28c1.13,0,1.47-.56,2.11-1.34,1.51-1.89,1.21-4.06,1.63-6.13.33-1.66-.18-2.17-2.08-2.25-8.63-.38-17.26.37-25.89.06-6.47-.24-12.93.06-19.39.35-3.67.17-7.31-.73-11-.34s-7.42.72-11.14,1c-6.27.44-8.06-1.19-9.73-5.38-.37-.93-.67-1.23-1.73-1-5,1.25-7.41.06-9.5-4.52-1-2.13-1.63-4.36-2.39-6.56V135.9c1.45-.92,3.19-1.06,4.79-1.49a13.11,13.11,0,0,0,5.07-2.76,3,3,0,0,0,.45-4.53,5.42,5.42,0,0,0-1.17-1.07c-3.93-2.73-4.25-3.65-2.48-7.92,1-2.41,2-4.84,3.11-7.19A14.9,14.9,0,0,1,16,104.68c4.18-2.43,7.83-5.55,11.69-8.4a24.75,24.75,0,0,0,6.77-8.35c.74-1.31,1.95-1.54,3.23-1.66a40.05,40.05,0,0,1,6.92-.38c.35,0,.81.26,1.1-.3-1.86-.74-3.84-.57-5.76-.76-.17-.81.37-1,.92-1,4.73,0,9.18.85,12.89,3.91,2,1.66,2.8,3.92,3.48,6.27,1.24,4.31,1.94,8.78,4.3,12.75,1.3,2.18,2.8,3.9,5.61,4.35s3.92,2.58,4.44,5.09c.91,4.33,0,8.56-.68,12.81a6.52,6.52,0,0,0-.08,2.71c-2.1-1.69-.87-3.81-.6-5.66a28.72,28.72,0,0,0,.2-9.52c-.4-2.07-1.18-3.53-3.75-3.87a8.28,8.28,0,0,1-5.81-4,31.6,31.6,0,0,1-4-9.95c-.6-2.33-1.28-4.65-2-6.93-.69-2.09-2.32-3.43-4.17-4.65-1.5-1-2.75-.3-4.14.07a12.14,12.14,0,0,1-2.43.25c-2,.13-4.08.09-6.11.34a3.18,3.18,0,0,0-2.48,1.68c-1.32,2-2.5,4.28-4.27,5.91a89.21,89.21,0,0,1-14,10.34A14.67,14.67,0,0,0,11,112.28c-1,2.33-2.05,4.67-3,7s-.6,3.47,1.47,4.87a7.81,7.81,0,0,1,3.06,10,2.23,2.23,0,0,1-1.68,1.56c0-1.07.57-2,.24-3.28-2.41,2.51-5.52,3.37-8.63,4.18-1,.28-.82,1-.72,1.52a26,26,0,0,0,3.31,8.94,4.27,4.27,0,0,0,4,2.21c3.48,0,6.34-1.76,9.43-2.84a13,13,0,0,0,7-5.05c1.64-2.47,3.55-4.77,5.35-7.14A2.71,2.71,0,0,1,32.77,133c0,2-1.36,3.12-2.32,4.37-2.55,3.32-4.39,7.23-8.5,9.28A41.25,41.25,0,0,1,16.16,149c-1.53.49-1.39,1.2-.89,2.28,1.61,3.46,4.07,4.73,8.46,4a74.36,74.36,0,0,1,12.36-.9c5.51.07,11,.35,16.54.31,8.37-.06,16.75-.06,25.12.05,2.81,0,5.6-.75,8.34-.33,3.61.55,7.19,0,10.78.3a1.78,1.78,0,0,0,.93-.29c3.14-1.85,6.12-4,9.73-5.5-2.43-.51-4.31.6-6.34.7a13.87,13.87,0,0,0-3.2.51,14.32,14.32,0,0,1-3.45.24c-.86,0-1.9-.17-1.29,1.25-.73.1-1.57.37-1.94-.52-.29-.68-.11-1.17.8-1.45A3.72,3.72,0,0,0,94.87,147c-1.62-.52-3.47-.25-4.21.71-1.06,1.37-2.46,1.31-3.6,1.35a12.49,12.49,0,0,0-4.72,1,13.67,13.67,0,0,1-7.15.9,140.67,140.67,0,0,1-25.92-5.73c-4-1.28-7.87-2.89-12-3.67a76.48,76.48,0,0,0-8-1.08,24.09,24.09,0,0,1,13.77.63c3.9,1.32,7.7,3,11.67,4,6.21,1.61,12.54,2.8,18.7,4.58a9.94,9.94,0,0,0,5.45.3c3.74-1.31,7.92-1.78,11.1-4.42.48-.4,1.17-.57,1.19-1.43.16-7,.2-14-1.78-20.76-.12-.41.07-1.13-.73-1.22-1.24-.12-1.33-1.06-1.54-1.94a56,56,0,0,0-5.73-13.94c-.15-.26-.29-.6-.73-.52,0,2.62,0,5.23,0,7.83a16.16,16.16,0,0,1-1.77,7.93c-2.33,4.33-5.91,8-7.39,12.78-.09.31-.21.68-.64.58a.66.66,0,0,1-.48-.77c.11-.84.26-1.66.4-2.5,2.1-4.08,5.28-7.56,7.13-11.79a10.83,10.83,0,0,0,1-4.72c-.13-3.58.43-7.19-.26-10.74s-3-6.61-5.06-9.69c-4.57-7-5-14.19-1.3-21.68a9.53,9.53,0,0,0,.16-9.15c-1.18-2.27,1.57-7.44,4.13-8.12a2.8,2.8,0,0,1,2.6.77c1,.85.36,1.86.4,2.75-.59.13-.84-.09-.89-.31-.21-.94-.53-1.81-1.73-1.81-1,0-1.54.84-1.89,1.59-.92,2-2.76,4,0,6.06.64.48-.23,1.22-.15,1.91A16.1,16.1,0,0,1,72.91,76C70.62,80.47,72,85,73,89.46c.46-2,.93-4.09,1.35-6.14a6.86,6.86,0,0,1,2.15-4.1c.48-.42,1-.93.43-1.67-.25-.32-.38-.78,0-1s.75.13,1,.39A31.14,31.14,0,0,0,81.43,80c2.83,1.9,3.33,2,6.08,0a21.11,21.11,0,0,1,5.24-2.94A1.94,1.94,0,0,0,94,75.5a20.14,20.14,0,0,1,6-11c2.82-2.52,3.41-3.93,3.27-6.49-4,2.25-8.32,1.57-12.55,1.2a2.88,2.88,0,0,0-2.66,1.4c-2.1,2.37-5.75,2-7.07.56-.36-.4-1.16-.85-.63-1.41s.88.28,1.26.56a3.92,3.92,0,0,0,5.48-.39,5.13,5.13,0,0,1,4.34-1.59c2,.12,4.09-.06,6.13,0a10.17,10.17,0,0,0,6.12-1.69c1.43-.9,1.66-3.67.3-4.66-.17-.12-.6,0-.85.07-4.85,2-9.73,1.16-14.59.13-4.46-.94-8.91-1.77-13.52-1.39a11.25,11.25,0,0,0-3.68.87A27.6,27.6,0,0,1,60.7,54.44c-.21,0-.48-.08-.6,0-1.61,1.24-3.19.87-4.66-.15-1.77-1.22-2.18-3.15-2.22-5a19.77,19.77,0,0,1,3.85-12.7c3-4,6.52-7.56,11.76-8.89,2.82-.72,5.78-.73,8.62-1.17,5.83-.9,11.13.44,16.53,2.12s8.68,5.4,11.85,9.43c1.94,2.47,3.46,5,3.49,8.32,0,3-2.06,4-4.38,5,1.67,1.9,2.38,4.19,1.25,6.31-1.7,3.2-3,6.76-6.36,8.9-2.35,1.5-2.73,4.08-3.72,6.29a7.33,7.33,0,0,0-.86,3.59,1.44,1.44,0,0,1-1,1.53c-4.39,1.38-5.66,5-6.48,8.68s-1.53,7.74-.21,11.6c.73,2.14,2.1,4,2.55,6.33.93,4.74.35,9.46,0,14.18a4.63,4.63,0,0,0,0,1.74,55.79,55.79,0,0,1,2.35,22.59,10.19,10.19,0,0,0,.08,1.18c4.56-2.87,9.82-2.4,14.69-3.58,4-1,8.19-1.07,12.29-1.58.61-.08,1.07,0,1.36.57a1.09,1.09,0,0,1-.28,1.41c-3.09,2.83-5.5,6.6-10.41,6.86-1,.06-1.08,1.05-1.79,1.45-3.16,1.77-6.26,3.66-9.4,5.48a3.44,3.44,0,0,1-1.7.56c-2.44,0-3.72,1.13-3,3.1s-.15,3.1-1.11,4.17c-1.3,1.44-1.18,3.52-2.72,4.83-.37.31-.13,1.39,0,2.09,1.45,8.81,2.92,17.63,3.17,26.57.1,3.72-.89,7.37-1.46,11-.66,4.2-1.63,8.48-1.25,12.61.64,6.91-.83,13.63-1,20.45-.11,4.21-.76,8.42-1.16,12.63h-2c.32-3.3.76-6.6.92-9.9.3-6.38,1.47-12.68,1.55-19.07a139,139,0,0,1,1.11-15.77c.65-5.09,1.79-10.13,1.81-15.31,0-2.88-.57-5.66-.83-8.49-.5-5.43-.76-10.88-2-16.24-.3-1.35-1-1.25-2-1.29-1.18-.06-1.1.68-1.07,1.42,0,1.11.1,2.21.17,3.32.64,10.89.77,21.75-1.65,32.51-2.11,9.34-5.11,18.47-7,27.87C76.35,239,74.6,245.92,74,253ZM87,28c-3-.21-5.89.67-8.82,1.22a12.66,12.66,0,0,0,6.85.17c.18,0,.48-.21.46-.27-.24-1.33.85-1,1.51-1.12a1.72,1.72,0,0,1-1.14,1.64c-2.48,1.24-5.11,1.18-7.75.85-.8-.1-1.87-.4-1.29-1.66.4-.87-.35-.62-.73-.66a18.37,18.37,0,0,0-4.25.37c-6.79.91-11.69,4.4-14.59,10.25-1.87,3.76-3.18,7.76-2.1,12.07a3.41,3.41,0,0,0,3.09,2.93,15.55,15.55,0,0,0,3.83-.37,80.23,80.23,0,0,0,9.84-3c5.44-1.75,11-.92,16.44.28s10.77,2.13,16.09-.54c2.58-1.29,3.1-1.93,2.49-4.66a5.93,5.93,0,0,0-.57-1.66c-2.87-5.09-6.29-9.83-11.37-13C92.7,29.38,89.7,28.92,87,28Zm1.73,90.58c0-3.43-.1-6.86,0-10.29A17,17,0,0,0,87.18,101c-1.38-3.27-2.94-6.5-2.21-10.3a36.31,36.31,0,0,1,1.83-7c.22-.54.64-1.19.14-1.63s-1.15,0-1.57.42a1.72,1.72,0,0,1-2.23.21,10.67,10.67,0,0,1-3.51-2.27c-1.12-1.41-1.89-.92-2.67.22a6.33,6.33,0,0,0-.68,1.18c-2.88,7.2-1.79,13.92,3.36,19.73C84.12,106.62,86.66,112.44,88.75,118.59Zm6.31,31c5.44-1,10.87-2,16.28-3,2.22-.43,7.27-4.44,8.21-6.29-6.52,1-13,2.22-19.65,2.62-4.12.24-7.4,2.24-10.75,4.18a15.18,15.18,0,0,0,2.87-.78c1.27-.47,2.7-1.22,3.8-.12s-.4,2.08-.79,3.1A1.82,1.82,0,0,0,95.06,149.62Z"/><path d="M59.5,55.93a6.54,6.54,0,0,0-4.72,5.56,29.32,29.32,0,0,1-2.36,7.63c-2.18,4.34-6,7.1-10.08,9.36-5,2.74-9.26,6.1-12.27,10.84-.09.14-.3.22-.57.42a8,8,0,0,1,2.36-5.17,29.86,29.86,0,0,1,8.73-6.93c7-3.52,11.86-8.55,12.67-16.48.21-2.1,1.63-3.67,3.21-5.06C57.24,55.42,58.13,55.42,59.5,55.93Z"/><path d="M128.75,126.88c-.18.23-.43.54-.66.86-1.37,1.84-2.34,4-4,5.6-.28.27-.52.69-1,.49s-.41-.65-.27-1a12.59,12.59,0,0,1,5-6.4C128.46,126,128.82,126.23,128.75,126.88Z"/><path d="M126,136.22c-.37,0-.67-.08-.71-.37a.94.94,0,0,1,.22-.69,6.49,6.49,0,0,1,2.21-1.3c1.88-.72,3.71-1.55,5.67-2.1.51-.14,1-.12,1.16.44a.68.68,0,0,1-.58.88c-2.63.66-4.94,2.09-7.48,2.94Z"/><path d="M128.41,139.14c2.46-.35,4.24.7,6.09,1.38a1.09,1.09,0,0,1,.72,1.43c-.26.52-.93.32-1.44.1C132,141.28,129.81,141.25,128.41,139.14Z"/><path d="M87.49,77.4a.64.64,0,0,1-.66.61c-.63,0-1,0-.59.75.2.35-.13.59-.5.67a1,1,0,0,1-1.2-.48,2,2,0,0,1,.31-2.35,1.21,1.21,0,0,1,1.62-.27C87,76.56,87.43,76.8,87.49,77.4Z"/><path d="M90.7,66.87c1.21-1.81,2.9-1.58,4.48-1.59.3,0,.73,0,.79.44s-.38.69-.75.73C93.83,66.62,92.43,66.72,90.7,66.87Z"/><path d="M94,70.4a1.49,1.49,0,0,1-1.36,1.54,1,1,0,0,1-1.3-.86,1.44,1.44,0,0,1,1.57-1.42C93.47,69.63,94,69.81,94,70.4Z"/><path d="M53.81,241.42c-1-10.07.18-20.13.09-30.2C54.6,221.29,53.51,231.35,53.81,241.42Z"/></g><g id="aLgZkR.tif"><path d="M300.56,3.48a11.32,11.32,0,0,1,7.23,1.75c1.2.75,2.71.53,4,1.36s2.39,1.52,2.43,3.21c0,1.19,1.11,1.68,1.77,2.45.38.44.35.77.28,1.44s-.94-.14-1.28-.49c-1-1-2-1.9-2.11-3.58s-2-2.31-3.3-2.55a21.29,21.29,0,0,1-4.6-2,5.6,5.6,0,0,0-2.62-.46,26,26,0,0,1-4.74-.16,6.13,6.13,0,0,0-3.85.94,3.43,3.43,0,0,1-3.28.4c-2.69-.84-5.53-1.44-8.39-.6-.27.08-.66.18-.73.36-.65,1.72-1.88,2.16-3.63,2.22a2.6,2.6,0,0,0-2.34,2,9.2,9.2,0,0,1-.69,1.44c-.83-2.88,1.11-4,3.71-4.94.4-.14.93.16,1.2-.42,1.24-2.63,3.68-2.64,5.93-2.29,2.07.32,4.23.32,6.22,1.17.19.08.57.12.64,0,.79-1.12,2.09-1.18,3.23-1.57A4.36,4.36,0,0,1,298,3.11,11.88,11.88,0,0,0,300.56,3.48Z"/><path d="M314.7,204.17c0,1.14-.89,1.36-1.68,1.66a47.38,47.38,0,0,1-14.42,2.91c-7.08.34-14.17.06-21.25,0a17.25,17.25,0,0,1-7.8-2c0,2.26-.1,4.31,0,6.34.49,9,1,18.05,1.57,27.07q.45,7.59,1,15.17c0,.6,0,1-.73,1s-1.1-.16-1.15-.92c-.1-1.49-.27-3-.35-4.47-.37-6.78-.67-13.56-1.1-20.33-.46-7.3-1.08-14.59-.93-21.91,0-.63,0-1.27.07-1.9a2.88,2.88,0,0,0-.79-2.19,7.58,7.58,0,0,1-2.18-6.09c.22-2.16.63-4.48.89-6.19q1.62-10.55,2.64-21.18c.48-5,1.06-10,1.63-15.07a2.21,2.21,0,0,0-.89-2.32c-6.11-4.94-10.81-11.13-15.23-17.55-3-4.36-5.91-8.79-9-13.1a3,3,0,0,1-.29-3.18c.4-1,1.42-.45,2.18-.54l.8-.08c-1.79-2.67-3.47-5.26-5.24-7.78a13,13,0,0,1-2.06-10.66,9.52,9.52,0,0,1,.78-1.89c.35-.77,1.43-1.39,1.18-2.15a8.88,8.88,0,0,0-1.67-3.37,14.29,14.29,0,0,1-2.31-3.62c-.65-1.38,0-2,1.74-2.56a5.26,5.26,0,0,1,2.27-.21,41.57,41.57,0,0,0,9.59-.27c1-.14,1.28.15,1.6.92,1.26,3,2.93,5.73,4.44,8.57.32.61.65,1,1.43.91,1.2-.15,2.23.4,2.28,1.57s1,2.37-.84,3.2c-1.53.7-1.53,3.33-.2,4.3,1.67,1.22,1.76,3.16,2.15,4.91s-.4,3.81.29,5.26,2.72,2,3.78,3.38c2,2.65,4.8,4.37,7.66,6.29.52-3.24,1.23-6.26,1.44-9.32.31-4.6,1.27-9.09,1.88-13.63.44-3.36.66-6.75.94-10.13a32.59,32.59,0,0,1,2.92-11.26c1.07-2.27,3.37-3.69,5.25-5.35a15.4,15.4,0,0,1,4.29-2.74c1.51-.63,1.85-2.32,2.05-3.94-4.12.3-8.13.49-11.7-1.94a4.26,4.26,0,0,1-1.38-1.48,111.21,111.21,0,0,1-7.65-16.36c-1.52-4.18-3.68-8.15-4.28-12.64-.11-.8-.21-1.6-.32-2.39-.2-1.41.06-3.16-.49-4.14a34.7,34.7,0,0,1-2.2-3.53,3.29,3.29,0,0,1,.05-3.27c.77-1.18.32-2.47.33-3.7A2.18,2.18,0,0,1,267,17.93a4.36,4.36,0,0,0,2.42-2.78c.71-2.38,3.12-3.31,4.44-5.28.48,1.84-.93,2.75-1.77,3.78a7.66,7.66,0,0,0-1.42,2.09,4.75,4.75,0,0,1-2.55,2.9,1.66,1.66,0,0,0-1,2.35c.64,1.23.11,2.05-.37,3a4.27,4.27,0,0,0,1.83,5.44c.78.36,1.33.45,1.8-.5a24,24,0,0,1,1.73-2.56,1.44,1.44,0,0,1,1.64-.68c.57.13.9.63.25.9-1.95.81-2.08,3.52-4.29,4-.13,0-.19.5-.21.77a26.45,26.45,0,0,0,1.18,10c.48,1.44,1.11,2.84,1.73,4.41,1.45-1.35,2.87-2.34,4.93-1.54a2.12,2.12,0,0,1-1.84.88,2.06,2.06,0,0,0-1.84,3A118.78,118.78,0,0,0,281,63.8a7.21,7.21,0,0,0,4.3,3.69A14.8,14.8,0,0,0,296,67.11a94.09,94.09,0,0,1,10.75-3.85c-.09,1.14-.93,1.32-1.5,1.67-2.9,1.79-6.21,2.61-9.35,3.85-.72.29-1.17.55-1.26,1.38a6.24,6.24,0,0,1-2.39,4.44c-.66.51-.7.86,0,1.43a8.13,8.13,0,0,0,3.34,1.65,29.81,29.81,0,0,0,23.62-4.21c0-.1-.06-.27-.13-.29-2.91-1.05-4.17-3.24-4.77-6.18a41.31,41.31,0,0,1,.85-20.77,2.32,2.32,0,0,1,1.43-1.66,5.6,5.6,0,0,0,2.77-4.1,57.92,57.92,0,0,0,1.56-11.28c0-.29.13-.66,0-.85-1.58-2.27-.55-5.07-1.56-7.48-.77-1.85-1.8-3.56-2.59-5.39-.18-.42-.57-.86-.06-1.21s.92.12,1.12.49c1,2,2.4,3.81,2.9,6,1.19,5.17,2.28,10.35,1,15.69-.25,1-.25,2.06-.43,3.07-.49,2.81-2.38,4.79-4.17,6.79a5.46,5.46,0,0,0-1,1.91,43,43,0,0,0-.21,20,4.28,4.28,0,0,0,.8,1.73c.77,1,3,2.36,4.77,1.81s6.23,1,8.74,2a167.25,167.25,0,0,1,19.13,8.59c1.81,1,2.32,3.07,3.11,4.79,3.36,7.3,4.73,15.51,6.27,23.38a195.27,195.27,0,0,1,3.36,24.67c.19,2.81.3,5.64.33,8.46.15,17.79-3.3,35.92-12.23,51.31-2.76,4.76-6,9.21-8.55,14.09a24,24,0,0,0-2.58,7,33.48,33.48,0,0,0-.1,7.15,184.93,184.93,0,0,1-1.16,32c-.09.72-.91,1.64-1.28,1l1-39.21a5.31,5.31,0,0,0-2.55,6.24l-19.06-19.27a2.7,2.7,0,0,1-1-1.72,2.61,2.61,0,0,1,.35-1.15q8.34-17.37,18.17-34c1.74-2.93,3.55-6,3.94-9.34.33-2.85-.38-5.69-1.09-8.47l-8.61-33.93a141.69,141.69,0,0,1,9.54,31.77c.5,2.85.95,5.8,2.44,8.28s4.34,4.39,7.18,3.83a7.42,7.42,0,0,1-7.65,0l-22.42,41.07a2.16,2.16,0,0,0-.39,1.39,2.22,2.22,0,0,0,.92,1.19A100.43,100.43,0,0,1,333,218.81c13.61-18.69,25.24-39.75,27.57-62.76,1.07-10.65.12-21.41-1.33-32a204.12,204.12,0,0,0-6.73-32.23,23.44,23.44,0,0,0-2.91-6.47c-1.46-2.12-3.12-2.87-5.33-3.92-5.77-2.74-11.47-5.27-17.47-7.51-2.19-.82-4.09-1.83-7.07.54-11.61,9.24-27.43,4.21-28.37,3.07-1.27-1.55-2.31-1.35-3.56,0-1.68,1.79-4,3-5,5.4a39.1,39.1,0,0,0-2.63,11.56c-.3,3.49-.26,7-1,10.46-1.12,5.13-1.42,10.36-2.06,15.54s-.89,10.11-1.8,15.09c-1.88,10.34-4.38,27.35-5.4,37.81-.79,8.2-2,16.35-3.37,24.47-.45,2.68-.35,4.42,2.13,6.15a15.7,15.7,0,0,0,9.23,3.21c6.57,0,13.12.35,19.69,0a49.88,49.88,0,0,0,15.13-2.81A2.58,2.58,0,0,1,314.7,204.17Zm-44.25-50.89a9.43,9.43,0,0,1,.1-1c1.42-7.36,2.92-14.71,4-22.12.12-.86.5-1.84-.58-2.47a34.54,34.54,0,0,1-9.46-7.94c-.49-.61-1-.6-1.78-.41-5.23,1.19-10.39,2.91-15.88,2.48-.24,0-.46,0-.52.28C253.75,132.9,260.58,144.17,270.45,153.28ZM242.28,99.6c-1,3.21-1.12,6,.34,8.82,1.09,2.09,2.64,3.89,3.78,6s3,3.35,3.34,5.71c.11.69.78.74,1.4.61l8.56-1.76a1.76,1.76,0,0,0,1.51-1.38,15.12,15.12,0,0,0,0-7.14c-.34-1.52-.77-3-2.47-3.68a1.28,1.28,0,0,1-.69-1.46,6.19,6.19,0,0,1,1.46-3.76c.76-.76,1.34-1.6.82-2.58-.62-1.16-1.85-.31-2.77-.53-.17,0-.4.21-.61.3a52.87,52.87,0,0,1-9.71,2.73C245.3,101.81,243.63,101.6,242.28,99.6Zm-.76-11.13c-.31.09-1.27-.22-1.65.49s.19,1.3.54,1.89c1.52,2.56,3.15,5.07,4.53,7.71a2.23,2.23,0,0,0,2.88,1.32c2.73-.6,5.46-1.18,8.14-2,1-.3,1.34-.62.73-1.66a52.71,52.71,0,0,1-4.07-8c-.22-.58-.44-.66-1-.47C248.44,88.88,245.17,88.55,241.52,88.47Z"/><path d="M307.46,36.84c3-2.36,5-1.72,6.24,2.06.93,2.93.3,5-2,6.09.26-1.34.89-2.52.7-3.85A6.76,6.76,0,0,0,312,39.3c-.42-1-.74-2.2-2.06-2.22-1.16,0-1.76.9-2.19,1.89-.18.42-.33.87-.95.8a1.36,1.36,0,0,1-1.16-.9,2.11,2.11,0,0,1,0-1.67c.13-.32.46-.79.35-.94-1-1.37-.73-3.12-1.61-4.57S302,29.63,301,28.32A3.44,3.44,0,0,0,298.15,27c-.52,0-1.39-.15-1.27-.82.16-.86.9-.27,1.42-.23,3,.22,4.65,2.43,6.6,4.37S306.78,34.64,307.46,36.84Z"/><path d="M246,55c-.71-.19-1.57-.23-1.81-1.1s.62-1,1.21-1.35c2.36-1.24,5-1.61,7.5-2.33.35-.1.84-.24,1,.3a.7.7,0,0,1-.39.87,32.15,32.15,0,0,0-6.86,3.5C246.46,55,246.18,55,246,55Z"/><path d="M255.69,55.06c.27.1.55.11.65.26s0,.53-.24.72l-6.5,5.65c-.62.54-1.06,0-1.51-.31s-.37-.83-.05-1.2C250.13,57.79,252.9,56.42,255.69,55.06Z"/><path d="M254.11,44.81a24.62,24.62,0,0,1-8.13-2c-.54-.27-1.1-.58-.91-1.26a1.3,1.3,0,0,1,1.62-.95A17.88,17.88,0,0,1,254.11,44.81Z"/><path d="M285.36,25.61c-.6-.14-1.11-.16-1.49.49a1.05,1.05,0,0,1-.85.48c-2-.44-4.14.33-6-1-.49-.34-1-1-1.56.06-.25.45-.58.07-.62-.33a1.37,1.37,0,0,1,1.93-1.42,9.16,9.16,0,0,0,7.08.73,5.33,5.33,0,0,1,1.55-.07c.52,0,1.41-.22,1.37.56S285.89,25.57,285.36,25.61Z"/><path d="M288.34,41.57A5.42,5.42,0,0,1,291.73,43a1,1,0,0,1,.18,1.39c-.5.57-.77-.07-1.09-.31A4.94,4.94,0,0,0,287,43c-.46.07-1.07.59-1.27-.2-.16-.62.51-.75,1-1A3.48,3.48,0,0,1,288.34,41.57Z"/><path d="M289.59,46.88c-.1.93-.22,1.85-1.35,1.88A1.65,1.65,0,0,1,286.51,47a1.6,1.6,0,0,1,1.63-1.65C289.1,45.35,289.48,46.06,289.59,46.88Z"/><path d="M287.26,61.3a1.35,1.35,0,0,1,1.53,1c.26.68.6,1.4.1,2.12-.32.46-1,.57-1.12.13-.31-1-1-1.26-1.81-1.61a.64.64,0,0,1-.42-.83C285.9,61.32,286.76,61.6,287.26,61.3Z"/><path d="M295.64,26.62a5.26,5.26,0,0,0-5.78-.32c-.22.12-.9.3-.94-.32s.45-.63.86-.63a1.78,1.78,0,0,0,1.5-.62c.85-1,1.7-.93,2.62,0A14.35,14.35,0,0,0,295.66,26Z"/><path d="M276.35,46.93c.79.28,1.6.45,1.46,1.45a1.18,1.18,0,0,1-1.48,1c-.64-.11-1.4-.31-1.31-1.26S275.74,47.11,276.35,46.93Z"/><path d="M283.49,57.14a4,4,0,0,1-2.67-1c-.27-.23-.52-.51-.28-.88s.59-.23.89,0a4.27,4.27,0,0,0,2.2.83c.42,0,1.08-.09,1,.57S283.92,57.07,283.49,57.14Z"/><path d="M250,92.38c-.7,0-1.63.06-1.64-.81s.93-.79,1.58-.88a1.13,1.13,0,0,1,1.38,1.11C251.34,92.6,250.51,92.29,250,92.38Z"/></g></g></svg>