<svg id="Layer_1" data-name="Layer 1" xmlns="http://www.w3.org/2000/svg" viewBox="0 0 142.76 132.17"><defs><style>.cls-1{fill:#fff;}.cls-2{fill:#e5e6e6;}</style></defs><title>Artboard 7</title><rect class="cls-1" x="7.13" y="7.6" width="135.63" height="124.56" rx="2.54" ry="2.54"/><path class="cls-2" d="M93.72,62.11,57.17,42.38a.87.87,0,0,0-1.32.74V65.69L54.21,85.81a2,2,0,0,0,.72,1.36c1.5,1.37,4,.28,5.41-.59l1-.66,2.84-1.77,4.12-2.57,4.91-3.07,5.2-3.24,5-3.12,7.38-4.6a8.62,8.62,0,0,0,2.93-2.31A2.7,2.7,0,0,0,93.72,62.11Z"/><path d="M134.1,126.56H3.54A3.54,3.54,0,0,1,0,123V3.54A3.55,3.55,0,0,1,3.54,0H134.1a3.54,3.54,0,0,1,3.53,3.54V123A3.53,3.53,0,0,1,134.1,126.56ZM3.54,2A1.54,1.54,0,0,0,2,3.54V123a1.54,1.54,0,0,0,1.54,1.54H134.1a1.54,1.54,0,0,0,1.53-1.54V3.54A1.54,1.54,0,0,0,134.1,2Z"/><path d="M136.63,17.08H1a1,1,0,0,1,0-2H136.63a1,1,0,1,1,0,2Z"/><path d="M136.63,111.31H1a1,1,0,0,1,0-2H136.63a1,1,0,0,1,0,2Z"/><path d="M55.9,87.13A1.92,1.92,0,0,1,55,86.9a1.87,1.87,0,0,1-.94-1.62V41.22a1.85,1.85,0,0,1,2.81-1.58l36,22h0a1.8,1.8,0,0,1,.89,1.57,1.83,1.83,0,0,1-.89,1.58l-36,22.06A1.84,1.84,0,0,1,55.9,87.13Zm.15-45.64V85L91.61,63.22Z"/></svg>