<svg xmlns="http://www.w3.org/2000/svg" viewBox="0 0 400 400"><defs><style>.cls-1,.cls-10,.cls-3,.cls-7{fill:#fff;}.cls-1{stroke:#0d3698;stroke-width:4px;}.cls-1,.cls-7,.cls-8{stroke-miterlimit:10;}.cls-2{fill:#0d3698;}.cls-4{fill:#faf0e5;}.cls-5{fill:#212121;}.cls-6{fill:#151308;}.cls-7,.cls-8{stroke:#000;}.cls-7{stroke-width:1.5px;}.cls-8{fill:#f7c4a1;stroke-width:0.5px;}.cls-9{fill:#efefef;}.cls-10{font-size:34.45px;font-family:Heebo-Bold, Heebo;font-weight:700;}.cls-11{letter-spacing:-0.07em;}</style></defs><title>retargeting-3</title><g id="Layer_2" data-name="Layer 2"><circle class="cls-1" cx="210.47" cy="206.46" r="166.36"/><path class="cls-2" d="M60.94,334.33l-3,8.25c-1.52,4.21-3.55,9.08-3.54,13.63a23,23,0,0,0,1.28,7.84c.91,2.56,1.51,5.24,2.23,7.86a41.92,41.92,0,0,1,1,9.14c.29,6.17,1,12.32,1.44,18.47H93.32l1.26-27.2v-4.53l2.85-17.18L94.3,326.15A57.86,57.86,0,0,0,60.94,334.33Z"/><path class="cls-3" d="M62.68,258.15l-10.53,1.6-9.24,9.33-11.48,8.14-4.1,9.09v3l3.9,4.3-.2,2.89-2.6,1.8-6.19,2.4.9,5.49,2.79,5.72h6.6l2.3,4.91,3.86,1.25s2.72-.6,5.42,3.9c0,0,5.47,14.18,18.21,12.18,0,0,16.34-8.59,35-8,0,0,3.49-1.84,3.09-8.19l-1.5-10s2-21.54-10.38-35.32l-4-2.22Z"/><path class="cls-4" d="M111.44,310.85l-10.78,1.45,1.19-3.07-2.74-.1-12.35,3.62c-12.1-2-23.49-4.42-32-8.38L45,303.43c-1.9,3.29-5.91,6.1-11.85,8.47,0,0,.76,7.08,9.12,5.11l48.45-.46h12.91l9.67-5Z"/><path class="cls-4" d="M83.9,262l1.3-7.42,2-3.18L93,254.58l8.24-4.49c-2-2,7.75-13.45,7.75-13.45l1.14-3-3.92,1.31-5,.34L97,235.09l-4,2.53-3.23-.74-1.36-2.58a2.7,2.7,0,0,0-2.91-1.4h0l-1.63,2.19-1.06,3.1,1.65,2.23-.51,4.7-1.79,4.16-1.06,6.85,2,6.28Z"/><path class="cls-5" d="M109.53,228.54c-3,1.91-9.81,1.62-20.35-.75a10.88,10.88,0,0,0-5.93.31c-4.83,1.64-9.41,2.9-13.23,3l-2,3.6-1.62,4.87L63.65,246l-3.41,2.87-6,3.72L48,257.93l-1.8,3.22L44.31,267l2.77-1.11,5.07-6.18,5.3-.81,3.9-.79H64l3.59,3L69.94,268l1,4.78,2.24,4.13,3,2.84,3.62,1,1.24,2.46.57,3.23L81,293.34a15.08,15.08,0,0,0,0,4.93l4.32-7.07L88.69,285V273.6l-4.2-7.46-3.36-8.78v-5.72l2-4.5,1-3.37.36-3.35-1.65-2.23,1.06-3.1,1.63-2.19,1.45-.05,2.82,4,3.23.74,4-2.53,9.21-.16,3.92-1.31.69-2.37Z"/><polygon class="cls-5" points="96.01 287.44 96.61 287.44 97.41 275.82 94.48 267.48 94.24 262 96.01 254.7 94.5 253.78 93.03 254.58 87.61 252.08 85.78 253.06 84.2 257.56 84.2 265.37 88.69 273.6 92.83 278.59 96.01 287.44"/><path class="cls-2" d="M64,334.33l-7.69,21.31,5.07,17.43,2.09,26.45H96.35l1.26-27.2v-4.53l2.85-17.18-3.12-24.46A57.88,57.88,0,0,0,64,334.33Z"/><polygon class="cls-2" points="85.56 208.82 79.7 208.82 72.43 213.18 68.83 218.48 66.66 226.04 67.98 230 70.02 231.07 74.69 230.72 80.06 229.13 86.22 227.53 91.79 228.35 100.46 229.66 106 229.65 111.37 227.52 113.73 225.36 112 220.46 108.25 216.02 103.9 211.86 99.69 209.5 92.58 207.79 85.56 208.82"/><polygon class="cls-6" points="95.86 310.08 101.04 306.65 122.49 303.43 123.31 304.01 118.72 308.52 116.91 309.63 101.08 312.24 102.04 310.22 101.49 309.07 99.9 309.04 95.86 310.08"/><g id="idUJy6.tif"><path d="M82.84,399.52c.09-6.27,1.73-12.31,2.92-18.42,1.46-7.48,3.84-14.72,5.56-22.13.48-2,.73-4.13,1.26-6.15,2.25-8.53.65-17.1.37-25.65,0-.74-.08-1.08-1.07-.84-2,.49-4,.8-6.08,1.14-.56.09-.75.2-1,.83-.82,2.56-.65,5.26-1.36,7.82-1.13,4-2.77,7.86-7,9.74a13.24,13.24,0,0,1-6.88,1.4c8-1.41,11.84-4.38,13.34-13.4.33-2,.28-4.05,1.33-6.09a78.69,78.69,0,0,0-13.2,3.5c-2,.79-4.32,1.25-5.95,2.5s-1.22,3.74-2.07,5.58a61.68,61.68,0,0,0-3.18,9.29c-.81,3-2.24,6.08-1.83,9.17a48,48,0,0,0,1.06,5.94c.93,3.43,2.44,6.49,2.95,10.07,1.13,7.87,1.92,17.83,3.15,25.7.07.49-.7.15-1.48.11s-2.84-17.16-2.84-21.26A54.86,54.86,0,0,0,59,367.89c-.48-1.59-1.21-3.09-1.57-4.72-.43-2-1.12-7.65-.86-8.51,1.93-6.27,3.71-12.59,6.08-18.72.19-.5.66-1.22.15-1.67s-1,.24-1.59.31c-2.4.32-4.83.67-7.07-.56-3.08-1.69-5.86-3.67-7.65-6.75-1.32-2.26-3-4.3-4.15-6.69-.31-.67-.74-1.43.14-1.9,1-.54,1.27.51,1.55,1.07a48.31,48.31,0,0,0,4.91,7.57c2.75,3.56,6.2,6.35,11.26,5.86A25.28,25.28,0,0,0,68,331c6.69-3,13.81-4.41,21-5.37a60.08,60.08,0,0,1,7.6-.23c1,0,1.25-.48,1.78-1.14,1.29-1.6,1-3.44,1.39-5.19.28-1.41-.16-1.84-1.76-1.91-7.32-.33-14.63.31-21.94.05-5.49-.2-11,.05-16.44.3-3.11.14-6.19-.62-9.32-.29s-6.29.6-9.44.83c-5.32.37-6.83-1-8.25-4.56-.31-.79-.56-1-1.46-.82-4.26,1.07-6.28.06-8.06-3.82-.82-1.81-1.38-3.7-2-5.56v-3A14.4,14.4,0,0,1,25.23,299a11.05,11.05,0,0,0,4.3-2.34,2.56,2.56,0,0,0,.38-3.84,4.53,4.53,0,0,0-1-.91c-3.34-2.31-3.6-3.09-2.11-6.71.85-2,1.68-4.09,2.64-6.09a12.61,12.61,0,0,1,5.28-5.3,112.28,112.28,0,0,0,9.9-7.12,21,21,0,0,0,5.74-7.08,3.08,3.08,0,0,1,2.74-1.41,34.73,34.73,0,0,1,5.86-.32c.29,0,.69.22.93-.25-1.58-.63-3.26-.48-4.88-.65-.15-.68.31-.83.78-.83,4,0,7.78.72,10.92,3.32a9.89,9.89,0,0,1,3,5.31c1,3.65,1.64,7.44,3.65,10.81,1.1,1.84,2.37,3.3,4.75,3.68s3.32,2.19,3.77,4.32c.76,3.67,0,7.25-.59,10.85a5.75,5.75,0,0,0-.06,2.3c-1.78-1.43-.74-3.23-.51-4.8a24.3,24.3,0,0,0,.17-8.07c-.34-1.75-1-3-3.18-3.27a7,7,0,0,1-4.92-3.36,26.75,26.75,0,0,1-3.41-8.43q-.77-3-1.72-5.87A7.89,7.89,0,0,0,64.09,259c-1.27-.84-2.33-.26-3.51.06a10.74,10.74,0,0,1-2.06.21c-1.73.11-3.45.08-5.18.29a2.67,2.67,0,0,0-2.1,1.43,25.14,25.14,0,0,1-3.62,5,74.32,74.32,0,0,1-11.88,8.76,12.49,12.49,0,0,0-5.26,5.49c-.89,2-1.74,4-2.52,6s-.51,2.95,1.25,4.13a6.61,6.61,0,0,1,2.59,8.45,1.88,1.88,0,0,1-1.42,1.32c0-.9.48-1.66.2-2.77-2,2.13-4.68,2.85-7.31,3.54-.89.24-.7.81-.62,1.29a22.06,22.06,0,0,0,2.81,7.58,3.64,3.64,0,0,0,3.4,1.87c2.95,0,5.37-1.49,8-2.41A11,11,0,0,0,42.78,305c1.38-2.09,3-4,4.53-6.05A2.27,2.27,0,0,1,49,297.79c0,1.66-1.16,2.64-2,3.71-2.16,2.81-3.72,6.12-7.21,7.86a36.92,36.92,0,0,1-4.9,2c-1.3.42-1.18,1-.75,1.93,1.36,2.94,3.44,4,7.16,3.44a62.59,62.59,0,0,1,10.48-.77c4.67.06,9.34.3,14,.27q10.65-.09,21.29,0c2.38,0,4.75-.64,7.07-.28,3.06.47,6.1,0,9.13.25a1.43,1.43,0,0,0,.79-.24,70.79,70.79,0,0,1,8.25-4.66c-2.06-.44-3.65.51-5.37.59a12,12,0,0,0-2.72.43,12.46,12.46,0,0,1-2.92.21c-.73,0-1.61-.15-1.09,1.05-.62.08-1.33.31-1.65-.44-.25-.57-.09-1,.68-1.22a3.17,3.17,0,0,0,2.34-2.23c-1.37-.44-2.94-.21-3.57.6a3.45,3.45,0,0,1-3,1.14,10.6,10.6,0,0,0-4,.85,11.53,11.53,0,0,1-6.06.76,118.49,118.49,0,0,1-22-4.86,87.89,87.89,0,0,0-10.18-3.11,66.72,66.72,0,0,0-6.77-.91,20.38,20.38,0,0,1,11.68.54c3.3,1.11,6.52,2.54,9.89,3.41,5.26,1.37,10.62,2.38,15.84,3.89a8.44,8.44,0,0,0,4.62.26c3.17-1.11,6.71-1.51,9.4-3.75.41-.34,1-.48,1-1.21.14-5.92.18-11.83-1.5-17.6-.1-.35,0-1-.62-1-1-.11-1.13-.9-1.31-1.65a46.92,46.92,0,0,0-4.86-11.81c-.12-.22-.24-.51-.61-.44v6.64a13.75,13.75,0,0,1-1.5,6.72c-2,3.67-5,6.78-6.26,10.83-.08.26-.18.58-.55.49a.57.57,0,0,1-.4-.66c.09-.7.22-1.4.34-2.11,1.78-3.46,4.47-6.41,6-10a9.15,9.15,0,0,0,.89-4c-.11-3,.36-6.09-.22-9.09s-2.57-5.61-4.29-8.22A17.29,17.29,0,0,1,82.47,247a8.08,8.08,0,0,0,.14-7.75c-1-1.93,1.33-6.31,3.49-6.88a2.32,2.32,0,0,1,2.2.65c.86.71.31,1.57.35,2.32-.51.12-.71-.07-.75-.25-.19-.8-.45-1.54-1.47-1.54s-1.31.72-1.6,1.34c-.78,1.69-2.35,3.4,0,5.14.55.41-.19,1-.12,1.63A13.59,13.59,0,0,1,83,249.49c-1.94,3.81-.79,7.61.11,11.43.39-1.74.79-3.47,1.14-5.21A5.85,5.85,0,0,1,86,252.24c.41-.36.85-.79.36-1.42-.21-.27-.32-.65,0-.88s.63.11.87.33a26.56,26.56,0,0,0,2.87,2.63c2.4,1.61,2.83,1.72,5.16,0a17.75,17.75,0,0,1,4.43-2.49,1.65,1.65,0,0,0,1.08-1.36,17,17,0,0,1,5.13-9.3c2.39-2.14,2.89-3.33,2.76-5.51-3.39,1.91-7,1.34-10.62,1a2.43,2.43,0,0,0-2.26,1.19c-1.78,2-4.87,1.69-6,.47-.31-.34-1-.72-.53-1.19s.74.23,1.06.47a3.33,3.33,0,0,0,4.65-.33,4.32,4.32,0,0,1,3.67-1.35c1.73.1,3.47-.05,5.2,0a8.62,8.62,0,0,0,5.19-1.44,2.64,2.64,0,0,0,.25-3.94c-.14-.11-.51,0-.72.06-4.11,1.71-8.25,1-12.37.11a39.42,39.42,0,0,0-11.45-1.18,9.55,9.55,0,0,0-3.13.74,23.28,23.28,0,0,1-9.08,2.29c-.17,0-.4-.07-.51,0a3.07,3.07,0,0,1-3.95-.12,5,5,0,0,1-1.88-4.26,16.73,16.73,0,0,1,3.27-10.76c2.55-3.39,5.52-6.41,10-7.54,2.39-.61,4.9-.62,7.31-1,4.93-.76,9.43.37,14,1.8s7.35,4.57,10,8c1.64,2.09,2.93,4.27,3,7,0,2.53-1.75,3.39-3.71,4.28,1.41,1.61,2,3.55,1.06,5.34-1.45,2.71-2.56,5.73-5.4,7.55-2,1.27-2.31,3.45-3.15,5.33a6.18,6.18,0,0,0-.73,3,1.23,1.23,0,0,1-.88,1.3c-3.72,1.16-4.8,4.19-5.49,7.36s-1.3,6.56-.18,9.82c.62,1.82,1.78,3.42,2.16,5.37.79,4,.3,8,0,12a4.09,4.09,0,0,0,0,1.48,47.43,47.43,0,0,1,2,19.15,6.26,6.26,0,0,0,.06,1c3.87-2.43,8.32-2,12.45-3,3.38-.82,6.94-.91,10.42-1.34.51-.07.91,0,1.15.48a.92.92,0,0,1-.24,1.2c-2.61,2.39-4.66,5.59-8.82,5.81-.86.05-.91.9-1.51,1.23-2.69,1.5-5.31,3.1-8,4.64a2.91,2.91,0,0,1-1.44.48c-2.07,0-3.16,1-2.52,2.63s-.13,2.62-.94,3.53c-1.1,1.22-1,3-2.31,4.1-.31.26-.11,1.17,0,1.76,1.23,7.47,2.48,14.95,2.68,22.52.09,3.15-.75,6.24-1.23,9.35-.56,3.55-1.39,7.18-1.06,10.68.54,5.86-.7,11.55-.86,17.33-.1,3.58-.64,7.14-1,10.71H94.62c.27-2.8.64-5.59.78-8.39.26-5.4,1.25-10.75,1.32-16.16a115.21,115.21,0,0,1,.93-13.37c.56-4.31,1.52-8.58,1.53-13a71.9,71.9,0,0,0-.7-7.2,108.3,108.3,0,0,0-1.65-13.76c-.25-1.14-.84-1.06-1.66-1.1-1,0-.93.59-.9,1.21,0,.94.08,1.88.14,2.82.54,9.23.65,18.43-1.4,27.54-1.79,7.92-4.33,15.66-5.94,23.63-1.2,5.9-2.68,11.74-3.19,17.75ZM94.92,208.85c-2.57-.19-5,.56-7.48,1a10.82,10.82,0,0,0,5.81.14c.15,0,.4-.18.39-.23-.21-1.12.72-.81,1.28-.94a1.47,1.47,0,0,1-1,1.38,11.06,11.06,0,0,1-6.57.72c-.67-.08-1.58-.33-1.09-1.41.34-.73-.3-.52-.62-.55a15.56,15.56,0,0,0-3.6.31A15.31,15.31,0,0,0,69.7,218c-1.58,3.19-2.69,6.58-1.78,10.24a2.91,2.91,0,0,0,2.62,2.48,13.28,13.28,0,0,0,3.25-.32,67.29,67.29,0,0,0,8.34-2.52c4.61-1.48,9.3-.79,13.93.23s9.13,1.81,13.64-.45c2.19-1.1,2.62-1.64,2.1-3.95a5,5,0,0,0-.47-1.41c-2.44-4.31-5.34-8.33-9.64-11C99.73,210,97.19,209.62,94.92,208.85Zm1.46,76.76c0-2.91-.08-5.82,0-8.72a14.41,14.41,0,0,0-1.35-6.22c-1.16-2.78-2.49-5.52-1.87-8.73a30.59,30.59,0,0,1,1.55-5.89c.19-.46.54-1,.12-1.39s-1,0-1.33.36a1.47,1.47,0,0,1-1.89.18,9,9,0,0,1-3-1.92c-1-1.2-1.6-.78-2.27.18a5.25,5.25,0,0,0-.57,1c-2.44,6.1-1.52,11.8,2.84,16.72C92.46,275.46,94.62,280.39,96.38,285.61Zm5.35,26.29c4.61-.85,9.21-1.66,13.8-2.56,1.88-.36,6.16-3.76,7-5.33-5.53.89-11,1.88-16.66,2.22-3.49.21-6.27,1.9-9.11,3.54a12.55,12.55,0,0,0,2.44-.66c1.07-.4,2.29-1,3.22-.1s-.35,1.76-.67,2.63C101.69,311.68,101.71,311.73,101.73,311.9Z"/><path d="M71.59,232.5a5.53,5.53,0,0,0-4,4.71,24.87,24.87,0,0,1-2,6.47c-1.85,3.68-5,6-8.55,7.94a27.33,27.33,0,0,0-10.4,9.18c-.07.12-.25.18-.48.35a6.74,6.74,0,0,1,2-4.38,25.41,25.41,0,0,1,7.4-5.87c5.94-3,10.05-7.24,10.74-14A6.81,6.81,0,0,1,69,232.65C69.68,232.07,70.43,232.07,71.59,232.5Z"/><path d="M130.28,292.63l-.56.72c-1.16,1.57-2,3.36-3.39,4.76-.23.23-.44.58-.84.41s-.35-.55-.23-.86a10.64,10.64,0,0,1,4.24-5.42C130,291.9,130.34,292.08,130.28,292.63Z"/><path d="M128,300.54c-.32,0-.57-.06-.6-.31a.79.79,0,0,1,.18-.58,5.32,5.32,0,0,1,1.87-1.1c1.6-.61,3.15-1.32,4.81-1.78.44-.12.82-.1,1,.37s-.14.65-.49.74c-2.23.57-4.18,1.77-6.34,2.5C128.21,300.43,128.06,300.5,128,300.54Z"/><path d="M130,303c2.09-.3,3.59.59,5.16,1.17a.93.93,0,0,1,.62,1.21c-.23.44-.8.27-1.23.08C133,304.84,131.18,304.81,130,303Z"/><path d="M95.32,250.7a.53.53,0,0,1-.56.51c-.54,0-.89,0-.51.64.17.3-.11.5-.42.56a.88.88,0,0,1-1-.4,1.66,1.66,0,0,1,.27-2,1,1,0,0,1,1.37-.23C94.89,250,95.27,250.19,95.32,250.7Z"/><path d="M98,241.77c1-1.53,2.45-1.33,3.79-1.34.25,0,.62,0,.67.37s-.32.58-.63.62C100.69,241.56,99.5,241.64,98,241.77Z"/><path d="M100.81,244.77a1.25,1.25,0,0,1-1.15,1.3.83.83,0,0,1-1.1-.73,1.21,1.21,0,0,1,1.33-1.2C100.38,244.11,100.79,244.27,100.81,244.77Z"/><path d="M66.78,389.69c-.81-8.53.15-17.05.07-25.58C67.45,372.64,66.52,381.16,66.78,389.69Z"/></g><path class="cls-3" d="M254.13,365.42V289.6h36.78a309.34,309.34,0,0,0-6,64Z"/><rect class="cls-7" x="139.29" y="88.33" width="139.12" height="251.43" rx="1.86" ry="1.86"/><rect class="cls-8" x="146.08" y="114.17" width="126" height="199.75" rx="0.38" ry="0.38"/><circle class="cls-9" cx="209.08" cy="326.36" r="7.94"/><rect class="cls-9" x="196.05" y="100.67" width="26.06" height="3.91" rx="0.79" ry="0.79"/><text class="cls-10" transform="translate(169.7 186.43)"><tspan class="cls-11">Y</tspan><tspan x="18.83" y="0">our</tspan><tspan x="0" y="41.35">Ad</tspan><tspan x="0" y="82.69">Here</tspan></text><g id="_6tFk3r.tif" data-name="6tFk3r.tif"><path class="cls-4" d="M113.73,213.36c-.1-2.53,1-5,2.13-7.28a18.16,18.16,0,0,1,7.21-7.38c4.26-2.53,9-.57,12.49,2.42a73.71,73.71,0,0,1,7.27,7.92c2.08,2.41,4.18,4.83,6.1,7.37a45.69,45.69,0,0,1,8.56,18c.69,3.25,1.45,9.52-2.44,13.35-1.76,1.74-5.68,2.16-7.7,1.17a63.1,63.1,0,0,1-7.61-4.57,45.3,45.3,0,0,1-7.68-7c-3.58-3.95-7.56-7.49-11.17-11.41a49.94,49.94,0,0,1-5-6.28,16,16,0,0,1-1.9-4.87A7.74,7.74,0,0,1,113.73,213.36Z"/><path class="cls-4" d="M160.16,188.94c0,1,0,7.37-5.3,8.6s-8.33-.54-13.66-3.37a76.6,76.6,0,0,1-12-7.68,70.6,70.6,0,0,1-8.51-8.52c-3.07-3.46-5.69-6.75-6.39-11.45a18,18,0,0,1,2.27-11.78,14.78,14.78,0,0,1,5.65-5.87c2.61-1.29,6.17-1.11,8.89-.29,3.85,1.17,7,4.64,9.85,7.33,3.3,3.12,6.41,6.42,9.48,9.76,1.24,1.35,2.43,2.74,3.63,4.12,2.41,2.79,3.63,6.39,4.6,9.88C159.66,183.42,160.16,185.06,160.16,188.94Z"/><path class="cls-4" d="M123.82,249.76a17.1,17.1,0,0,1,8.84.14,18.17,18.17,0,0,1,7.54,4.61c3,2.77,6.64,5.2,9.06,8.55,1.18,1.64,7.21,11.71,7.63,16.38.48,5.4-.93,7.38-2.12,8.29-3.1,2.36-6.53,2.51-7,2.31-3.87-1.64-4.28-2.38-7.77-4.69-8.78-5.83-17.8-13.35-22.06-23.28a9.46,9.46,0,0,1-.89-3.37,9.71,9.71,0,0,1,4.43-7.95A7.76,7.76,0,0,1,123.82,249.76Z"/><path class="cls-4" d="M138.11,141.72a59.73,59.73,0,0,1-9.59-6.58,68,68,0,0,1-8.66-9.21c-2-2.46-4-4.88-5.84-7.46s-2.55-5.4-4.45-7.76c-1.19-1.49-2.88-3-3.45-4.88s.14-4.24,1.1-5.93a10.42,10.42,0,0,1,7.47-5.13c2.84-.46,4.63,1.36,7,2.52s5.19,2.16,7.71,3.42c3,1.48,5.88,3.1,8.76,4.76C139.3,106.13,139.7,142.63,138.11,141.72Z"/></g><g id="_6tFk3r.tif-2" data-name="6tFk3r.tif"><path d="M109.09,210.33c-.1-2.53,1-5,2.13-7.28a18.23,18.23,0,0,1,7.21-7.38c4.26-2.53,9-.57,12.49,2.42a73.71,73.71,0,0,1,7.27,7.92c2.09,2.41,4.18,4.83,6.1,7.37a45.71,45.71,0,0,1,8.57,18,57.6,57.6,0,0,1,.92,9.9,6.93,6.93,0,0,1-3.82,6.18c-2.29,1-5.23-.57-7.25-1.56a63.1,63.1,0,0,1-7.61-4.57,44.88,44.88,0,0,1-7.68-7c-3.57-3.95-7.56-7.49-11.17-11.41a49.94,49.94,0,0,1-5-6.28,16.51,16.51,0,0,1-1.9-4.87A7.74,7.74,0,0,1,109.09,210.33Zm42.57,30a44,44,0,0,0-7.84-23.81c-2.08-3.11-4.26-6.15-6.63-9.05s-5.06-5.39-7.68-8c-1.91-1.92-3.41-3.09-6.29-3.13-8.52-.14-11.09,7.48-12.33,10.78-3.07,8.13,10.36,17.81,14.42,22.47,5.7,6.54,13.56,13.43,22.14,15.66,2.55.66,4.17-1.15,4.21-3.62C151.67,241.18,151.67,240.76,151.66,240.33Z"/><path d="M156,187.75c0,1,.06,2,0,3a3.72,3.72,0,0,1-3.16,3.82c-6.06,1.08-11-.63-16.29-3.46a76.69,76.69,0,0,1-12.06-7.68,70.52,70.52,0,0,1-8.5-8.52c-3.07-3.46-5.69-6.75-6.4-11.45a18,18,0,0,1,2.27-11.78,14.73,14.73,0,0,1,5.66-5.87c2.6-1.29,6.16-1.11,8.89-.29,3.85,1.17,7,4.64,9.84,7.33,3.3,3.12,6.41,6.42,9.49,9.76,1.23,1.35,2.42,2.74,3.62,4.12,2.42,2.79,3.63,6.39,4.6,9.88C155,180.39,156,183.86,156,187.75Zm-1.8.1A56.27,56.27,0,0,0,151.84,177c-3-10.28-11.27-17.54-18.82-24.73-1.61-1.54-3.43-2.87-5.17-4.27-2.22-1.78-7.08-1.57-9.55-.41a12.62,12.62,0,0,0-6.07,7.35,33.6,33.6,0,0,0-1,7.72,10,10,0,0,0,2.44,6.69c4.07,5.43,9.16,11.41,15,14.94,2.24,1.34,4.31,3,6.57,4.27a51.9,51.9,0,0,0,7.65,3.33c2.39.92,5.07,2.31,7.76,2C154.21,193.5,154.5,190.88,154.23,187.85Z"/><path d="M119.19,246.73a17.1,17.1,0,0,1,8.84.14,18.3,18.3,0,0,1,7.54,4.61c3,2.77,6.64,5.2,9.05,8.55a58.81,58.81,0,0,1,3.18,5.29c2.31,4,4.93,8.33,6.18,12.84a11.88,11.88,0,0,1,.21,4.52c-.27,2.22-4.24,5.89-6.46,6.12a3,3,0,0,1-1.47-.31,68.28,68.28,0,0,1-10.88-6.17c-8.79-5.83-17.81-13.35-22.06-23.28a9.48,9.48,0,0,1-.9-3.37,9.72,9.72,0,0,1,4.44-7.95A7.55,7.55,0,0,1,119.19,246.73Zm4.08,1.18c-.23,0-4,.16-5.31,1.07a8.36,8.36,0,0,0-2.66,9.73c3.26,7,8.66,12.8,14.72,17.52a86.87,86.87,0,0,0,9.79,6.54c2.34,1.36,7,5.15,9.61,3.15,2.27-1.71,3.51-3.92,2.84-6.82a41,41,0,0,0-3.68-10.3,36.82,36.82,0,0,0-5.92-8.8,86.12,86.12,0,0,0-8.79-8,22.16,22.16,0,0,0-6-3.46A11.33,11.33,0,0,0,123.27,247.91Z"/><path d="M138.33,106.89l-.05,0c-.37.18-1.59-.77-1.91-1-5.06-2.78-10-5.82-15.26-8.14a14.69,14.69,0,0,0-7.25-1.32,7.37,7.37,0,0,0-6.22,6.64,20.5,20.5,0,0,0,1.12,7.73c1.06,2.83,3.34,5.56,5.11,8a67.88,67.88,0,0,0,22.95,20,4,4,0,0,1,1.31.93,1.33,1.33,0,0,1,.19,1.5c-5.09-2.7-10-5.45-14.44-9.23a69.28,69.28,0,0,1-8.66-9.21c-2-2.46-4-4.88-5.84-7.46s-2.55-5.4-4.45-7.76c-1.19-1.49-2.88-3-3.45-4.88s.14-4.24,1.1-5.93a10.44,10.44,0,0,1,7.47-5.13c2.84-.46,4.63,1.36,7,2.52,2.53,1.24,5.19,2.16,7.71,3.42,4.14,2.06,8.14,4.4,12.14,6.73a4,4,0,0,1,1.29,1C138.42,105.73,138.76,106.61,138.33,106.89ZM114.54,94.66c-2.26-1.9-6.26-1.11-8.89,1.55s-2.37,7.14-1.57,8.4.9.8,1.79,1.93c-.34-.43-.2-1.92-.19-2.46a10.8,10.8,0,0,1,.22-2.2,8.2,8.2,0,0,1,1.57-3.43,9,9,0,0,1,2.84-2.29,35.1,35.1,0,0,1,3.79-1.38C114.24,94.73,114.41,94.71,114.54,94.66Z"/><path d="M144,238.81c-2.29.65-4.33.61-6.1-1.1a3.56,3.56,0,0,1-1-4.11c.72-1.92,1.71-2.65,3.59-2.67a10.17,10.17,0,0,0,2.58-.19c.71-.18,1.1.19,1.22.87s-.33.82-.87,1a8.4,8.4,0,0,1-2.91.12c-1.14-.1-1.63.6-2,1.43a2,2,0,0,0,.31,2.32,6.08,6.08,0,0,0,4.16,2.05C143.27,238.52,143.66,238.36,144,238.81Z"/><path d="M142.63,177.38a7.1,7.1,0,0,1-1.17.84,6.93,6.93,0,0,0-1.65,1.34c-1.29,1.59-1.47,4.68.3,6a8.17,8.17,0,0,0,2.25,1,6.87,6.87,0,0,1,2.55,1.48,2,2,0,0,1,.73,1.91,42.13,42.13,0,0,1-4-1.95c-2.05-1.22-4-2.36-4.34-4.93a5.27,5.27,0,0,1,3-5.62C141,177.11,142.12,176.75,142.63,177.38Z"/><path d="M143.83,282.31a3.62,3.62,0,0,1-2-1.26,7.43,7.43,0,0,1-1.27-6.53,2.28,2.28,0,0,1,2.05-1.8.74.74,0,0,1,.81.41c.32.65-.61,1.1-.9,1.58a4.16,4.16,0,0,0-.39,2.62C142.26,278.11,142.94,282,143.83,282.31Z"/></g><g id="LaPxYf.tif"><path class="cls-4" d="M192.81,370.51a85.62,85.62,0,0,0-1.06-10.95,112.32,112.32,0,0,0-5-19c0-.12.14-.06.54-.09,7.69-.44,91.19,1.48,91.3,0,1-12.87.47-31.52.6-50.79.29-43.29,0-90.8,0-90.8-6.23-8.35-10-22.46-12.11-32.39-1.88-8.81-3.94-19-4.9-28S262,123,266.42,115.17c3.62-6.36,7.36-11.8,14.26-14.2,1.39-.49,3.1-.81,4.2.17a4.5,4.5,0,0,1,1.11,2.67c5.61,31.58,10.57,63.31,18.65,94.36a88.93,88.93,0,0,1,3.19,22.53c0,5.2,0,10.4-.47,15.57-.18,1.87-.44,3.73-.71,5.58a91.92,91.92,0,0,1-12.15,33.82c-2.27,3.81-4.49,7.65-6.75,11.46a4,4,0,0,0-.61,2.36,26.08,26.08,0,0,1-.69,7,196.94,196.94,0,0,0-4.68,44.24c0,4.59.25,9.71.51,14.28C253.44,369.16,223.51,373.35,192.81,370.51Z"/></g><g id="LaPxYf.tif-2" data-name="LaPxYf.tif"><path d="M285.08,353.58a168.76,168.76,0,0,1-.32-18.7c.29-6.45.44-12.91,1-19.34a139.12,139.12,0,0,1,2.44-14.61c.46-2.34,1-4.64,1.56-7a5,5,0,0,0,.09-2.13c-2.15,3.64-4.3,6.92-6.1,10.41-1.59,3.07-3.39,6.53-4.68,9.74l-.1-6.23c4.25-8.34,9.84-16.44,14.53-24.51A173.52,173.52,0,0,0,303,263.64a83.23,83.23,0,0,0,5.57-18.28c.5-2.71,1.26-5.38,1.52-8.14.28-2.95.55-5.9.56-8.85,0-5.07.09-10.06-.35-15.11-.41-4.72-1.86-9.27-3-13.92-2.62-10.59-4.91-21.25-7-32-4.17-21.43-7.49-43-10.8-64.59-7.31-.29-14.11,4.52-18,10.73-6.5,10.46-6.64,22.9-3.79,34.55,1.41,5.74,6.16,29.61,8.45,35.56,1.54,4,3.94,7.91,3.84,12.21-6.23-8.35-7.72-18.52-9.84-28.44-1.88-8.81-4.45-17.5-5.41-26.46s-.18-18.41,4.27-26.24A30.86,30.86,0,0,1,285.55,101c1.39-.49,3.1-.81,4.19.17a4.51,4.51,0,0,1,1.12,2.67c5.61,31.58,10.56,63.31,18.64,94.36a88.48,88.48,0,0,1,3.19,22.53c0,5.2,0,10.4-.47,15.57-.17,1.87-.43,3.73-.71,5.58a91.92,91.92,0,0,1-12.15,33.82c-2.26,3.81-4.48,7.65-6.75,11.46a4,4,0,0,0-.6,2.36,26.08,26.08,0,0,1-.69,7,197,197,0,0,0-4.69,44.24c0,4,.18,8,.38,12Z"/><path d="M199.54,371.06a95.92,95.92,0,0,0-1-11.5,113.75,113.75,0,0,0-5-19.18h2.15c.89,2.46,1.69,5.12,2.18,6.85a94.58,94.58,0,0,1,3,17c.16,1.88.28,5,.36,6.9C201.23,371.16,199.54,371.1,199.54,371.06Z"/><path d="M204.32,340.45c2.12,1.65,4.53,3.63,4.53,4.43-2.2-1.4-4.32-2.91-6.43-4.45Z"/><path d="M285.73,113.37c.94,5,2.55,9.64,3.55,14.42a15.53,15.53,0,0,0,1.77,4.52c.67,1.16,1.59.53,2.52,1.24.23.18.48.49.29.71a.45.45,0,0,1-.22.13c-1.94.78-2.85.67-4.07-1.16a13.09,13.09,0,0,1-1.64-4c-1-4.82-2.33-9.6-2.38-14.58,0-.29,0-.58,0-.86C285.55,113.71,285.62,113.62,285.73,113.37Z"/></g></g></svg>