<svg xmlns="http://www.w3.org/2000/svg" viewBox="0 0 400 400"><defs><style>.cls-1{fill:#0d3698;}.cls-2,.cls-26{fill:#fff;}.cls-3{fill:#fe4715;}.cls-4{fill:#faf0e5;}.cls-5{fill:#212121;}.cls-6{fill:#aab7be;opacity:0.18;}.cls-7{fill:#1e1432;}.cls-8{fill:#fbfaf6;}.cls-9{fill:#c3cafe;}.cls-10{fill:#040404;}.cls-11{fill:#030204;}.cls-12{fill:#121213;}.cls-13{fill:#0c0c0c;}.cls-14{fill:#050308;}.cls-15{fill:#060606;}.cls-16{fill:#060509;}.cls-17{fill:#a0a6d6;}.cls-18{fill:#494a50;}.cls-19{fill:#6d6e76;}.cls-20{fill:#747581;}.cls-21{fill:#fefefe;}.cls-22{fill:#f2f6f8;}.cls-23{fill:#bcc0e4;}.cls-24{fill:#231f20;}.cls-25{fill:#f7c4a1;}.cls-26{font-size:22.4px;font-family:Heebo-Bold, Heebo;font-weight:700;}.cls-27{letter-spacing:-0.07em;}</style></defs><title>retargeting-2</title><g id="Layer_2" data-name="Layer 2"><polygon class="cls-1" points="157.85 150.4 166.45 144.9 169.02 134.24 167.11 124.48 160.9 117.72 149.03 103.59 139.6 99.98 126.19 98.25 122.85 98.25 119.07 98.25 106.03 99.98 98.79 103.17 94.15 103.75 90.38 106.07 87.58 105.49 84.88 105.78 79.92 105.48 75.03 110.59 75.03 113.15 68.94 117.72 63.43 120.27 59.09 122.3 55.9 124.91 51.84 129.21 46.05 132.75 36.48 141.93 29.24 147.87 23.56 156.49 22.28 165.19 22.28 173.09 23.56 177.72 27.79 184.82 34.45 191.56 43.44 196.25 54.16 199.03 67.49 195.75 76.98 193.37 87.58 184.82 101.11 173.09 106.61 167.89 112.17 162.58 124.05 155.91 133.21 154.46 143.97 152.15 157.85 150.4"/><polygon class="cls-2" points="139.1 221.03 140.28 223.38 140.84 224.21 145.15 256.65 146.34 258.31 148.06 258.31 149.72 256.98 149.72 255.45 145.08 221.03 143.29 217.64 140.5 217.64 139.1 221.03"/><g id="HAKxAt.tif"><path class="cls-2" d="M154.54,346.36c1,7,12.05,44.34,13.17,53.1h-146c-1.58.79,1.93-38.92,3.29-46.7l13.41-77.42L126.19,274Z"/></g><polygon class="cls-3" points="124.99 260.2 140.84 256.67 143.97 256.23 147.97 259.48 151.02 256.6 151.02 253.78 165.19 251.75 171.49 251.9 174.86 253.92 176.41 256.54 176.66 258.49 176.41 259.78 172.4 263.42 179.61 336.26 178.91 338.14 153.34 345.03 150.12 338.22 135.28 295.32 126.19 274 122.85 267.84 122.14 264.65 124.99 260.2"/><polygon class="cls-4" points="178.92 283.29 177.84 282.67 174.12 285.34 172.88 287.83 172.88 291.37 173.81 291.74 175.55 291.74 178.57 289.88 180.45 287.2 180.45 285.03 178.92 283.29"/><polygon class="cls-4" points="179.61 297.01 176.5 297.01 174.24 298.5 172.07 300.8 169.71 305.08 170.06 307.5 172.17 307.19 176.66 307.23 180.82 305.33 183.31 303.9 183.31 301.17 182.94 299.06 179.61 297.01"/><polygon class="cls-4" points="171.08 311.56 168.91 313.03 168.16 316.38 169.34 317.45 172.07 318.06 173.22 319.24 171.76 321.41 171.2 324.51 173.22 326 180.14 325.32 184.05 320.91 183.31 316.57 185.54 313.71 186.1 311.11 185.48 308.06 183.31 305.21 181.63 305.87 171.08 311.56"/><polygon class="cls-4" points="107.11 221.42 115.92 226.07 123.1 229.9 129.65 229.9 137 224.21 138.44 222.08 137.77 219.63 141.53 216.07 143.97 216.07 150.99 205.18 153.61 203.55 151.2 201.63 150.26 190.77 151.22 176.24 151.69 171.64 133.62 171.64 122.78 172.88 104.98 185.82 102.34 193.81 103.84 200.91 107.66 212.48 107.11 221.42"/><path class="cls-5" d="M34.45,191.56,32,224.21V243.8l-3.68,22.54-10,34.56,8.06,48.34,12.77,20.68a102.86,102.86,0,0,1-9-42l6.28-27,13.15-28,12.89,8.18,12.88,5.24L87,292.48l8.94,8,2.89,6.78v9.55l-2.5,11.09,6-6.28,6.22-25.29,9.21,2.59,6.68,1.61,7.31,5.39,4.1,3.44s9,13.76,13.86,25.39l-8.53-28.33-8-15.77-7-15L122.85,265l2.41-10.11-9.5-23-3.59-7.64-4-4.05L107,215.62l.52-11.29L105,199.66l-.81-5.58.81-4.14,2.4-4.11h2l2,.28,2.27-.91,12.17-9.29,11.2-1.79,19.25-1.84,1.64-8.32-2.07-12.88-25.23,3.79-6.59,1-11.88,6.67L87.58,184.82,67.49,195.75l-29-.52Z"/><g id="HAKxAt.tif-2" data-name="HAKxAt.tif"><path d="M94.44,399.46c1-23,3-49.6,5.82-72.49a8.75,8.75,0,0,1-6.94,2.56c3.18-6,6.36-12.63,5.2-19.34-1-6-5.39-10.85-10.26-14.46-11.57-8.56-26.42-11.52-38.51-19.33a116.67,116.67,0,0,0-17.31,72.83q-.84-3.56-1.36-7.17a87.52,87.52,0,0,1,1.54-33c2.62-10.94,7.78-21.05,12.62-31.12.93-1.94,1.79-3.85,1.37-6.09-.37-2-1.67-3.39-2.86-5a61,61,0,0,1-9.67-20c-2.34,18.46-11.4,34.66-13.38,53.3-2.74,25.87,9.67,50,21,72.53a80.94,80.94,0,0,1-13.15-18.31,300.54,300.54,0,0,0,4,45H29.47c-1.7-15.47-2-31.3-4.52-46.63-3.24-20-10.65-40-6.65-60.26C21,279.13,28,268,30,254.46c1.73-11.43,0-23.12.12-34.89a125.61,125.61,0,0,1,1.67-19c.58-3.48,2.07-8.93-2-11.14-.06,0-.1-.13-.15-.19-11.41-13.46-12.93-28.8-1.09-42.44,7.65-8.81,16.75-15.08,25.73-22.22,3.91-3.11,7.56-5.72,11.86-8.7,2.36-1.63,6.73-3.29,7.65-6.57.22-.79.87-1.13,1.47-1.52A21.7,21.7,0,0,1,86,104.23a21.89,21.89,0,0,0,6.89-1.84,9.08,9.08,0,0,1,2.2-.59c3.61-.49,6.85-1.55,10.46-2.38,11.86-2.71,25.32-4.2,36.8.51,10.05,4.12,16.26,12.31,22.35,20.75a30.33,30.33,0,0,1,6.13,18.45c0,3.78-1.31,6.9-4.85,8.9-2.36,1.33-5.49,2.23-7.94,3.55-.64.34-.83.6-.68,1.37a62.57,62.57,0,0,1,1.32,7.15,41.33,41.33,0,0,1-.13,7.37c-.26,2.51-1.05,4.87-3.44,5.91-1.14.49-1.86.94-2.11,2a49.78,49.78,0,0,0-.63,22.38,13.94,13.94,0,0,0,1.63,4,4.21,4.21,0,0,1,0,4.72c-1.43,2.23-3.67,4.12-5.24,6.32a13.33,13.33,0,0,0-1.43,2.62c-.38.9-.92,1.6-1.35,2.47-.34.69,0,1.42.08,2.14.19,1.49.37,3,.55,4.49.38,3,.74,6,1.12,9,.74,5.82,1.4,11.81,2.09,17.56.18,1.48.71,1.64,2,1.52,5.57-.49,11.12-1.74,16.71-2.25l.39,0a11.35,11.35,0,0,1,3.33.32,6.62,6.62,0,0,1,2.52,1.28,7.16,7.16,0,0,1,1.91,2.73c.25.56.39,1.12.59,1.7s.48,1.47.63,2a1.72,1.72,0,0,1,.06.78,2,2,0,0,1-1.12,1.18c-2,1.11-2.24,2.57-1.94,4.7.58,4.19,1.63,15.39,1.73,16.84,1.8-.59,3.9-.77,4.5,1.25a6,6,0,0,1-1.09,6.07c-.64.83-1.43,1.7-2.11,2.42-1,1.09-.45,2.17-.28,3.33s1,.5,1.7.63c4.41.82,6.67,4.06,5.57,8.42-.13.5-.41.73.06,1.13,1.42,1.2,1.79,2.75,2.3,4.46a4,4,0,0,1-1.57,4.84,2.37,2.37,0,0,0-1,2.5c.24,3.72-.19,6.66-3.4,9-.55.39-1,.8-1,1.28.14,1.6,1.87,7.93,1.54,9.49-.49,2.28-1.63,2.6-3.54,3.49a113,113,0,0,1-23.73,6.19c-1.06.13-.39,2.53-.24,3.61.28,1.92.6,3.83.94,5.74.67,3.78,1.42,7.53,2.13,11.3,1.77,9.38,3.84,19.35,6.54,32.38h-2.55c-5.61-23-8.28-47.15-15.15-69.7-3.16-10.37-5.94-21.51-10.84-31.22-3.32-6.64-6.92-13-9.64-19.95-1.92-4.9-5.13-10.23-4.48-15.65.23-1.89.94-3.69,1.16-5.58.63-5.56-2.91-10.41-5.07-15.22-1.8-4-3.59-8-5.39-12a56,56,0,0,0-4.84-8.64,6.76,6.76,0,0,1-1.2-3.74c-.09-3.94-.21-7.88.06-11.81a5.84,5.84,0,0,0,0-1.67c-.28-1.2-1.63-2-2.09-3.29a11.63,11.63,0,0,1-.55-2.48,17.13,17.13,0,0,1-.31-2.83,12.89,12.89,0,0,1,.89-5.35,11.38,11.38,0,0,1,6.23-6c3.07-1.38,6.39-1.92,9-4.3,4.07-3.72,7-8.23,9.82-13a11.82,11.82,0,0,0,1.69-9.2c-.24-1-.65-1.4-1.68-1.25a21,21,0,0,0-6.39,1.58,63.71,63.71,0,0,0-17,12.07c-5.92,5.66-13.08,12.2-19.44,17.23a51.51,51.51,0,0,1-22.36,10.68c-9.3,1.79-16.87,1.13-25.21-2.86a30.72,30.72,0,0,0-3.29-1.36c-.2,3.31-.46,6.81-.63,10.1-.27,5.14-.41,10.23-.73,15.3a64,64,0,0,0,.66,12.07c1,8.46,1.51,17,5.42,24.74A52.06,52.06,0,0,0,55.29,273.9c6.23,4.61,13.61,7.31,20.69,10.31,9.26,3.93,18.87,9.14,23.16,18.23A47.68,47.68,0,0,0,72,261.75c12.79,3.66,22.9,14.54,27,27.19s2.61,26.74-2.72,38.93c7.7-8.77,10.51-21.14,9.2-32.74s-6.38-22.5-12.84-32.22c-5.68-8.56-12.58-16.6-15.6-26.41-5.2-16.83,2.12-35,11.69-49.78-4.28,8.51-8.21,17.3-10.16,26.63s-1.82,19.29,1.85,28.08c5.8,13.89,19.79,23.71,23.29,38.34,1,4.23,1.2,9,4,12.29,3.17,3.79,8.58,4.53,13.24,6.16a31.58,31.58,0,0,1,18.22,16.83,37.37,37.37,0,0,0-22-15.1,72.82,72.82,0,0,1-8.62-3.65A595,595,0,0,0,97,399.47Zm80-140.15a1.56,1.56,0,0,0,.68.34.65.65,0,0,0,.69-.23,1.13,1.13,0,0,0,0-.92c-.28-.91-.54-1.82-.83-2.73a.81.81,0,0,0-.23-.45.77.77,0,0,0-.74-.11,1.34,1.34,0,0,0-.81.8,2.36,2.36,0,0,0,.36,1.85,5,5,0,0,1,.73,1.79c-1-1-1.79-2.86-3.45-2.27-1,.35-2,.73-1.84,1.92.1.74.55,1.44.73,2.21.1.41.09,1.11.55,1.33a1.06,1.06,0,0,0,.82,0,4.29,4.29,0,0,0,2.87-3.46s0-.07,0-.1,0,0,0,0A.37.37,0,0,1,174.46,259.31ZM79.15,116.11c-1.44-.07-2.7-.56-4.15-.71s-2.54,1-3.66,1.77c-9.6,7-19.38,13.51-28.21,21.55-3.28,3-6.79,5.31-10.13,8.53-8.24,8-11.1,15.46-8.53,26.91,1,4.51,4,8.12,7,11.44,3.33,3.63,6.74,7.1,11.51,8.62a35.2,35.2,0,0,0,9.23,1.44c11.76.67,21.44-2.3,31.11-9.73,8.31-6.39,17-15,24.76-22A43.77,43.77,0,0,1,125.06,154c4.31-1.39,7.75-1.5,12.37-2,9.44-1.08,29.35-.86,29.68-14.12.15-6.23-2.68-11.25-6.1-16.29-4.3-6.34-9.26-12.62-15.42-17.27-3-2.24-6.42-2.65-9.93-3.26a55.77,55.77,0,0,0-11.18-1,88.28,88.28,0,0,0-22.6,3.94,17.15,17.15,0,0,0-5.39,3.17c-3.13,2.37-5.91,5-9.15,7.25a14.29,14.29,0,0,1-9.7,2.55C78.13,116.63,78.64,116.38,79.15,116.11ZM156.47,270a92.53,92.53,0,0,1-17,3.18,62.69,62.69,0,0,1-10,0,1.12,1.12,0,0,0-1.22,1.66c2.7,6.73,5.08,13.55,8.5,20a112,112,0,0,1,8,19.55c1.09,3.56,2.45,7,3.23,10.68,1,4.79,2.86,9.29,3.85,14.09a15.42,15.42,0,0,0,1.12,3,1.09,1.09,0,0,0,1.16.73c8.46.3,20.57-4.36,22.18-4.95,1.9-.69,2.43-2.59,2.25-4.46-.15-1.53-.86-6.69-2-6.54-1.89.23-4-.3-5.81-.43-.79-.06-.94-.48-1-1.06-.4-2.42.6-3.87,2.18-5.57.21-.24.48-.49.69-.72-1.2-.36-2.65-.33-3.69-1.11-2.69-2-2.81-4.66,0-6.66,1.24-.89,3-1.14,4.13-2.21-.76-.23-1.79-.06-2.53-.31-2.52-.84-3.57-2.49-2.28-5a20.34,20.34,0,0,1,6.09-7.11c1.22-.89.53-1.78.54-2.86s-.54-.73-1.28-1c-2.35-.78-2.63-2.67-2.26-5.07a5.93,5.93,0,0,1,1.4-3,4.64,4.64,0,0,0,1.33-3.74c-.25-3.49-1.3-15.32-1.57-17.73A80.68,80.68,0,0,1,156.47,270Zm-19.42-95.92a7.26,7.26,0,0,1,4.55-2.4,25.22,25.22,0,0,1,10.09-.08,3,3,0,0,0,3.74-2.31c1.4-5.5.89-10.82,0-16.37a.83.83,0,0,0-1-.8c-3.85.51-7.71.62-11.58,1.53-1.34.31-1.94.93-2.17,2.53a43.91,43.91,0,0,1-5,14.93,5.35,5.35,0,0,1-2.79,2.44c2.49-6.22,5.17-12.12,6.19-18.79-3.78.14-5.48,1-6.15,4.92a36.66,36.66,0,0,1-5.56,14.59,8.33,8.33,0,0,0,2.74-.44c.83-.27,1.63-.15,1.92.67s-.64,1-1.17,1.19a8.72,8.72,0,0,1-2.73.8,7.15,7.15,0,0,0-4.79,2.46,18,18,0,0,1-9.6,6.21,7,7,0,0,0-2.27.91,6.46,6.46,0,0,1,1.15,1,5,5,0,0,1,.88,1.34,5,5,0,0,1,.5,1.76,1.8,1.8,0,0,1-.4,1.24c-.45.48-.64,0-.83-.41-.3-.59-.54-1.11-.89-1.67s-.64-1.37-1.29-1.7a3.68,3.68,0,0,0-3.45.49c-3.09,2.3-2,6-1.48,9.18a6.79,6.79,0,0,0,2.22,4.55,17.1,17.1,0,0,0,1.67,1.09c.4.27,1.28.46,1.33,1s-1,.74-1.31.87a2.7,2.7,0,0,0-1.73,1.3,7.2,7.2,0,0,0-.23,3.32c.06,1.05.08,2,.11,3A26.67,26.67,0,0,0,108,217a3.53,3.53,0,0,0,1.42,2.52c3.42,2.3,6.79,4.8,10.3,6.95a8.73,8.73,0,0,0,8,.6,29.81,29.81,0,0,0,8.91-5.44,3.09,3.09,0,0,0,1.06-2c.34-2.43,1.36-3.33,3.76-3.55a1.6,1.6,0,0,0,1.2-.77c.78-1,1.51-2.06,2.17-3.14,1.66-2.7,4.22-4.47,6.09-7,.91-1.24,1.15-2.2.21-3.55-1.12-1.6-1.19-3.48-1.42-5.39-.57-4.68-1.09-9.1-.43-13.82a71.19,71.19,0,0,1,1.76-9.21C146.4,173.08,141.76,174.12,137.05,174.12Zm-20.27,60.09a140.14,140.14,0,0,0,7.33,14.33,14.2,14.2,0,0,1,1.86,9.1,7,7,0,0,1-1,2.56c1.32-.08,2.4-.95,3.51-1.47a41.69,41.69,0,0,1,7.47-2.35c2.5-.63,4.87-1.61,7.32-2.08,1.11-.22.55-1.1.49-1.68-1-8.68-1.94-17.15-2.95-25.78-.06-.58.23-1.39-.56-1.62a2.21,2.21,0,0,0-2.29.55,16.66,16.66,0,0,1-5.46,3.74c-4.53,2.06-8.3,2.33-12.81,0a36.57,36.57,0,0,1-7.54-5.26C113.88,227.47,115.31,230.83,116.78,234.21ZM153,254.4c-1.16.33-1.84.68-1.94,2.2S149.4,259,148,259.48a3.12,3.12,0,0,1-3.79-1.61c-.5-.85-.84-.89-1.57-.72-4.7,1.11-9.2,2.48-13.77,3.88-.24.08-.49.26-.68.34-.9.38-2.58.82-2.33,2.07.18.94,1.72.65,2.69.71,7.68.43,15.23-.7,22.8-2.4a70.19,70.19,0,0,0,17.36-6.07,29.75,29.75,0,0,0,2.92-1.76,1.27,1.27,0,0,0,.6-1.49.79.79,0,0,0-.71-.53,21.18,21.18,0,0,0-7.84.61C160,253.38,156.56,253.38,153,254.4Zm-8.21-32.06a7.12,7.12,0,0,0-.87-2.48,1.81,1.81,0,0,0-2.15-1.07c-1.11.25-.92,1.16-.79,2,1.26,7.7,2.12,15.33,3,23a126.06,126.06,0,0,0,1.78,12.6c.19.88.35,1.78,1.47,1.51a2,2,0,0,0,1.64-2,49.62,49.62,0,0,0-.68-6.19c-.44-3.88-.89-7.83-1.34-11.72C145.84,232.84,145.37,227.54,144.75,222.34Zm29.82,94.8a17.69,17.69,0,0,0,3.43-1,21.21,21.21,0,0,0,3.88-2.06c.93-.63,2.39-1.44,2.8-2.55s-.23-2.19-.54-3.21c-.23-.75-1.33-3.37-2.51-2.47-2,1.52-4.29,2.53-6.27,4.07-1.48,1.15-3.23,1.71-4.83,2.66a2.83,2.83,0,0,0-1.57,2.88c.24,1.12,1.13,1.5,2.11,1.82a6.82,6.82,0,0,0,3-.08Zm1.23-11.06c1.35-.45,2.7-.87,4.06-1.27,1.61-.48,3.17-.9,3.07-2.94-.08-1.64-.67-3.23-2.31-3.81-3.52-1.22-6,.62-8,3.38-.64.89-1.26,1.81-1.85,2.75s-1.09,1.58-.53,2.52c.4.66,1.22.51,1.89.48A15.08,15.08,0,0,0,175.8,306.08Zm2.79,12.1c-1.17.42-2.35.43-3.19,1.45s-1.86,1.69-2.67,2.65c-.67.8-1.16,2.32.25,2.66a9.87,9.87,0,0,0,2.87-.05c2.93-.18,5.67-1.37,6.16-4.56a9,9,0,0,0-.13-3.55C180.76,317.2,179.71,317.78,178.59,318.18Zm-99-209.31c-1.49.8-2.11,2.09-.83,3.61s3.88,1.54,5.95.6c1.56-.71,3-2.57,2.82-4.31s-.67-1.32-2.06-1.23A9.87,9.87,0,0,0,79.62,108.87ZM147.91,271c.79-.13,1.53-.29,1.73-1.18.26-1.12-.21-2.3-.29-3.42-.08-1-.45-1.31-1.38-1.24-1.79.15-4.68-.12-5.78,1.69a6.63,6.63,0,0,0-.54,3.15c0,1.25.49,1.77,1.77,1.54.75-.13,1.52-.2,2.28-.27S147.18,271.08,147.91,271Zm-14.35,0c-.11.73.4.87.91.91a25.75,25.75,0,0,0,3.72-.18c.73,0,2,.15,2.42-.61a1.11,1.11,0,0,0,.1-.57,10.66,10.66,0,0,1,.36-2.45,2.66,2.66,0,0,0,.09-1.12c-.31-1.6-4.56-.83-5.57-.53C133.54,267,134,268.16,133.56,270.92Zm17-2.5a1.51,1.51,0,0,0,.91,1.2c1,.34,2.45-.16,3.5-.38.75-.16,2.08-.42,2.27-1.34.28-1.45-.18-3-.35-4.48-.05-.48-.38-.53-.83-.41-1.66.45-3.44.89-5.11,1.3a1,1,0,0,0-.89,1.27c.08.59.16,1.18.27,1.76C150.37,267.7,150.44,268.06,150.53,268.42Zm-24-1.25a27.3,27.3,0,0,1-.32,3.2c-.22.81.55.9,1,1,1.35.18,2.74.18,4,.3s1.13-.9,1.34-1.47c1.15-3.06.89-3.36-2.25-3.52-.9,0-1.91-.48-2.84-.17C126.86,266.33,126.63,266.65,126.55,267.17Zm47.9,23.75c1.88-.53,4.68-2.35,5-4.5.16-1.06.46-2.41-.52-3.13-.68-.51-1.25.4-1.74.77-.64.48-1.32.9-1.94,1.41a5.33,5.33,0,0,0-2,4.47C173.46,290.63,173.59,291.16,174.45,290.92Zm-16.35-24c.09.85.57,1,1.33.82,1.12-.3,2.26-.67,3.35-1.08.4-.15.94-.35,1.1-.79.39-1-1-3-1.34-3.87-.2-.47-.48-.69-1-.47-.77.33-1.6.47-2.38.76a2.16,2.16,0,0,0-1,.78,2.19,2.19,0,0,0-.27,1.29c0,.35,0,.71.08,1.07S158.05,266.44,158.1,266.94Zm10.2-7.53c-.76-.52-1.89-.12-2.65.2a2.72,2.72,0,0,0-2,2.88,2.67,2.67,0,0,0,2.14,2.57,3.43,3.43,0,0,0,2.8-1.14,3.71,3.71,0,0,0-.33-4.51ZM122.85,265c1.43,1.91.35,4.08,2.4,5.67C125.22,267.93,125.68,265.92,122.85,265Z"/><path d="M134.92,184.82c.47-1.83,2.37-3.2,3.81-4.08a13.63,13.63,0,0,1,5.63-1.73c.44-.06,1.29-.16.82-.84a1.08,1.08,0,0,0-1-.45C139.77,177.6,133.8,179.37,134.92,184.82Z"/><path d="M142.14,184.7a2.52,2.52,0,0,0-2.53,2.83,2.68,2.68,0,0,0,3.15,2.21,2.38,2.38,0,0,0,2-2.69A2.43,2.43,0,0,0,142.14,184.7Z"/></g><polygon class="cls-6" points="368.44 106.86 232.71 158.29 232.73 224.14 368.56 134.54 368.44 106.86"/><path class="cls-6" d="M232.77,291.35l83.65-.76,52.16-39.12V200.79C364.9,203,277.86,254.36,232.77,291.35Z"/><g id="DH0Hhi.tif"><path class="cls-7" d="M236.46,93.63h132a4.94,4.94,0,0,1,2.42,4.92c0,.71,0,1.43,0,2.14q0,94.92,0,189.84a15.66,15.66,0,0,1-.24,4.27,1.15,1.15,0,0,1-1.71.67c-1.52-.69-3.24-.92-4.63-1.94-.51-.59-.85-1.3-1.34-1.91-1.47-1.51-1.66-3.38-1.66-5.38q0-27.83,0-55.65,0-62.22,0-124.42a12.63,12.63,0,0,0-.21-3.42,1.5,1.5,0,0,0-1.41-.77c-3.77.07-7.54-.18-11.31.15a2.91,2.91,0,0,1-.78,0,104,104,0,0,0-15.29.15,25.47,25.47,0,0,1-6.47,0,8.26,8.26,0,0,0-2.32-.3H303.73a7.81,7.81,0,0,0-2.31.31,46,46,0,0,1-9.09,0,9.31,9.31,0,0,0-3-.31H250.14a9.32,9.32,0,0,0-3,.33c-4,.46-4,.46-4,4.66V287.18c0,1.86.2,3.77-1.28,5.27-2.22,1.5-4.85,1.66-7.37,2.16-.26.05-.47-.27-.6-.53a7.89,7.89,0,0,1-.31-3q0-18.35,0-36.69a7.63,7.63,0,0,1,.32-3c.94-1,1.13,0,1.37.57.46,1.1.15,2.35.63,3.77a20.59,20.59,0,0,1-.51-5.37,4.23,4.23,0,0,0-1.49-4,7.86,7.86,0,0,1-.32-3q0-26.14,0-52.3a10.67,10.67,0,0,1,.25-3,10.31,10.31,0,0,0,0-8,14.22,14.22,0,0,1-.25-3.85c0-25.47,0-50.94-.05-76.41C233.57,97.25,233.75,94.92,236.46,93.63Z"/><path d="M381.79,307l.48.86V400.3h-.2l-.19,0c-1-1.16-.73-2.58-.73-3.91q0-41.26,0-82.52c0-1.65,0-3.29-.13-4.94C381,308.19,380.67,307.26,381.79,307Z"/><path class="cls-8" d="M292.36,101.72h9.06q12.25-.33,24.49,0h6.47q7.74-.33,15.47,0h.46a99.86,99.86,0,0,1,13.73.11q0,90.95,0,181.88c0,2.86-.58,5.86,1.79,8.21-.22,1.09-1.13.93-1.87,1-.92,0-1.85.08-2.77.19-11.51-2.25-23.17-2-34.82-2.3-9.93-.24-19.87-.69-29.81-.74-5.49,0-11,.66-16.47,1-5.07.35-10.14.64-15.19,1.1a87.12,87.12,0,0,1-12.41,0,23.42,23.42,0,0,0-6.41.47,2.51,2.51,0,0,1-2.45-.28c-.19-.14-.88-.25-.56-.33,1.74-.43,1.39-1.7,1.39-2.85V105.24c0-3.43,0-3.42,3.46-3.45.43,0,.85,0,1.28-.06a3,3,0,0,1,1.27-.13h42.6A3.42,3.42,0,0,1,292.36,101.72Z"/><path class="cls-9" d="M241.65,292.36a35.19,35.19,0,0,1,11-.83c8.24.89,16.35-.64,24.52-1,8.4-.4,16.78-1.47,25.21-1.12,11.49.48,23,.65,34.49.93,3.71.09,7.48-.15,11.12.42,3.84.59,7.8.66,11.51,2a8.36,8.36,0,0,1,5.08.51l5.58,2.1c2.55,2.06,5.12,4.11,7.64,6.2a6.15,6.15,0,0,1,1,1.35,5,5,0,0,0,1.46,1.94c.39.79,1.39,1.16,1.5,2.15a.81.81,0,0,0-.38,1.24c.64,1.07.42,2.2.42,3.31q0,43.19,0,86.38c0,.78,0,1.57,0,2.36l-12.11,0c-.92-1.12-.63-2.46-.63-3.72q0-34.72,0-69.45a57.73,57.73,0,0,0-2-13.79c-1-4.07-4.19-6.56-8-8.2-4.2-1.82-8.68-2.31-13.21-2.62-26.78-1.82-53.58-.53-80.38-.76a76.94,76.94,0,0,0-21.26,2.5c-4.89,1.35-7.68,4.44-8.21,9.54-.15,1.51-.23,3-.23,4.51q0,39.14,0,78.27c0,1.26.29,2.6-.63,3.72l-12.12,0a5.11,5.11,0,0,1-.15-2.13q0-45.15,0-90.31a4.33,4.33,0,0,1,.18-2.11,1.55,1.55,0,0,1,.34-2.17c1.81-1.47,2.79-3.66,4.51-5.21a1.13,1.13,0,0,1,.29-.24,6.27,6.27,0,0,1,2-1.48c1.13-1.19,2.79-1.38,4.13-2.16C236.66,293.3,239.27,293.23,241.65,292.36Z"/><path class="cls-10" d="M292.36,101.72H247.22c.53-.52,1.21-.35,1.84-.35h41.45C291.14,101.39,291.81,101.22,292.36,101.72Z"/><path class="cls-11" d="M234.38,251.05v-4.28c1.13-.14,1.7.22,1.66,1.51-.07,2.63,0,5.26-.26,7.94Z"/><path class="cls-12" d="M325.91,101.73H301.42a1.76,1.76,0,0,1,1.41-.35H324.5A1.75,1.75,0,0,1,325.91,101.73Z"/><path class="cls-13" d="M347.85,101.73H332.38c1.64-.77,3.38-.36,5.05-.32C340.9,101.5,344.4,101,347.85,101.73Z"/><path class="cls-14" d="M234.38,187.82v-7.3a.8.8,0,0,1,.78.85c0,1.86,0,3.72,0,5.58A.81.81,0,0,1,234.38,187.82Z"/><path class="cls-15" d="M362,101.84l-13.73-.11c3.55-.8,7.14-.2,10.71-.32C360,101.37,361.14,101,362,101.84Z"/><path class="cls-16" d="M364.63,293.24l-5.08-.51c1.29-1,3,.27,4.3-.8Z"/><path class="cls-17" d="M235.2,400.25c0-28.22-.07-56.45,0-84.68,0-7.56,3.7-11.4,11.85-12.81a99.4,99.4,0,0,1,13.15-1.43c23.48-.88,47-.1,70.44-.4,6.15-.07,12.23.76,18.34,1.16A32,32,0,0,1,359,304.33c5.52,2.26,8.54,6.2,9.57,12.28,2.08,12.25,1,24.53,1.13,36.79.22,15.62,0,31.24,0,46.85-.93,0-1.87.05-2.8.05H238C237.06,400.3,236.13,400.27,235.2,400.25Z"/><path d="M223.11,305.72l0,94.55c-.79-.51-.36-1.3-.36-1.93q0-45.24,0-90.48C222.72,307.16,222.26,306.3,223.11,305.72Z"/><path class="cls-18" d="M228,298.34c-1,2-2.69,3.59-4,5.43-.28.39-.43,0-.53-.22C224.8,301.68,225.8,299.51,228,298.34Z"/><path class="cls-19" d="M230.24,296.62a3.41,3.41,0,0,1-2,1.48A1.87,1.87,0,0,1,230.24,296.62Z"/><path class="cls-20" d="M380.29,304.83c-.87-.36-1.55-.86-1.46-1.94C379.68,303.26,379.94,304.08,380.29,304.83Z"/></g><g id="tWmlvL.tif"><path class="cls-21" d="M380.7,399.61a4,4,0,0,1-.63-2.87c0-4.15-.1-8.31,0-12.46a63.2,63.2,0,0,0-1.31-13.87c-.38-2-.29-3.69,1.21-5.16a2.8,2.8,0,0,0,.89-2.13c-.06-3.64.43-7.3-.52-10.9a6.18,6.18,0,0,1-.13-3c1.14-4.74.65-9.51.41-14.31a109.15,109.15,0,0,1,.11-15.66,97.17,97.17,0,0,0,.11-10.52c0-1.6-1-2.78-1.95-4a94.17,94.17,0,0,0-7.56-7.91c-1.45-.86-2.45-2.28-3.91-3.15-.7-.42-1.31-.6-1.77.31-3.88-.42-7.34-2.34-11.13-3.08-4-.78-7.94-1.95-12.09-1.69a5.62,5.62,0,0,1-2.52-.46,4,4,0,0,0-3.29.14c-2.41.94-5,.47-7.41.07-7.85-1.29-15.52.32-23.41-.63a30.24,30.24,0,0,0-6.84-.18c-12,1.14-24.36.08-36.29,1.72a83.87,83.87,0,0,1-10.72,1c3.92.07,9.81-1.28,15.82-.46a38.67,38.67,0,0,0,10.08-.08c1.07-.13,2.14-.17,3.22-.2,14.11-.31,28.22.21,42.32.55,10.78.27,21.6.77,32.2,3.28a32.94,32.94,0,0,1,20.53,14.13,10.79,10.79,0,0,1,1.76,6.11q0,41.39,0,82.76a3.68,3.68,0,0,1-.64,2.65"/><path class="cls-22" d="M377.26,399.61c0-27.75-.09-55.49.08-83.23A16.48,16.48,0,0,0,372,303.83a32.93,32.93,0,0,0-13.89-8.59,82.92,82.92,0,0,0-15.32-2.7c-11.67-1.07-23.38-1.12-35.09-1.46-9.38-.28-18.76-.27-28.12-.18-3.77,0-7.59.52-11.34.23a47.89,47.89,0,0,0-9.41-.25c-3.37.42-6.7.13-10.5.42a4.18,4.18,0,0,1,2.55-.95c7.17-.51,14.31-1.25,21.4-2.46,3.15-.53,6.37-.65,9.56-1,5.3-.54,10.6.61,15.89-.05,5.08-.64,10,.1,15,.71,7.48.89,14.91.92,22.46,1.32.14,0,.35.08.41,0,1.81-2.11,3.77-.45,5.73-.45,5.29,0,10.34,1.14,15.39,2.35,2.58.62,5.09,1.57,7.63,2.35.55.16,1,1,1.7.22.93-.24,1.12.67,1.61,1.08,1,.85,2,1.79,3.51,1.52a59.72,59.72,0,0,1,9.47,10,3.47,3.47,0,0,1,.83,1.7c0,3.86.16,7.73-.09,11.58a141.06,141.06,0,0,0,0,16.45c.23,4.32.78,8.7-.44,13a4.72,4.72,0,0,0-.13,2.75c1.34,4.06.51,8.23.75,12.35a1.49,1.49,0,0,1-.65,1.47c-1.77,1.2-2,2.76-1.55,4.85,2.22,9.72,1.08,19.62,1.34,29.45Z"/><path class="cls-23" d="M351.45,348.77c-1.13-2.14-.63-4.49-1.25-6.69-.82-2.94-2.07-4-5-4.44a61.44,61.44,0,0,0-9-.41c-5.16,0-10.33.25-15.47-.08-8.31-.53-16.61-.1-24.91-.42-4-.15-7.89-1.16-11.9-1.26-.51,0-1.13-.16-1-.79s.8-.41,1.25-.44c4-.32,8,.19,12,.48,5.41.41,10.8.33,16.2.36,6.37,0,12.71.48,19.08.51,6.22,0,12.39-.63,18.58-1,1.2-.07,1.52.2,1.52,1.3C351.44,340.18,351.45,344.48,351.45,348.77Z"/></g><g id="hAwH2t.tif"><path d="M382.86,399.65c-3.84,0-3.85,0-3.84-3.79q0-39.78.06-79.56c0-4.67,0-9.24-3-13.55h0c-3-3.7-2.81-3.57-5.74-.36a13.26,13.26,0,0,0-1.43,2c-1.2,2.13-2.52,4-.78,6.72,1.22,1.9,1.41,4.46,1.41,6.84V397.5c0,.43,0,.86,0,1.29,0,.85-.53.86-1.14.86s-1.15-.09-1.14-.89c0-.65,0-1.29,0-1.94q0-37.51-.08-75c0-3.37-.09-6.74-1.69-9.86-.89.06-.9.84-1.16,1.36-3.33,6.57-6.6,13.17-10,19.71a10.37,10.37,0,0,0-1.16,4.93q0,29.67,0,59.34c0,.58,0,1.15,0,1.72,0,.42-.2.66-.65.65s-.89-.05-.93-.62,0-1.29,0-1.94q0-28.49-.08-57c0-3.76-.31-4.06-4-4.06H255.64c-3.09,0-3.1,0-3.1,3q0,29,0,58.06c0,.57,0,1.15,0,1.72s-.33.86-.94.84-.77-.27-.77-.78,0-1.15,0-1.72q0-29.89,0-59.78a7.93,7.93,0,0,0-1-3.88c-3.58-6.82-7.29-13.58-10.25-20.72a9.94,9.94,0,0,0-1-1.54,5.15,5.15,0,0,0-1.53,4.06c-.34,23.79-.25,47.58-.17,71.37,0,3.8,0,7.6-.07,11.4,0,.75.25,1.64-1.07,1.6s-.84-.94-.85-1.54c0-4.38,0-8.75,0-13.12q0-33.87,0-67.74a15.48,15.48,0,0,1,1.76-8.05,1.48,1.48,0,0,0,.18-1.57,22.46,22.46,0,0,0-4.8-7c-.91-.84-1.53-.72-2.32.09a15.32,15.32,0,0,0-4.76,11.1c.06,28.6,0,57.2.11,85.8,0,1.71-.47,2.12-2.13,2.13s-1.81-.64-1.8-2q.06-25.9,0-51.82c0-10.9.16-21.79,0-32.69-.16-7.95,3.28-13.76,9.67-18a4,4,0,0,0,2-3.81q-.09-94.19-.07-188.37c0-1.64,0-3.29.05-4.94a6.44,6.44,0,0,1,6.3-6.34c1.5-.07,3,0,4.51,0H363.33c5.6,0,7.93,2.33,7.93,8q0,95.79,0,191.58a4,4,0,0,0,2.11,4,20.59,20.59,0,0,1,6,5.69,20.12,20.12,0,0,1,3.49,11.6Zm-20.95-203.4h-.07q0-45.9.05-91.81c0-2.07-.68-2.42-2.56-2.42q-57.4.08-114.81,0c-1.76,0-2.48.24-2.48,2.28q.08,92,0,184.05c0,.14,0,.29,0,.43-.16,1.36.29,1.68,1.7,1.39a163.35,163.35,0,0,1,21.48-2.71,458.51,458.51,0,0,1,47.47-1.27c15.74.48,31.48,1.1,47,3.9,2,.35,2.2-.3,2.2-2Q361.88,242.15,361.91,196.25Zm-60,137.6c16.11.11,32.23.67,48.34,0a2.65,2.65,0,0,0,2.4-1.79c3.63-7.14,7.21-14.31,10.85-21.44a2,2,0,0,0-.28-2.51,12.56,12.56,0,0,0-7.83-4.45c-5.41-.69-10.84-1-16.28-1.21-18.9-.85-37.82-.41-56.73-.43a268.24,268.24,0,0,0-33.88,1.65,12,12,0,0,0-7.16,3c-1.56,1.49-1.95,2.76-.64,4.54a19.22,19.22,0,0,1,1.4,2.66c2.87,5.68,5.79,11.33,8.59,17a4.51,4.51,0,0,0,4.8,2.93c5.37-.21,10.75-.06,16.12-.06Zm66.27-41.61v-1.93c.11-21.5.27-43,.32-64.5.06-22,0-44,0-66q0-30.33,0-60.64c0-3.36-1.38-4.76-4.68-4.75-2.79,0-5.58.27-8.37.27q-27.74,0-55.47,0c-19.56,0-39.13-.18-58.7-.27-4.59,0-5.8,1.2-5.9,5.84,0,.72,0,1.44,0,2.15.19,23.36.36,46.71.11,70.07-.18,17.27-.24,34.54,0,51.81.33,21.5.43,43,.62,64.49,0,3.34,0,3.35,3.19,2.42.59-.18,1.65,0,1.47-1.1-.61-3.7-.27-7.42-.28-11.13-.05-24.14.11-48.29,0-72.43-.09-15.7.42-31.38.4-47.08,0-18.78,0-37.56,0-56.33,0-1.72.4-2.47,2.26-2.36,2.43.13,4.87,0,7.31,0q25.05,0,50.1,0,30.1,0,60.2-.06c1.78,0,2.38.56,2.34,2.36-.1,5.66-.07,11.32-.05,17,.09,19.85-.19,39.7.26,59.55.24,10.75.08,21.5,0,32.25-.15,16.83.09,33.67.14,50.51,0,8.88,0,17.77,0,26.66,0,.69-.4,1.62.75,2S366.76,291.77,368.23,292.24Zm3.27,6.13a22.3,22.3,0,0,0-6.66-3.32c-8-2.31-16.16-3.11-24.37-3.79a451.85,451.85,0,0,0-58.18-1.18c-12.31.58-24.61,1.26-36.76,3.45-4.09.74-8.17,1.61-11.72,4-.45.31-1.75.55-.69,1.46,2.37,2.06,3.81,4.78,5.46,7.53a17,17,0,0,1,9.14-4.55,160.34,160.34,0,0,1,23.56-1.5c20.13-.2,40.27-.19,60.4-.09,6.28,0,12.57.5,18.85,1,5.19.38,10.49.63,14.47,4.95C366.71,303.11,368.22,300.16,371.5,298.37Z"/><path d="M301.49,394.6h-29c-3,0-3.22-.25-3.23-3.17q0-20.54,0-41.07c0-2.44.92-3.35,3.39-3.35q29.56,0,59.12.06c2.32,0,3.49,1.05,3.49,3.35q0,20.2,0,40.42c0,2.71-1.25,3.76-4.05,3.77H301.49Zm.74-2.18c9.88,0,19.77-.05,29.66,0,1.82,0,2.23-.53,2.22-2.28-.08-13-.06-26.08,0-39.12,0-1.57-.4-2.16-2-2.16q-29.78.06-59.55,0c-1.63,0-2.06.57-2.06,2.14q.09,19.79,0,39.56c0,1.54.42,1.86,1.89,1.85C282.3,392.39,292.27,392.42,302.23,392.42Z"/><rect class="cls-24" x="339.91" y="353.54" width="6.61" height="4.84" rx="0.71" ry="0.71"/><rect class="cls-24" x="339.91" y="364.7" width="6.61" height="4.84" rx="0.71" ry="0.71"/><rect class="cls-24" x="339.91" y="376" width="6.61" height="4.84" rx="0.71" ry="0.71"/><rect class="cls-24" x="339.91" y="387.3" width="6.61" height="4.84" rx="0.71" ry="0.71"/><rect class="cls-24" x="257.8" y="353.54" width="6.61" height="4.84" rx="0.71" ry="0.71"/><rect class="cls-24" x="257.8" y="364.7" width="6.61" height="4.84" rx="0.71" ry="0.71"/><rect class="cls-24" x="257.8" y="376" width="6.61" height="4.84" rx="0.71" ry="0.71"/><rect class="cls-24" x="257.8" y="387.3" width="6.61" height="4.84" rx="0.71" ry="0.71"/></g><path class="cls-25" d="M355.07,289.31a517.92,517.92,0,0,0-105,0c-2.15.21-4.29.57-6.41,1-1.86.34-3,.19-3-2.18l.29-186.77H362l.36,188C362.31,292.12,357.87,289.31,355.07,289.31Z"/><text class="cls-26" transform="translate(273.95 178.73)"><tspan class="cls-27">Y</tspan><tspan x="12.24" y="0">our</tspan><tspan x="0" y="26.88">Ad</tspan><tspan x="0" y="53.76">Here</tspan></text></g></svg>