<svg xmlns="http://www.w3.org/2000/svg" viewBox="0 0 365.71 308.64"><defs><style>.cls-1{fill:#0d3698;}.cls-2,.cls-26{fill:#fff;}.cls-3{fill:#fe4715;}.cls-4{fill:#faf0e5;}.cls-5{fill:#212121;}.cls-6{fill:#aab7be;opacity:0.18;}.cls-7{fill:#1e1432;}.cls-8{fill:#fbfaf6;}.cls-9{fill:#c3cafe;}.cls-10{fill:#040404;}.cls-11{fill:#030204;}.cls-12{fill:#121213;}.cls-13{fill:#0c0c0c;}.cls-14{fill:#050308;}.cls-15{fill:#060606;}.cls-16{fill:#060509;}.cls-17{fill:#a0a6d6;}.cls-18{fill:#494a50;}.cls-19{fill:#6d6e76;}.cls-20{fill:#747581;}.cls-21{fill:#fefefe;}.cls-22{fill:#f2f6f8;}.cls-23{fill:#bcc0e4;}.cls-24{fill:#231f20;}.cls-25{fill:#f7c4a1;}.cls-26{font-size:22.4px;font-family:Heebo-Bold, Heebo;font-weight:700;}.cls-27{letter-spacing:-0.07em;}</style></defs><title>retargeting-2</title><g id="Layer_2" data-name="Layer 2"><polygon class="cls-1" points="140.7 58.73 149.31 53.23 151.88 42.57 149.97 32.81 143.75 26.05 131.89 11.93 122.45 8.31 109.05 6.58 105.7 6.58 101.93 6.58 88.89 8.31 81.64 11.5 77.01 12.08 73.24 14.4 70.44 13.82 67.73 14.11 62.78 13.81 57.88 18.93 57.88 21.48 51.8 26.05 46.29 28.6 41.94 30.63 38.76 33.24 34.7 37.54 28.9 41.08 19.34 50.26 12.09 56.2 6.41 64.82 5.14 73.52 5.14 81.42 6.41 86.05 10.64 93.16 17.31 99.89 26.29 104.59 37.02 107.36 50.35 104.09 59.83 101.7 70.44 93.16 83.96 81.42 89.47 76.22 95.03 70.91 106.91 64.24 116.06 62.8 126.83 60.48 140.7 58.73"/><polygon class="cls-2" points="121.96 129.36 123.13 131.71 123.69 132.54 128 164.98 129.2 166.64 130.92 166.64 132.57 165.31 132.57 163.78 127.94 129.36 126.14 125.97 123.36 125.97 121.96 129.36"/><g id="HAKxAt.tif"><path class="cls-2" d="M137.39,254.69c1,7,12.05,44.34,13.17,53.1H4.51c-1.57.78,1.93-38.93,3.3-46.71l13.4-77.42,87.84-1.34Z"/></g><polygon class="cls-3" points="107.85 168.53 123.69 165 126.83 164.56 130.82 167.81 133.88 164.94 133.88 162.11 148.05 160.09 154.34 160.23 157.71 162.25 159.27 164.87 159.52 166.82 159.27 168.12 155.26 171.75 162.47 244.59 161.76 246.47 136.19 253.36 132.97 246.55 118.13 203.66 109.05 182.33 105.7 176.17 105 172.98 107.85 168.53"/><polygon class="cls-4" points="161.78 191.62 160.7 191 156.97 193.67 155.73 196.16 155.73 199.7 156.66 200.07 158.4 200.07 161.43 198.21 163.31 195.54 163.31 193.36 161.78 191.62"/><polygon class="cls-4" points="162.47 205.34 159.35 205.34 157.1 206.84 154.93 209.13 152.57 213.41 152.91 215.84 155.03 215.53 159.52 215.56 163.68 213.66 166.16 212.24 166.16 209.5 165.79 207.39 162.47 205.34"/><polygon class="cls-4" points="153.93 219.9 151.76 221.36 151.01 224.71 152.19 225.78 154.93 226.39 156.07 227.57 154.61 229.74 154.06 232.84 156.07 234.34 163 233.65 166.91 229.24 166.16 224.9 168.4 222.04 168.95 219.44 168.33 216.39 166.16 213.54 164.49 214.2 153.93 219.9"/><polygon class="cls-4" points="89.97 129.75 98.77 134.4 105.96 138.23 112.51 138.23 119.86 132.54 121.29 130.41 120.63 127.96 124.38 124.41 126.83 124.41 133.84 113.51 136.47 111.88 134.06 109.97 133.11 99.1 134.07 84.57 134.54 79.97 116.48 79.97 105.64 81.21 87.84 94.15 85.19 102.14 86.69 109.24 90.51 120.81 89.97 129.75"/><path class="cls-5" d="M17.31,99.89l-2.44,32.65v19.59l-3.68,22.55-10,34.55,8.05,48.34L22,278.26a102.94,102.94,0,0,1-9-42l6.28-27,13.15-28,12.88,8.18,12.89,5.24,11.57,6.19,8.94,8,2.89,6.78v9.55L79.15,236.2l6-6.28,6.23-25.29,9.21,2.6,6.67,1.6,7.32,5.39,4.1,3.44s9,13.76,13.85,25.4L124,214.73l-8-15.78-7-14.95-3.35-10.68,2.42-10.11-9.51-23L95,132.54l-4-4L89.89,124l.51-11.29L87.84,108,87,102.42l.81-4.14,2.41-4.12h2l2,.28,2.27-.91,12.17-9.29,11.19-1.78,19.25-1.84,1.64-8.33-2.06-12.88L113.5,63.2l-6.59,1L95,70.91,70.44,93.16,50.35,104.09l-29-.52Z"/><g id="HAKxAt.tif-2" data-name="HAKxAt.tif"><path d="M77.3,307.79c1-23,3-49.6,5.82-72.49a8.75,8.75,0,0,1-7,2.56c3.19-6,6.37-12.63,5.21-19.34-1-6-5.39-10.85-10.26-14.46-11.57-8.56-26.42-11.52-38.51-19.33a116.74,116.74,0,0,0-17.32,72.83q-.84-3.56-1.36-7.17a87.66,87.66,0,0,1,1.54-32.95c2.63-10.95,7.78-21.06,12.62-31.13.94-1.94,1.8-3.85,1.38-6.08-.38-2-1.68-3.4-2.86-5a61.26,61.26,0,0,1-9.68-20c-2.34,18.47-11.4,34.66-13.37,53.3-2.74,25.87,9.66,50,21,72.53A80.59,80.59,0,0,1,11.4,262.71a299.12,299.12,0,0,0,4,45H12.33c-1.71-15.47-2-31.3-4.52-46.63-3.24-20-10.66-40-6.65-60.26,2.64-13.37,9.68-24.51,11.73-38,1.74-11.42,0-23.12.12-34.89a128.25,128.25,0,0,1,1.67-19c.58-3.48,2.07-8.93-2-11.14-.07,0-.11-.13-.15-.18C1.1,84.12-.42,68.78,11.43,55.14c7.65-8.81,16.75-15.08,25.72-22.22,3.92-3.11,7.57-5.71,11.87-8.7,2.36-1.63,6.73-3.29,7.65-6.57.22-.79.87-1.12,1.46-1.51a21.65,21.65,0,0,1,10.73-3.58,22,22,0,0,0,6.89-1.84,8.88,8.88,0,0,1,2.19-.59c3.61-.49,6.86-1.55,10.47-2.38,11.86-2.71,25.32-4.2,36.79.51,10,4.12,16.27,12.32,22.36,20.75a30.35,30.35,0,0,1,6.12,18.45c0,3.78-1.31,6.9-4.84,8.9-2.36,1.33-5.49,2.23-8,3.55-.63.34-.83.6-.68,1.37a62.57,62.57,0,0,1,1.32,7.15,39.54,39.54,0,0,1-.13,7.37c-.26,2.51-1.05,4.87-3.44,5.91-1.14.49-1.85,1-2.1,2a49.64,49.64,0,0,0-.63,22.38,13.91,13.91,0,0,0,1.62,4.05,4.21,4.21,0,0,1,0,4.72c-1.44,2.23-3.67,4.12-5.25,6.32a14.8,14.8,0,0,0-1.43,2.62c-.37.9-.91,1.61-1.34,2.47-.34.69,0,1.42.08,2.14.19,1.5.36,3,.55,4.49.37,3,.74,6,1.12,9,.74,5.81,1.39,11.8,2.08,17.55.18,1.48.72,1.64,2,1.52,5.57-.49,11.13-1.74,16.72-2.25l.38,0a11.74,11.74,0,0,1,3.34.32,6.58,6.58,0,0,1,2.51,1.28,7.37,7.37,0,0,1,1.92,2.73c.25.56.38,1.12.59,1.7s.48,1.47.62,2a1.59,1.59,0,0,1,.07.78,2.08,2.08,0,0,1-1.13,1.18c-2,1.11-2.23,2.58-1.94,4.7.59,4.2,1.64,15.39,1.74,16.84,1.8-.59,3.9-.77,4.5,1.25a6,6,0,0,1-1.09,6.07c-.65.83-1.44,1.7-2.11,2.42-1,1.09-.45,2.17-.28,3.33s1,.5,1.7.63c4.4.82,6.67,4.06,5.57,8.42-.13.51-.41.73.05,1.13,1.43,1.2,1.79,2.75,2.3,4.47a4,4,0,0,1-1.56,4.83,2.38,2.38,0,0,0-1,2.5c.24,3.72-.19,6.66-3.4,9-.54.39-1,.8-1,1.28.13,1.6,1.86,7.93,1.53,9.49-.48,2.29-1.62,2.6-3.54,3.49a112.78,112.78,0,0,1-23.73,6.19c-1,.13-.39,2.54-.23,3.61.28,1.92.6,3.83.93,5.75.67,3.77,1.43,7.52,2.14,11.29,1.77,9.38,3.84,19.35,6.54,32.38h-2.56c-5.61-23-8.27-47.15-15.14-69.7-3.16-10.37-5.94-21.51-10.85-31.22-3.32-6.64-6.91-13-9.64-19.95-1.92-4.89-5.12-10.23-4.47-15.65.23-1.89.94-3.69,1.16-5.58.63-5.56-2.91-10.41-5.08-15.22-1.8-4-3.58-8-5.38-12A56.88,56.88,0,0,0,90,129.75a6.66,6.66,0,0,1-1.2-3.74c-.09-3.94-.22-7.88,0-11.81a5.5,5.5,0,0,0,0-1.67c-.28-1.2-1.63-2-2.08-3.29a12.3,12.3,0,0,1-.56-2.48,18.25,18.25,0,0,1-.3-2.83,12.88,12.88,0,0,1,.88-5.35,11.45,11.45,0,0,1,6.23-6c3.07-1.38,6.39-1.92,9-4.3,4.07-3.72,7-8.23,9.82-13a11.85,11.85,0,0,0,1.69-9.2c-.25-1-.65-1.4-1.68-1.25a20.87,20.87,0,0,0-6.39,1.58,63.71,63.71,0,0,0-17,12.07c-5.92,5.66-13.09,12.2-19.44,17.23a51.55,51.55,0,0,1-22.37,10.68c-9.29,1.79-16.86,1.14-25.21-2.85A28.11,28.11,0,0,0,18,102.2c-.2,3.31-.45,6.82-.63,10.1-.27,5.14-.41,10.23-.73,15.3a64.8,64.8,0,0,0,.66,12.07c1,8.46,1.52,17.05,5.43,24.74a52.13,52.13,0,0,0,15.38,17.82c6.24,4.62,13.62,7.31,20.7,10.31,9.25,3.93,18.86,9.14,23.15,18.23a47.66,47.66,0,0,0-27.14-40.69c12.79,3.66,22.91,14.54,27,27.19S84.48,224,79.15,236.2c7.71-8.77,10.51-21.14,9.21-32.74S82,181,75.52,171.24c-5.68-8.56-12.58-16.6-15.61-26.41C54.72,128,62,109.84,71.6,95.05c-4.27,8.52-8.2,17.3-10.15,26.63S59.63,141,63.3,149.76c5.79,13.89,19.78,23.71,23.29,38.34,1,4.24,1.2,9,4,12.29,3.17,3.79,8.57,4.53,13.24,6.16A31.59,31.59,0,0,1,122,223.38a37.31,37.31,0,0,0-22-15.1,71.88,71.88,0,0,1-8.61-3.65c-6.81,32.68-10.74,69.8-11.53,103.17Zm80-140.15a1.58,1.58,0,0,0,.67.34.66.66,0,0,0,.7-.23,1.09,1.09,0,0,0,0-.92c-.28-.9-.54-1.81-.82-2.73a.77.77,0,0,0-.24-.45.72.72,0,0,0-.73-.1,1.27,1.27,0,0,0-.81.79,2.39,2.39,0,0,0,.35,1.85,4.81,4.81,0,0,1,.73,1.79c-1-1-1.78-2.86-3.45-2.27-1,.35-2,.73-1.83,1.92.1.74.55,1.44.73,2.21.09.41.09,1.11.55,1.33a1,1,0,0,0,.81,0,4.32,4.32,0,0,0,2.88-3.46s0-.07,0-.1,0,0,0,0A.37.37,0,0,1,157.32,167.64ZM62,24.44c-1.44-.07-2.69-.56-4.14-.7s-2.54,1-3.66,1.76C44.59,32.48,34.81,39,26,47.05c-3.27,3-6.79,5.31-10.12,8.53C7.61,63.57,4.75,71,7.33,82.49c1,4.52,4,8.12,7,11.45,3.33,3.62,6.74,7.09,11.51,8.61A35.61,35.61,0,0,0,35.1,104c11.77.66,21.45-2.31,31.12-9.74,8.31-6.39,17-15,24.76-22a43.77,43.77,0,0,1,16.94-9.94c4.3-1.39,7.75-1.5,12.36-2,9.45-1.08,29.35-.86,29.68-14.12.16-6.23-2.67-11.24-6.1-16.29-4.29-6.34-9.26-12.62-15.41-17.27-3-2.24-6.42-2.65-9.93-3.26a55.8,55.8,0,0,0-11.19-1,88.43,88.43,0,0,0-22.6,3.94,17,17,0,0,0-5.38,3.18c-3.14,2.37-5.91,4.94-9.16,7.24a14.21,14.21,0,0,1-9.69,2.55C61,25,61.5,24.71,62,24.44Zm77.32,153.93a92.37,92.37,0,0,1-17,3.18,62.56,62.56,0,0,1-10,0,1.12,1.12,0,0,0-1.22,1.66c2.7,6.73,5.08,13.55,8.49,20a111.26,111.26,0,0,1,8,19.55c1.09,3.56,2.45,7,3.24,10.69,1,4.78,2.85,9.28,3.84,14.08a15.83,15.83,0,0,0,1.12,3,1.09,1.09,0,0,0,1.16.73c8.46.3,20.57-4.36,22.18-4.95,1.91-.69,2.43-2.59,2.25-4.46-.14-1.53-.86-6.69-2-6.54-1.89.23-4-.3-5.82-.43-.78-.06-.93-.48-1-1.06-.4-2.42.6-3.87,2.17-5.57.22-.24.49-.49.7-.72-1.21-.36-2.65-.33-3.7-1.11-2.69-2-2.8-4.66,0-6.66,1.24-.89,3-1.14,4.13-2.21-.76-.23-1.78-.06-2.52-.31-2.52-.84-3.57-2.49-2.28-5a20.24,20.24,0,0,1,6.09-7.11c1.22-.88.53-1.78.53-2.86s-.53-.72-1.28-1c-2.34-.78-2.63-2.67-2.26-5.06a5.94,5.94,0,0,1,1.41-3,4.67,4.67,0,0,0,1.33-3.74c-.25-3.49-1.3-15.32-1.57-17.73A80.17,80.17,0,0,1,139.32,178.37ZM119.9,82.46a7.25,7.25,0,0,1,4.56-2.41A25.17,25.17,0,0,1,134.54,80a3,3,0,0,0,3.75-2.31c1.39-5.5.89-10.82,0-16.37a.83.83,0,0,0-1.05-.8c-3.86.51-7.72.62-11.58,1.53a2.51,2.51,0,0,0-2.17,2.53,44.13,44.13,0,0,1-5,14.93,5.39,5.39,0,0,1-2.79,2.44c2.49-6.22,5.16-12.12,6.19-18.79-3.78.15-5.48,1-6.15,4.92a36.83,36.83,0,0,1-5.57,14.59,8.33,8.33,0,0,0,2.74-.44c.84-.26,1.63-.15,1.92.67s-.63,1-1.17,1.19a8.74,8.74,0,0,1-2.72.8,7.14,7.14,0,0,0-4.8,2.47,18,18,0,0,1-9.59,6.2,6.94,6.94,0,0,0-2.27.91,7.78,7.78,0,0,1,1.15,1,5,5,0,0,1,.87,1.34,4.77,4.77,0,0,1,.5,1.76,1.79,1.79,0,0,1-.39,1.24c-.46.49-.64,0-.83-.41-.3-.58-.54-1.11-.89-1.67S94,96.34,93.39,96a3.7,3.7,0,0,0-3.45.49c-3.09,2.3-2,6-1.49,9.19a6.81,6.81,0,0,0,2.22,4.54,15.57,15.57,0,0,0,1.68,1.09c.39.27,1.27.46,1.32,1s-1,.74-1.3.87a2.67,2.67,0,0,0-1.73,1.3,6.94,6.94,0,0,0-.23,3.32c.06,1.06.08,2,.1,3a27.76,27.76,0,0,0,.37,4.49,3.61,3.61,0,0,0,1.42,2.53c3.42,2.3,6.8,4.79,10.3,7a8.75,8.75,0,0,0,8.06.59,29.43,29.43,0,0,0,8.9-5.44,3.15,3.15,0,0,0,1.07-2c.33-2.43,1.35-3.33,3.75-3.55a1.59,1.59,0,0,0,1.2-.77c.79-1,1.51-2.06,2.17-3.13,1.66-2.7,4.22-4.48,6.09-7,.92-1.23,1.16-2.2.22-3.54-1.12-1.61-1.2-3.49-1.43-5.4-.57-4.68-1.09-9.1-.43-13.82A71.23,71.23,0,0,1,134,81.54C129.25,81.41,124.61,82.45,119.9,82.46ZM99.64,142.54A140.14,140.14,0,0,0,107,156.87a14.27,14.27,0,0,1,1.86,9.1,7.2,7.2,0,0,1-1,2.56c1.32-.08,2.39-.95,3.51-1.47a41.59,41.59,0,0,1,7.46-2.35c2.51-.63,4.87-1.61,7.32-2.08,1.11-.22.56-1.1.49-1.68-1-8.68-1.93-17.15-2.94-25.78-.07-.58.23-1.39-.57-1.62a2.21,2.21,0,0,0-2.29.55,16.62,16.62,0,0,1-5.45,3.74c-4.53,2.06-8.31,2.33-12.81,0A36,36,0,0,1,95,132.54C96.74,135.8,98.16,139.16,99.64,142.54Zm36.18,20.19c-1.16.33-1.84.68-1.94,2.2s-1.63,2.44-3.06,2.88A3.11,3.11,0,0,1,127,166.2c-.5-.84-.85-.89-1.58-.72-4.69,1.11-9.2,2.48-13.76,3.89a6.37,6.37,0,0,0-.69.33c-.89.38-2.57.83-2.33,2.07.19.94,1.73.65,2.7.71,7.68.43,15.22-.7,22.8-2.4A70,70,0,0,0,151.53,164a29.9,29.9,0,0,0,2.93-1.76,1.25,1.25,0,0,0,.59-1.48.76.76,0,0,0-.71-.54,21.21,21.21,0,0,0-7.84.61C142.87,161.71,139.42,161.71,135.82,162.73Zm-8.21-32.06a7.33,7.33,0,0,0-.87-2.48,1.81,1.81,0,0,0-2.15-1.07c-1.12.25-.93,1.17-.8,2,1.27,7.7,2.13,15.33,3,23,.47,4.23.91,8.46,1.79,12.6.19.88.35,1.78,1.46,1.51a2,2,0,0,0,1.64-2,51.53,51.53,0,0,0-.67-6.19c-.45-3.88-.9-7.83-1.34-11.72C128.7,141.17,128.23,135.88,127.61,130.67Zm29.82,94.8a17.6,17.6,0,0,0,3.42-1,20.31,20.31,0,0,0,3.88-2.06c.93-.63,2.4-1.44,2.8-2.55s-.22-2.19-.53-3.2c-.23-.76-1.34-3.38-2.51-2.48-2,1.52-4.29,2.53-6.28,4.08-1.48,1.15-3.22,1.7-4.82,2.65a2.83,2.83,0,0,0-1.58,2.88c.24,1.12,1.14,1.51,2.12,1.82a6.63,6.63,0,0,0,3-.08Zm1.23-11.06c1.34-.44,2.69-.87,4.05-1.27,1.62-.48,3.18-.9,3.08-2.94-.08-1.64-.67-3.23-2.32-3.81-3.51-1.22-6,.62-7.95,3.38-.65.89-1.27,1.81-1.85,2.75-.5.79-1.09,1.58-.53,2.52.39.66,1.21.51,1.89.48A14.9,14.9,0,0,0,158.66,214.41Zm2.78,12.1c-1.16.42-2.35.44-3.18,1.45s-1.86,1.69-2.67,2.65c-.67.8-1.17,2.32.25,2.66a10.23,10.23,0,0,0,2.87,0c2.92-.19,5.66-1.38,6.15-4.57a9,9,0,0,0-.12-3.55C163.62,225.53,162.57,226.11,161.44,226.51ZM62.47,17.2c-1.48.8-2.1,2.1-.82,3.62s3.88,1.53,5.94.59c1.56-.71,3-2.57,2.83-4.31s-.68-1.32-2.06-1.23A9.9,9.9,0,0,0,62.47,17.2Zm68.3,162.08c.79-.13,1.52-.28,1.73-1.18.26-1.12-.21-2.3-.3-3.41s-.44-1.32-1.37-1.25c-1.8.16-4.69-.12-5.78,1.69a6.41,6.41,0,0,0-.54,3.16c0,1.24.49,1.76,1.77,1.53.75-.13,1.51-.2,2.27-.27S130,179.41,130.77,179.28Zm-14.36,0c-.1.73.4.87.92.91a24.4,24.4,0,0,0,3.72-.18c.73,0,2,.15,2.41-.61a1.24,1.24,0,0,0,.11-.57,10.49,10.49,0,0,1,.35-2.44,2.42,2.42,0,0,0,.09-1.13c-.31-1.6-4.55-.83-5.57-.53C116.4,175.3,116.82,176.49,116.41,179.25Zm17-2.5a1.49,1.49,0,0,0,.91,1.2c1,.34,2.44-.16,3.49-.38.76-.16,2.09-.42,2.27-1.34.29-1.45-.18-3-.34-4.48-.06-.48-.39-.53-.83-.41-1.66.45-3.44.89-5.12,1.3a1,1,0,0,0-.88,1.27c.08.59.16,1.18.26,1.76C133.22,176,133.3,176.4,133.39,176.75Zm-24-1.25a29.34,29.34,0,0,1-.33,3.2c-.21.81.56.9,1,1,1.35.19,2.73.18,4,.3s1.12-.9,1.34-1.47c1.15-3.05.89-3.36-2.25-3.52-.91,0-1.92-.48-2.84-.17C109.72,174.66,109.48,175,109.41,175.5Zm47.9,23.75c1.88-.53,4.67-2.35,5-4.5.16-1.06.45-2.41-.52-3.13-.69-.51-1.25.4-1.75.77s-1.31.9-1.93,1.41a5.28,5.28,0,0,0-2,4.47C156.31,199,156.44,199.49,157.31,199.25Zm-16.35-24c.09.85.57,1,1.32.82,1.13-.3,2.27-.67,3.36-1.08.4-.15.93-.35,1.1-.79.39-1-1-3-1.35-3.87-.19-.47-.47-.69-1-.47-.78.33-1.6.47-2.38.77a2.09,2.09,0,0,0-1.05.77,2.21,2.21,0,0,0-.28,1.29c0,.35.05.71.09,1.07S140.91,174.77,141,175.27Zm10.2-7.53c-.76-.52-1.89-.12-2.66.2a2.73,2.73,0,0,0-2,2.89,2.68,2.68,0,0,0,2.15,2.56,3.46,3.46,0,0,0,2.8-1.14,3.75,3.75,0,0,0-.33-4.51Zm-45.46,5.58c1.44,1.92.36,4.08,2.41,5.67C108.08,176.26,108.53,174.25,105.7,173.32Z"/><path d="M117.78,93.16c.46-1.84,2.37-3.21,3.81-4.09a13.58,13.58,0,0,1,5.63-1.73c.43-.06,1.28-.16.82-.84a1.09,1.09,0,0,0-1-.45C122.63,85.93,116.65,87.7,117.78,93.16Z"/><path d="M125,93a2.51,2.51,0,0,0-2.52,2.83,2.68,2.68,0,0,0,3.15,2.22,2.4,2.4,0,0,0,2-2.7A2.44,2.44,0,0,0,125,93Z"/></g><polygon class="cls-6" points="351.29 15.19 215.56 66.62 215.58 132.47 351.42 42.87 351.29 15.19"/><path class="cls-6" d="M215.63,199.68l83.64-.76,52.16-39.12V109.12C347.75,111.36,260.71,162.69,215.63,199.68Z"/><g id="DH0Hhi.tif"><path class="cls-7" d="M219.32,2h132a5,5,0,0,1,2.43,4.92c-.05.71,0,1.43,0,2.15V198.86a15.76,15.76,0,0,1-.24,4.28,1.15,1.15,0,0,1-1.71.66c-1.53-.69-3.24-.92-4.63-1.94-.51-.59-.85-1.3-1.34-1.91-1.48-1.51-1.67-3.38-1.66-5.37q0-27.84,0-55.66V14.5a13,13,0,0,0-.21-3.42,1.5,1.5,0,0,0-1.42-.77c-3.77.07-7.54-.18-11.31.15a2.49,2.49,0,0,1-.77,0,105.59,105.59,0,0,0-15.3.15,25.47,25.47,0,0,1-6.47,0,8.19,8.19,0,0,0-2.31-.3H286.59a7.81,7.81,0,0,0-2.31.31,46.12,46.12,0,0,1-9.1,0,9.28,9.28,0,0,0-3-.31H233a9.29,9.29,0,0,0-3,.33c-4,.46-4,.46-4,4.67q0,90.1,0,180.21c0,1.85.21,3.76-1.27,5.26-2.23,1.5-4.85,1.66-7.38,2.16-.26.05-.46-.27-.6-.53a8.05,8.05,0,0,1-.3-3q0-18.34,0-36.69a7.82,7.82,0,0,1,.31-3c.94-1,1.14,0,1.38.57.45,1.1.15,2.35.62,3.77a21,21,0,0,1-.5-5.37,4.28,4.28,0,0,0-1.49-4,7.67,7.67,0,0,1-.33-3q0-26.15,0-52.3a10.31,10.31,0,0,1,.25-3,10.36,10.36,0,0,0,0-8,13.76,13.76,0,0,1-.26-3.84q0-38.22,0-76.42C216.42,5.58,216.61,3.25,219.32,2Z"/><path d="M364.65,215.31l.48.85v92.47h-.2l-.19,0c-1-1.16-.73-2.58-.73-3.91q0-41.25,0-82.52c0-1.64,0-3.29-.13-4.94C363.8,216.52,363.52,215.59,364.65,215.31Z"/><path class="cls-8" d="M275.21,10.06h9.07q12.24-.33,24.49,0h6.47q7.72-.33,15.46,0h.46a103.29,103.29,0,0,1,13.74.11q0,90.95,0,181.88c0,2.86-.58,5.86,1.78,8.21-.22,1.09-1.12.93-1.86,1-.93.06-1.85.08-2.77.2-11.51-2.26-23.17-2-34.82-2.31-9.94-.24-19.87-.68-29.81-.74-5.5,0-11,.66-16.48,1-5.06.34-10.13.63-15.18,1.09a85.67,85.67,0,0,1-12.41,0A23.42,23.42,0,0,0,227,201a2.49,2.49,0,0,1-2.45-.28c-.19-.14-.88-.25-.56-.32,1.74-.44,1.38-1.71,1.38-2.86q0-92,0-183.94c0-3.42,0-3.42,3.45-3.45.43,0,.86,0,1.29-.06a3.16,3.16,0,0,1,1.26-.13h42.6A3.21,3.21,0,0,1,275.21,10.06Z"/><path class="cls-9" d="M224.51,200.69a35.49,35.49,0,0,1,11.05-.83c8.23.89,16.35-.64,24.51-1,8.41-.4,16.79-1.47,25.22-1.12,11.49.48,23,.65,34.49.93,3.7.09,7.47-.14,11.11.42,3.84.59,7.8.66,11.52,2a8.32,8.32,0,0,1,5.07.51l5.58,2.11c2.56,2.06,5.12,4.1,7.65,6.19a7,7,0,0,1,1,1.35,5,5,0,0,0,1.47,1.94c.38.79,1.39,1.16,1.5,2.15a.81.81,0,0,0-.39,1.24c.65,1.07.42,2.2.43,3.31q0,43.19,0,86.38c0,.78,0,1.57,0,2.36H352.62c-.91-1.12-.63-2.47-.63-3.73q0-34.73,0-69.45a57.22,57.22,0,0,0-2-13.79c-1-4.07-4.2-6.56-8-8.19-4.21-1.83-8.69-2.32-13.21-2.63C302,209,275.19,210.27,248.4,210a77,77,0,0,0-21.27,2.5c-4.88,1.35-7.67,4.45-8.2,9.55a42.25,42.25,0,0,0-.23,4.5q0,39.14,0,78.27c0,1.26.28,2.61-.63,3.73H205.94a5.08,5.08,0,0,1-.16-2.12q0-45.17,0-90.32a4.45,4.45,0,0,1,.18-2.11,1.55,1.55,0,0,1,.35-2.17c1.81-1.47,2.79-3.66,4.5-5.21a1.68,1.68,0,0,1,.29-.24,6.51,6.51,0,0,1,2-1.48c1.13-1.18,2.78-1.37,4.12-2.16C219.52,201.64,222.13,201.56,224.51,200.69Z"/><path class="cls-10" d="M275.21,10.06H230.08c.53-.53,1.21-.36,1.83-.36h41.46C274,9.72,274.67,9.55,275.21,10.06Z"/><path class="cls-11" d="M217.24,159.38V155.1c1.13-.14,1.71.22,1.67,1.51-.08,2.63,0,5.26-.27,7.94Z"/><path class="cls-12" d="M308.77,10.06H284.28a1.75,1.75,0,0,1,1.41-.35h21.67A1.76,1.76,0,0,1,308.77,10.06Z"/><path class="cls-13" d="M330.7,10.06H315.24c1.64-.77,3.38-.36,5.05-.32C323.76,9.83,327.25,9.28,330.7,10.06Z"/><path class="cls-14" d="M217.24,96.15v-7.3a.79.79,0,0,1,.78.85c0,1.86,0,3.72,0,5.59A.8.8,0,0,1,217.24,96.15Z"/><path class="cls-15" d="M344.9,10.17l-13.74-.11c3.55-.8,7.15-.2,10.72-.32C342.87,9.7,344,9.29,344.9,10.17Z"/><path class="cls-16" d="M347.48,201.57l-5.07-.51c1.29-1,3,.27,4.29-.8Z"/><path class="cls-17" d="M218.06,308.59c0-28.23-.08-56.46,0-84.68,0-7.57,3.7-11.4,11.86-12.82a100.76,100.76,0,0,1,13.14-1.43c23.48-.88,47-.1,70.45-.39,6.15-.08,12.23.75,18.34,1.15a31.84,31.84,0,0,1,10,2.24c5.53,2.26,8.54,6.2,9.58,12.28,2.08,12.25.95,24.53,1.13,36.79.22,15.62,0,31.24,0,46.86-.93,0-1.86,0-2.79,0h-129C219.92,308.63,219,308.6,218.06,308.59Z"/><path d="M206,214.05q0,47.28,0,94.55c-.8-.51-.36-1.29-.36-1.93q0-45.24,0-90.48C205.58,215.49,205.12,214.63,206,214.05Z"/><path class="cls-18" d="M210.81,206.67c-1,2-2.69,3.59-4,5.43-.27.4-.42,0-.53-.22C207.65,210,208.65,207.84,210.81,206.67Z"/><path class="cls-19" d="M213.1,205a3.43,3.43,0,0,1-2,1.48A1.88,1.88,0,0,1,213.1,205Z"/><path class="cls-20" d="M363.15,213.16c-.88-.35-1.55-.86-1.47-1.94C362.53,211.59,362.8,212.41,363.15,213.16Z"/></g><g id="tWmlvL.tif"><path class="cls-21" d="M363.56,307.94a4,4,0,0,1-.64-2.87c0-4.15-.1-8.31,0-12.46a63.2,63.2,0,0,0-1.31-13.87c-.38-2-.28-3.69,1.22-5.16a2.88,2.88,0,0,0,.89-2.13c-.07-3.64.43-7.3-.53-10.9a6,6,0,0,1-.12-3c1.13-4.75.65-9.52.4-14.31a109.28,109.28,0,0,1,.11-15.67,97.17,97.17,0,0,0,.12-10.52c0-1.6-1-2.78-2-4a95.6,95.6,0,0,0-7.55-7.91c-1.45-.86-2.45-2.28-3.91-3.15-.71-.42-1.31-.59-1.77.31-3.88-.42-7.34-2.34-11.13-3.08-4-.78-7.94-2-12.09-1.69a5.46,5.46,0,0,1-2.52-.46,4.07,4.07,0,0,0-3.29.14c-2.42.94-5,.47-7.41.07-7.85-1.29-15.52.32-23.42-.63a30.8,30.8,0,0,0-6.84-.18c-12,1.14-24.36.08-36.28,1.72a84,84,0,0,1-10.72,1c3.91.07,9.8-1.28,15.82-.45a39.12,39.12,0,0,0,10.08-.09c1.07-.13,2.14-.17,3.21-.2,14.11-.31,28.22.21,42.32.55,10.78.27,21.61.77,32.21,3.28A33,33,0,0,1,359,216.42a10.8,10.8,0,0,1,1.77,6.11q0,41.39,0,82.76a3.64,3.64,0,0,1-.65,2.65"/><path class="cls-22" d="M360.11,307.94c0-27.74-.09-55.49.09-83.23a16.48,16.48,0,0,0-5.34-12.55A33,33,0,0,0,341,203.57a83.07,83.07,0,0,0-15.32-2.7c-11.67-1.07-23.39-1.11-35.1-1.46-9.38-.28-18.75-.27-28.12-.18-3.77,0-7.58.52-11.34.23a47,47,0,0,0-9.4-.24c-3.37.41-6.71.12-10.5.41a4.24,4.24,0,0,1,2.55-.95c7.17-.51,14.3-1.25,21.4-2.46,3.14-.53,6.37-.65,9.55-1,5.31-.55,10.61.6,15.9-.06,5.07-.64,10,.1,15,.71,7.48.89,14.92.92,22.46,1.32.14,0,.36.09.42,0,1.8-2.1,3.77-.45,5.73-.45,5.29,0,10.33,1.14,15.39,2.35,2.58.62,5.08,1.57,7.63,2.35.54.16,1,1,1.7.22.93-.23,1.11.67,1.61,1.08,1,.85,2,1.79,3.5,1.52a58.92,58.92,0,0,1,9.47,10.05,3.47,3.47,0,0,1,.83,1.7c.05,3.86.17,7.73-.08,11.58a141.06,141.06,0,0,0,0,16.45c.23,4.33.77,8.7-.44,13a4.61,4.61,0,0,0-.13,2.74c1.34,4.06.51,8.23.74,12.35a1.45,1.45,0,0,1-.64,1.47c-1.78,1.2-2,2.76-1.55,4.85,2.22,9.72,1.07,19.62,1.34,29.45Z"/><path class="cls-23" d="M334.31,257.1c-1.13-2.14-.63-4.49-1.25-6.69-.82-2.94-2.07-4-5-4.44a61.5,61.5,0,0,0-9-.41c-5.16,0-10.34.25-15.48-.08-8.3-.53-16.61-.1-24.9-.42-4-.15-7.9-1.16-11.9-1.26-.51,0-1.13-.15-1-.79s.8-.41,1.24-.44c4-.32,8,.19,12,.48,5.4.41,10.8.33,16.2.36,6.36,0,12.71.49,19.07.51s12.39-.62,18.58-1c1.21-.07,1.53.2,1.52,1.3C334.29,248.51,334.31,252.81,334.31,257.1Z"/></g><g id="hAwH2t.tif"><path d="M365.71,308c-3.83,0-3.84,0-3.84-3.79q0-39.78.07-79.56c0-4.67,0-9.23-3-13.55h0c-3-3.7-2.8-3.57-5.73-.36a14.07,14.07,0,0,0-1.44,2c-1.2,2.13-2.51,4-.77,6.72,1.21,1.9,1.4,4.46,1.4,6.84q0,39.78,0,79.57c0,.43,0,.86,0,1.29,0,.84-.53.85-1.14.86s-1.14-.1-1.13-.9c0-.65,0-1.29,0-1.94q0-37.51-.08-75c0-3.37-.09-6.74-1.69-9.86-.89.06-.9.84-1.17,1.36-3.32,6.57-6.59,13.17-10,19.71a10.37,10.37,0,0,0-1.16,4.93q0,29.67,0,59.35c0,.57,0,1.14,0,1.72a.58.58,0,0,1-.65.65c-.45,0-.88-.06-.92-.63s0-1.29-.05-1.94q0-28.48-.07-57c0-3.75-.32-4.06-4-4.06H238.5c-3.1,0-3.1,0-3.1,3q0,29,0,58.06c0,.58,0,1.15,0,1.72s-.32.86-.93.84-.77-.27-.77-.78,0-1.15,0-1.72q0-29.89,0-59.78a8,8,0,0,0-.95-3.88c-3.59-6.82-7.3-13.58-10.25-20.71a9.65,9.65,0,0,0-1.05-1.55,5.16,5.16,0,0,0-1.53,4.06c-.34,23.79-.24,47.58-.17,71.38,0,3.79,0,7.59-.07,11.39,0,.75.25,1.65-1.06,1.6s-.85-.94-.85-1.54c0-4.38,0-8.75,0-13.12q0-33.87,0-67.73a15.69,15.69,0,0,1,1.76-8.06,1.46,1.46,0,0,0,.18-1.57,22.55,22.55,0,0,0-4.79-7c-.92-.84-1.53-.72-2.33.09a15.31,15.31,0,0,0-4.75,11.1c.06,28.6,0,57.2.11,85.8,0,1.71-.48,2.12-2.13,2.13s-1.81-.64-1.81-2q.06-25.9,0-51.82c0-10.9.16-21.79-.06-32.68-.15-8,3.28-13.77,9.68-18a4,4,0,0,0,2-3.81q-.09-94.19-.08-188.37c0-1.64,0-3.29.06-4.94A6.43,6.43,0,0,1,221.9,0c1.5-.07,3,0,4.52,0H346.19c5.6,0,7.92,2.33,7.92,8q0,95.79,0,191.58a4,4,0,0,0,2.11,4,20.34,20.34,0,0,1,6,5.69,20.12,20.12,0,0,1,3.49,11.6Zm-20.94-203.4h-.07q0-45.9.05-91.81c0-2.07-.69-2.42-2.56-2.42q-57.4.08-114.82,0c-1.75,0-2.48.24-2.48,2.28q.09,92,0,184.05a3.09,3.09,0,0,1,0,.43c-.16,1.36.3,1.68,1.7,1.39a163.69,163.69,0,0,1,21.49-2.7,455.67,455.67,0,0,1,47.47-1.28c15.74.48,31.48,1.1,47,3.9,2,.35,2.2-.3,2.19-2Q344.74,150.49,344.77,104.58Zm-60,137.6c16.12.11,32.23.68,48.35,0a2.66,2.66,0,0,0,2.4-1.79c3.63-7.14,7.2-14.31,10.84-21.44a1.94,1.94,0,0,0-.28-2.51A12.51,12.51,0,0,0,338.3,212c-5.41-.69-10.84-1-16.28-1.2-18.91-.86-37.82-.42-56.73-.44A268.15,268.15,0,0,0,231.41,212a12,12,0,0,0-7.17,3c-1.55,1.49-1.94,2.76-.63,4.54a18.14,18.14,0,0,1,1.39,2.66c2.88,5.68,5.8,11.33,8.59,17a4.52,4.52,0,0,0,4.81,2.93c5.36-.21,10.74-.06,16.12-.06Zm66.28-41.61v-1.93c.11-21.5.26-43,.32-64.5,0-22,0-44,0-66q0-30.33,0-60.64c0-3.36-1.38-4.76-4.69-4.75-2.79,0-5.58.27-8.37.27q-27.72,0-55.46,0c-19.57-.06-39.13-.19-58.7-.27-4.59,0-5.8,1.19-5.91,5.83,0,.72,0,1.44,0,2.15.2,23.36.37,46.71.12,70.07-.18,17.27-.25,34.54,0,51.81.33,21.5.42,43,.61,64.49,0,3.34,0,3.36,3.2,2.42.58-.18,1.65,0,1.46-1.1-.6-3.7-.26-7.42-.27-11.12,0-24.15.11-48.3,0-72.44-.09-15.7.42-31.38.4-47.08,0-18.77,0-37.55,0-56.33,0-1.72.41-2.47,2.27-2.36,2.43.13,4.87,0,7.3,0l50.1,0q30.1,0,60.21-.06c1.78,0,2.37.56,2.34,2.36-.1,5.66-.08,11.32,0,17,.08,19.85-.19,39.71.25,59.56.24,10.74.09,21.49,0,32.24-.15,16.83.09,33.67.14,50.51,0,8.89,0,17.77,0,26.66,0,.7-.41,1.63.74,2S349.62,200.1,351.09,200.57Zm3.26,6.14a22.05,22.05,0,0,0-6.65-3.33c-8-2.31-16.17-3.1-24.37-3.78a450.25,450.25,0,0,0-58.19-1.19c-12.3.58-24.61,1.26-36.76,3.45-4.09.74-8.16,1.61-11.71,4-.46.31-1.75.55-.7,1.46,2.38,2.06,3.81,4.79,5.47,7.53a17,17,0,0,1,9.14-4.55,161.55,161.55,0,0,1,23.56-1.5c20.13-.2,40.26-.19,60.39-.09,6.29,0,12.58.5,18.85,1,5.19.38,10.5.63,14.47,5C349.56,211.44,351.08,208.49,354.35,206.71Z"/><path d="M284.35,302.93h-29c-2.94,0-3.22-.25-3.22-3.17q0-20.53,0-41.07c0-2.44.93-3.35,3.4-3.35l59.12.06c2.31,0,3.48,1,3.49,3.35q0,20.21,0,40.42c0,2.71-1.25,3.77-4.05,3.77H284.35Zm.73-2.18c9.89,0,19.78-.05,29.67,0,1.82,0,2.22-.53,2.21-2.28q-.1-19.56,0-39.12c0-1.56-.41-2.16-2-2.16q-29.78.06-59.55,0c-1.62,0-2.06.57-2.05,2.14q.08,19.78,0,39.56c0,1.54.42,1.86,1.89,1.85C265.16,300.72,275.12,300.75,285.08,300.75Z"/><rect class="cls-24" x="322.77" y="261.87" width="6.61" height="4.84" rx="0.71" ry="0.71"/><rect class="cls-24" x="322.77" y="273.03" width="6.61" height="4.84" rx="0.71" ry="0.71"/><rect class="cls-24" x="322.77" y="284.33" width="6.61" height="4.84" rx="0.71" ry="0.71"/><rect class="cls-24" x="322.77" y="295.63" width="6.61" height="4.84" rx="0.71" ry="0.71"/><rect class="cls-24" x="240.65" y="261.87" width="6.61" height="4.84" rx="0.71" ry="0.71"/><rect class="cls-24" x="240.65" y="273.03" width="6.61" height="4.84" rx="0.71" ry="0.71"/><rect class="cls-24" x="240.65" y="284.33" width="6.61" height="4.84" rx="0.71" ry="0.71"/><rect class="cls-24" x="240.65" y="295.63" width="6.61" height="4.84" rx="0.71" ry="0.71"/></g><path class="cls-25" d="M337.93,197.64a518,518,0,0,0-105.06,0c-2.15.21-4.28.57-6.41,1-1.85.34-3,.19-3-2.18l.28-186.77H344.8l.37,188C345.17,200.45,340.73,197.64,337.93,197.64Z"/><text class="cls-26" transform="translate(256.81 87.06)"><tspan class="cls-27">Y</tspan><tspan x="12.24" y="0">our</tspan><tspan x="0" y="26.88">Ad</tspan><tspan x="0" y="53.76">Here</tspan></text></g></svg>