<svg xmlns="http://www.w3.org/2000/svg" viewBox="0 0 357.66 361.68"><defs><style>.cls-1,.cls-10,.cls-3,.cls-7{fill:#fff;}.cls-1{stroke:#0d3698;stroke-width:4px;}.cls-1,.cls-7,.cls-8{stroke-miterlimit:10;}.cls-2{fill:#0d3698;}.cls-4{fill:#faf0e5;}.cls-5{fill:#212121;}.cls-6{fill:#151308;}.cls-7,.cls-8{stroke:#000;}.cls-7{stroke-width:1.5px;}.cls-8{fill:#f7c4a1;stroke-width:0.5px;}.cls-9{fill:#efefef;}.cls-10{font-size:34.45px;font-family:Heebo-Bold, Heebo;font-weight:700;}.cls-11{letter-spacing:-0.07em;}</style></defs><title>retargeting-3</title><g id="Layer_2" data-name="Layer 2"><circle class="cls-1" cx="189.3" cy="168.36" r="166.36"/><path class="cls-2" d="M39.77,296.23l-3,8.24c-1.52,4.21-3.54,9.09-3.53,13.63A23,23,0,0,0,34.54,326c.9,2.56,1.51,5.24,2.23,7.86a42.47,42.47,0,0,1,1,9.14c.29,6.17,1,12.31,1.44,18.47H72.15l1.25-27.21v-4.52l2.86-17.19-3.13-24.45A57.86,57.86,0,0,0,39.77,296.23Z"/><path class="cls-3" d="M41.51,220,31,221.65,21.74,231l-11.49,8.14L6.16,248.2v3l3.9,4.29-.2,2.9-2.6,1.8-6.19,2.39.9,5.49,2.79,5.72h6.59l2.3,4.92L17.52,280s2.72-.59,5.42,3.9c0,0,5.47,14.18,18.21,12.19,0,0,16.34-8.59,35-8,0,0,3.49-1.84,3.1-8.19l-1.5-10s2-21.55-10.38-35.33l-3.95-2.21Z"/><path class="cls-4" d="M90.27,272.75l-10.78,1.44,1.19-3.07-2.74-.1-12.35,3.63c-12.1-2-23.49-4.42-32-8.39l-9.74-.94c-1.9,3.3-5.91,6.11-11.85,8.47,0,0,.76,7.09,9.11,5.11l48.46-.45H82.45l9.67-5Z"/><path class="cls-4" d="M62.73,223.9l1.3-7.43,2-3.18,5.79,3.18L80.1,212c-2-2,7.74-13.46,7.74-13.46l1.15-3-3.92,1.3-5,.35L75.86,197l-4,2.53-3.23-.73-1.36-2.59a2.7,2.7,0,0,0-2.91-1.39h0L62.73,197l-1.06,3.1,1.65,2.24L62.81,207,61,211.17,60,218l2,6.28Z"/><path class="cls-5" d="M88.36,190.44c-3,1.91-9.81,1.62-20.35-.76a11,11,0,0,0-5.94.31c-4.82,1.64-9.4,2.9-13.22,3l-2,3.61-1.63,4.87-2.78,6.4-3.41,2.87-6,3.73-6.23,5.38L25,223.05l-1.86,5.88,2.77-1.11L31,221.65l5.31-.81,3.9-.8h2.65l3.59,3,2.35,6.84,1,4.78L52,238.8l3.06,2.85,3.62,1L60,245.13l.58,3.23-.69,6.88a15.08,15.08,0,0,0,0,4.93l4.32-7.07,3.31-6.26V235.49L63.32,228,60,219.25v-5.71l2-4.51,1-3.36.36-3.35-1.65-2.24,1.06-3.1,1.63-2.18,1.45-.05,2.82,4,3.23.73,4-2.53,9.21-.16,3.92-1.3.68-2.37Z"/><polygon class="cls-5" points="74.83 249.34 75.43 249.34 76.23 237.72 73.31 229.38 73.07 223.9 74.83 216.59 73.33 215.68 71.86 216.47 66.44 213.98 64.61 214.95 63.03 219.46 63.03 227.27 67.52 235.49 71.66 240.49 74.83 249.34"/><path class="cls-2" d="M42.8,296.23l-7.69,21.31L40.18,335l2.09,26.45H75.18l1.26-27.21v-4.52l2.85-17.19-3.13-24.45A57.86,57.86,0,0,0,42.8,296.23Z"/><polygon class="cls-2" points="64.39 170.71 58.53 170.71 51.26 175.08 47.66 180.37 45.49 187.93 46.81 191.9 48.85 192.96 53.52 192.61 58.89 191.02 65.05 189.43 70.62 190.24 79.29 191.56 84.83 191.54 90.19 189.41 92.56 187.25 90.83 182.36 87.08 177.91 82.73 173.75 78.52 171.39 71.41 169.69 64.39 170.71"/><polygon class="cls-6" points="74.69 271.98 79.87 268.55 101.32 265.32 102.14 265.9 97.55 270.41 95.74 271.52 79.91 274.14 80.87 272.11 80.31 270.97 78.72 270.93 74.69 271.98"/><g id="idUJy6.tif"><path d="M61.67,361.42c.09-6.28,1.73-12.31,2.92-18.43,1.45-7.47,3.84-14.72,5.56-22.12.48-2,.72-4.13,1.26-6.16,2.25-8.53.65-17.09.37-25.65,0-.73-.08-1.07-1.08-.83-2,.49-4,.79-6.07,1.13-.56.1-.75.21-.95.83-.83,2.56-.65,5.27-1.36,7.82-1.13,4-2.77,7.87-7,9.74a13.25,13.25,0,0,1-6.88,1.41c8-1.42,11.84-4.38,13.34-13.41.33-2,.28-4,1.33-6.09a77.87,77.87,0,0,0-13.21,3.51c-2,.79-4.31,1.25-5.94,2.5s-1.22,3.73-2.07,5.57a61.8,61.8,0,0,0-3.18,9.3c-.82,2.95-2.24,6.08-1.83,9.16a45.59,45.59,0,0,0,1.06,5.94c.92,3.44,2.44,6.49,3,10.08,1.13,7.87,1.92,17.82,3.14,25.7.08.49-.69.14-1.47.11s-2.84-17.16-2.84-21.26a54,54,0,0,0-1.89-10.48c-.48-1.59-1.2-3.1-1.56-4.72-.44-2-1.12-7.65-.86-8.52,1.93-6.27,3.7-12.58,6.07-18.72.2-.5.67-1.22.16-1.67s-1,.24-1.59.32c-2.4.32-4.83.67-7.07-.56-3.08-1.69-5.86-3.67-7.66-6.76-1.31-2.26-3-4.3-4.14-6.68-.31-.68-.74-1.44.13-1.9,1.05-.55,1.27.5,1.56,1.06a48.4,48.4,0,0,0,4.91,7.58c2.75,3.56,6.2,6.34,11.26,5.85a25.62,25.62,0,0,0,7.84-2.2c6.69-3,13.81-4.42,21.05-5.37a59.92,59.92,0,0,1,7.59-.24c1,0,1.26-.47,1.79-1.14,1.29-1.59,1-3.44,1.38-5.19.28-1.41-.15-1.84-1.75-1.91-7.32-.32-14.63.31-22,.05-5.48-.2-10.95.06-16.43.3-3.11.15-6.19-.62-9.32-.29s-6.29.61-9.44.83c-5.32.38-6.83-1-8.25-4.56-.31-.78-.57-1-1.46-.81-4.26,1.06-6.29,0-8.06-3.83C1.2,268.9.64,267,0,265.15v-3a14.11,14.11,0,0,1,4.06-1.27,10.92,10.92,0,0,0,4.3-2.34,2.55,2.55,0,0,0,.37-3.83,4.46,4.46,0,0,0-1-.91c-3.34-2.31-3.6-3.09-2.11-6.71.84-2.05,1.68-4.1,2.64-6.09a12.61,12.61,0,0,1,5.27-5.31,110.41,110.41,0,0,0,9.91-7.12,21.13,21.13,0,0,0,5.74-7.07,3.05,3.05,0,0,1,2.74-1.41,34.73,34.73,0,0,1,5.86-.32c.29,0,.68.22.93-.25-1.58-.64-3.26-.49-4.88-.65-.15-.69.31-.83.77-.83,4,0,7.79.72,10.93,3.31a9.92,9.92,0,0,1,3,5.32c1,3.65,1.64,7.44,3.65,10.8,1.09,1.85,2.37,3.31,4.74,3.68s3.33,2.2,3.77,4.32c.77,3.67,0,7.26-.58,10.86a5.89,5.89,0,0,0-.07,2.29c-1.77-1.43-.73-3.22-.51-4.79a23.78,23.78,0,0,0,.17-8.07c-.33-1.75-1-3-3.17-3.28a7,7,0,0,1-4.93-3.35,26.68,26.68,0,0,1-3.4-8.43q-.77-3-1.72-5.88a7.87,7.87,0,0,0-3.53-3.93c-1.28-.84-2.33-.26-3.51.06a10.06,10.06,0,0,1-2.06.2c-1.73.12-3.46.08-5.18.3a2.66,2.66,0,0,0-2.1,1.42,25.21,25.21,0,0,1-3.62,5,75.55,75.55,0,0,1-11.88,8.76,12.41,12.41,0,0,0-5.27,5.49c-.88,2-1.73,4-2.51,6s-.51,2.94,1.25,4.13a6.6,6.6,0,0,1,2.58,8.45A1.88,1.88,0,0,1,9.2,262c0-.9.49-1.67.21-2.78-2,2.13-4.68,2.86-7.32,3.55-.88.23-.69.8-.61,1.29a21.88,21.88,0,0,0,2.81,7.57,3.64,3.64,0,0,0,3.4,1.88c2.94,0,5.37-1.5,8-2.41a11.09,11.09,0,0,0,5.93-4.28c1.38-2.1,3-4,4.53-6.05a2.27,2.27,0,0,1,1.63-1.11c0,1.65-1.15,2.64-2,3.7-2.16,2.81-3.72,6.13-7.21,7.86a35.67,35.67,0,0,1-4.9,2c-1.3.42-1.18,1-.76,1.93,1.37,2.93,3.45,4,7.17,3.43a62.5,62.5,0,0,1,10.48-.76c4.67.06,9.33.3,14,.26,7.1-.05,14.2-.05,21.29,0,2.38,0,4.74-.65,7.07-.29,3.05.47,6.09,0,9.13.26a1.53,1.53,0,0,0,.79-.25,72.12,72.12,0,0,1,8.24-4.66c-2.05-.43-3.64.51-5.36.59a12.35,12.35,0,0,0-2.72.43,11.54,11.54,0,0,1-2.92.21c-.73,0-1.61-.14-1.09,1.05-.62.09-1.33.32-1.65-.43-.25-.58-.09-1,.68-1.23a3.12,3.12,0,0,0,2.33-2.23c-1.36-.44-2.93-.21-3.56.6a3.45,3.45,0,0,1-3,1.14,10.8,10.8,0,0,0-4,.85,11.54,11.54,0,0,1-6.06.77,119.12,119.12,0,0,1-22-4.86c-3.38-1.08-6.67-2.45-10.18-3.11a64,64,0,0,0-6.77-.91,20.34,20.34,0,0,1,11.67.53c3.31,1.12,6.52,2.54,9.9,3.42,5.25,1.37,10.62,2.37,15.84,3.89a8.53,8.53,0,0,0,4.62.25c3.17-1.11,6.71-1.51,9.4-3.74.41-.34,1-.49,1-1.22.14-5.91.18-11.82-1.5-17.59-.1-.35,0-1-.62-1-1-.11-1.13-.9-1.31-1.65A46.77,46.77,0,0,0,69,237.13c-.12-.22-.24-.51-.61-.44v6.63a13.72,13.72,0,0,1-1.5,6.72c-2,3.67-5,6.78-6.26,10.83-.08.27-.19.58-.55.5a.57.57,0,0,1-.4-.66c.09-.71.22-1.41.34-2.11,1.78-3.46,4.47-6.41,6-10a9,9,0,0,0,.9-4c-.12-3,.36-6.09-.23-9.1s-2.56-5.6-4.28-8.21c-3.88-5.91-4.28-12-1.1-18.37a8.07,8.07,0,0,0,.13-7.76c-1-1.93,1.33-6.31,3.5-6.88a2.33,2.33,0,0,1,2.2.66c.86.71.31,1.57.35,2.32-.51.11-.71-.07-.76-.26-.18-.8-.45-1.54-1.46-1.54s-1.31.72-1.61,1.35c-.77,1.68-2.34,3.39,0,5.14.54.4-.19,1-.13,1.62a13.61,13.61,0,0,1-1.74,7.82c-1.95,3.8-.79,7.61.11,11.42.38-1.73.78-3.46,1.14-5.2a5.84,5.84,0,0,1,1.82-3.48c.41-.35.86-.78.37-1.41-.21-.27-.32-.66,0-.88s.63.11.87.33A25.65,25.65,0,0,0,69,214.8c2.4,1.61,2.82,1.72,5.15,0a18.27,18.27,0,0,1,4.44-2.49A1.64,1.64,0,0,0,79.68,211a17.07,17.07,0,0,1,5.12-9.31c2.39-2.14,2.9-3.33,2.77-5.5-3.39,1.9-7,1.33-10.63,1a2.47,2.47,0,0,0-2.26,1.19c-1.78,2-4.86,1.69-6,.48-.31-.34-1-.72-.54-1.2s.74.24,1.07.48a3.32,3.32,0,0,0,4.64-.34,4.35,4.35,0,0,1,3.68-1.34c1.73.1,3.47,0,5.19,0a8.69,8.69,0,0,0,5.2-1.43c1.2-.76,1.4-3.11.25-3.95a1,1,0,0,0-.73.06c-4.1,1.72-8.24,1-12.36.11a39.45,39.45,0,0,0-11.46-1.18,9.55,9.55,0,0,0-3.12.74,23.32,23.32,0,0,1-9.08,2.29c-.17,0-.41-.06-.51,0-1.36,1.06-2.7.74-4-.13a4.92,4.92,0,0,1-1.88-4.26A16.76,16.76,0,0,1,48.36,178c2.56-3.39,5.53-6.41,10-7.53,2.39-.61,4.9-.62,7.31-1,4.93-.76,9.43.38,14,1.8s7.36,4.58,10,8c1.64,2.09,2.93,4.28,3,7.05,0,2.53-1.74,3.39-3.71,4.28,1.42,1.62,2,3.55,1.06,5.35-1.44,2.71-2.55,5.73-5.39,7.54-2,1.28-2.31,3.46-3.15,5.34a6.17,6.17,0,0,0-.73,3,1.23,1.23,0,0,1-.88,1.31c-3.73,1.16-4.8,4.19-5.49,7.35s-1.3,6.56-.18,9.83c.62,1.81,1.78,3.41,2.16,5.36.79,4,.29,8,0,12a4,4,0,0,0,0,1.47,47.45,47.45,0,0,1,2,19.15,6.32,6.32,0,0,0,.06,1c3.87-2.43,8.32-2,12.45-3,3.37-.82,6.94-.91,10.42-1.34.51-.06.9,0,1.14.49a.92.92,0,0,1-.23,1.2c-2.62,2.39-4.66,5.58-8.82,5.81-.86.05-.91.89-1.51,1.23-2.69,1.5-5.31,3.09-8,4.64a2.91,2.91,0,0,1-1.44.48c-2.07,0-3.16.95-2.52,2.62s-.13,2.62-.94,3.53c-1.1,1.23-1,3-2.31,4.1-.31.26-.11,1.17,0,1.77,1.23,7.47,2.47,14.94,2.68,22.51.09,3.16-.75,6.25-1.24,9.35-.55,3.56-1.38,7.19-1.06,10.69.55,5.86-.7,11.55-.85,17.33-.1,3.57-.64,7.14-1,10.71H73.45c.27-2.8.64-5.6.78-8.4.26-5.4,1.25-10.74,1.31-16.15a117.31,117.31,0,0,1,.94-13.37c.55-4.32,1.52-8.59,1.53-13,0-2.44-.48-4.8-.7-7.2a108.23,108.23,0,0,0-1.65-13.77c-.25-1.14-.84-1.05-1.66-1.09-1,0-.93.58-.9,1.2,0,.94.08,1.88.13,2.82.55,9.23.66,18.43-1.4,27.55-1.78,7.92-4.32,15.66-5.93,23.62-1.2,5.9-2.68,11.75-3.19,17.76ZM73.74,170.74c-2.56-.18-5,.56-7.47,1a10.72,10.72,0,0,0,5.81.14c.15,0,.4-.17.39-.23-.21-1.12.71-.8,1.28-.94a1.47,1.47,0,0,1-1,1.38,11.06,11.06,0,0,1-6.57.73c-.68-.09-1.58-.34-1.09-1.41.34-.74-.3-.53-.62-.56a15.57,15.57,0,0,0-3.6.32,15.29,15.29,0,0,0-12.37,8.68c-1.58,3.19-2.69,6.58-1.78,10.23a2.89,2.89,0,0,0,2.62,2.48,12.68,12.68,0,0,0,3.24-.31A65.32,65.32,0,0,0,61,189.75c4.61-1.48,9.3-.78,13.93.24s9.13,1.8,13.63-.45c2.2-1.1,2.63-1.64,2.11-3.95a4.8,4.8,0,0,0-.48-1.41c-2.43-4.31-5.33-8.34-9.64-11.05C78.56,171.9,76,171.51,73.74,170.74Zm1.47,76.76c0-2.9-.08-5.81,0-8.72a14.47,14.47,0,0,0-1.35-6.22c-1.17-2.77-2.49-5.51-1.87-8.73a30.79,30.79,0,0,1,1.55-5.89c.18-.45.54-1,.12-1.38s-1,0-1.34.35a1.44,1.44,0,0,1-1.88.18,8.84,8.84,0,0,1-3-1.92c-1-1.19-1.61-.78-2.27.18a5.33,5.33,0,0,0-.57,1c-2.44,6.1-1.53,11.8,2.84,16.72C71.29,237.36,73.44,242.28,75.21,247.5Zm5.35,26.29c4.61-.84,9.21-1.65,13.8-2.55,1.87-.37,6.16-3.76,7-5.34a167,167,0,0,1-16.66,2.22c-3.49.21-6.27,1.91-9.11,3.55A12.55,12.55,0,0,0,78,271c1.07-.4,2.28-1,3.21-.11s-.34,1.77-.66,2.64C80.52,273.57,80.54,273.62,80.56,273.79Z"/><path d="M50.42,194.39a5.58,5.58,0,0,0-4,4.72,24.4,24.4,0,0,1-2,6.46c-1.85,3.68-5,6-8.55,7.94a27.25,27.25,0,0,0-10.4,9.18c-.08.12-.25.19-.48.36a6.69,6.69,0,0,1,2-4.38,25.12,25.12,0,0,1,7.4-5.87c5.93-3,10.05-7.25,10.74-14,.18-1.78,1.38-3.11,2.72-4.29C48.51,194,49.26,194,50.42,194.39Z"/><path d="M109.11,254.52c-.16.2-.37.46-.56.73-1.16,1.57-2,3.35-3.39,4.75-.24.23-.44.58-.84.41s-.35-.55-.24-.85a10.73,10.73,0,0,1,4.25-5.43C108.86,253.79,109.17,254,109.11,254.52Z"/><path d="M106.79,262.44c-.32,0-.57-.07-.6-.31a.82.82,0,0,1,.18-.59,5.64,5.64,0,0,1,1.87-1.1c1.6-.61,3.15-1.32,4.81-1.78.44-.12.82-.1,1,.37s-.15.66-.49.75c-2.23.56-4.18,1.77-6.34,2.49Z"/><path d="M108.82,264.91c2.09-.29,3.59.6,5.16,1.17a.94.94,0,0,1,.62,1.22c-.23.44-.8.27-1.23.08C111.87,266.73,110,266.71,108.82,264.91Z"/><path d="M74.14,212.59a.54.54,0,0,1-.56.52c-.53,0-.89,0-.5.64.17.29-.11.5-.42.56a.87.87,0,0,1-1-.41,1.66,1.66,0,0,1,.26-2,1,1,0,0,1,1.38-.23C73.72,211.88,74.09,212.08,74.14,212.59Z"/><path d="M76.87,203.67c1-1.54,2.45-1.34,3.79-1.35.25,0,.62,0,.67.37s-.32.59-.64.62C79.52,203.45,78.33,203.54,76.87,203.67Z"/><path d="M79.64,206.66A1.26,1.26,0,0,1,78.49,208a.83.83,0,0,1-1.1-.74c0-.72.54-1.16,1.33-1.2C79.21,206,79.62,206.16,79.64,206.66Z"/><path d="M45.6,351.59c-.81-8.53.16-17.06.08-25.59C46.27,334.53,45.34,343.06,45.6,351.59Z"/></g><path class="cls-3" d="M233,327.31V251.49h36.77a310.85,310.85,0,0,0-6,64Z"/><rect class="cls-7" x="118.12" y="50.22" width="139.12" height="251.43" rx="1.86" ry="1.86"/><rect class="cls-8" x="124.91" y="76.07" width="126" height="199.75" rx="0.38" ry="0.38"/><circle class="cls-9" cx="187.91" cy="288.26" r="7.94"/><rect class="cls-9" x="174.88" y="62.57" width="26.06" height="3.91" rx="0.79" ry="0.79"/><text class="cls-10" transform="translate(148.52 148.33)"><tspan class="cls-11">Y</tspan><tspan x="18.83" y="0">our</tspan><tspan x="0" y="41.35">Ad</tspan><tspan x="0" y="82.69">Here</tspan></text><g id="_6tFk3r.tif" data-name="6tFk3r.tif"><path class="cls-4" d="M92.56,175.26c-.1-2.54,1-5,2.12-7.29a18.37,18.37,0,0,1,7.22-7.38c4.26-2.52,9-.56,12.49,2.42a75.84,75.84,0,0,1,7.27,7.92c2.08,2.41,4.18,4.83,6.09,7.38a45.64,45.64,0,0,1,8.57,18c.69,3.25,1.45,9.51-2.44,13.35-1.76,1.74-5.68,2.16-7.7,1.16a59.91,59.91,0,0,1-7.61-4.57,44.51,44.51,0,0,1-7.68-7c-3.58-3.94-7.57-7.49-11.17-11.4a49.94,49.94,0,0,1-5-6.28,16.09,16.09,0,0,1-1.9-4.87A7.74,7.74,0,0,1,92.56,175.26Z"/><path class="cls-4" d="M139,150.84c0,1,0,7.37-5.3,8.59s-8.33-.53-13.66-3.37A77.37,77.37,0,0,1,108,148.39a71.34,71.34,0,0,1-8.5-8.53c-3.07-3.46-5.69-6.74-6.39-11.45a18,18,0,0,1,2.27-11.78,14.62,14.62,0,0,1,5.65-5.86c2.61-1.29,6.17-1.11,8.89-.29,3.85,1.16,7,4.64,9.85,7.33,3.3,3.11,6.41,6.42,9.48,9.76,1.24,1.34,2.43,2.74,3.63,4.12,2.41,2.78,3.63,6.38,4.6,9.88C138.49,145.32,139,147,139,150.84Z"/><path class="cls-4" d="M102.65,211.65a17.1,17.1,0,0,1,8.84.15,18.07,18.07,0,0,1,7.54,4.61c3,2.76,6.64,5.19,9.05,8.54,1.19,1.65,7.22,11.72,7.64,16.38.48,5.4-.93,7.38-2.13,8.29-3.09,2.37-6.52,2.52-7,2.32-3.86-1.64-4.27-2.39-7.76-4.7C110.06,241.42,101,233.9,96.78,224a9.52,9.52,0,0,1-.89-3.37,9.74,9.74,0,0,1,4.43-8A8.19,8.19,0,0,1,102.65,211.65Z"/><path class="cls-4" d="M116.93,103.61A60.24,60.24,0,0,1,107.35,97a68.59,68.59,0,0,1-8.66-9.21c-2-2.47-4-4.88-5.84-7.46S90.3,75,88.4,72.6c-1.2-1.49-2.88-3-3.45-4.87s.14-4.25,1.1-5.93a10.35,10.35,0,0,1,7.47-5.13c2.84-.47,4.63,1.36,7,2.52s5.19,2.16,7.7,3.41c3,1.49,5.88,3.11,8.76,4.77C118.12,68,118.53,104.52,116.93,103.61Z"/></g><g id="_6tFk3r.tif-2" data-name="6tFk3r.tif"><path d="M87.92,172.23c-.1-2.54,1-5,2.13-7.29a18.35,18.35,0,0,1,7.21-7.38c4.26-2.52,9-.56,12.49,2.42A74.67,74.67,0,0,1,117,167.9c2.08,2.41,4.18,4.83,6.1,7.38a45.62,45.62,0,0,1,8.56,18,57.5,57.5,0,0,1,.93,9.89,6.92,6.92,0,0,1-3.82,6.18c-2.29,1-5.23-.56-7.25-1.56a60.62,60.62,0,0,1-7.61-4.57,44.88,44.88,0,0,1-7.68-7c-3.57-3.94-7.56-7.49-11.17-11.4a49.94,49.94,0,0,1-5-6.28,16.09,16.09,0,0,1-1.9-4.87A7.74,7.74,0,0,1,87.92,172.23Zm42.57,30a44,44,0,0,0-7.84-23.82c-2.08-3.1-4.26-6.15-6.63-9s-5.06-5.4-7.68-8c-1.91-1.92-3.41-3.08-6.29-3.13C93.52,158.08,91,165.7,89.72,169c-3.07,8.12,10.36,17.8,14.42,22.47,5.69,6.54,13.56,13.42,22.14,15.65,2.55.66,4.17-1.15,4.21-3.62C130.5,203.08,130.5,202.65,130.49,202.23Z"/><path d="M134.86,149.64c0,1,0,2,0,3a3.71,3.71,0,0,1-3.16,3.82c-6.06,1.09-11-.62-16.29-3.46a77.37,77.37,0,0,1-12.06-7.67,69.88,69.88,0,0,1-8.5-8.53c-3.07-3.46-5.7-6.74-6.4-11.45a18,18,0,0,1,2.27-11.78,14.64,14.64,0,0,1,5.66-5.86c2.6-1.29,6.16-1.11,8.88-.29,3.86,1.16,7,4.64,9.85,7.33,3.3,3.11,6.41,6.42,9.48,9.76,1.24,1.34,2.43,2.74,3.63,4.12,2.41,2.78,3.63,6.38,4.6,9.88C133.85,142.29,134.86,145.76,134.86,149.64Zm-1.8.11a56.27,56.27,0,0,0-2.39-10.81c-3-10.29-11.27-17.55-18.82-24.74-1.61-1.54-3.43-2.86-5.17-4.26-2.22-1.78-7.08-1.57-9.55-.42a12.64,12.64,0,0,0-6.08,7.35,34.25,34.25,0,0,0-1,7.73,10.05,10.05,0,0,0,2.45,6.68c4.06,5.43,9.15,11.42,15,14.94,2.24,1.35,4.31,3,6.57,4.28a54.5,54.5,0,0,0,7.64,3.33c2.4.91,5.07,2.31,7.77,2C133,155.39,133.33,152.78,133.06,149.75Z"/><path d="M98,208.62a17.14,17.14,0,0,1,8.85.15,18.2,18.2,0,0,1,7.54,4.61c3,2.76,6.64,5.19,9,8.54,1.18,1.65,2.16,3.54,3.18,5.3,2.31,4,4.93,8.32,6.18,12.84a11.82,11.82,0,0,1,.2,4.51c-.26,2.23-4.24,5.89-6.45,6.12a2.86,2.86,0,0,1-1.47-.3,67.9,67.9,0,0,1-10.88-6.18c-8.79-5.82-17.81-13.34-22.06-23.27a9.53,9.53,0,0,1-.9-3.37,9.72,9.72,0,0,1,4.44-8A8.13,8.13,0,0,1,98,208.62Zm4.09,1.19c-.23,0-4,.15-5.31,1.07a8.33,8.33,0,0,0-2.66,9.72c3.26,7,8.66,12.81,14.72,17.52a87,87,0,0,0,9.79,6.55c2.33,1.35,7,5.14,9.61,3.15,2.27-1.72,3.51-3.92,2.84-6.82a40.84,40.84,0,0,0-3.68-10.3c-1.71-3.16-3.38-6.25-5.93-8.81a86,86,0,0,0-8.78-8,22.19,22.19,0,0,0-6-3.47A11.5,11.5,0,0,0,102.1,209.81Z"/><path d="M117.16,68.78l0,0c-.37.18-1.59-.78-1.91-1-5.06-2.77-10-5.82-15.26-8.14a14.8,14.8,0,0,0-7.25-1.32A7.38,7.38,0,0,0,86.47,65a20.58,20.58,0,0,0,1.12,7.74c1.06,2.82,3.34,5.55,5.11,8a66.57,66.57,0,0,0,6.61,7.81,67.4,67.4,0,0,0,16.34,12.23,4.06,4.06,0,0,1,1.31.93,1.31,1.31,0,0,1,.19,1.49c-5.1-2.7-10.05-5.45-14.44-9.22a69.24,69.24,0,0,1-8.66-9.21c-2-2.47-4-4.88-5.84-7.46s-2.55-5.4-4.45-7.77c-1.19-1.49-2.88-3-3.45-4.87s.14-4.25,1.1-5.93a10.37,10.37,0,0,1,7.47-5.13c2.84-.47,4.63,1.36,7,2.52,2.53,1.23,5.19,2.16,7.71,3.41,4.14,2.07,8.14,4.4,12.14,6.73a4.25,4.25,0,0,1,1.29,1C117.25,67.62,117.59,68.5,117.16,68.78ZM93.37,56.55c-2.27-1.89-6.26-1.11-8.89,1.56s-2.37,7.14-1.57,8.39.89.8,1.79,1.94c-.34-.43-.2-1.92-.19-2.46a11,11,0,0,1,.22-2.21,8.17,8.17,0,0,1,1.57-3.42,9,9,0,0,1,2.84-2.3,35,35,0,0,1,3.79-1.37C93.06,56.62,93.23,56.6,93.37,56.55Z"/><path d="M122.86,200.7c-2.29.65-4.33.61-6.1-1.09a3.57,3.57,0,0,1-1-4.11c.72-1.92,1.71-2.66,3.59-2.68a10.68,10.68,0,0,0,2.58-.18c.71-.19,1.09.19,1.22.86s-.34.83-.87,1a8.65,8.65,0,0,1-2.91.12c-1.15-.1-1.63.59-2,1.42a2,2,0,0,0,.31,2.32,6,6,0,0,0,4.16,2C122.1,200.41,122.49,200.25,122.86,200.7Z"/><path d="M121.46,139.27a6.29,6.29,0,0,1-1.18.84,7.38,7.38,0,0,0-1.64,1.35c-1.29,1.59-1.48,4.68.3,6a8.48,8.48,0,0,0,2.25,1,7,7,0,0,1,2.55,1.48,2,2,0,0,1,.73,1.9,39.81,39.81,0,0,1-4-2c-2.06-1.21-4-2.36-4.34-4.92a5.26,5.26,0,0,1,3-5.62C119.82,139,121,138.65,121.46,139.27Z"/><path d="M122.65,244.21a3.82,3.82,0,0,1-2-1.26,7.47,7.47,0,0,1-1.26-6.54,2.27,2.27,0,0,1,2-1.79.74.74,0,0,1,.81.4c.31.65-.61,1.1-.9,1.59a4.09,4.09,0,0,0-.39,2.62C121.09,240,121.77,243.89,122.65,244.21Z"/></g><g id="LaPxYf.tif"><path class="cls-4" d="M171.64,332.4a87.64,87.64,0,0,0-1.06-10.95,112.32,112.32,0,0,0-5-19c0-.11.13-.06.54-.08,7.68-.45,91.19,1.47,91.3,0,1-12.88.47-31.52.6-50.8.29-43.28,0-90.79,0-90.79-6.23-8.35-10-22.47-12.11-32.39-1.89-8.81-3.95-19-4.91-28s-.24-15.49,4.22-23.32c3.62-6.35,7.35-11.79,14.26-14.2,1.39-.48,3.1-.81,4.2.18a4.5,4.5,0,0,1,1.11,2.66c5.61,31.58,10.56,63.32,18.64,94.37a87.92,87.92,0,0,1,3.19,22.53c0,5.19,0,10.39-.46,15.57-.18,1.86-.44,3.72-.71,5.58a92.11,92.11,0,0,1-12.15,33.81c-2.27,3.82-4.49,7.65-6.76,11.47a4,4,0,0,0-.6,2.35,26,26,0,0,1-.69,7,196.39,196.39,0,0,0-4.68,44.25c0,4.59.25,9.7.51,14.28C232.26,331.05,202.33,335.25,171.64,332.4Z"/></g><g id="LaPxYf.tif-2" data-name="LaPxYf.tif"><path d="M263.91,315.47a168.62,168.62,0,0,1-.32-18.69c.29-6.45.44-12.91,1-19.34a138.69,138.69,0,0,1,2.44-14.61c.46-2.34,1-4.65,1.56-7a4.83,4.83,0,0,0,.08-2.13c-2.14,3.64-4.29,6.92-6.1,10.41-1.58,3.07-3.38,6.54-4.67,9.74l-.1-6.23c4.25-8.33,9.84-16.44,14.53-24.51a173.52,173.52,0,0,0,9.49-17.61,84.23,84.23,0,0,0,5.57-18.27c.5-2.72,1.25-5.38,1.52-8.15.28-2.94.55-5.89.56-8.85,0-5.06.09-10-.35-15.1-.41-4.73-1.86-9.28-3-13.93-2.62-10.59-4.91-21.25-7-31.95-4.17-21.43-7.49-43-10.81-64.59-7.3-.3-14.1,4.52-18,10.73-6.5,10.45-6.64,22.9-3.79,34.55,1.4,5.74,6.16,29.61,8.44,35.55,1.54,4,3.95,7.91,3.85,12.22-6.23-8.35-7.72-18.52-9.84-28.45-1.88-8.81-4.46-17.5-5.42-26.46s-.17-18.4,4.28-26.23a30.89,30.89,0,0,1,16.5-13.74c1.39-.48,3.11-.81,4.2.18a4.57,4.57,0,0,1,1.12,2.66c5.61,31.58,10.56,63.32,18.64,94.37a88.36,88.36,0,0,1,3.19,22.53c0,5.19,0,10.39-.47,15.57-.18,1.86-.44,3.72-.71,5.58a91.93,91.93,0,0,1-12.15,33.81c-2.26,3.82-4.49,7.65-6.75,11.47a4,4,0,0,0-.61,2.35,26.44,26.44,0,0,1-.68,7,197,197,0,0,0-4.69,44.25q.06,6,.38,12Z"/><path d="M178.37,333a96.09,96.09,0,0,0-1-11.51,114,114,0,0,0-5-19.18h2.15c.89,2.46,1.69,5.12,2.17,6.85a93,93,0,0,1,3,17c.17,1.87.29,5,.37,6.9C180.06,333.06,178.37,333,178.37,333Z"/><path d="M183.14,302.34c2.13,1.66,4.54,3.64,4.54,4.44-2.2-1.41-4.32-2.91-6.43-4.46Z"/><path d="M264.56,75.27c.94,5,2.54,9.63,3.55,14.42a15.47,15.47,0,0,0,1.77,4.51c.66,1.17,1.58.53,2.52,1.25.23.17.47.49.29.71a.61.61,0,0,1-.22.13c-1.94.77-2.85.66-4.07-1.17a13.21,13.21,0,0,1-1.65-4c-1-4.82-2.32-9.6-2.37-14.59,0-.28,0-.57,0-.86C264.38,75.6,264.45,75.52,264.56,75.27Z"/></g></g></svg>