<svg xmlns="http://www.w3.org/2000/svg" viewBox="0 0 162.34 309.71"><defs><style>.cls-1{fill:#aab7be;opacity:0.18;}.cls-2{fill:#1e1432;}.cls-3{fill:#fbfaf6;}.cls-4{fill:#c3cafe;}.cls-5{fill:#040404;}.cls-6{fill:#030204;}.cls-7{fill:#121213;}.cls-8{fill:#0c0c0c;}.cls-9{fill:#050308;}.cls-10{fill:#060606;}.cls-11{fill:#060509;}.cls-12{fill:#a0a6d6;}.cls-13{fill:#494a50;}.cls-14{fill:#6d6e76;}.cls-15{fill:#747581;}.cls-16{fill:#fefefe;}.cls-17{fill:#f2f6f8;}.cls-18{fill:#bcc0e4;}.cls-19{fill:#231f20;}.cls-20{fill:#f7c4a1;}.cls-21{font-size:22.68px;fill:#fff;font-family:Heebo-Bold, Heebo;font-weight:700;}.cls-22{letter-spacing:-0.07em;}.cls-23{letter-spacing:0em;}</style></defs><title>retargeting-1</title><g id="Layer_2" data-name="Layer 2"><polygon class="cls-1" points="149.21 15.25 13.01 66.86 13.03 132.93 149.34 43.02 149.21 15.25"/><path class="cls-1" d="M13,200.37,97,199.61l52.34-39.25V109.5C145.62,111.75,58.27,163.25,13,200.37Z"/><g id="DH0Hhi.tif"><path class="cls-2" d="M15,2h132.5A4.93,4.93,0,0,1,149.9,6.9c0,.72,0,1.44,0,2.16V199.55a15.45,15.45,0,0,1-.25,4.29,1.13,1.13,0,0,1-1.71.66c-1.53-.69-3.25-.91-4.65-1.94-.51-.59-.85-1.3-1.34-1.92-1.48-1.51-1.67-3.39-1.67-5.39q0-27.93,0-55.85,0-62.43,0-124.85a12.7,12.7,0,0,0-.21-3.43,1.5,1.5,0,0,0-1.42-.77c-3.78.06-7.56-.19-11.34.15a2.91,2.91,0,0,1-.78,0,103.49,103.49,0,0,0-15.35.15,25.25,25.25,0,0,1-6.5,0,8.21,8.21,0,0,0-2.32-.3H82.47a7.93,7.93,0,0,0-2.32.32,47.1,47.1,0,0,1-9.12,0,9.34,9.34,0,0,0-3-.31H28.7a9.08,9.08,0,0,0-3,.33c-4,.46-4,.46-4,4.68V196.19c0,1.86.21,3.78-1.28,5.29-2.23,1.5-4.87,1.66-7.4,2.16-.26.06-.47-.27-.6-.53a7.92,7.92,0,0,1-.31-3q0-18.4,0-36.81a7.64,7.64,0,0,1,.32-3c.94-1,1.13,0,1.38.57.45,1.1.15,2.36.62,3.78a21.14,21.14,0,0,1-.5-5.39,4.3,4.3,0,0,0-1.5-4,7.86,7.86,0,0,1-.33-3V99.86a10.71,10.71,0,0,1,.25-3,10.39,10.39,0,0,0,0-8.06A13.9,13.9,0,0,1,12.12,85c0-25.56,0-51.12,0-76.68C12.07,5.6,12.25,3.27,15,2Z"/><path d="M160.8,216.05l.48.86V309.7h-.19l-.2,0c-1-1.16-.73-2.59-.73-3.92q0-41.4,0-82.81c0-1.65,0-3.3-.13-4.95C160,217.27,159.68,216.34,160.8,216.05Z"/><path class="cls-3" d="M71.06,10.09h9.1q12.28-.31,24.57,0h6.5q7.76-.33,15.51,0h.46A103.87,103.87,0,0,1,141,10.2q0,91.26,0,182.52c0,2.87-.58,5.88,1.8,8.24-.22,1.09-1.13.93-1.87,1-.93.05-1.86.07-2.78.19-11.55-2.26-23.26-2-34.95-2.31-10-.24-19.93-.69-29.91-.74-5.51,0-11,.66-16.53,1-5.08.34-10.17.63-15.24,1.1a87.68,87.68,0,0,1-12.45,0,22.78,22.78,0,0,0-6.43.47,2.53,2.53,0,0,1-2.46-.28c-.19-.14-.88-.25-.56-.33,1.74-.44,1.39-1.71,1.39-2.87V13.62c0-3.44,0-3.44,3.47-3.47.43,0,.86,0,1.29-.05A3,3,0,0,1,27,10H69.79A3.22,3.22,0,0,1,71.06,10.09Z"/><path class="cls-4" d="M20.18,201.39a35.42,35.42,0,0,1,11.09-.84c8.26.9,16.41-.64,24.6-1,8.43-.41,16.84-1.48,25.3-1.12,11.53.47,23.07.65,34.61.93,3.72.09,7.5-.15,11.15.42,3.86.59,7.83.66,11.56,2a8.32,8.32,0,0,1,5.09.51l5.6,2.11c2.56,2.07,5.14,4.12,7.67,6.22a6.4,6.4,0,0,1,1,1.35,4.88,4.88,0,0,0,1.47,2c.39.79,1.4,1.16,1.5,2.15a.82.82,0,0,0-.38,1.25c.65,1.08.42,2.21.42,3.32q0,43.33,0,86.68c0,.79,0,1.58,0,2.37l-12.15,0c-.92-1.12-.63-2.47-.64-3.73q0-34.85,0-69.7a57.07,57.07,0,0,0-2-13.83c-1-4.08-4.21-6.59-8-8.23-4.22-1.83-8.72-2.32-13.26-2.63-26.87-1.82-53.77-.53-80.66-.76a77.5,77.5,0,0,0-21.34,2.5c-4.9,1.36-7.7,4.47-8.23,9.59a42.49,42.49,0,0,0-.23,4.52q0,39.27,0,78.54c0,1.26.28,2.61-.63,3.73l-12.16,0a5,5,0,0,1-.16-2.13q0-45.32,0-90.63a4.37,4.37,0,0,1,.18-2.12,1.54,1.54,0,0,1,.35-2.17c1.81-1.48,2.8-3.67,4.52-5.23a1,1,0,0,1,.29-.24,6.38,6.38,0,0,1,2-1.49c1.13-1.19,2.79-1.38,4.14-2.17C15.17,202.33,17.79,202.26,20.18,201.39Z"/><path class="cls-5" d="M71.06,10.09H25.77c.53-.53,1.21-.35,1.84-.35q20.8,0,41.6,0C69.84,9.76,70.51,9.58,71.06,10.09Z"/><path class="cls-6" d="M12.88,159.93v-4.3c1.13-.13,1.71.23,1.67,1.52-.08,2.64,0,5.29-.26,8Z"/><path class="cls-7" d="M104.73,10.09H80.16a1.75,1.75,0,0,1,1.41-.35h21.74A1.77,1.77,0,0,1,104.73,10.09Z"/><path class="cls-8" d="M126.74,10.1H111.23c1.64-.77,3.38-.35,5.06-.31C119.77,9.86,123.28,9.31,126.74,10.1Z"/><path class="cls-9" d="M12.88,96.48V89.16a.79.79,0,0,1,.78.85c0,1.87,0,3.74,0,5.61A.8.8,0,0,1,12.88,96.48Z"/><path class="cls-10" d="M141,10.2l-13.78-.11c3.57-.79,7.17-.19,10.75-.32C139,9.74,140.08,9.32,141,10.2Z"/><path class="cls-11" d="M143.58,202.27l-5.09-.51c1.29-1,3,.26,4.31-.8Z"/><path class="cls-12" d="M13.71,309.65c0-28.32-.08-56.64,0-85,0-7.59,3.72-11.44,11.9-12.85a98.17,98.17,0,0,1,13.19-1.44c23.56-.89,47.13-.1,70.69-.4,6.17-.08,12.27.76,18.4,1.16A31.82,31.82,0,0,1,138,213.4c5.55,2.27,8.57,6.22,9.61,12.32,2.09,12.29,1,24.62,1.13,36.92.22,15.67,0,31.34,0,47-.94,0-1.87,0-2.81,0H16.51C15.57,309.7,14.64,309.67,13.71,309.65Z"/><path d="M1.57,214.79q0,47.45,0,94.88c-.8-.51-.37-1.3-.37-1.93q0-45.4,0-90.8C1.19,216.24.72,215.37,1.57,214.79Z"/><path class="cls-13" d="M6.44,207.39c-1,2-2.71,3.6-4,5.45-.27.39-.42,0-.53-.22C3.26,210.74,4.27,208.56,6.44,207.39Z"/><path class="cls-14" d="M8.73,205.66a3.52,3.52,0,0,1-2,1.49A1.87,1.87,0,0,1,8.73,205.66Z"/><path class="cls-15" d="M159.3,213.9c-.88-.36-1.56-.86-1.47-2C158.68,212.33,159,213.14,159.3,213.9Z"/></g><g id="tWmlvL.tif"><path class="cls-16" d="M147.08,309a4,4,0,0,1-.64-2.87c0-4.17-.1-8.34,0-12.51a63.1,63.1,0,0,0-1.31-13.92c-.38-2-.28-3.69,1.22-5.17a2.82,2.82,0,0,0,.89-2.13c-.06-3.66.44-7.34-.53-10.95a6.06,6.06,0,0,1-.12-3c1.14-4.76.65-9.55.41-14.36a110,110,0,0,1,.11-15.72,97.91,97.91,0,0,0,.11-10.56c0-1.61-1-2.79-2-4a96.34,96.34,0,0,0-7.58-7.94c-1.45-.86-2.46-2.29-3.92-3.16-.71-.42-1.32-.6-1.78.31-3.89-.42-7.36-2.34-11.17-3.09-4-.78-8-2-12.13-1.69a5.8,5.8,0,0,1-2.53-.46,4.09,4.09,0,0,0-3.3.13c-2.42.95-5,.48-7.44.08-7.87-1.3-15.57.31-23.49-.64a31.07,31.07,0,0,0-6.87-.18c-12,1.15-24.44.08-36.41,1.72a83.07,83.07,0,0,1-10.75,1c3.92.07,9.83-1.28,15.87-.46a38.9,38.9,0,0,0,10.11-.08,31.82,31.82,0,0,1,3.23-.2c14.16-.31,28.32.2,42.47.55,10.82.27,21.68.77,32.32,3.29a33.06,33.06,0,0,1,20.59,14.18,10.79,10.79,0,0,1,1.77,6.14q0,41.52,0,83a3.68,3.68,0,0,1-.64,2.65"/><path class="cls-17" d="M143.63,309c0-27.83-.1-55.67.08-83.51a16.57,16.57,0,0,0-5.36-12.6,33,33,0,0,0-13.94-8.61A83.32,83.32,0,0,0,109,201.57c-11.71-1.08-23.47-1.12-35.22-1.47-9.41-.28-18.81-.27-28.22-.18-3.77,0-7.6.52-11.37.23a47.43,47.43,0,0,0-9.44-.24c-3.38.42-6.73.12-10.54.41a4.2,4.2,0,0,1,2.56-.95c7.19-.52,14.36-1.25,21.47-2.47,3.16-.53,6.4-.65,9.59-1,5.33-.54,10.65.61,16-.06,5.09-.63,10,.11,15.06.72,7.51.9,15,.92,22.54,1.33.14,0,.36.08.41,0,1.82-2.11,3.79-.44,5.75-.44,5.32,0,10.38,1.13,15.45,2.35,2.59.62,5.1,1.58,7.66,2.35.54.17,1,1,1.7.23.94-.24,1.12.67,1.62,1.08,1,.86,2,1.8,3.51,1.53A59.28,59.28,0,0,1,147,215.1a3.4,3.4,0,0,1,.84,1.71c0,3.87.17,7.76-.08,11.62a139.91,139.91,0,0,0,0,16.51c.24,4.34.78,8.73-.44,13a4.72,4.72,0,0,0-.13,2.75c1.35,4.08.52,8.26.75,12.39a1.5,1.5,0,0,1-.65,1.48c-1.78,1.21-2,2.77-1.55,4.86,2.23,9.76,1.08,19.69,1.34,29.55Z"/><path class="cls-18" d="M117.73,258c-1.13-2.14-.63-4.5-1.25-6.71-.83-3-2.08-4-5-4.45a60.48,60.48,0,0,0-9-.42c-5.18,0-10.38.25-15.53-.08-8.33-.53-16.67-.1-25-.42-4-.15-7.93-1.17-12-1.26-.5,0-1.13-.16-1-.8s.8-.4,1.25-.44a77.83,77.83,0,0,1,12,.49c5.42.4,10.84.33,16.26.35,6.38,0,12.75.49,19.14.52s12.43-.63,18.64-1c1.21-.07,1.53.2,1.53,1.3C117.72,249.37,117.73,253.68,117.73,258Z"/></g><g id="hAwH2t.tif"><path d="M162.34,309.05c-3.85,0-3.85,0-3.85-3.81q0-39.92.07-79.83c0-4.69,0-9.27-3-13.6h0c-3-3.73-2.81-3.59-5.75-.37a13.68,13.68,0,0,0-1.45,2c-1.2,2.14-2.52,4-.77,6.74,1.22,1.91,1.41,4.48,1.41,6.87v79.83c0,.44,0,.87,0,1.3,0,.85-.53.86-1.15.86s-1.14-.09-1.13-.9c0-.64,0-1.29,0-1.94q0-37.65-.08-75.3c0-3.38-.09-6.77-1.69-9.9-.89.06-.91.85-1.17,1.37-3.34,6.59-6.62,13.21-10,19.78a10.41,10.41,0,0,0-1.16,4.94q0,29.78,0,59.55c0,.58,0,1.15,0,1.73,0,.42-.2.66-.65.65s-.89,0-.93-.63,0-1.29,0-1.94q0-28.59-.08-57.18c0-3.77-.32-4.08-4-4.08H34.69c-3.11,0-3.11,0-3.11,3q0,29.13,0,58.26c0,.58,0,1.15,0,1.73s-.32.85-.94.84a.69.69,0,0,1-.77-.79c0-.57,0-1.15,0-1.72q0-30,0-60a8.08,8.08,0,0,0-.95-3.89c-3.6-6.84-7.32-13.63-10.29-20.79a10.48,10.48,0,0,0-1-1.55A5.17,5.17,0,0,0,16,224.39c-.34,23.88-.25,47.75-.17,71.63,0,3.81,0,7.62-.07,11.43,0,.75.25,1.65-1.07,1.61s-.85-.95-.85-1.55c0-4.39,0-8.78,0-13.16q0-34,0-68a15.67,15.67,0,0,1,1.77-8.08,1.52,1.52,0,0,0,.18-1.59A22.81,22.81,0,0,0,11,209.65c-.92-.84-1.54-.72-2.34.1a15.36,15.36,0,0,0-4.77,11.13c.06,28.7,0,57.4.11,86.1,0,1.72-.47,2.13-2.14,2.13s-1.81-.64-1.81-2q.06-26,0-52c0-10.93.16-21.87,0-32.8-.16-8,3.28-13.81,9.7-18.09a4,4,0,0,0,2-3.83q-.09-94.5-.07-189c0-1.65,0-3.31.05-5A6.44,6.44,0,0,1,18,0c1.5-.08,3,0,4.52,0H142.75c5.62,0,7.95,2.34,7.95,8q0,96.14,0,192.26a4,4,0,0,0,2.12,4,19.79,19.79,0,0,1,9.56,17.34Zm-21-204.11h-.07q0-46.06,0-92.12c0-2.08-.68-2.44-2.56-2.43q-57.62.07-115.22,0c-1.75,0-2.48.23-2.48,2.29q.08,92.34,0,184.68a3.05,3.05,0,0,1,0,.43c-.16,1.37.3,1.69,1.71,1.4a164.78,164.78,0,0,1,21.56-2.72A461.61,461.61,0,0,1,92,195.19c15.8.48,31.6,1.11,47.2,3.91,2,.36,2.2-.3,2.2-2Q141.29,151,141.33,104.94ZM81.16,243c16.17.11,32.34.68,48.51,0a2.68,2.68,0,0,0,2.42-1.8c3.64-7.16,7.22-14.35,10.88-21.51a2,2,0,0,0-.29-2.52,12.55,12.55,0,0,0-7.85-4.46c-5.42-.7-10.88-1-16.33-1.21-19-.87-37.95-.42-56.93-.44a268.27,268.27,0,0,0-34,1.66,12,12,0,0,0-7.19,3c-1.56,1.49-1.95,2.77-.63,4.55a19.33,19.33,0,0,1,1.4,2.67c2.88,5.7,5.81,11.37,8.62,17.1a4.51,4.51,0,0,0,4.82,2.94c5.38-.21,10.78-.06,16.17-.06Zm66.51-41.75v-1.94c.11-21.58.26-43.15.32-64.73,0-22.08,0-44.16,0-66.24q0-30.42,0-60.85c0-3.36-1.38-4.77-4.7-4.76-2.8,0-5.6.27-8.4.27q-27.82,0-55.66,0C59.6,3,40,2.82,20.33,2.74c-4.61,0-5.82,1.19-5.93,5.85,0,.72,0,1.44,0,2.16.2,23.44.37,46.87.12,70.31-.18,17.33-.25,34.66,0,52,.33,21.57.43,43.14.61,64.71,0,3.35,0,3.37,3.21,2.43.59-.18,1.66,0,1.47-1.1-.61-3.71-.26-7.45-.27-11.17,0-24.22.1-48.45,0-72.68-.09-15.75.42-31.49.4-47.24,0-18.85,0-37.69,0-56.53,0-1.73.41-2.48,2.27-2.37,2.44.13,4.89,0,7.34,0q25.13,0,50.27,0,30.21,0,60.41-.06c1.79,0,2.38.57,2.35,2.37-.1,5.68-.08,11.36-.05,17,.09,19.92-.19,39.84.26,59.76.24,10.78.08,21.57,0,32.36-.16,16.89.09,33.78.14,50.68,0,8.92,0,17.84,0,26.75,0,.7-.4,1.63.75,2S146.19,200.8,147.67,201.27Zm3.28,6.15a22.88,22.88,0,0,0-6.69-3.34c-8-2.31-16.21-3.11-24.45-3.79a453.19,453.19,0,0,0-58.38-1.19c-12.35.58-24.7,1.26-36.89,3.46-4.1.74-8.2,1.61-11.76,4-.45.3-1.76.54-.7,1.46,2.39,2.07,3.83,4.8,5.49,7.55A17.15,17.15,0,0,1,26.74,211a162.73,162.73,0,0,1,23.64-1.5c20.2-.19,40.4-.18,60.61-.09,6.3,0,12.62.5,18.91,1,5.21.38,10.53.63,14.52,5C146.14,212.17,147.66,209.21,151,207.42Z"/><path d="M80.7,304H51.57c-3,0-3.23-.25-3.23-3.18q0-20.61,0-41.21c0-2.45.93-3.37,3.41-3.37q29.66,0,59.32.07c2.32,0,3.5,1,3.51,3.35q0,20.28,0,40.56c0,2.72-1.26,3.79-4.07,3.79H80.7Zm.73-2.19c9.93,0,19.85-.05,29.77,0,1.83,0,2.24-.54,2.23-2.29q-.12-19.64,0-39.26c0-1.57-.41-2.17-2-2.17q-29.88.08-59.76,0c-1.63,0-2.07.57-2.06,2.15q.09,19.85,0,39.69c0,1.55.42,1.88,1.9,1.87C61.44,301.76,71.44,301.79,81.43,301.79Z"/><rect class="cls-19" x="119.25" y="262.78" width="6.63" height="4.85" rx="0.71" ry="0.71"/><rect class="cls-19" x="119.25" y="273.98" width="6.63" height="4.85" rx="0.71" ry="0.71"/><rect class="cls-19" x="119.25" y="285.32" width="6.63" height="4.85" rx="0.71" ry="0.71"/><rect class="cls-19" x="119.25" y="296.66" width="6.63" height="4.85" rx="0.71" ry="0.71"/><rect class="cls-19" x="36.85" y="262.78" width="6.63" height="4.85" rx="0.71" ry="0.71"/><rect class="cls-19" x="36.85" y="273.98" width="6.63" height="4.85" rx="0.71" ry="0.71"/><rect class="cls-19" x="36.85" y="285.32" width="6.63" height="4.85" rx="0.71" ry="0.71"/><rect class="cls-19" x="36.85" y="296.66" width="6.63" height="4.85" rx="0.71" ry="0.71"/></g><path class="cls-20" d="M135.45,197.32a525,525,0,0,0-106.36,0c-2.18.22-4.34.58-6.49,1-1.88.35-3.05.2-3.05-2.2L19.85,7H142.42l.37,190.35C142.79,200.16,138.29,197.32,135.45,197.32Z"/><text class="cls-21" transform="translate(56.69 85.36)"><tspan class="cls-22">Y<tspan class="cls-23" x="12.39" y="0">our</tspan></tspan><tspan x="0" y="27.22">Ad</tspan><tspan x="0" y="54.44">Here</tspan></text></g></svg>