<svg xmlns="http://www.w3.org/2000/svg" viewBox="0 0 400 400"><defs><style>.cls-1{fill:#aab7be;opacity:0.18;}.cls-2{fill:#1e1432;}.cls-3{fill:#fbfaf6;}.cls-4{fill:#c3cafe;}.cls-5{fill:#040404;}.cls-6{fill:#030204;}.cls-7{fill:#121213;}.cls-8{fill:#0c0c0c;}.cls-9{fill:#050308;}.cls-10{fill:#060606;}.cls-11{fill:#060509;}.cls-12{fill:#a0a6d6;}.cls-13{fill:#494a50;}.cls-14{fill:#6d6e76;}.cls-15{fill:#747581;}.cls-16{fill:#fefefe;}.cls-17{fill:#f2f6f8;}.cls-18{fill:#bcc0e4;}.cls-19{fill:#231f20;}.cls-20{fill:#f7c4a1;}.cls-21{font-size:22.68px;fill:#fff;font-family:Heebo-Bold, Heebo;font-weight:700;}.cls-22{letter-spacing:-0.07em;}.cls-23{letter-spacing:0em;}</style></defs><title>retargeting-1</title><g id="Layer_2" data-name="Layer 2"><polygon class="cls-1" points="268.04 105.96 131.84 157.57 131.85 223.64 268.16 133.74 268.04 105.96"/><path class="cls-1" d="M131.86,291.09l83.94-.76,52.34-39.26V200.22C264.45,202.46,177.1,254,131.86,291.09Z"/><g id="DH0Hhi.tif"><path class="cls-2" d="M133.8,92.69H266.3a4.94,4.94,0,0,1,2.43,4.93c0,.71,0,1.43,0,2.15v190.5a15.74,15.74,0,0,1-.25,4.28,1.14,1.14,0,0,1-1.71.67c-1.53-.69-3.25-.92-4.65-1.94-.51-.6-.85-1.31-1.34-1.92-1.48-1.51-1.67-3.4-1.67-5.39q0-27.93,0-55.85,0-62.43,0-124.86a12.66,12.66,0,0,0-.21-3.42,1.49,1.49,0,0,0-1.42-.78c-3.78.07-7.57-.18-11.35.16a3.3,3.3,0,0,1-.77,0,103.49,103.49,0,0,0-15.35.15,25.71,25.71,0,0,1-6.5,0,8.26,8.26,0,0,0-2.32-.3H201.3a8.27,8.27,0,0,0-2.32.31,46.32,46.32,0,0,1-9.12,0,9.67,9.67,0,0,0-3-.31H147.52a9.62,9.62,0,0,0-3,.33c-4,.47-4,.47-4,4.68V286.91c0,1.86.21,3.78-1.28,5.28-2.23,1.51-4.87,1.67-7.4,2.17-.26.05-.47-.27-.6-.53a7.92,7.92,0,0,1-.31-3q0-18.42,0-36.82a7.66,7.66,0,0,1,.32-3c.94-1,1.13,0,1.37.57.46,1.11.16,2.36.63,3.78a21,21,0,0,1-.5-5.38,4.3,4.3,0,0,0-1.5-4,7.91,7.91,0,0,1-.33-3V190.57a10.38,10.38,0,0,1,.25-3,10.39,10.39,0,0,0,0-8.06,14.25,14.25,0,0,1-.26-3.85c0-25.57,0-51.13,0-76.69C130.89,96.31,131.08,94,133.8,92.69Z"/><path d="M279.63,306.77l.48.85v92.8h-.19l-.2,0c-1-1.15-.73-2.58-.73-3.92q0-41.4,0-82.8c0-1.65,0-3.31-.14-5C278.79,308,278.5,307.05,279.63,306.77Z"/><path class="cls-3" d="M189.89,100.81H199q12.28-.33,24.57,0h6.49q7.77-.33,15.52,0H246a102.2,102.2,0,0,1,13.78.11q0,91.26,0,182.52c0,2.86-.58,5.88,1.8,8.23-.22,1.09-1.13.94-1.87,1-.93.06-1.86.08-2.78.2-11.56-2.26-23.26-2-35-2.31-10-.25-19.93-.69-29.91-.75-5.51,0-11,.67-16.53,1-5.08.35-10.17.64-15.24,1.1a84.81,84.81,0,0,1-12.45,0,23.54,23.54,0,0,0-6.43.47,2.5,2.5,0,0,1-2.46-.28c-.19-.14-.88-.24-.56-.32,1.74-.44,1.39-1.72,1.39-2.87V104.33c0-3.43,0-3.43,3.47-3.46.43,0,.86,0,1.29-.05a3,3,0,0,1,1.27-.14h42.75A3.22,3.22,0,0,1,189.89,100.81Z"/><path class="cls-4" d="M139,292.1a35.42,35.42,0,0,1,11.09-.83c8.26.89,16.4-.64,24.6-1,8.43-.4,16.84-1.47,25.3-1.12,11.53.48,23.07.65,34.61.93,3.72.09,7.5-.14,11.15.42,3.86.6,7.83.67,11.56,2a8.25,8.25,0,0,1,5.09.51l5.6,2.11c2.56,2.06,5.14,4.12,7.67,6.22a6.15,6.15,0,0,1,1,1.35,4.92,4.92,0,0,0,1.47,1.94c.39.8,1.4,1.16,1.5,2.16a.82.82,0,0,0-.38,1.25c.64,1.07.42,2.21.42,3.32q0,43.34,0,86.67c0,.79,0,1.58,0,2.37H267.57c-.92-1.12-.64-2.47-.64-3.74q0-34.85,0-69.69a57.07,57.07,0,0,0-2-13.83c-1-4.09-4.21-6.59-8-8.23-4.22-1.83-8.71-2.33-13.25-2.63-26.87-1.83-53.77-.54-80.66-.77A77.51,77.51,0,0,0,141.64,304c-4.9,1.35-7.7,4.46-8.23,9.58a42.76,42.76,0,0,0-.23,4.52q0,39.27,0,78.54c0,1.27.28,2.62-.64,3.74H120.38a5,5,0,0,1-.16-2.13q0-45.3,0-90.62a4.36,4.36,0,0,1,.18-2.12,1.55,1.55,0,0,1,.35-2.18c1.81-1.47,2.8-3.67,4.52-5.23a1.37,1.37,0,0,1,.29-.24,6.2,6.2,0,0,1,2-1.48c1.13-1.19,2.79-1.38,4.14-2.17C134,293.05,136.62,293,139,292.1Z"/><path class="cls-5" d="M189.89,100.81H144.6c.53-.53,1.21-.36,1.84-.36H188C188.67,100.47,189.34,100.3,189.89,100.81Z"/><path class="cls-6" d="M131.71,250.65v-4.3c1.13-.13,1.71.22,1.67,1.52-.08,2.64,0,5.28-.27,8Z"/><path class="cls-7" d="M223.56,100.81H199a1.75,1.75,0,0,1,1.41-.35h21.74A1.77,1.77,0,0,1,223.56,100.81Z"/><path class="cls-8" d="M245.57,100.81H230.05c1.65-.77,3.39-.36,5.07-.32C238.6,100.58,242.11,100,245.57,100.81Z"/><path class="cls-9" d="M131.71,187.2v-7.32a.8.8,0,0,1,.78.85c0,1.87,0,3.73,0,5.6A.81.81,0,0,1,131.71,187.2Z"/><path class="cls-10" d="M259.81,100.92,246,100.81c3.56-.8,7.17-.2,10.75-.32C257.78,100.45,258.91,100,259.81,100.92Z"/><path class="cls-11" d="M262.41,293l-5.09-.51c1.29-1,3,.26,4.31-.81Z"/><path class="cls-12" d="M132.53,400.37c0-28.32-.07-56.65,0-85,0-7.59,3.72-11.44,11.9-12.86a99.82,99.82,0,0,1,13.19-1.44c23.56-.88,47.13-.09,70.69-.39,6.17-.08,12.27.75,18.4,1.16a31.61,31.61,0,0,1,10.08,2.25c5.55,2.27,8.57,6.21,9.61,12.32,2.08,12.28,1,24.61,1.13,36.92.22,15.66,0,31.34,0,47-.94,0-1.87.05-2.81.05H135.34C134.4,400.42,133.47,400.39,132.53,400.37Z"/><path d="M120.4,305.51q0,47.43,0,94.87c-.8-.5-.37-1.29-.37-1.93q0-45.39,0-90.79C120,307,119.55,306.09,120.4,305.51Z"/><path class="cls-13" d="M125.27,298.1c-1,2-2.71,3.6-4,5.45-.27.4-.42,0-.53-.22C122.09,301.45,123.1,299.27,125.27,298.1Z"/><path class="cls-14" d="M127.56,296.38a3.46,3.46,0,0,1-2,1.48A1.87,1.87,0,0,1,127.56,296.38Z"/><path class="cls-15" d="M278.13,304.61c-.88-.35-1.56-.86-1.47-1.94C277.51,303,277.78,303.86,278.13,304.61Z"/></g><g id="tWmlvL.tif"><path class="cls-16" d="M265.91,399.72a4,4,0,0,1-.64-2.87c0-4.17-.1-8.34,0-12.51A63.1,63.1,0,0,0,264,370.42c-.38-2-.29-3.7,1.22-5.17a2.84,2.84,0,0,0,.89-2.14c-.07-3.65.43-7.33-.53-10.94a6.1,6.1,0,0,1-.12-3c1.14-4.76.65-9.55.41-14.36a108.54,108.54,0,0,1,.1-15.72,95.19,95.19,0,0,0,.12-10.55c0-1.61-1-2.79-2-4a94.78,94.78,0,0,0-7.58-7.94c-1.45-.87-2.46-2.29-3.92-3.16-.71-.43-1.32-.6-1.78.31-3.89-.43-7.37-2.35-11.17-3.09-4-.79-8-2-12.13-1.7a5.53,5.53,0,0,1-2.53-.46,4.05,4.05,0,0,0-3.3.14c-2.42.95-5,.47-7.44.07-7.87-1.3-15.57.32-23.49-.64a30.48,30.48,0,0,0-6.87-.17c-12,1.14-24.44.08-36.41,1.72a83.07,83.07,0,0,1-10.75,1c3.92.06,9.83-1.28,15.87-.46a39.34,39.34,0,0,0,10.11-.08,29.17,29.17,0,0,1,3.23-.2c14.16-.31,28.32.2,42.47.55,10.81.27,21.68.77,32.32,3.28a33.12,33.12,0,0,1,20.59,14.19A10.76,10.76,0,0,1,263.1,314q0,41.52,0,83a3.69,3.69,0,0,1-.64,2.66"/><path class="cls-17" d="M262.46,399.72c0-27.84-.1-55.68.08-83.51a16.54,16.54,0,0,0-5.36-12.6A33.1,33.1,0,0,0,243.24,295a82.61,82.61,0,0,0-15.37-2.7c-11.71-1.08-23.47-1.13-35.22-1.47-9.41-.28-18.82-.27-28.22-.18-3.78,0-7.6.51-11.37.23a48.2,48.2,0,0,0-9.44-.25c-3.38.42-6.73.13-10.54.42a4.22,4.22,0,0,1,2.56-1c7.19-.51,14.36-1.25,21.47-2.46,3.16-.54,6.39-.66,9.59-1,5.32-.55,10.65.6,16-.06,5.1-.64,10,.11,15.07.71,7.51.9,15,.92,22.54,1.33.14,0,.36.08.41,0,1.82-2.11,3.79-.45,5.75-.45,5.31,0,10.38,1.14,15.45,2.36,2.59.62,5.1,1.57,7.66,2.35.54.17,1,1,1.7.22.93-.23,1.12.68,1.62,1.09,1,.85,2,1.79,3.51,1.52a59.35,59.35,0,0,1,9.5,10.09,3.49,3.49,0,0,1,.84,1.7c.05,3.88.16,7.76-.08,11.62a139.91,139.91,0,0,0,0,16.51c.23,4.34.78,8.73-.44,13a4.76,4.76,0,0,0-.13,2.76c1.35,4.07.51,8.26.75,12.39a1.5,1.5,0,0,1-.65,1.48c-1.78,1.2-2,2.77-1.55,4.86,2.22,9.75,1.08,19.69,1.34,29.55Z"/><path class="cls-18" d="M236.56,348.71c-1.13-2.15-.63-4.51-1.25-6.72-.83-2.95-2.08-4-5.05-4.45a63.36,63.36,0,0,0-9-.42c-5.18,0-10.38.26-15.53-.07-8.34-.53-16.67-.1-25-.42-4-.16-7.93-1.17-11.95-1.27-.5,0-1.13-.15-1-.79s.8-.41,1.25-.44a77.83,77.83,0,0,1,12,.48c5.42.41,10.84.33,16.26.36,6.38,0,12.75.49,19.14.51,6.24,0,12.43-.63,18.64-1,1.21-.08,1.53.2,1.53,1.3C236.55,340.09,236.56,344.4,236.56,348.71Z"/></g><g id="hAwH2t.tif"><path d="M281.17,399.77c-3.85,0-3.85,0-3.85-3.81q0-39.91.06-79.84c0-4.68,0-9.26-3-13.6h0c-3-3.72-2.81-3.59-5.75-.36a12.9,12.9,0,0,0-1.45,2c-1.2,2.14-2.52,4-.77,6.75,1.22,1.9,1.41,4.47,1.41,6.86v79.84c0,.43,0,.86,0,1.3,0,.85-.53.85-1.15.86s-1.14-.1-1.13-.9c0-.65,0-1.3,0-1.94q0-37.67-.08-75.31c0-3.38-.09-6.76-1.69-9.89-.89.06-.91.84-1.17,1.36-3.34,6.59-6.62,13.22-10,19.79a10.29,10.29,0,0,0-1.16,4.94q0,29.78,0,59.55c0,.58,0,1.15,0,1.73,0,.42-.2.66-.65.65s-.89-.06-.93-.63,0-1.29,0-1.94q0-28.59-.08-57.18c0-3.77-.32-4.08-4-4.08H153.52c-3.11,0-3.11,0-3.11,3q0,29.13,0,58.26c0,.57,0,1.15,0,1.72s-.32.86-.94.84-.77-.27-.77-.78,0-1.15,0-1.73q0-30,0-60a8.05,8.05,0,0,0-.95-3.89c-3.6-6.85-7.32-13.63-10.29-20.79a9,9,0,0,0-1-1.55,5.17,5.17,0,0,0-1.53,4.07c-.34,23.87-.25,47.75-.17,71.62,0,3.82,0,7.63-.07,11.44,0,.75.25,1.65-1.07,1.61s-.85-.95-.85-1.56c0-4.38,0-8.77,0-13.16q0-34,0-68a15.57,15.57,0,0,1,1.77-8.08,1.5,1.5,0,0,0,.18-1.58,22.69,22.69,0,0,0-4.81-7.06c-.92-.85-1.54-.73-2.34.09a15.36,15.36,0,0,0-4.77,11.14c.06,28.7,0,57.4.11,86.09,0,1.72-.48,2.13-2.14,2.14s-1.81-.64-1.81-2q.06-26,0-52c0-10.94.16-21.87-.06-32.8-.15-8,3.29-13.82,9.71-18.1a4,4,0,0,0,2-3.82q-.09-94.51-.08-189c0-1.65,0-3.31.06-5a6.45,6.45,0,0,1,6.31-6.36c1.51-.07,3,0,4.53,0H261.58c5.62,0,7.95,2.33,7.95,8q0,96.12,0,192.25a4,4,0,0,0,2.12,4,20.6,20.6,0,0,1,6.06,5.71,20.2,20.2,0,0,1,3.5,11.64Zm-21-204.11h-.08q0-46.07.05-92.13c0-2.08-.68-2.43-2.56-2.43q-57.62.08-115.22,0c-1.76,0-2.49.24-2.48,2.29q.07,92.34,0,184.69a3.09,3.09,0,0,1,0,.43c-.16,1.37.3,1.68,1.71,1.39a164.76,164.76,0,0,1,21.56-2.71,458.74,458.74,0,0,1,47.63-1.28c15.8.48,31.6,1.11,47.2,3.91,2,.35,2.2-.3,2.2-2Q260.12,241.72,260.16,195.66ZM200,333.73c16.17.11,32.34.68,48.51,0a2.71,2.71,0,0,0,2.42-1.8c3.64-7.16,7.22-14.36,10.88-21.51a2,2,0,0,0-.29-2.52,12.56,12.56,0,0,0-7.85-4.47c-5.42-.69-10.88-1-16.33-1.21-19-.86-38-.41-56.93-.44a270.15,270.15,0,0,0-34,1.67,12,12,0,0,0-7.19,3c-1.56,1.5-2,2.78-.63,4.56a18.78,18.78,0,0,1,1.4,2.67c2.88,5.69,5.81,11.36,8.62,17.1a4.53,4.53,0,0,0,4.82,2.94c5.38-.21,10.78-.07,16.17-.07ZM266.5,292V290c.11-21.57.26-43.15.32-64.72.05-22.08,0-44.16,0-66.24q0-30.42,0-60.85c0-3.37-1.39-4.77-4.7-4.76-2.8,0-5.6.26-8.4.27q-27.83,0-55.66,0c-19.63,0-39.27-.18-58.9-.27-4.61,0-5.82,1.2-5.93,5.86,0,.72,0,1.44,0,2.16.2,23.43.37,46.87.12,70.31-.18,17.32-.25,34.66,0,52,.33,21.57.43,43.14.61,64.71,0,3.35,0,3.37,3.21,2.42.59-.17,1.66.05,1.47-1.1-.61-3.71-.27-7.44-.27-11.16-.06-24.23.1-48.46,0-72.69-.09-15.75.42-31.49.4-47.24,0-18.84,0-37.68,0-56.53,0-1.72.41-2.47,2.27-2.37,2.44.14,4.89,0,7.34,0q25.13,0,50.27,0,30.21,0,60.41-.07c1.79,0,2.38.57,2.35,2.37-.1,5.68-.08,11.37-.05,17,.09,19.92-.19,39.84.26,59.76.24,10.78.08,21.56,0,32.35-.15,16.89.1,33.79.15,50.69,0,8.91,0,17.83,0,26.75,0,.7-.4,1.63.75,2S265,291.51,266.5,292Zm3.27,6.16a22.47,22.47,0,0,0-6.68-3.34c-8-2.31-16.22-3.12-24.45-3.8a451.51,451.51,0,0,0-58.39-1.18c-12.34.57-24.69,1.25-36.88,3.46-4.11.74-8.2,1.61-11.76,4-.45.31-1.76.55-.7,1.47,2.39,2.07,3.83,4.8,5.49,7.55a17.15,17.15,0,0,1,9.17-4.57,162.73,162.73,0,0,1,23.64-1.5c20.2-.2,40.4-.19,60.6-.09,6.31,0,12.62.5,18.92,1,5.21.39,10.53.64,14.52,5C265,302.89,266.49,299.93,269.77,298.14Z"/><path d="M199.53,394.7H170.4c-3,0-3.23-.24-3.23-3.17q0-20.61,0-41.21c0-2.45.93-3.37,3.41-3.37q29.66,0,59.32.06c2.32,0,3.5,1.05,3.5,3.36q0,20.28,0,40.56c0,2.72-1.26,3.78-4.07,3.78H199.53Zm.73-2.19c9.92,0,19.85-.05,29.77,0,1.83,0,2.24-.53,2.23-2.29q-.12-19.63,0-39.26c0-1.57-.41-2.16-2.05-2.16q-29.88.06-59.76,0c-1.63,0-2.07.57-2.06,2.15q.09,19.85,0,39.69c0,1.55.42,1.87,1.9,1.86C180.27,392.48,190.27,392.51,200.26,392.51Z"/><rect class="cls-19" x="238.08" y="353.5" width="6.63" height="4.85" rx="0.71" ry="0.71"/><rect class="cls-19" x="238.08" y="364.69" width="6.63" height="4.85" rx="0.71" ry="0.71"/><rect class="cls-19" x="238.08" y="376.03" width="6.63" height="4.85" rx="0.71" ry="0.71"/><rect class="cls-19" x="238.08" y="387.37" width="6.63" height="4.85" rx="0.71" ry="0.71"/><rect class="cls-19" x="155.68" y="353.5" width="6.63" height="4.85" rx="0.71" ry="0.71"/><rect class="cls-19" x="155.68" y="364.69" width="6.63" height="4.85" rx="0.71" ry="0.71"/><rect class="cls-19" x="155.68" y="376.03" width="6.63" height="4.85" rx="0.71" ry="0.71"/><rect class="cls-19" x="155.68" y="387.37" width="6.63" height="4.85" rx="0.71" ry="0.71"/></g><path class="cls-20" d="M254.28,288a523.57,523.57,0,0,0-106.36,0c-2.18.21-4.34.58-6.49,1-1.88.35-3.05.2-3.05-2.21l.29-189.1H261.25L261.62,288C261.62,290.88,257.12,288,254.28,288Z"/><text class="cls-21" transform="translate(175.52 176.08)"><tspan class="cls-22">Y<tspan class="cls-23" x="12.39" y="0">our</tspan></tspan><tspan x="0" y="27.22">Ad</tspan><tspan x="0" y="54.44">Here</tspan></text></g></svg>