<svg xmlns="http://www.w3.org/2000/svg" viewBox="0 0 182.87 204.4"><defs><style>.cls-1{fill:#ffdf47;}.cls-2{fill:#a0a6d6;}.cls-3{fill:#8c7c77;}.cls-4{fill:#0d3698;}</style></defs><title>statistics</title><g id="Layer_2" data-name="Layer 2"><rect class="cls-1" x="55.62" y="116.12" width="20.99" height="39.16"/><rect class="cls-1" x="84.99" y="100.21" width="20.99" height="55.07"/><rect class="cls-1" x="115.17" y="84.09" width="20.99" height="71.19"/><rect class="cls-1" x="142.91" y="62.91" width="20.99" height="92.38"/><path class="cls-2" d="M0,145.11V204.4s32-3.1,34.8-4.79S36,189.78,36,189.78l-1.54-4-.76-6.33-1.66-25.17.38-15.7-1.62,1.59Z"/><path class="cls-3" d="M177.14,143l3.05,1.94,2.64,4.63-1.12,2.64c-.53,1.91-.74,3.32-2.2,4.69-13.36,12.59-32.2,18.9-48.81,26-9.73,4.12-19.19,8.23-30,6.92-11.09-1.33-22.43-5-33.62-4.8A163.93,163.93,0,0,0,41,187.5a27,27,0,0,1-4.81.9c-1.88,0-1.43.16-1.92-1.57a32.21,32.21,0,0,1-.57-4.93l-1.09-8.8L32.08,161a93.63,93.63,0,0,1,1.66-18.69l8-2.41,10.45-2.47,14.25-5.13,6.35-1.82,5.65-2.13h7.76l6.92.94,6.63,1.95,7.66,1.36,11,1.37,5.78.61,9,.15h6.21l5.08.76,6.35.61,3.25,2.7v2.66L152,145.38,146.51,148l-2.82,1.52-6.18,1.07-3.56.3-7.62.45-5.5.46-5.18,1.07-2.06,1.42,4.23.9,6.63,1.95,8.53-.54,6.78-.08,9.75-1.33L158,153l7.92-4.24,6.54-3.14,4.71-2.56"/><g id="NhFLnu.tif"><path d="M114.83,152.64a32.94,32.94,0,0,0,12,2.39c14.78.75,31.85-2.16,44.57-9.81A26.9,26.9,0,0,1,174.8,143c4.5-1.91,7.65.82,8,5.11.55,6.26-5.05,10.13-10.1,12.9-6.87,3.76-13.63,7.75-21,10.57-7.87,3-15.34,6.85-23.07,10.13-9.41,4-20,6.34-30.29,4.82-4.59-.68-9-2.06-13.63-2.79-15-2.4-31.73-2.42-46.51,1.23-2.14.53-2.52,1.38-2.18,3.16a43.58,43.58,0,0,1,.29,8.47c0,1.15-.37,1.87-1.72,2-6.74.68-13.47,1.94-20.27,1.54-2.38-.13-4.74-.57-7.71-1,7.15-1,13.7-1.85,20.26-2.71a26.62,26.62,0,0,1,3.34-.2c4,0,4.1,0,3.73-3.82-.55-5.7-1.42-11.37-2-17.07-.92-9.54-.44-35.36-1.15-35.27-5.47.69-13.49,2.17-18.89,3.26-3.59.73-7.21,1.35-10.82,2A.86.86,0,0,1,0,144.9c9.39-3,16-3.63,27.26-6,1.69-.36,3.75-1.11,5.2-.33,1.28.69,1.3,1.7,3.13,1.16,11.81-3.43,14.93-4.11,26.74-7.54,5.46-1.55,12.85-4.58,18.63-5,6.21-.43,10.41.48,16.34,2,10,2.64,28.31,4.4,38.78,4,4-.17,8,.72,12,1.11,3,.3,6.36,0,7.43,3.43a6.64,6.64,0,0,1-1.73,6.22,15.39,15.39,0,0,1-5.81,3.65,39.31,39.31,0,0,1-12.25,2.77C128.63,150.8,121.06,149.45,114.83,152.64Zm-7.52,4.75a9.49,9.49,0,0,1,.4-1.79c1.91-3.68,5.49-5,9.34-5.63,11.21-2,22.72-.46,33-6,2.57-1.38,2.93-3.3,2.49-6-.28-1.65-1.46-1.26-2.81-1.29-4.52-.09-9-1.43-13.53-1.1a65.48,65.48,0,0,1-13.65-.4c-8.14-1.14-23.18-3.08-31.16-5S78.5,129.1,70.7,132.12c-4.3,1.67-4.38,1.47-8.74,3a208.82,208.82,0,0,1-26.34,6.74C29.71,143,34.34,177,35,181.2c.32,2,.91,2.67,3.22,2.06C46.91,181,55.85,180.4,64.79,180c10.55-.47,20.81,1.8,31.13,3.41,10.5,1.64,20.61.93,30.41-3.33,3.06-1.33,5.91-3.05,9-4.3,6.47-2.62,13-5.19,19.35-8s12.1-6.53,18.13-9.82a22.87,22.87,0,0,0,5.4-4.14,7.63,7.63,0,0,0,1.08-8.69c-1-1.75-2.28-1.27-3.66-.21a29.76,29.76,0,0,1-5.77,3.22c-4.34,2-8.84,3.67-13.34,5.34-6.78,2.51-14,3.2-21.19,3.76s-14.36.63-21-2.28c-2.75-1.22-4-.24-5.67,1.16C108.4,156.4,108.13,156.66,107.31,157.39Z"/><path d="M138.1,143a2.34,2.34,0,0,1-.53-1.94,2.45,2.45,0,0,1,.88-1.09,8.7,8.7,0,0,1,7.05-1.74c-.54-.1-3.57,1.46-4.23,1.74A5.69,5.69,0,0,0,138.1,143Z"/></g><path d="M56.62,88.74l-7.61,16,1.64,3.48L59.34,90.5A5.21,5.21,0,0,1,56.62,88.74Z"/><path d="M145,9.91l-9.62,54.4-33.1-13.57a5.2,5.2,0,0,1-1.77,3.53l37.72,14.91,10.35-59A5.21,5.21,0,0,1,145,9.91Z"/><path d="M93.62,54.21,82.64,89,65.73,84.26a5.15,5.15,0,0,1-.24,3.18L84.88,92.9l12.2-37.37A5.15,5.15,0,0,1,93.62,54.21Z"/><path class="cls-4" d="M65.73,84.26a5.09,5.09,0,0,0-.34-1A5.21,5.21,0,1,0,56,87.7a5,5,0,0,0,.66,1,5.21,5.21,0,0,0,2.72,1.76,5.2,5.2,0,0,0,6.39-6.24Z"/><path class="cls-4" d="M102.27,50.74a5.2,5.2,0,1,0-9.16,3,5.9,5.9,0,0,0,.51.49,5.24,5.24,0,0,0,6.83.11l0,0A5.2,5.2,0,0,0,102.27,50.74Z"/><path class="cls-4" d="M151.17,1.84a5.21,5.21,0,1,0-7.95,6.73A5,5,0,0,0,145,9.91a5.2,5.2,0,0,0,6.18-8.07Z"/></g></svg>