<svg xmlns="http://www.w3.org/2000/svg" viewBox="0 0 400 400"><defs><style>.cls-1{fill:#fff;}.cls-2{fill:#9bd5ff;}.cls-3{fill:#63b7ea;}.cls-4{fill:#1855d1;stroke:#000;stroke-width:3px;}.cls-4,.cls-5{stroke-miterlimit:10;}.cls-5{fill:none;stroke:#fff;stroke-width:4px;}</style></defs><title>target anywhere</title><g id="Layer_1" data-name="Layer 1"><rect class="cls-1" width="400" height="234.87"/><rect class="cls-2" y="202.13" width="400" height="197.87"/></g><g id="Layer_2" data-name="Layer 2"><g id="DogESA.tif"><path class="cls-3" d="M223.74,296.45c7.81,1.34,15.74,1,23.6,1.65,36.79,2.94,73.12,8.28,108.16,20.4,15.1,5.23,29.63,11.65,42.27,21.78,2.63,2.1,3.71,4.3,2.68,7.53-29.75-24.78-66-32.66-102.53-39.29-37.6-6.82-75.66-8.68-113.82-7.62-44.26,1.22-88.08,5.9-130.53,19.34-18.63,5.9-36.64,13.19-51.48,26.54-.16.14-.5.09-.78.13-1.18-3.28.19-5.43,2.8-7.44,14.54-11.19,31.24-17.94,48.5-23.39,33-10.41,67-15.34,101.38-18,8-.62,16.07-.25,24-1.63Z"/><path class="cls-3" d="M129.28,400.15c-19.35,2.68-37.33-2.55-55.19-8.51C63.5,388.1,53.26,383.75,44,377.35a59,59,0,0,1-5.64-4.45c-12.64-11.32-12.59-24.26.23-35.41,10.09-8.77,22.16-13.9,34.6-18.2,24.28-8.37,49.41-12.58,74.85-15.19a485.22,485.22,0,0,1,68.07-2.46c40.7,1.55,81.05,5.68,119.55,20.3,9.26,3.51,18.11,7.88,25.84,14.21a45.92,45.92,0,0,1,4.07,3.69c9.74,10.19,9.61,21.32-.37,31.33a66.36,66.36,0,0,1-17.66,12.25c-16.78,8.4-34.66,13.6-53,16.85-7.1,1.26-14.61.21-22,0,13.15-2.28,26.27-4.67,39.14-8.18,12.4-3.38,24.55-7.42,35.94-13.5a66.27,66.27,0,0,0,12-7.93c11.95-10.21,11.91-20.57-.14-30.8a64.23,64.23,0,0,0-12-7.9c-17-8.91-35.33-14.1-54.06-17.65a495.1,495.1,0,0,0-185.13,0c-18.88,3.55-37.3,8.81-54.44,17.83a63.74,63.74,0,0,0-11.93,8c-11.59,9.94-11.64,20.31-.13,30.24a64.56,64.56,0,0,0,12.29,8.21c17,8.94,35.37,13.85,54,17.74C115,397.76,122,398.84,129.28,400.15Z"/><path class="cls-3" d="M201.29,307.43c30.15.37,60,3,88.79,12.7a90,90,0,0,1,21.72,10.26,34.54,34.54,0,0,1,9.54,8.89c4.25,6.19,4.28,12.33,0,18.49-3.9,5.61-9.44,9.25-15.33,12.36-13.6,7.18-28.26,11.25-43.28,13.93-46.09,8.22-92.05,7.79-137.74-2.93-11.55-2.7-22.74-6.56-33-12.65-4.76-2.81-9.19-6-12.4-10.68-4.27-6.18-4.29-12.31,0-18.48C83.45,333.7,89,330.06,94.88,327c14.37-7.59,29.92-11.56,45.78-14.38,7.76-1.38,15.6-2.46,23.45-3.26A329.59,329.59,0,0,1,201.29,307.43Zm-6.47,77.95c24.28.06,42.84-1.25,61.24-4.35,15-2.54,29.81-6.09,43.74-12.53A63.22,63.22,0,0,0,311.13,362c12.23-9.07,12.17-17.89-.16-26.95a64.35,64.35,0,0,0-11-6.34,146,146,0,0,0-31.7-10.2c-41.21-8.67-82.61-8.77-124.08-2.28-14.78,2.31-29.25,6-42.93,12.32a61.15,61.15,0,0,0-13.36,8.06c-9.73,8-9.71,16.13.19,24.06a64.67,64.67,0,0,0,8.46,5.57,86.74,86.74,0,0,0,15.08,6.58C140.46,382.63,170.32,384.92,194.82,385.38Z"/><path class="cls-3" d="M400.43,383.29c.8,8.53-12.41,17.8-24.51,17.11C385.15,395.46,393.24,390.57,400.43,383.29Z"/><path class="cls-3" d="M24.71,400.14c-11,1.46-24.16-7.51-23.43-15.86A99.62,99.62,0,0,0,24.71,400.14Z"/><path class="cls-3" d="M197.61,365.08c-17.17-.3-37.81-1.79-57.89-7.66-6.38-1.87-12.58-4.21-18-8.15-8.54-6.19-8.55-13.26.15-19.33,8.86-6.18,19.1-9,29.51-11,36.06-6.75,72-6.87,107.83,2.09a67.92,67.92,0,0,1,18,7.09c12.3,7.25,12.28,15.88-.15,23-8.9,5.13-18.76,7.61-28.74,9.58C232.79,363.87,217.05,365.07,197.61,365.08Zm.35-4.22c18.68-.05,34.28-1.1,49.68-4.26,10.5-2.15,21-4.57,30-10.85,6-4.21,6-7.86.07-12.19s-12.47-6.57-19.31-8.29c-36.64-9.21-73.43-8.91-110.25-1.24-8.82,1.84-17.53,4.49-24.85,10.14-4.89,3.77-4.85,7.08-.06,10.93,4.35,3.5,9.46,5.55,14.7,7.27C158.4,359.07,179.62,360.41,198,360.86Z"/><path class="cls-3" d="M201,320.14c11.46.08,22.82,1.06,33.88,4.27a30.72,30.72,0,0,1,10,4.52c4.67,3.48,4.64,7-.12,10.5a28.17,28.17,0,0,1-10,4.45c-24.91,6.2-49.7,6.14-74.18-2.14-3.57-1.2-7.23-3-7.84-7.47-.4-2.87,3.5-6.24,8.35-8C174,321.66,187.35,320.2,201,320.14Zm-.25,23.73a98.88,98.88,0,0,0,17.29-1c8.1-1,16.18-2.28,23.47-6.38,2.72-1.53,3.09-3,.12-4.7a30,30,0,0,0-7.76-3.25c-24.46-5.95-48.72-6.4-72.67,2.49-1.75.65-3.95,1.32-3.91,3.21,0,1.56,2.17,2.27,3.77,3C173.73,342.65,187.16,343.64,200.72,343.87Z"/><path class="cls-3" d="M203.32,339.67c-8.8,0-15-.59-20.89-2.68-1.83-.64-4.15-1.32-4.24-3.61s2.24-3.16,4.06-3.71a62.45,62.45,0,0,1,37.06-.07c1.85.56,4.21,1.32,4.24,3.6,0,2.54-2.5,3.18-4.46,3.86A49.58,49.58,0,0,1,203.32,339.67Zm-17.54-6.34a56.2,56.2,0,0,0,30.28-.09A56.7,56.7,0,0,0,185.78,333.33Z"/></g><path class="cls-4" d="M201.62,329.62c6.87-28,25.4-43.36,25.4-43.36,34.29-28.37,26.2-58.64,26.2-58.64-8.35-45.07-53.43-43.13-53.43-43.13h-.42s-45.11-.88-52.4,44.37c0,0-7.38,30.44,27.56,58,0,0,18.89,14.88,26.4,42.75"/><circle class="cls-5" cx="200.18" cy="237.4" r="35.42"/></g></svg>