<svg id="Layer_1" data-name="Layer 1" xmlns="http://www.w3.org/2000/svg" viewBox="0 0 113.15 113.14"><defs><style>.cls-1{fill:#fff;}</style></defs><title>Artboard 6</title><circle class="cls-1" cx="60.13" cy="60.11" r="53.03"/><path d="M54.28,0A54.2,54.2,0,0,0,38.1,2.45a1.25,1.25,0,1,0,.75,2.39A51.83,51.83,0,1,1,19.11,16.28l-.41,12.5a1.25,1.25,0,0,0,1.21,1.29H20a1.24,1.24,0,0,0,1.24-1.21l.5-15.38s0,0,0,0a1.28,1.28,0,0,0-.06-.43h0l0-.07a1.17,1.17,0,0,0-.19-.3l-.1-.1a1.44,1.44,0,0,0-.25-.18l-.13-.06a1.05,1.05,0,0,0-.35-.08l-.07,0H5.06a1.25,1.25,0,1,0,0,2.5H17.14A54.28,54.28,0,1,0,54.28,0Z"/><path d="M74.65,82.73a1.26,1.26,0,0,1-.89-.38l-25-25.5a1.27,1.27,0,0,1-.36-.88V29.82a1.25,1.25,0,0,1,2.5,0V55.46L75.55,80.6a1.26,1.26,0,0,1,0,1.77A1.24,1.24,0,0,1,74.65,82.73Z"/></svg>