<svg id="Layer_1" data-name="Layer 1" xmlns="http://www.w3.org/2000/svg" viewBox="0 0 86.45 70.35"><title>twitter</title><g id="HLt7Ht.tif"><path d="M28.64,70.35h-2.9c-.11,0-.22,0-.33,0a49.39,49.39,0,0,1-10-1.33A50.29,50.29,0,0,1,.56,62.79L0,62.43A37.32,37.32,0,0,0,13.8,61.3,35.34,35.34,0,0,0,26.17,55,17.76,17.76,0,0,1,9.64,42.7a17.49,17.49,0,0,0,3.95.29,15,15,0,0,0,3.88-.6A17.8,17.8,0,0,1,3.41,24.76a17.62,17.62,0,0,0,8,2.19A17.76,17.76,0,0,1,6,3.27,50.73,50.73,0,0,0,22.26,16.42a50.09,50.09,0,0,0,20.25,5.39c0-.08,0-.12,0-.16l0-.19a17.61,17.61,0,0,1,0-7.44A17.32,17.32,0,0,1,49,3.68a17.78,17.78,0,0,1,23.6,1.76.34.34,0,0,0,.38.12A35.09,35.09,0,0,0,83.3,1.74l.77-.43a17.38,17.38,0,0,1-3,5.6,18.9,18.9,0,0,1-4.69,4.18A35.23,35.23,0,0,0,86.45,8.34c-.09.13-.12.2-.17.26a35.35,35.35,0,0,1-8.46,8.75.39.39,0,0,0-.22.38,44.18,44.18,0,0,1-.13,6.3,50.14,50.14,0,0,1-1.39,8.06A52.94,52.94,0,0,1,70.5,45.72a49.75,49.75,0,0,1-13.29,15,47.41,47.41,0,0,1-16,7.78,44.12,44.12,0,0,1-6.33,1.29c-1.47.18-3,.3-4.43.44C29.85,70.29,29.24,70.31,28.64,70.35Z"/></g></svg>