<svg xmlns="http://www.w3.org/2000/svg" viewBox="0 0 400 400"><defs><style>.cls-1{fill:#fff;}.cls-2{fill:#fe4715;}.cls-3{fill:#edd3a5;}.cls-4{fill:#faf0e5;}.cls-5{fill:#ffdf47;}.cls-6{fill:none;}</style></defs><title>watching</title><g id="Layer_1" data-name="Layer 1"><rect class="cls-1" x="0.24" width="400" height="234.87"/><rect class="cls-2" y="202.13" width="400" height="197.87"/><path class="cls-3" d="M237.25,221.66s-17,4.92-7,26.91c0,0,8.87,15.68,9.66,23.38,0,0,1.67,6.27-11.51,16.82h0l15.18.3,5.17-19.81-13.1-32.49,1.62-15.11"/></g><g id="Layer_3" data-name="Layer 3"><path class="cls-4" d="M250.51,170.15l-7.88,15.67s-7.11,30.15-3.92,47.28c0,0,.92,17,15.69,21.88,0,0,13.91,3.69,13.52,17.74l7.11,5.54,17.28-6.83v-7.11l-3.48-13.52,13.66-28.15V203.83l-8.23-15.32-29.4-15.62Z"/><polygon class="cls-1" points="267.92 272.72 275.08 272.72 280.71 271.01 287.99 267.47 292.31 264.32 297.86 271.11 295.28 276.22 274.88 318.48 251.78 400 237.41 400.04 250.52 329.1 259.47 303.07 265.92 289.33 267.92 272.72"/><polygon class="cls-5" points="327.39 293.77 338.19 316.61 344.01 328.34 350.68 345.8 354.88 357.53 359.55 372.02 361.65 378.7 362.7 385.38 363.46 388.81 365.41 400.02 244.08 400.04 246.93 370.86 248.93 356.88 251.93 343.61 253.96 336.45 257.79 326.86 261.92 318.56 264.38 314.69 269.61 308.79 272.82 306.16 276.12 301.89 277.22 298.99 280.3 293.15 283.86 289.24 295.28 276.22 297.53 273.5 327.39 293.77"/><path class="cls-3" d="M291.05,186.81l3.44,4.77,6.31,16,.59,10.7-2.84,10.23-7.86,11.17L289.63,244l-.78,5.23.78,6.77,2.15,6.27,2.5,4.19,3.58,4.65,1.84,5.9.58,5.31-1.16,6.51-1.84,5-2.16,4.94-.84,6.88.84,7.36v5.9l2.55,4.46,4.82,2.13L305,320l5.43-6.88,6.1-6.29,9.87-10.55,1-4.65,1.55-8.23,10.27-4.26,7.39-5.43,1.22-7.26-1.22-3.39-7.1-5.32L335.72,254l-3.29-5.33-.2-6.68.78-8.71,1.64-4.17,3-10.55-.68-6.68-1.26-5.91L333.88,200l-.39-5.77-.68-7.34-4.93-10-3.2-6.74L316.55,162l-8.91-5.52-5.15-2.13-5.89-1.41-6.49-.91H273.85l-7.46,1.35-6.29,2.81-6,4.84-3.58,5.43-4.21,3.42-3.52,4.42L240.09,182s-1.29,2.16,2.69,9.55l-.15-5.76,7.88-15.67,7.48,4.5,19.63,6.54Z"/><polygon class="cls-3" points="237.89 220.24 239.79 238.77 244.76 249.25 254.4 254.98 263.19 260.26 267.42 267.79 267.42 287.61 260.89 295.59 250.51 299.19 239.89 297.49 232.25 300.04 228.59 302.67 224.29 308.39 219.7 309.38 221.75 303.94 223.02 298.44 224.36 293.5 228.38 288.77 233.75 284.81 237.89 281.85 241.02 278.88 242.36 276.34 242.29 270.41 241.3 265.68 239.89 260.6 236.85 253.33 233.4 246.62 231.7 240.34 231.91 234.19 232.83 229.54 234.6 224.59 237.89 220.24"/><path class="cls-5" d="M259.47,303.07s-15.61,45.8-19.58,97L197,400c-.43,1.44,2.59-26.64,31.47-82.8C228.48,317.2,253.54,312,259.47,303.07Z"/><path class="cls-5" d="M263.18,297.18s-17.51,48.58-22,102.85l-48.11,0c-.22,0,2.57-12,2.78-12.73a295.33,295.33,0,0,1,15.93-42c2.74-6,5.67-12,8.67-17.91q2.25-4.44,4.54-8.85c.86-1.66,1.94-5.23,3.63-6.29a3.71,3.71,0,0,1,1.09-.38C240.17,309.53,256.59,306.56,263.18,297.18Z"/><path class="cls-1" d="M329.1,292.16S366.48,356.89,365.41,400l-2.7,0c-2.94-25.42-18.45-63.42-36.29-103.75l2.68-4.13"/><path class="cls-3" d="M337.66,222.17s-6.58,26.51,8.14,34.67A12.54,12.54,0,0,1,352.52,269c-.54,5-3.51,10.51-12.9,13.32h0s-13.24,5.59-8.76,12.54h0l-8.95-2.7v-55.4"/></g><g id="Layer_2" data-name="Layer 2"><path class="cls-6" d="M256.82,257.21a71.29,71.29,0,0,1-7.08-3.6c-1.85-1.08-4-2.1-5.21-3.74a35.3,35.3,0,0,1-6.88-26.73,5.73,5.73,0,0,0-.4-1.48,25.75,25.75,0,0,0-2.21,3.19c-2.24,4.76-3.54,9.92-2.59,15a45.77,45.77,0,0,0,4.7,12.61c3.66,7,6.17,14.14,5.85,22.14a7.44,7.44,0,0,1-2.66,5.89c-3,2.43-6.11,4.84-9.3,7.06a16.43,16.43,0,0,0-6.93,9.6c-1,3.81-2,7.62-3.05,11.61,3-.41,4.42-2.92,5.89-5.07a13.49,13.49,0,0,1,10.65-6.12c4.72-.33,9.48-.09,14.2-.33,7.64-.39,14.35-6.66,14.78-13.73.21-3.48.26-7,.28-10.45C266.92,265.66,263.73,260.28,256.82,257.21Z"/><path class="cls-6" d="M288.35,246c.81-5.38,3.86-9.63,6.92-13.87,6.13-8.5,6.88-17.71,3.63-27.41a2.57,2.57,0,0,0-1.9-1.4c-6.21-.11-12.42-.05-18.62-.07-1.15,0-1.5.47-1.66,1.6a30.89,30.89,0,0,1-1.4,6.28c-3.37,8.9-14.58,9.57-20.51,4.66-3.78-3.12-4.7-7.46-4-12.14.27-1.87-.54-2.6-2.2-2.75s-2.87.26-2.87,2.32a7.91,7.91,0,0,1-3.47,6.36c-.59.46-1.14,1-1.8,1.57l4.07,7-.91.63-4.29-5.17a12.56,12.56,0,0,0-.52,2.14c-.23,8-.14,15.9,2.13,23.63,1.71,5.82,4.91,10.39,10.69,12.88,2.49,1.08,4.86,2.44,7.32,3.61,5.93,2.82,9.07,7.6,9.89,14,.35,2.81.62,3.06,3.39,2.85,7-.52,12.81-4,18.48-7.73,1.11-.73.73-1.51.3-2.5C288.73,257.17,287.48,251.74,288.35,246Zm-43.59-12.64c2.72.28,5.49.84,7.94-2C251.6,235.15,247.47,236,244.76,233.32Z"/><path class="cls-6" d="M275,191.58l-8.17-6.05C270.11,184.88,274.68,188.35,275,191.58Z"/><path class="cls-6" d="M314,263.62c-4.42-2.36-7.39-6.08-10-10.13a13.8,13.8,0,0,1-2.5-9.72,83.1,83.1,0,0,1,2.32-11.65c2.45-8,4.51-15.77,3.19-24.35-1.26-8.16-5.19-13.87-12.51-17.88,1.74,4.18,3.37,8,4.95,11.87a33.72,33.72,0,0,1,1.68,21.3,32.35,32.35,0,0,1-6.16,12c-5.68,7.26-6.67,15.32-3.44,23.65,1.71,4.4,4.66,8.34,7.15,12.42,3.26,5.33,3.14,11,1.58,16.69-1.35,5-3.16,9.77-4.55,14.71a25.49,25.49,0,0,0,.79,15.42,10.15,10.15,0,0,0,5.16,6.24,22,22,0,0,1,.81-2.07,19,19,0,0,1,2.34-4.13c6-6.58,12.29-12.93,18.18-19.62a17.32,17.32,0,0,0,4.38-10A24.25,24.25,0,0,0,324,273.76,25.88,25.88,0,0,0,314,263.62Z"/><path class="cls-6" d="M328.94,282.32c3.24-1.32,6.31-2.4,9.22-3.81a42.29,42.29,0,0,0,6.4-3.91,4.49,4.49,0,0,0,1.76-2.71c.61-5,.5-7.37-3.41-10.39-3.08-2.37-6-5-8.83-7.63-2.06-2-2.77-4.58-3-7.38-.63-6.48.74-12.59,3.12-18.57,3.76-9.45,3.5-18.62-2.07-27.39-2-3.17-3.75-6.56-6-9.56-3.63-4.85-7.16-9.87-11.46-14.08-8.28-8.12-18.82-11.66-30.2-12-9.59-.33-19.27-1.09-28.81,1.17a7.75,7.75,0,0,1,2.48-1c4.73-.71,9.46-1.7,14.22-1.89,6.39-.25,12.9-.51,19.18.41,12.72,1.85,22.91,8.35,30.33,19,3.28,4.68,6.43,9.45,9.65,14.18.37.55.76,1.09,1.4,2,0-.83,0-1.16,0-1.49-.53-8.56-4-16.14-7.76-23.64a23.86,23.86,0,0,0-7.1-8.62c-1.39-1.05-2.7-2.2-4.09-3.26-5.81-4.44-12.26-7.66-19.59-8.18a191.86,191.86,0,0,0-22.11-.34c-9,.4-15.71,5.16-20.85,12.31-1.49,2.08-1,3.36,1,4.91,4.89,3.68,10.49,5.66,16.3,7.29,11.65,3.27,23.13,6.87,32.33,15.38,2.93,2.71,5.25,5.69,6.12,9.51a48.9,48.9,0,0,1,.63,19.31c-1,5.95-3.14,11.7-4.35,17.62-.92,4.52-1.32,9.3,1.61,13.34a28.92,28.92,0,0,0,9.89,9.1,25.76,25.76,0,0,1,7.36,5.71c3.5,4,6.17,8.61,6.44,14.2A1.44,1.44,0,0,0,328.94,282.32Z"/><polygon points="240.09 184.96 240.09 184.96 240.1 184.95 240.09 184.96"/><path d="M364.49,400a89.52,89.52,0,0,0-2.24-20.38,160.77,160.77,0,0,0-4.48-16c-3.91-11.83-8.17-23.61-12.86-35.15-2.45-6.05-5.64-11.8-8.44-17.72q-3-6.33-5.88-12.7c-2.7-6-1.35-12.44-.08-13.48a14.29,14.29,0,0,1,4.36-2.7,33.41,33.41,0,0,0,11-5.87,6.76,6.76,0,0,0,2.24-2.93c1.28-4.35,1.2-9.9-3.7-13.31-2.17-1.5-4.19-3.22-6.25-4.89a13.89,13.89,0,0,1-5.33-11.07,38,38,0,0,1,2.85-14.68c3.17-8.16,3.48-16.26.16-24.44A16,16,0,0,1,335,201c-.62-4.2-.87-8.47-1.83-12.59a48.15,48.15,0,0,0-9-19.6,46.11,46.11,0,0,0-26.31-16.37,66.57,66.57,0,0,0-28.82-.56,30.38,30.38,0,0,0-18.83,13,7.67,7.67,0,0,0-1.06,2.85c-.3,1.59-.06,3.35-.64,4.8-1.25,3.16-3,6.11-4.28,9.25A5.67,5.67,0,0,1,241.4,185a3.59,3.59,0,0,0-2.07,2l-.19.5a7.2,7.2,0,0,1,3.49-1.73c-.71,2.78-1.41,3.81-3.72,3.54a17.91,17.91,0,0,0-7,.18c-6.18,1.86-8,6.8-8,12.7,0,5,4.73,10.19,9.71,10.59,3.68.3,3.73.3,3.67,4.11,0,1.26.09,3-.65,3.69-2.75,2.49-4.06,5.69-4.91,9.06-1.11,4.4-1.94,9-.5,13.4a57.49,57.49,0,0,0,4.41,10.15c3.69,6.63,6.32,13.46,5.91,21.23a6.62,6.62,0,0,1-2.28,5.16,77.3,77.3,0,0,1-7.62,5.8c-5.15,3.21-8.52,7.44-9.44,13.58-.48,3.22-1.15,6.48-3.36,9.1-.72.86-1.58,1.61-2.79,2.82,4.1-.13,7.62-.13,10.17-3.27,1-1.19,1.9-2.41,2.82-3.64a11.45,11.45,0,0,1,8.61-4.52,75.49,75.49,0,0,1,8.77-.24c4.69.16,9.18-.38,13.33-2.73.19-.11.48,0,1-.09a27.24,27.24,0,0,0-1.57,4.53c-.52,3.51-2.87,5.35-5.69,6.89-7.36,4-15.41,5.95-23.4,8.11a3,3,0,0,0-1.54,1.13,20.46,20.46,0,0,0-1,2.27,425.52,425.52,0,0,0-24.84,57.3c-1.21,3.41-1.78,7-2.65,10.57l.51.13c.28-.72.56-1.43.82-2.16,1.71-4.85,3.38-9.71,5.29-14.49,6.65-16.56,13.68-33,21.78-48.88a10.67,10.67,0,0,1,7-5.72c5.57-1.74,11-3.81,16.48-5.92a41,41,0,0,0,5.55-3.25c-4,15.57-8.2,30.57-11.75,45.72s-6.75,41.76-6.05,46.21c.23-1.62.47-3.06.65-4.51,2.55-20.57,6.06-40.95,11.59-60.95,2.3-8.32,4.69-16.62,7-24.93a45.37,45.37,0,0,1,1.88-6.37c1.33-3,3.13-5.71,4.53-8.64a21.48,21.48,0,0,0,2.05-5.87c.57-4,.85-8,1.05-12.07.08-1.67.69-2.25,2.27-2.12,5.67.49,10.7-1.25,15.35-4.39,2-1.32,4-2.45,6.16-3.73,1.52,1.73,3.07,3.42,4.53,5.18.88,1,.82,2-.21,3.11-4.35,4.61-8.69,9.24-12.89,14a39.62,39.62,0,0,0-7.86,13,10.17,10.17,0,0,1-2.9,4.4,53.86,53.86,0,0,0-16.58,22.61c-6.11,15.55-9.29,31.63-10.62,48.17C245,385,244.47,394.2,244,400h1.26c-.16-10.62,1.69-24.51,3.64-38.37a155,155,0,0,1,8-31.12,60.35,60.35,0,0,1,7.22-14.43c3.1-4.38,7.69-7.25,11-11.43,3.16-4,4.46-9,7.72-13,4-4.93,8.22-9.71,12.35-14.55.84-1,1.76-1.88,2.95-3.16,1.5,4.81,1.81,9.16.2,13.48-3.19,8.54-5.63,17.32-4.5,26.53.72,5.85,3.47,13.28,10.61,12.6-1-3.44.58-5.94,2.87-8.34,4.18-4.39,8.19-8.93,12.29-13.4,2.58-2.8,5.18-5.57,7.95-8.55.59,1.08,1.21,2.07,1.7,3.13,1.45,3.16,2.73,6.42,4.3,9.52a360.31,360.31,0,0,1,14.65,33.91c4.29,11.21,8.82,22.47,11.68,34.14,1.89,7.73,2.25,15.3,2.76,23.09ZM243.16,188.11c.41-1.33,0-2.57,2-2.94.93-.17,1.48-.23,3.09-.53A5.1,5.1,0,0,0,245,184l5.85-13a37.3,37.3,0,0,0,5.29,3.32c4.44,1.82,9,3.4,13.48,5,5.37,1.94,10.77,3.79,16.13,5.76a14.18,14.18,0,0,1,8.67,8.23c1.09,2.68,2.28,5.32,3.59,8.36-2.29.15-20.68.18-21.41-.34a5.22,5.22,0,0,1-1.37-1.71,18.17,18.17,0,0,0-2.8-4.36c-6.29-6.08-17.5-2.95-20.48,3.44-.47,1-1,1.51-2.23,1.2a20,20,0,0,0-3.9.07,9.1,9.1,0,0,0-1.85-7.26C242.55,191.08,242.57,190,243.16,188.11Zm23.42,95.43c-.43,7.07-7.14,13.34-14.78,13.73-4.72.24-9.48,0-14.2.33A13.49,13.49,0,0,0,227,303.72c-1.47,2.15-2.9,4.66-5.89,5.07,1.05-4,2.07-7.83,3.06-11.65a16.43,16.43,0,0,1,6.64-9.37c3.29-2.27,6.45-4.75,9.58-7.25a7.44,7.44,0,0,0,2.66-5.89c.32-8-2.19-15.15-5.85-22.14a45.77,45.77,0,0,1-4.7-12.61c-.95-5.11.35-10.27,2.59-15a25.75,25.75,0,0,1,2.21-3.19,5.73,5.73,0,0,1,.4,1.48,35.3,35.3,0,0,0,6.88,26.73c1.21,1.65,3.39,2.68,5.25,3.77a79,79,0,0,0,7.17,3.63c6.82,3.08,10,8.44,9.91,15.82C266.84,276.57,266.79,280.06,266.58,283.54Zm24.12-18.61c-5.67,3.76-11.46,7.21-18.48,7.73-2.77.21-3,0-3.39-2.85-.82-6.41-4-11.19-9.89-14-2.46-1.17-4.83-2.53-7.32-3.61-5.78-2.49-9-7.06-10.69-12.88-2.27-7.73-2.36-15.67-2.13-23.63a12.56,12.56,0,0,1,.52-2.14l4.29,5.17.35-.25c-1.35-2.3-2.14-5-3.51-7.35.66-.58,1.26-1,1.8-1.57a9.81,9.81,0,0,0,3.06-6.52c0-2.06,1.61-2.31,3.28-2.16s2.47.88,2.2,2.75c-.68,4.68.24,9,4,12.14,5.93,4.91,17.14,4.24,20.51-4.66a30.23,30.23,0,0,0,1.4-6.28,1.87,1.87,0,0,1,1.86-1.6c6.14,0,12.3,0,18.44.07a2.16,2.16,0,0,1,1.88,1.4c3.25,9.7,2.5,18.91-3.63,27.41-3.06,4.24-6.11,8.49-6.92,13.87-.87,5.78.38,11.21,2.65,16.47C291.43,263.42,291.81,264.2,290.7,264.93Zm36.6,23.45a17.32,17.32,0,0,1-4.38,10c-5.89,6.69-12.16,13-18.18,19.62a19,19,0,0,0-2.34,4.13,22,22,0,0,0-.81,2.07c-2.81-1.41-4.91-3.5-5.16-6.24-.5-5.57-2.26-10.24-.79-15.42,1.39-4.94,3.2-9.76,4.55-14.71,1.56-5.71,1.68-11.36-1.58-16.69-2.49-4.08-5.44-8-7.15-12.42-3.23-8.33-2.24-16.39,3.44-23.65a32.35,32.35,0,0,0,6.16-12,33.72,33.72,0,0,0-1.68-21.3c-1.58-3.85-3.21-7.69-4.95-11.87,7.32,4,11.25,9.72,12.51,17.88,1.32,8.58-.74,16.39-3.19,24.35a83.1,83.1,0,0,0-2.32,11.65,13.8,13.8,0,0,0,2.5,9.72c2.47,3.78,5.22,7.26,9.16,9.63a31.23,31.23,0,0,1,8.24,6.89A24.94,24.94,0,0,1,327.3,288.38Zm-5.57-21.44a24.73,24.73,0,0,0-6.84-5.11,28.9,28.9,0,0,1-9.85-9.07c-2.93-4-2.53-8.82-1.61-13.34,1.21-5.92,3.31-11.67,4.35-17.62a48.9,48.9,0,0,0-.63-19.31c-.87-3.82-3.19-6.8-6.12-9.51-9.2-8.51-20.68-12.11-32.33-15.38-5.81-1.63-11.41-3.61-16.3-7.29-2.06-1.55-2.5-2.83-1-4.91,5.14-7.15,11.89-11.91,20.85-12.31a191.86,191.86,0,0,1,22.11.34c7.33.52,13.78,3.74,19.59,8.18,1.39,1.06,2.7,2.21,4.09,3.26a23.86,23.86,0,0,1,7.1,8.62c3.77,7.5,7.23,15.08,7.76,23.64,0,.33,0,.66,0,1.49-.64-.92-1-1.46-1.4-2-3.22-4.73-6.37-9.5-9.65-14.18-7.42-10.6-17.61-17.1-30.33-19-6.28-.92-12.79-.66-19.18-.41-4.76.19-9.49,1.18-14.22,1.89a7.75,7.75,0,0,0-2.48,1c9.54-2.26,19.22-1.5,28.81-1.17,11.38.39,21.92,3.93,30.2,12,4.3,4.21,7.83,9.23,11.46,14.08,2.24,3,4,6.39,6,9.56,5.57,8.77,5.83,17.94,2.07,27.39-2.38,6-3.75,12.09-3.12,18.57.27,2.8,1,5.43,3,7.38,2.83,2.66,5.75,5.26,8.83,7.63,3.91,3,4,5.35,3.41,10.39a4.49,4.49,0,0,1-1.76,2.71,42.29,42.29,0,0,1-6.4,3.91c-2.91,1.41-6,2.49-9.22,3.81a1.44,1.44,0,0,1-.21-.55C328.44,275.89,325.51,271.1,321.73,266.94Z"/><path d="M240.09,185h0v0Z"/><path d="M239.54,183.38a8.67,8.67,0,0,0,.55,1.55c.42-6.3,3.32-11.43,8-16.14C243.7,170.58,238.82,179.26,239.54,183.38Z"/><path d="M235,322.8c-.08.21-.17.42-.26.63l2,1.74c-.91.31-1.73.82-2,.62a16,16,0,0,1-2.08-2.41,2.08,2.08,0,0,0,.51,3c1.13.87,2.55,1.13,3.56-.11a2.93,2.93,0,0,0,.54-2.48C237,323.22,235.78,323.11,235,322.8Z"/><path d="M244.76,233.32c2.71,2.68,6.84,1.83,7.94-2C250.25,234.16,247.48,233.6,244.76,233.32Z"/><path d="M266.87,185.53l8.17,6.05C274.68,188.35,270.11,184.88,266.87,185.53Z"/></g></svg>